<svg width="233" height="36" viewBox="0 0 233 36" fill="none" xmlns="http://www.w3.org/2000/svg">
<g clip-path="url(#clip0_0_426)">
<path d="M9.088 31.352C6.74133 31.352 4.88533 30.7013 3.52 29.4C2.15467 28.0773 1.472 26.2853 1.472 24.024V15.576C1.472 13.3573 2.15467 11.5973 3.52 10.296C4.88533 8.99467 6.74133 8.344 9.088 8.344C11.4347 8.344 13.2907 8.99467 14.656 10.296C16.0427 11.5973 16.736 13.3573 16.736 15.576V24.024C16.736 26.2853 16.0427 28.0773 14.656 29.4C13.2907 30.7013 11.4347 31.352 9.088 31.352ZM9.088 27.48C10.048 27.48 10.8053 27.192 11.36 26.616C11.936 26.0187 12.224 25.2293 12.224 24.248V15.448C12.224 14.4667 11.936 13.688 11.36 13.112C10.8053 12.5147 10.048 12.216 9.088 12.216C8.14933 12.216 7.392 12.5147 6.816 13.112C6.26133 13.688 5.984 14.4667 5.984 15.448V24.248C5.984 25.2293 6.26133 26.0187 6.816 26.616C7.392 27.192 8.14933 27.48 9.088 27.48ZM33.514 20.312C33.9407 21.2933 34.154 22.424 34.154 23.704C34.154 24.8347 33.962 25.9013 33.578 26.904C33.0447 28.2693 32.1807 29.336 30.986 30.104C29.7913 30.872 28.3727 31.256 26.73 31.256C25.1087 31.256 23.6793 30.8507 22.442 30.04C21.226 29.2293 20.3513 28.1307 19.818 26.744C19.562 26.0827 19.3913 25.24 19.306 24.216C19.306 23.8533 19.4873 23.672 19.85 23.672H23.306C23.6473 23.672 23.8393 23.8533 23.882 24.216C23.9247 24.728 24.0313 25.1973 24.202 25.624C24.394 26.1787 24.7033 26.616 25.13 26.936C25.578 27.2347 26.1007 27.384 26.698 27.384C27.8927 27.384 28.714 26.8613 29.162 25.816C29.4607 25.176 29.61 24.4293 29.61 23.576C29.61 22.6587 29.4393 21.8373 29.098 21.112C28.6287 20.1093 27.818 19.608 26.666 19.608C26.282 19.608 25.7913 19.8107 25.194 20.216C25.066 20.28 24.9593 20.312 24.874 20.312C24.7033 20.312 24.554 20.2373 24.426 20.088L22.73 17.816C22.6447 17.7093 22.602 17.5813 22.602 17.432C22.602 17.304 22.666 17.176 22.794 17.048L27.786 12.696C27.85 12.6533 27.8713 12.6107 27.85 12.568C27.8287 12.504 27.7753 12.472 27.69 12.472H20.298C19.9353 12.472 19.754 12.2907 19.754 11.928V9.144C19.754 8.78133 19.9353 8.6 20.298 8.6H33.322C33.6847 8.6 33.866 8.78133 33.866 9.144V12.28C33.866 12.536 33.77 12.76 33.578 12.952L29.386 16.76C29.258 16.888 29.3007 16.9733 29.514 17.016C31.37 17.3787 32.7033 18.4773 33.514 20.312Z" fill="#7B8BAD"/>
<path d="M110.968 19.288C110.883 19.3307 110.84 19.384 110.84 19.448C110.84 19.512 110.883 19.5653 110.968 19.608C111.864 20.1413 112.525 20.824 112.952 21.656C113.4 22.4667 113.624 23.448 113.624 24.6C113.624 26.7973 112.856 28.4187 111.32 29.464C109.784 30.488 107.789 31 105.336 31H96.856C96.4507 31 96.248 30.7973 96.248 30.392V9.208C96.248 8.80267 96.4507 8.6 96.856 8.6H105.048C107.779 8.6 109.827 9.09067 111.192 10.072C112.579 11.032 113.272 12.6533 113.272 14.936C113.272 16.92 112.504 18.3707 110.968 19.288ZM102.52 13.752C102.349 13.752 102.264 13.8373 102.264 14.008V17.016C102.264 17.1867 102.349 17.272 102.52 17.272H105.048C106.605 17.272 107.384 16.6853 107.384 15.512C107.384 14.3387 106.605 13.752 105.048 13.752H102.52ZM105.336 25.848C106.851 25.848 107.608 25.2187 107.608 23.96C107.608 22.7653 106.861 22.168 105.368 22.168H102.52C102.349 22.168 102.264 22.2533 102.264 22.424V25.592C102.264 25.7627 102.349 25.848 102.52 25.848H105.336ZM124.576 31.256C122.848 31.256 121.312 30.9253 119.968 30.264C118.645 29.6027 117.621 28.664 116.896 27.448C116.17 26.232 115.808 24.824 115.808 23.224V9.208C115.808 8.80267 116.01 8.6 116.416 8.6H121.216C121.621 8.6 121.824 8.80267 121.824 9.208V23.224C121.824 24.0987 122.069 24.8027 122.56 25.336C123.072 25.848 123.744 26.104 124.576 26.104C125.386 26.104 126.037 25.8373 126.528 25.304C127.04 24.7707 127.296 24.0773 127.296 23.224V9.208C127.296 8.80267 127.498 8.6 127.904 8.6H132.704C133.109 8.6 133.312 8.80267 133.312 9.208V23.224C133.312 24.824 132.949 26.232 132.224 27.448C131.498 28.664 130.474 29.6027 129.152 30.264C127.829 30.9253 126.304 31.256 124.576 31.256ZM152.294 8.6C152.699 8.6 152.902 8.80267 152.902 9.208V13.176C152.902 13.5813 152.699 13.784 152.294 13.784H147.142C146.971 13.784 146.886 13.8693 146.886 14.04V30.392C146.886 30.7973 146.683 31 146.278 31H141.478C141.072 31 140.87 30.7973 140.87 30.392V14.04C140.87 13.8693 140.784 13.784 140.614 13.784H135.622C135.216 13.784 135.014 13.5813 135.014 13.176V9.208C135.014 8.80267 135.216 8.6 135.622 8.6H152.294ZM171.325 8.6C171.73 8.6 171.933 8.80267 171.933 9.208V13.176C171.933 13.5813 171.73 13.784 171.325 13.784H166.173C166.002 13.784 165.917 13.8693 165.917 14.04V30.392C165.917 30.7973 165.714 31 165.309 31H160.509C160.103 31 159.901 30.7973 159.901 30.392V14.04C159.901 13.8693 159.815 13.784 159.645 13.784H154.653C154.247 13.784 154.045 13.5813 154.045 13.176V9.208C154.045 8.80267 154.247 8.6 154.653 8.6H171.325ZM181.983 31.384C180.212 31.384 178.644 31.032 177.279 30.328C175.935 29.6027 174.889 28.6 174.143 27.32C173.396 26.0187 173.023 24.5147 173.023 22.808V16.792C173.023 15.128 173.396 13.656 174.143 12.376C174.889 11.096 175.935 10.104 177.279 9.4C178.644 8.696 180.212 8.344 181.983 8.344C183.775 8.344 185.343 8.696 186.687 9.4C188.052 10.104 189.108 11.096 189.855 12.376C190.601 13.656 190.975 15.128 190.975 16.792V22.808C190.975 24.5147 190.601 26.0187 189.855 27.32C189.108 28.6 188.052 29.6027 186.687 30.328C185.343 31.032 183.775 31.384 181.983 31.384ZM181.983 26.232C182.879 26.232 183.593 25.944 184.127 25.368C184.681 24.7707 184.959 23.9813 184.959 23V16.728C184.959 15.7467 184.681 14.968 184.127 14.392C183.593 13.7947 182.879 13.496 181.983 13.496C181.108 13.496 180.393 13.7947 179.839 14.392C179.305 14.968 179.039 15.7467 179.039 16.728V23C179.039 23.9813 179.305 24.7707 179.839 25.368C180.393 25.944 181.108 26.232 181.983 26.232ZM193.794 31C193.388 31 193.186 30.7973 193.186 30.392V9.208C193.186 8.80267 193.388 8.6 193.794 8.6H198.402C198.743 8.6 198.988 8.73867 199.138 9.016L205.442 19.608C205.506 19.6933 205.57 19.736 205.634 19.736C205.719 19.736 205.762 19.6613 205.762 19.512L205.73 9.208C205.73 8.80267 205.932 8.6 206.338 8.6H211.138C211.543 8.6 211.746 8.80267 211.746 9.208V30.392C211.746 30.7973 211.543 31 211.138 31H206.53C206.188 31 205.943 30.8613 205.794 30.584L199.458 19.8C199.394 19.6933 199.319 19.6507 199.234 19.672C199.17 19.672 199.138 19.736 199.138 19.864L199.202 30.392C199.202 30.7973 198.999 31 198.594 31H193.794ZM222.568 31.256C220.84 31.256 219.315 30.968 217.992 30.392C216.669 29.7947 215.645 28.952 214.92 27.864C214.195 26.776 213.832 25.5173 213.832 24.088V23.768C213.832 23.3627 214.035 23.16 214.44 23.16H219.144C219.549 23.16 219.752 23.2667 219.752 23.48V23.832C219.752 24.408 220.061 24.9307 220.68 25.4C221.299 25.8693 222.077 26.104 223.016 26.104C223.805 26.104 224.371 25.944 224.712 25.624C225.053 25.2827 225.224 24.9093 225.224 24.504C225.224 24.0347 225.011 23.6827 224.584 23.448C224.157 23.2133 223.379 22.9253 222.248 22.584L221.32 22.328C219.208 21.688 217.437 20.8347 216.008 19.768C214.579 18.7013 213.864 17.1547 213.864 15.128C213.864 13.784 214.227 12.6 214.952 11.576C215.677 10.5307 216.669 9.73067 217.928 9.176C219.208 8.62133 220.637 8.344 222.216 8.344C223.88 8.344 225.384 8.65333 226.728 9.272C228.093 9.89067 229.16 10.7653 229.928 11.896C230.717 13.0267 231.112 14.3173 231.112 15.768V15.928C231.112 16.3333 230.909 16.536 230.504 16.536H225.8C225.395 16.536 225.192 16.4507 225.192 16.28V16.024C225.192 15.384 224.904 14.808 224.328 14.296C223.752 13.7627 222.973 13.496 221.992 13.496C221.309 13.496 220.765 13.6347 220.36 13.912C219.976 14.1893 219.784 14.5733 219.784 15.064C219.784 15.448 219.923 15.7787 220.2 16.056C220.499 16.312 220.947 16.568 221.544 16.824C222.141 17.0587 223.059 17.368 224.296 17.752C224.467 17.816 225.213 18.0507 226.536 18.456C227.88 18.84 229 19.5547 229.896 20.6C230.792 21.624 231.24 22.872 231.24 24.344C231.24 25.7307 230.877 26.9467 230.152 27.992C229.427 29.0373 228.403 29.848 227.08 30.424C225.779 30.9787 224.275 31.256 222.568 31.256Z" fill="#162542"/>
</g>
<defs>
<clipPath id="clip0_0_426">
<rect width="233" height="36" fill="white"/>
</clipPath>
</defs>
</svg>
