<svg width="170" height="26" viewBox="0 0 170 26" fill="none" xmlns="http://www.w3.org/2000/svg">
<g clip-path="url(#clip0_0_381)">
<path d="M7.76 19C7.632 19 7.54133 18.9413 7.488 18.824L5.28 14.088C5.25867 14.0453 5.22667 14.024 5.184 14.024H2.928C2.87467 14.024 2.848 14.0507 2.848 14.104V18.76C2.848 18.8347 2.82667 18.8933 2.784 18.936C2.74133 18.9787 2.68267 19 2.608 19H1.552C1.47733 19 1.41867 18.9787 1.376 18.936C1.33333 18.8933 1.312 18.8347 1.312 18.76V8.024C1.312 7.94933 1.33333 7.89067 1.376 7.848C1.41867 7.80533 1.47733 7.784 1.552 7.784H5.776C6.416 7.784 6.976 7.91733 7.456 8.184C7.94667 8.45067 8.32533 8.824 8.592 9.304C8.85867 9.784 8.992 10.3387 8.992 10.968C8.992 11.704 8.79467 12.3333 8.4 12.856C8.00533 13.368 7.472 13.7147 6.8 13.896C6.75733 13.9173 6.74133 13.9493 6.752 13.992L9.024 18.712L9.056 18.84C9.056 18.9467 8.98667 19 8.848 19H7.76ZM2.928 9.112C2.87467 9.112 2.848 9.13867 2.848 9.192V12.744C2.848 12.7973 2.87467 12.824 2.928 12.824H5.584C6.13867 12.824 6.58667 12.6533 6.928 12.312C7.28 11.9707 7.456 11.528 7.456 10.984C7.456 10.4187 7.28533 9.96533 6.944 9.624C6.60267 9.28267 6.14933 9.112 5.584 9.112H2.928ZM14.7245 19.128C13.9565 19.128 13.2738 18.9787 12.6765 18.68C12.0898 18.3707 11.6312 17.9387 11.3005 17.384C10.9805 16.8187 10.8205 16.1733 10.8205 15.448V11.352C10.8205 10.616 10.9805 9.97067 11.3005 9.416C11.6312 8.86133 12.0898 8.43467 12.6765 8.136C13.2738 7.82667 13.9565 7.672 14.7245 7.672C15.4925 7.672 16.1698 7.82133 16.7565 8.12C17.3432 8.41867 17.7965 8.83467 18.1165 9.368C18.4472 9.89067 18.6125 10.4827 18.6125 11.144V11.24C18.6125 11.3147 18.5912 11.3733 18.5485 11.416C18.5058 11.4587 18.4472 11.48 18.3725 11.48H17.3165C17.2418 11.48 17.1832 11.464 17.1405 11.432C17.0978 11.4 17.0765 11.3627 17.0765 11.32V11.176C17.0765 10.536 16.8578 10.0187 16.4205 9.624C15.9938 9.21867 15.4285 9.016 14.7245 9.016C14.0098 9.016 13.4338 9.224 12.9965 9.64C12.5698 10.056 12.3565 10.6107 12.3565 11.304V15.496C12.3565 16.1893 12.5805 16.744 13.0285 17.16C13.4765 17.576 14.0632 17.784 14.7885 17.784C15.4925 17.784 16.0472 17.6027 16.4525 17.24C16.8685 16.8667 17.0765 16.36 17.0765 15.72V14.504C17.0765 14.4507 17.0498 14.424 16.9965 14.424H14.9325C14.8578 14.424 14.7992 14.4027 14.7565 14.36C14.7138 14.3173 14.6925 14.2587 14.6925 14.184V13.352C14.6925 13.2773 14.7138 13.2187 14.7565 13.176C14.7992 13.1333 14.8578 13.112 14.9325 13.112H18.3725C18.4472 13.112 18.5058 13.1333 18.5485 13.176C18.5912 13.2187 18.6125 13.2773 18.6125 13.352V15.304C18.6125 16.5307 18.2605 17.4747 17.5565 18.136C16.8632 18.7973 15.9192 19.128 14.7245 19.128ZM26.8276 13.16C26.7636 13.192 26.7583 13.224 26.8116 13.256C27.9316 13.7573 28.4916 14.648 28.4916 15.928C28.4916 16.9093 28.1663 17.6667 27.5156 18.2C26.865 18.7333 26.017 19 24.9716 19H21.0676C20.993 19 20.9343 18.9787 20.8916 18.936C20.849 18.8933 20.8276 18.8347 20.8276 18.76V8.04C20.8276 7.96533 20.849 7.90667 20.8916 7.864C20.9343 7.82133 20.993 7.8 21.0676 7.8H24.8436C25.953 7.8 26.8116 8.056 27.4196 8.568C28.0383 9.06933 28.3476 9.80533 28.3476 10.776C28.3476 11.9173 27.841 12.712 26.8276 13.16ZM22.4436 9.128C22.3903 9.128 22.3636 9.15467 22.3636 9.208V12.552C22.3636 12.6053 22.3903 12.632 22.4436 12.632H24.8436C25.4623 12.632 25.9476 12.4773 26.2996 12.168C26.6623 11.8587 26.8436 11.4373 26.8436 10.904C26.8436 10.36 26.6623 9.928 26.2996 9.608C25.9476 9.288 25.4623 9.128 24.8436 9.128H22.4436ZM24.9716 17.656C25.5796 17.656 26.0596 17.4907 26.4116 17.16C26.7743 16.8187 26.9556 16.36 26.9556 15.784C26.9556 15.208 26.7743 14.7547 26.4116 14.424C26.049 14.0827 25.553 13.912 24.9236 13.912H22.4436C22.3903 13.912 22.3636 13.9387 22.3636 13.992V17.576C22.3636 17.6293 22.3903 17.656 22.4436 17.656H24.9716Z" fill="#7B8BAD"/>
<path d="M79.104 19C79.0293 19 78.9707 18.9787 78.928 18.936C78.8853 18.8933 78.864 18.8347 78.864 18.76V17.928C78.864 17.8107 78.9013 17.7093 78.976 17.624C79.5627 16.9627 80.176 16.248 80.816 15.48C81.456 14.712 81.8667 14.2213 82.048 14.008C82.0693 13.9867 82.2347 13.7893 82.544 13.416C83.536 12.232 84.032 11.3147 84.032 10.664C84.032 10.1627 83.8613 9.76267 83.52 9.464C83.1893 9.15467 82.7467 9 82.192 9C81.6373 9 81.1947 9.15467 80.864 9.464C80.5333 9.77333 80.3733 10.1787 80.384 10.68V11.08C80.384 11.1547 80.3627 11.2133 80.32 11.256C80.2773 11.2987 80.2187 11.32 80.144 11.32H79.072C78.9973 11.32 78.9387 11.2987 78.896 11.256C78.8533 11.2133 78.832 11.1547 78.832 11.08V10.472C78.8533 9.91733 79.008 9.42667 79.296 9C79.5947 8.57333 79.9947 8.248 80.496 8.024C80.9973 7.78933 81.5627 7.672 82.192 7.672C82.8747 7.672 83.472 7.8 83.984 8.056C84.496 8.312 84.8907 8.664 85.168 9.112C85.4453 9.56 85.584 10.0667 85.584 10.632C85.584 11.5173 85.104 12.5627 84.144 13.768C83.536 14.5467 82.4693 15.816 80.944 17.576C80.9227 17.5973 80.9173 17.6187 80.928 17.64C80.9387 17.6613 80.96 17.672 80.992 17.672H85.648C85.7227 17.672 85.7813 17.6933 85.824 17.736C85.8667 17.7787 85.888 17.8373 85.888 17.912V18.76C85.888 18.8347 85.8667 18.8933 85.824 18.936C85.7813 18.9787 85.7227 19 85.648 19H79.104ZM94.1911 14.04C94.3085 14.5093 94.3671 14.9947 94.3671 15.496C94.3671 15.9973 94.3031 16.4613 94.1751 16.888C93.9725 17.5707 93.5831 18.1147 93.0071 18.52C92.4418 18.9147 91.7645 19.112 90.9751 19.112C90.1965 19.112 89.5298 18.92 88.9751 18.536C88.4205 18.152 88.0311 17.6293 87.8071 16.968C87.7218 16.6907 87.6631 16.4613 87.6311 16.28V16.248C87.6311 16.0987 87.7111 16.024 87.8711 16.024H88.9591C89.0978 16.024 89.1831 16.0987 89.2151 16.248C89.2365 16.376 89.2578 16.4613 89.2791 16.504C89.3858 16.8987 89.5885 17.2133 89.8871 17.448C90.1858 17.672 90.5485 17.784 90.9751 17.784C91.4125 17.784 91.7805 17.6613 92.0791 17.416C92.3778 17.1707 92.5751 16.84 92.6711 16.424C92.7565 16.2 92.7991 15.9013 92.7991 15.528C92.8205 15.24 92.7885 14.904 92.7031 14.52C92.6285 14.1147 92.4365 13.8053 92.1271 13.592C91.8178 13.368 91.4338 13.256 90.9751 13.256C90.5911 13.256 90.2445 13.336 89.9351 13.496C89.6365 13.6453 89.4231 13.8693 89.2951 14.168C89.2311 14.296 89.1351 14.36 89.0071 14.36H87.8711C87.7965 14.36 87.7378 14.3387 87.6951 14.296C87.6525 14.2533 87.6311 14.1947 87.6311 14.12V8.04C87.6311 7.96533 87.6525 7.90667 87.6951 7.864C87.7378 7.82133 87.7965 7.8 87.8711 7.8H93.6951C93.7698 7.8 93.8285 7.82133 93.8711 7.864C93.9138 7.90667 93.9351 7.96533 93.9351 8.04V8.888C93.9351 8.96267 93.9138 9.02133 93.8711 9.064C93.8285 9.10667 93.7698 9.128 93.6951 9.128H89.2471C89.1938 9.128 89.1671 9.15467 89.1671 9.208L89.1511 12.52C89.1511 12.5947 89.1831 12.6107 89.2471 12.568C89.7591 12.1307 90.4045 11.912 91.1831 11.912C91.9298 11.912 92.5698 12.0987 93.1031 12.472C93.6471 12.8453 94.0098 13.368 94.1911 14.04ZM102.566 14.04C102.683 14.5093 102.742 14.9947 102.742 15.496C102.742 15.9973 102.678 16.4613 102.55 16.888C102.347 17.5707 101.958 18.1147 101.382 18.52C100.817 18.9147 100.139 19.112 99.3501 19.112C98.5715 19.112 97.9048 18.92 97.3501 18.536C96.7955 18.152 96.4061 17.6293 96.1821 16.968C96.0968 16.6907 96.0381 16.4613 96.0061 16.28V16.248C96.0061 16.0987 96.0861 16.024 96.2461 16.024H97.3341C97.4728 16.024 97.5581 16.0987 97.5901 16.248C97.6115 16.376 97.6328 16.4613 97.6541 16.504C97.7608 16.8987 97.9635 17.2133 98.2621 17.448C98.5608 17.672 98.9235 17.784 99.3501 17.784C99.7875 17.784 100.155 17.6613 100.454 17.416C100.753 17.1707 100.95 16.84 101.046 16.424C101.131 16.2 101.174 15.9013 101.174 15.528C101.195 15.24 101.163 14.904 101.078 14.52C101.003 14.1147 100.811 13.8053 100.502 13.592C100.193 13.368 99.8088 13.256 99.3501 13.256C98.9661 13.256 98.6195 13.336 98.3101 13.496C98.0115 13.6453 97.7981 13.8693 97.6701 14.168C97.6061 14.296 97.5101 14.36 97.3821 14.36H96.2461C96.1715 14.36 96.1128 14.3387 96.0701 14.296C96.0275 14.2533 96.0061 14.1947 96.0061 14.12V8.04C96.0061 7.96533 96.0275 7.90667 96.0701 7.864C96.1128 7.82133 96.1715 7.8 96.2461 7.8H102.07C102.145 7.8 102.203 7.82133 102.246 7.864C102.289 7.90667 102.31 7.96533 102.31 8.04V8.888C102.31 8.96267 102.289 9.02133 102.246 9.064C102.203 9.10667 102.145 9.128 102.07 9.128H97.6221C97.5688 9.128 97.5421 9.15467 97.5421 9.208L97.5261 12.52C97.5261 12.5947 97.5581 12.6107 97.6221 12.568C98.1341 12.1307 98.7795 11.912 99.5581 11.912C100.305 11.912 100.945 12.0987 101.478 12.472C102.022 12.8453 102.385 13.368 102.566 14.04ZM104.621 20.376C104.44 20.376 104.365 20.2907 104.397 20.12L105.021 16.728C105.053 16.5787 105.138 16.504 105.277 16.504H106.173C106.258 16.504 106.317 16.5307 106.349 16.584C106.392 16.6267 106.402 16.6907 106.381 16.776L105.469 20.168C105.437 20.3067 105.352 20.376 105.213 20.376H104.621ZM111.979 19C111.904 19 111.846 18.9787 111.803 18.936C111.76 18.8933 111.739 18.8347 111.739 18.76V17.928C111.739 17.8107 111.776 17.7093 111.851 17.624C112.438 16.9627 113.051 16.248 113.691 15.48C114.331 14.712 114.742 14.2213 114.923 14.008C114.944 13.9867 115.11 13.7893 115.419 13.416C116.411 12.232 116.907 11.3147 116.907 10.664C116.907 10.1627 116.736 9.76267 116.395 9.464C116.064 9.15467 115.622 9 115.067 9C114.512 9 114.07 9.15467 113.739 9.464C113.408 9.77333 113.248 10.1787 113.259 10.68V11.08C113.259 11.1547 113.238 11.2133 113.195 11.256C113.152 11.2987 113.094 11.32 113.019 11.32H111.947C111.872 11.32 111.814 11.2987 111.771 11.256C111.728 11.2133 111.707 11.1547 111.707 11.08V10.472C111.728 9.91733 111.883 9.42667 112.171 9C112.47 8.57333 112.87 8.248 113.371 8.024C113.872 7.78933 114.438 7.672 115.067 7.672C115.75 7.672 116.347 7.8 116.859 8.056C117.371 8.312 117.766 8.664 118.043 9.112C118.32 9.56 118.459 10.0667 118.459 10.632C118.459 11.5173 117.979 12.5627 117.019 13.768C116.411 14.5467 115.344 15.816 113.819 17.576C113.798 17.5973 113.792 17.6187 113.803 17.64C113.814 17.6613 113.835 17.672 113.867 17.672H118.523C118.598 17.672 118.656 17.6933 118.699 17.736C118.742 17.7787 118.763 17.8373 118.763 17.912V18.76C118.763 18.8347 118.742 18.8933 118.699 18.936C118.656 18.9787 118.598 19 118.523 19H111.979ZM127.066 14.04C127.183 14.5093 127.242 14.9947 127.242 15.496C127.242 15.9973 127.178 16.4613 127.05 16.888C126.847 17.5707 126.458 18.1147 125.882 18.52C125.317 18.9147 124.639 19.112 123.85 19.112C123.071 19.112 122.405 18.92 121.85 18.536C121.295 18.152 120.906 17.6293 120.682 16.968C120.597 16.6907 120.538 16.4613 120.506 16.28V16.248C120.506 16.0987 120.586 16.024 120.746 16.024H121.834C121.973 16.024 122.058 16.0987 122.09 16.248C122.111 16.376 122.133 16.4613 122.154 16.504C122.261 16.8987 122.463 17.2133 122.762 17.448C123.061 17.672 123.423 17.784 123.85 17.784C124.287 17.784 124.655 17.6613 124.954 17.416C125.253 17.1707 125.45 16.84 125.546 16.424C125.631 16.2 125.674 15.9013 125.674 15.528C125.695 15.24 125.663 14.904 125.578 14.52C125.503 14.1147 125.311 13.8053 125.002 13.592C124.693 13.368 124.309 13.256 123.85 13.256C123.466 13.256 123.119 13.336 122.81 13.496C122.511 13.6453 122.298 13.8693 122.17 14.168C122.106 14.296 122.01 14.36 121.882 14.36H120.746C120.671 14.36 120.613 14.3387 120.57 14.296C120.527 14.2533 120.506 14.1947 120.506 14.12V8.04C120.506 7.96533 120.527 7.90667 120.57 7.864C120.613 7.82133 120.671 7.8 120.746 7.8H126.57C126.645 7.8 126.703 7.82133 126.746 7.864C126.789 7.90667 126.81 7.96533 126.81 8.04V8.888C126.81 8.96267 126.789 9.02133 126.746 9.064C126.703 9.10667 126.645 9.128 126.57 9.128H122.122C122.069 9.128 122.042 9.15467 122.042 9.208L122.026 12.52C122.026 12.5947 122.058 12.6107 122.122 12.568C122.634 12.1307 123.279 11.912 124.058 11.912C124.805 11.912 125.445 12.0987 125.978 12.472C126.522 12.8453 126.885 13.368 127.066 14.04ZM135.441 14.04C135.558 14.5093 135.617 14.9947 135.617 15.496C135.617 15.9973 135.553 16.4613 135.425 16.888C135.222 17.5707 134.833 18.1147 134.257 18.52C133.692 18.9147 133.014 19.112 132.225 19.112C131.446 19.112 130.78 18.92 130.225 18.536C129.67 18.152 129.281 17.6293 129.057 16.968C128.972 16.6907 128.913 16.4613 128.881 16.28V16.248C128.881 16.0987 128.961 16.024 129.121 16.024H130.209C130.348 16.024 130.433 16.0987 130.465 16.248C130.486 16.376 130.508 16.4613 130.529 16.504C130.636 16.8987 130.838 17.2133 131.137 17.448C131.436 17.672 131.798 17.784 132.225 17.784C132.662 17.784 133.03 17.6613 133.329 17.416C133.628 17.1707 133.825 16.84 133.921 16.424C134.006 16.2 134.049 15.9013 134.049 15.528C134.07 15.24 134.038 14.904 133.953 14.52C133.878 14.1147 133.686 13.8053 133.377 13.592C133.068 13.368 132.684 13.256 132.225 13.256C131.841 13.256 131.494 13.336 131.185 13.496C130.886 13.6453 130.673 13.8693 130.545 14.168C130.481 14.296 130.385 14.36 130.257 14.36H129.121C129.046 14.36 128.988 14.3387 128.945 14.296C128.902 14.2533 128.881 14.1947 128.881 14.12V8.04C128.881 7.96533 128.902 7.90667 128.945 7.864C128.988 7.82133 129.046 7.8 129.121 7.8H134.945C135.02 7.8 135.078 7.82133 135.121 7.864C135.164 7.90667 135.185 7.96533 135.185 8.04V8.888C135.185 8.96267 135.164 9.02133 135.121 9.064C135.078 9.10667 135.02 9.128 134.945 9.128H130.497C130.444 9.128 130.417 9.15467 130.417 9.208L130.401 12.52C130.401 12.5947 130.433 12.6107 130.497 12.568C131.009 12.1307 131.654 11.912 132.433 11.912C133.18 11.912 133.82 12.0987 134.353 12.472C134.897 12.8453 135.26 13.368 135.441 14.04ZM137.496 20.376C137.315 20.376 137.24 20.2907 137.272 20.12L137.896 16.728C137.928 16.5787 138.013 16.504 138.152 16.504H139.048C139.133 16.504 139.192 16.5307 139.224 16.584C139.267 16.6267 139.277 16.6907 139.256 16.776L138.344 20.168C138.312 20.3067 138.227 20.376 138.088 20.376H137.496ZM144.854 19C144.779 19 144.721 18.9787 144.678 18.936C144.635 18.8933 144.614 18.8347 144.614 18.76V17.928C144.614 17.8107 144.651 17.7093 144.726 17.624C145.313 16.9627 145.926 16.248 146.566 15.48C147.206 14.712 147.617 14.2213 147.798 14.008C147.819 13.9867 147.985 13.7893 148.294 13.416C149.286 12.232 149.782 11.3147 149.782 10.664C149.782 10.1627 149.611 9.76267 149.27 9.464C148.939 9.15467 148.497 9 147.942 9C147.387 9 146.945 9.15467 146.614 9.464C146.283 9.77333 146.123 10.1787 146.134 10.68V11.08C146.134 11.1547 146.113 11.2133 146.07 11.256C146.027 11.2987 145.969 11.32 145.894 11.32H144.822C144.747 11.32 144.689 11.2987 144.646 11.256C144.603 11.2133 144.582 11.1547 144.582 11.08V10.472C144.603 9.91733 144.758 9.42667 145.046 9C145.345 8.57333 145.745 8.248 146.246 8.024C146.747 7.78933 147.313 7.672 147.942 7.672C148.625 7.672 149.222 7.8 149.734 8.056C150.246 8.312 150.641 8.664 150.918 9.112C151.195 9.56 151.334 10.0667 151.334 10.632C151.334 11.5173 150.854 12.5627 149.894 13.768C149.286 14.5467 148.219 15.816 146.694 17.576C146.673 17.5973 146.667 17.6187 146.678 17.64C146.689 17.6613 146.71 17.672 146.742 17.672H151.398C151.473 17.672 151.531 17.6933 151.574 17.736C151.617 17.7787 151.638 17.8373 151.638 17.912V18.76C151.638 18.8347 151.617 18.8933 151.574 18.936C151.531 18.9787 151.473 19 151.398 19H144.854ZM159.941 14.04C160.058 14.5093 160.117 14.9947 160.117 15.496C160.117 15.9973 160.053 16.4613 159.925 16.888C159.722 17.5707 159.333 18.1147 158.757 18.52C158.192 18.9147 157.514 19.112 156.725 19.112C155.946 19.112 155.28 18.92 154.725 18.536C154.17 18.152 153.781 17.6293 153.557 16.968C153.472 16.6907 153.413 16.4613 153.381 16.28V16.248C153.381 16.0987 153.461 16.024 153.621 16.024H154.709C154.848 16.024 154.933 16.0987 154.965 16.248C154.986 16.376 155.008 16.4613 155.029 16.504C155.136 16.8987 155.338 17.2133 155.637 17.448C155.936 17.672 156.298 17.784 156.725 17.784C157.162 17.784 157.53 17.6613 157.829 17.416C158.128 17.1707 158.325 16.84 158.421 16.424C158.506 16.2 158.549 15.9013 158.549 15.528C158.57 15.24 158.538 14.904 158.453 14.52C158.378 14.1147 158.186 13.8053 157.877 13.592C157.568 13.368 157.184 13.256 156.725 13.256C156.341 13.256 155.994 13.336 155.685 13.496C155.386 13.6453 155.173 13.8693 155.045 14.168C154.981 14.296 154.885 14.36 154.757 14.36H153.621C153.546 14.36 153.488 14.3387 153.445 14.296C153.402 14.2533 153.381 14.1947 153.381 14.12V8.04C153.381 7.96533 153.402 7.90667 153.445 7.864C153.488 7.82133 153.546 7.8 153.621 7.8H159.445C159.52 7.8 159.578 7.82133 159.621 7.864C159.664 7.90667 159.685 7.96533 159.685 8.04V8.888C159.685 8.96267 159.664 9.02133 159.621 9.064C159.578 9.10667 159.52 9.128 159.445 9.128H154.997C154.944 9.128 154.917 9.15467 154.917 9.208L154.901 12.52C154.901 12.5947 154.933 12.6107 154.997 12.568C155.509 12.1307 156.154 11.912 156.933 11.912C157.68 11.912 158.32 12.0987 158.853 12.472C159.397 12.8453 159.76 13.368 159.941 14.04ZM168.316 14.04C168.433 14.5093 168.492 14.9947 168.492 15.496C168.492 15.9973 168.428 16.4613 168.3 16.888C168.097 17.5707 167.708 18.1147 167.132 18.52C166.567 18.9147 165.889 19.112 165.1 19.112C164.321 19.112 163.655 18.92 163.1 18.536C162.545 18.152 162.156 17.6293 161.932 16.968C161.847 16.6907 161.788 16.4613 161.756 16.28V16.248C161.756 16.0987 161.836 16.024 161.996 16.024H163.084C163.223 16.024 163.308 16.0987 163.34 16.248C163.361 16.376 163.383 16.4613 163.404 16.504C163.511 16.8987 163.713 17.2133 164.012 17.448C164.311 17.672 164.673 17.784 165.1 17.784C165.537 17.784 165.905 17.6613 166.204 17.416C166.503 17.1707 166.7 16.84 166.796 16.424C166.881 16.2 166.924 15.9013 166.924 15.528C166.945 15.24 166.913 14.904 166.828 14.52C166.753 14.1147 166.561 13.8053 166.252 13.592C165.943 13.368 165.559 13.256 165.1 13.256C164.716 13.256 164.369 13.336 164.06 13.496C163.761 13.6453 163.548 13.8693 163.42 14.168C163.356 14.296 163.26 14.36 163.132 14.36H161.996C161.921 14.36 161.863 14.3387 161.82 14.296C161.777 14.2533 161.756 14.1947 161.756 14.12V8.04C161.756 7.96533 161.777 7.90667 161.82 7.864C161.863 7.82133 161.921 7.8 161.996 7.8H167.82C167.895 7.8 167.953 7.82133 167.996 7.864C168.039 7.90667 168.06 7.96533 168.06 8.04V8.888C168.06 8.96267 168.039 9.02133 167.996 9.064C167.953 9.10667 167.895 9.128 167.82 9.128H163.372C163.319 9.128 163.292 9.15467 163.292 9.208L163.276 12.52C163.276 12.5947 163.308 12.6107 163.372 12.568C163.884 12.1307 164.529 11.912 165.308 11.912C166.055 11.912 166.695 12.0987 167.228 12.472C167.772 12.8453 168.135 13.368 168.316 14.04Z" fill="#162542"/>
</g>
<defs>
<clipPath id="clip0_0_381">
<rect width="170" height="26" fill="white"/>
</clipPath>
</defs>
</svg>
