<svg width="160" height="26" viewBox="0 0 160 26" fill="none" xmlns="http://www.w3.org/2000/svg">
<g clip-path="url(#clip0_0_401)">
<path d="M7.76 19C7.632 19 7.54133 18.9413 7.488 18.824L5.28 14.088C5.25867 14.0453 5.22667 14.024 5.184 14.024H2.928C2.87467 14.024 2.848 14.0507 2.848 14.104V18.76C2.848 18.8347 2.82667 18.8933 2.784 18.936C2.74133 18.9787 2.68267 19 2.608 19H1.552C1.47733 19 1.41867 18.9787 1.376 18.936C1.33333 18.8933 1.312 18.8347 1.312 18.76V8.024C1.312 7.94933 1.33333 7.89067 1.376 7.848C1.41867 7.80533 1.47733 7.784 1.552 7.784H5.776C6.416 7.784 6.976 7.91733 7.456 8.184C7.94667 8.45067 8.32533 8.824 8.592 9.304C8.85867 9.784 8.992 10.3387 8.992 10.968C8.992 11.704 8.79467 12.3333 8.4 12.856C8.00533 13.368 7.472 13.7147 6.8 13.896C6.75733 13.9173 6.74133 13.9493 6.752 13.992L9.024 18.712L9.056 18.84C9.056 18.9467 8.98667 19 8.848 19H7.76ZM2.928 9.112C2.87467 9.112 2.848 9.13867 2.848 9.192V12.744C2.848 12.7973 2.87467 12.824 2.928 12.824H5.584C6.13867 12.824 6.58667 12.6533 6.928 12.312C7.28 11.9707 7.456 11.528 7.456 10.984C7.456 10.4187 7.28533 9.96533 6.944 9.624C6.60267 9.28267 6.14933 9.112 5.584 9.112H2.928ZM14.7245 19.128C13.9565 19.128 13.2738 18.9787 12.6765 18.68C12.0898 18.3707 11.6312 17.9387 11.3005 17.384C10.9805 16.8187 10.8205 16.1733 10.8205 15.448V11.352C10.8205 10.616 10.9805 9.97067 11.3005 9.416C11.6312 8.86133 12.0898 8.43467 12.6765 8.136C13.2738 7.82667 13.9565 7.672 14.7245 7.672C15.4925 7.672 16.1698 7.82133 16.7565 8.12C17.3432 8.41867 17.7965 8.83467 18.1165 9.368C18.4472 9.89067 18.6125 10.4827 18.6125 11.144V11.24C18.6125 11.3147 18.5912 11.3733 18.5485 11.416C18.5058 11.4587 18.4472 11.48 18.3725 11.48H17.3165C17.2418 11.48 17.1832 11.464 17.1405 11.432C17.0978 11.4 17.0765 11.3627 17.0765 11.32V11.176C17.0765 10.536 16.8578 10.0187 16.4205 9.624C15.9938 9.21867 15.4285 9.016 14.7245 9.016C14.0098 9.016 13.4338 9.224 12.9965 9.64C12.5698 10.056 12.3565 10.6107 12.3565 11.304V15.496C12.3565 16.1893 12.5805 16.744 13.0285 17.16C13.4765 17.576 14.0632 17.784 14.7885 17.784C15.4925 17.784 16.0472 17.6027 16.4525 17.24C16.8685 16.8667 17.0765 16.36 17.0765 15.72V14.504C17.0765 14.4507 17.0498 14.424 16.9965 14.424H14.9325C14.8578 14.424 14.7992 14.4027 14.7565 14.36C14.7138 14.3173 14.6925 14.2587 14.6925 14.184V13.352C14.6925 13.2773 14.7138 13.2187 14.7565 13.176C14.7992 13.1333 14.8578 13.112 14.9325 13.112H18.3725C18.4472 13.112 18.5058 13.1333 18.5485 13.176C18.5912 13.2187 18.6125 13.2773 18.6125 13.352V15.304C18.6125 16.5307 18.2605 17.4747 17.5565 18.136C16.8632 18.7973 15.9192 19.128 14.7245 19.128ZM26.8276 13.16C26.7636 13.192 26.7583 13.224 26.8116 13.256C27.9316 13.7573 28.4916 14.648 28.4916 15.928C28.4916 16.9093 28.1663 17.6667 27.5156 18.2C26.865 18.7333 26.017 19 24.9716 19H21.0676C20.993 19 20.9343 18.9787 20.8916 18.936C20.849 18.8933 20.8276 18.8347 20.8276 18.76V8.04C20.8276 7.96533 20.849 7.90667 20.8916 7.864C20.9343 7.82133 20.993 7.8 21.0676 7.8H24.8436C25.953 7.8 26.8116 8.056 27.4196 8.568C28.0383 9.06933 28.3476 9.80533 28.3476 10.776C28.3476 11.9173 27.841 12.712 26.8276 13.16ZM22.4436 9.128C22.3903 9.128 22.3636 9.15467 22.3636 9.208V12.552C22.3636 12.6053 22.3903 12.632 22.4436 12.632H24.8436C25.4623 12.632 25.9476 12.4773 26.2996 12.168C26.6623 11.8587 26.8436 11.4373 26.8436 10.904C26.8436 10.36 26.6623 9.928 26.2996 9.608C25.9476 9.288 25.4623 9.128 24.8436 9.128H22.4436ZM24.9716 17.656C25.5796 17.656 26.0596 17.4907 26.4116 17.16C26.7743 16.8187 26.9556 16.36 26.9556 15.784C26.9556 15.208 26.7743 14.7547 26.4116 14.424C26.049 14.0827 25.553 13.912 24.9236 13.912H22.4436C22.3903 13.912 22.3636 13.9387 22.3636 13.992V17.576C22.3636 17.6293 22.3903 17.656 22.4436 17.656H24.9716Z" fill="#7B8BAD"/>
<path d="M80.528 7.864C80.6133 7.82133 80.7147 7.8 80.832 7.8H81.968C82.0427 7.8 82.1013 7.82133 82.144 7.864C82.1867 7.90667 82.208 7.96533 82.208 8.04V18.76C82.208 18.8347 82.1867 18.8933 82.144 18.936C82.1013 18.9787 82.0427 19 81.968 19H80.912C80.8373 19 80.7787 18.9787 80.736 18.936C80.6933 18.8933 80.672 18.8347 80.672 18.76V9.384C80.672 9.36267 80.6613 9.34667 80.64 9.336C80.6187 9.31467 80.5973 9.30933 80.576 9.32L78.992 9.864C78.9707 9.87467 78.9387 9.88 78.896 9.88C78.7787 9.88 78.72 9.81067 78.72 9.672V8.936C78.72 8.81867 78.7787 8.728 78.896 8.664L80.528 7.864ZM84.5884 19C84.5137 19 84.455 18.9787 84.4124 18.936C84.3697 18.8933 84.3484 18.8347 84.3484 18.76V17.928C84.3484 17.8107 84.3857 17.7093 84.4604 17.624C85.047 16.9627 85.6604 16.248 86.3004 15.48C86.9404 14.712 87.351 14.2213 87.5324 14.008C87.5537 13.9867 87.719 13.7893 88.0284 13.416C89.0204 12.232 89.5164 11.3147 89.5164 10.664C89.5164 10.1627 89.3457 9.76267 89.0044 9.464C88.6737 9.15467 88.231 9 87.6764 9C87.1217 9 86.679 9.15467 86.3484 9.464C86.0177 9.77333 85.8577 10.1787 85.8684 10.68V11.08C85.8684 11.1547 85.847 11.2133 85.8044 11.256C85.7617 11.2987 85.703 11.32 85.6284 11.32H84.5564C84.4817 11.32 84.423 11.2987 84.3804 11.256C84.3377 11.2133 84.3164 11.1547 84.3164 11.08V10.472C84.3377 9.91733 84.4924 9.42667 84.7804 9C85.079 8.57333 85.479 8.248 85.9804 8.024C86.4817 7.78933 87.047 7.672 87.6764 7.672C88.359 7.672 88.9564 7.8 89.4684 8.056C89.9804 8.312 90.375 8.664 90.6524 9.112C90.9297 9.56 91.0684 10.0667 91.0684 10.632C91.0684 11.5173 90.5884 12.5627 89.6284 13.768C89.0204 14.5467 87.9537 15.816 86.4284 17.576C86.407 17.5973 86.4017 17.6187 86.4124 17.64C86.423 17.6613 86.4444 17.672 86.4764 17.672H91.1324C91.207 17.672 91.2657 17.6933 91.3084 17.736C91.351 17.7787 91.3724 17.8373 91.3724 17.912V18.76C91.3724 18.8347 91.351 18.8933 91.3084 18.936C91.2657 18.9787 91.207 19 91.1324 19H84.5884ZM99.1989 13.688C99.4122 14.2 99.5189 14.8027 99.5189 15.496C99.5189 16.008 99.4335 16.5307 99.2629 17.064C99.0282 17.7147 98.6389 18.2213 98.0949 18.584C97.5615 18.9467 96.9055 19.128 96.1269 19.128C95.3589 19.128 94.6922 18.9307 94.1269 18.536C93.5722 18.1307 93.1829 17.592 92.9589 16.92C92.8415 16.5573 92.7722 16.1627 92.7509 15.736C92.7509 15.576 92.8309 15.496 92.9909 15.496H94.0629C94.2229 15.496 94.3029 15.576 94.3029 15.736C94.3562 16.1307 94.3989 16.3867 94.4309 16.504C94.5375 16.8987 94.7402 17.2133 95.0389 17.448C95.3375 17.672 95.7002 17.784 96.1269 17.784C96.5322 17.784 96.8682 17.6933 97.1349 17.512C97.4122 17.3307 97.6149 17.064 97.7429 16.712C97.8922 16.328 97.9669 15.912 97.9669 15.464C97.9669 14.888 97.8762 14.4027 97.6949 14.008C97.4175 13.3253 96.8895 12.984 96.1109 12.984C95.9295 12.984 95.7429 13.032 95.5509 13.128C95.5189 13.1493 95.4709 13.16 95.4069 13.16C95.3429 13.16 95.2789 13.128 95.2149 13.064L94.7029 12.44C94.6602 12.3867 94.6389 12.3333 94.6389 12.28C94.6389 12.2373 94.6655 12.1787 94.7189 12.104L97.4069 9.24C97.4602 9.176 97.4495 9.144 97.3749 9.144H93.1349C93.0602 9.144 93.0015 9.12267 92.9589 9.08C92.9162 9.03733 92.8949 8.97867 92.8949 8.904V8.04C92.8949 7.96533 92.9162 7.90667 92.9589 7.864C93.0015 7.82133 93.0602 7.8 93.1349 7.8H99.1829C99.2575 7.8 99.3162 7.82133 99.3589 7.864C99.4015 7.90667 99.4229 7.96533 99.4229 8.04V8.968C99.4229 9.096 99.3855 9.19733 99.3109 9.272L96.8629 11.944C96.8415 11.9653 96.8362 11.9867 96.8469 12.008C96.8575 12.0293 96.8842 12.0453 96.9269 12.056C98.0149 12.1413 98.7722 12.6853 99.1989 13.688ZM101.621 20.376C101.44 20.376 101.365 20.2907 101.397 20.12L102.021 16.728C102.053 16.5787 102.138 16.504 102.277 16.504H103.173C103.258 16.504 103.317 16.5307 103.349 16.584C103.392 16.6267 103.402 16.6907 103.381 16.776L102.469 20.168C102.437 20.3067 102.352 20.376 102.213 20.376H101.621ZM110.403 7.864C110.488 7.82133 110.59 7.8 110.707 7.8H111.843C111.918 7.8 111.976 7.82133 112.019 7.864C112.062 7.90667 112.083 7.96533 112.083 8.04V18.76C112.083 18.8347 112.062 18.8933 112.019 18.936C111.976 18.9787 111.918 19 111.843 19H110.787C110.712 19 110.654 18.9787 110.611 18.936C110.568 18.8933 110.547 18.8347 110.547 18.76V9.384C110.547 9.36267 110.536 9.34667 110.515 9.336C110.494 9.31467 110.472 9.30933 110.451 9.32L108.867 9.864C108.846 9.87467 108.814 9.88 108.771 9.88C108.654 9.88 108.595 9.81067 108.595 9.672V8.936C108.595 8.81867 108.654 8.728 108.771 8.664L110.403 7.864ZM120.511 13.688C120.725 14.2 120.831 14.8027 120.831 15.496C120.831 16.008 120.746 16.5307 120.575 17.064C120.341 17.7147 119.951 18.2213 119.407 18.584C118.874 18.9467 118.218 19.128 117.439 19.128C116.671 19.128 116.005 18.9307 115.439 18.536C114.885 18.1307 114.495 17.592 114.271 16.92C114.154 16.5573 114.085 16.1627 114.063 15.736C114.063 15.576 114.143 15.496 114.303 15.496H115.375C115.535 15.496 115.615 15.576 115.615 15.736C115.669 16.1307 115.711 16.3867 115.743 16.504C115.85 16.8987 116.053 17.2133 116.351 17.448C116.65 17.672 117.013 17.784 117.439 17.784C117.845 17.784 118.181 17.6933 118.447 17.512C118.725 17.3307 118.927 17.064 119.055 16.712C119.205 16.328 119.279 15.912 119.279 15.464C119.279 14.888 119.189 14.4027 119.007 14.008C118.73 13.3253 118.202 12.984 117.423 12.984C117.242 12.984 117.055 13.032 116.863 13.128C116.831 13.1493 116.783 13.16 116.719 13.16C116.655 13.16 116.591 13.128 116.527 13.064L116.015 12.44C115.973 12.3867 115.951 12.3333 115.951 12.28C115.951 12.2373 115.978 12.1787 116.031 12.104L118.719 9.24C118.773 9.176 118.762 9.144 118.687 9.144H114.447C114.373 9.144 114.314 9.12267 114.271 9.08C114.229 9.03733 114.207 8.97867 114.207 8.904V8.04C114.207 7.96533 114.229 7.90667 114.271 7.864C114.314 7.82133 114.373 7.8 114.447 7.8H120.495C120.57 7.8 120.629 7.82133 120.671 7.864C120.714 7.90667 120.735 7.96533 120.735 8.04V8.968C120.735 9.096 120.698 9.19733 120.623 9.272L118.175 11.944C118.154 11.9653 118.149 11.9867 118.159 12.008C118.17 12.0293 118.197 12.0453 118.239 12.056C119.327 12.1413 120.085 12.6853 120.511 13.688ZM129.014 9.768C129.174 10.216 129.254 10.7333 129.254 11.32V16.248C129.254 17.1227 128.95 17.8213 128.342 18.344C127.734 18.8667 126.939 19.128 125.958 19.128C125.328 19.128 124.768 19.0107 124.278 18.776C123.798 18.5413 123.424 18.216 123.158 17.8C122.891 17.3733 122.758 16.888 122.758 16.344V16.104C122.758 16.0293 122.779 15.9707 122.822 15.928C122.864 15.8853 122.923 15.864 122.998 15.864H124.054C124.214 15.864 124.294 15.912 124.294 16.008V16.168C124.294 16.648 124.448 17.0373 124.758 17.336C125.067 17.6347 125.467 17.784 125.958 17.784C126.48 17.784 126.902 17.6293 127.222 17.32C127.552 17.0107 127.718 16.6 127.718 16.088V14.104C127.718 14.072 127.707 14.056 127.686 14.056C127.664 14.0453 127.643 14.0507 127.622 14.072C127.163 14.5733 126.502 14.824 125.638 14.824C124.379 14.824 123.483 14.3227 122.95 13.32C122.651 12.7547 122.502 12.0773 122.502 11.288C122.502 10.6373 122.608 10.0667 122.822 9.576C123.067 8.968 123.446 8.504 123.958 8.184C124.48 7.85333 125.11 7.688 125.846 7.688C126.635 7.688 127.302 7.86933 127.846 8.232C128.4 8.59467 128.79 9.10667 129.014 9.768ZM127.462 12.568C127.632 12.216 127.718 11.7627 127.718 11.208C127.718 10.76 127.648 10.3813 127.51 10.072C127.371 9.73067 127.163 9.47467 126.886 9.304C126.608 9.12267 126.272 9.032 125.878 9.032C125.099 9.032 124.566 9.37333 124.278 10.056C124.118 10.3867 124.038 10.7973 124.038 11.288C124.038 11.8213 124.134 12.2587 124.326 12.6C124.635 13.2187 125.158 13.528 125.894 13.528C126.267 13.528 126.587 13.448 126.854 13.288C127.12 13.1173 127.323 12.8773 127.462 12.568ZM131.34 20.376C131.159 20.376 131.084 20.2907 131.116 20.12L131.74 16.728C131.772 16.5787 131.857 16.504 131.996 16.504H132.892C132.977 16.504 133.036 16.5307 133.068 16.584C133.111 16.6267 133.121 16.6907 133.1 16.776L132.188 20.168C132.156 20.3067 132.071 20.376 131.932 20.376H131.34ZM140.122 7.864C140.207 7.82133 140.308 7.8 140.426 7.8H141.562C141.636 7.8 141.695 7.82133 141.738 7.864C141.78 7.90667 141.802 7.96533 141.802 8.04V18.76C141.802 18.8347 141.78 18.8933 141.738 18.936C141.695 18.9787 141.636 19 141.562 19H140.506C140.431 19 140.372 18.9787 140.33 18.936C140.287 18.8933 140.266 18.8347 140.266 18.76V9.384C140.266 9.36267 140.255 9.34667 140.234 9.336C140.212 9.31467 140.191 9.30933 140.17 9.32L138.586 9.864C138.564 9.87467 138.532 9.88 138.49 9.88C138.372 9.88 138.314 9.81067 138.314 9.672V8.936C138.314 8.81867 138.372 8.728 138.49 8.664L140.122 7.864ZM145.414 19C145.233 19 145.174 18.9093 145.238 18.728L148.822 9.224C148.843 9.16 148.822 9.128 148.758 9.128H144.934C144.881 9.128 144.854 9.15467 144.854 9.208V9.864C144.854 9.93867 144.833 9.99733 144.79 10.04C144.747 10.0827 144.689 10.104 144.614 10.104H143.814C143.739 10.104 143.681 10.0827 143.638 10.04C143.595 9.99733 143.574 9.93867 143.574 9.864V8.04C143.574 7.96533 143.595 7.90667 143.638 7.864C143.681 7.82133 143.739 7.8 143.814 7.8H150.23C150.305 7.8 150.363 7.82133 150.406 7.864C150.449 7.90667 150.47 7.96533 150.47 8.04V8.984C150.47 9.05867 150.454 9.15467 150.422 9.272L146.838 18.808C146.795 18.936 146.705 19 146.566 19H145.414ZM157.933 13.688C158.147 14.2 158.253 14.8027 158.253 15.496C158.253 16.008 158.168 16.5307 157.997 17.064C157.763 17.7147 157.373 18.2213 156.829 18.584C156.296 18.9467 155.64 19.128 154.861 19.128C154.093 19.128 153.427 18.9307 152.861 18.536C152.307 18.1307 151.917 17.592 151.693 16.92C151.576 16.5573 151.507 16.1627 151.485 15.736C151.485 15.576 151.565 15.496 151.725 15.496H152.797C152.957 15.496 153.037 15.576 153.037 15.736C153.091 16.1307 153.133 16.3867 153.165 16.504C153.272 16.8987 153.475 17.2133 153.773 17.448C154.072 17.672 154.435 17.784 154.861 17.784C155.267 17.784 155.603 17.6933 155.869 17.512C156.147 17.3307 156.349 17.064 156.477 16.712C156.627 16.328 156.701 15.912 156.701 15.464C156.701 14.888 156.611 14.4027 156.429 14.008C156.152 13.3253 155.624 12.984 154.845 12.984C154.664 12.984 154.477 13.032 154.285 13.128C154.253 13.1493 154.205 13.16 154.141 13.16C154.077 13.16 154.013 13.128 153.949 13.064L153.437 12.44C153.395 12.3867 153.373 12.3333 153.373 12.28C153.373 12.2373 153.4 12.1787 153.453 12.104L156.141 9.24C156.195 9.176 156.184 9.144 156.109 9.144H151.869C151.795 9.144 151.736 9.12267 151.693 9.08C151.651 9.03733 151.629 8.97867 151.629 8.904V8.04C151.629 7.96533 151.651 7.90667 151.693 7.864C151.736 7.82133 151.795 7.8 151.869 7.8H157.917C157.992 7.8 158.051 7.82133 158.093 7.864C158.136 7.90667 158.157 7.96533 158.157 8.04V8.968C158.157 9.096 158.12 9.19733 158.045 9.272L155.597 11.944C155.576 11.9653 155.571 11.9867 155.581 12.008C155.592 12.0293 155.619 12.0453 155.661 12.056C156.749 12.1413 157.507 12.6853 157.933 13.688Z" fill="#162542"/>
</g>
<defs>
<clipPath id="clip0_0_401">
<rect width="160" height="26" fill="white"/>
</clipPath>
</defs>
</svg>
