<svg width="158" height="26" viewBox="0 0 158 26" fill="none" xmlns="http://www.w3.org/2000/svg">
<g clip-path="url(#clip0_0_411)">
<path d="M7.76 19C7.632 19 7.54133 18.9413 7.488 18.824L5.28 14.088C5.25867 14.0453 5.22667 14.024 5.184 14.024H2.928C2.87467 14.024 2.848 14.0507 2.848 14.104V18.76C2.848 18.8347 2.82667 18.8933 2.784 18.936C2.74133 18.9787 2.68267 19 2.608 19H1.552C1.47733 19 1.41867 18.9787 1.376 18.936C1.33333 18.8933 1.312 18.8347 1.312 18.76V8.024C1.312 7.94933 1.33333 7.89067 1.376 7.848C1.41867 7.80533 1.47733 7.784 1.552 7.784H5.776C6.416 7.784 6.976 7.91733 7.456 8.184C7.94667 8.45067 8.32533 8.824 8.592 9.304C8.85867 9.784 8.992 10.3387 8.992 10.968C8.992 11.704 8.79467 12.3333 8.4 12.856C8.00533 13.368 7.472 13.7147 6.8 13.896C6.75733 13.9173 6.74133 13.9493 6.752 13.992L9.024 18.712L9.056 18.84C9.056 18.9467 8.98667 19 8.848 19H7.76ZM2.928 9.112C2.87467 9.112 2.848 9.13867 2.848 9.192V12.744C2.848 12.7973 2.87467 12.824 2.928 12.824H5.584C6.13867 12.824 6.58667 12.6533 6.928 12.312C7.28 11.9707 7.456 11.528 7.456 10.984C7.456 10.4187 7.28533 9.96533 6.944 9.624C6.60267 9.28267 6.14933 9.112 5.584 9.112H2.928ZM14.7245 19.128C13.9565 19.128 13.2738 18.9787 12.6765 18.68C12.0898 18.3707 11.6312 17.9387 11.3005 17.384C10.9805 16.8187 10.8205 16.1733 10.8205 15.448V11.352C10.8205 10.616 10.9805 9.97067 11.3005 9.416C11.6312 8.86133 12.0898 8.43467 12.6765 8.136C13.2738 7.82667 13.9565 7.672 14.7245 7.672C15.4925 7.672 16.1698 7.82133 16.7565 8.12C17.3432 8.41867 17.7965 8.83467 18.1165 9.368C18.4472 9.89067 18.6125 10.4827 18.6125 11.144V11.24C18.6125 11.3147 18.5912 11.3733 18.5485 11.416C18.5058 11.4587 18.4472 11.48 18.3725 11.48H17.3165C17.2418 11.48 17.1832 11.464 17.1405 11.432C17.0978 11.4 17.0765 11.3627 17.0765 11.32V11.176C17.0765 10.536 16.8578 10.0187 16.4205 9.624C15.9938 9.21867 15.4285 9.016 14.7245 9.016C14.0098 9.016 13.4338 9.224 12.9965 9.64C12.5698 10.056 12.3565 10.6107 12.3565 11.304V15.496C12.3565 16.1893 12.5805 16.744 13.0285 17.16C13.4765 17.576 14.0632 17.784 14.7885 17.784C15.4925 17.784 16.0472 17.6027 16.4525 17.24C16.8685 16.8667 17.0765 16.36 17.0765 15.72V14.504C17.0765 14.4507 17.0498 14.424 16.9965 14.424H14.9325C14.8578 14.424 14.7992 14.4027 14.7565 14.36C14.7138 14.3173 14.6925 14.2587 14.6925 14.184V13.352C14.6925 13.2773 14.7138 13.2187 14.7565 13.176C14.7992 13.1333 14.8578 13.112 14.9325 13.112H18.3725C18.4472 13.112 18.5058 13.1333 18.5485 13.176C18.5912 13.2187 18.6125 13.2773 18.6125 13.352V15.304C18.6125 16.5307 18.2605 17.4747 17.5565 18.136C16.8632 18.7973 15.9192 19.128 14.7245 19.128ZM26.8276 13.16C26.7636 13.192 26.7583 13.224 26.8116 13.256C27.9316 13.7573 28.4916 14.648 28.4916 15.928C28.4916 16.9093 28.1663 17.6667 27.5156 18.2C26.865 18.7333 26.017 19 24.9716 19H21.0676C20.993 19 20.9343 18.9787 20.8916 18.936C20.849 18.8933 20.8276 18.8347 20.8276 18.76V8.04C20.8276 7.96533 20.849 7.90667 20.8916 7.864C20.9343 7.82133 20.993 7.8 21.0676 7.8H24.8436C25.953 7.8 26.8116 8.056 27.4196 8.568C28.0383 9.06933 28.3476 9.80533 28.3476 10.776C28.3476 11.9173 27.841 12.712 26.8276 13.16ZM22.4436 9.128C22.3903 9.128 22.3636 9.15467 22.3636 9.208V12.552C22.3636 12.6053 22.3903 12.632 22.4436 12.632H24.8436C25.4623 12.632 25.9476 12.4773 26.2996 12.168C26.6623 11.8587 26.8436 11.4373 26.8436 10.904C26.8436 10.36 26.6623 9.928 26.2996 9.608C25.9476 9.288 25.4623 9.128 24.8436 9.128H22.4436ZM24.9716 17.656C25.5796 17.656 26.0596 17.4907 26.4116 17.16C26.7743 16.8187 26.9556 16.36 26.9556 15.784C26.9556 15.208 26.7743 14.7547 26.4116 14.424C26.049 14.0827 25.553 13.912 24.9236 13.912H22.4436C22.3903 13.912 22.3636 13.9387 22.3636 13.992V17.576C22.3636 17.6293 22.3903 17.656 22.4436 17.656H24.9716Z" fill="#7B8BAD"/>
<path d="M79.104 19C79.0293 19 78.9707 18.9787 78.928 18.936C78.8853 18.8933 78.864 18.8347 78.864 18.76V17.928C78.864 17.8107 78.9013 17.7093 78.976 17.624C79.5627 16.9627 80.176 16.248 80.816 15.48C81.456 14.712 81.8667 14.2213 82.048 14.008C82.0693 13.9867 82.2347 13.7893 82.544 13.416C83.536 12.232 84.032 11.3147 84.032 10.664C84.032 10.1627 83.8613 9.76267 83.52 9.464C83.1893 9.15467 82.7467 9 82.192 9C81.6373 9 81.1947 9.15467 80.864 9.464C80.5333 9.77333 80.3733 10.1787 80.384 10.68V11.08C80.384 11.1547 80.3627 11.2133 80.32 11.256C80.2773 11.2987 80.2187 11.32 80.144 11.32H79.072C78.9973 11.32 78.9387 11.2987 78.896 11.256C78.8533 11.2133 78.832 11.1547 78.832 11.08V10.472C78.8533 9.91733 79.008 9.42667 79.296 9C79.5947 8.57333 79.9947 8.248 80.496 8.024C80.9973 7.78933 81.5627 7.672 82.192 7.672C82.8747 7.672 83.472 7.8 83.984 8.056C84.496 8.312 84.8907 8.664 85.168 9.112C85.4453 9.56 85.584 10.0667 85.584 10.632C85.584 11.5173 85.104 12.5627 84.144 13.768C83.536 14.5467 82.4693 15.816 80.944 17.576C80.9227 17.5973 80.9173 17.6187 80.928 17.64C80.9387 17.6613 80.96 17.672 80.992 17.672H85.648C85.7227 17.672 85.7813 17.6933 85.824 17.736C85.8667 17.7787 85.888 17.8373 85.888 17.912V18.76C85.888 18.8347 85.8667 18.8933 85.824 18.936C85.7813 18.9787 85.7227 19 85.648 19H79.104ZM94.1911 14.04C94.3085 14.5093 94.3671 14.9947 94.3671 15.496C94.3671 15.9973 94.3031 16.4613 94.1751 16.888C93.9725 17.5707 93.5831 18.1147 93.0071 18.52C92.4418 18.9147 91.7645 19.112 90.9751 19.112C90.1965 19.112 89.5298 18.92 88.9751 18.536C88.4205 18.152 88.0311 17.6293 87.8071 16.968C87.7218 16.6907 87.6631 16.4613 87.6311 16.28V16.248C87.6311 16.0987 87.7111 16.024 87.8711 16.024H88.9591C89.0978 16.024 89.1831 16.0987 89.2151 16.248C89.2365 16.376 89.2578 16.4613 89.2791 16.504C89.3858 16.8987 89.5885 17.2133 89.8871 17.448C90.1858 17.672 90.5485 17.784 90.9751 17.784C91.4125 17.784 91.7805 17.6613 92.0791 17.416C92.3778 17.1707 92.5751 16.84 92.6711 16.424C92.7565 16.2 92.7991 15.9013 92.7991 15.528C92.8205 15.24 92.7885 14.904 92.7031 14.52C92.6285 14.1147 92.4365 13.8053 92.1271 13.592C91.8178 13.368 91.4338 13.256 90.9751 13.256C90.5911 13.256 90.2445 13.336 89.9351 13.496C89.6365 13.6453 89.4231 13.8693 89.2951 14.168C89.2311 14.296 89.1351 14.36 89.0071 14.36H87.8711C87.7965 14.36 87.7378 14.3387 87.6951 14.296C87.6525 14.2533 87.6311 14.1947 87.6311 14.12V8.04C87.6311 7.96533 87.6525 7.90667 87.6951 7.864C87.7378 7.82133 87.7965 7.8 87.8711 7.8H93.6951C93.7698 7.8 93.8285 7.82133 93.8711 7.864C93.9138 7.90667 93.9351 7.96533 93.9351 8.04V8.888C93.9351 8.96267 93.9138 9.02133 93.8711 9.064C93.8285 9.10667 93.7698 9.128 93.6951 9.128H89.2471C89.1938 9.128 89.1671 9.15467 89.1671 9.208L89.1511 12.52C89.1511 12.5947 89.1831 12.6107 89.2471 12.568C89.7591 12.1307 90.4045 11.912 91.1831 11.912C91.9298 11.912 92.5698 12.0987 93.1031 12.472C93.6471 12.8453 94.0098 13.368 94.1911 14.04ZM102.566 14.04C102.683 14.5093 102.742 14.9947 102.742 15.496C102.742 15.9973 102.678 16.4613 102.55 16.888C102.347 17.5707 101.958 18.1147 101.382 18.52C100.817 18.9147 100.139 19.112 99.3501 19.112C98.5715 19.112 97.9048 18.92 97.3501 18.536C96.7955 18.152 96.4061 17.6293 96.1821 16.968C96.0968 16.6907 96.0381 16.4613 96.0061 16.28V16.248C96.0061 16.0987 96.0861 16.024 96.2461 16.024H97.3341C97.4728 16.024 97.5581 16.0987 97.5901 16.248C97.6115 16.376 97.6328 16.4613 97.6541 16.504C97.7608 16.8987 97.9635 17.2133 98.2621 17.448C98.5608 17.672 98.9235 17.784 99.3501 17.784C99.7875 17.784 100.155 17.6613 100.454 17.416C100.753 17.1707 100.95 16.84 101.046 16.424C101.131 16.2 101.174 15.9013 101.174 15.528C101.195 15.24 101.163 14.904 101.078 14.52C101.003 14.1147 100.811 13.8053 100.502 13.592C100.193 13.368 99.8088 13.256 99.3501 13.256C98.9661 13.256 98.6195 13.336 98.3101 13.496C98.0115 13.6453 97.7981 13.8693 97.6701 14.168C97.6061 14.296 97.5101 14.36 97.3821 14.36H96.2461C96.1715 14.36 96.1128 14.3387 96.0701 14.296C96.0275 14.2533 96.0061 14.1947 96.0061 14.12V8.04C96.0061 7.96533 96.0275 7.90667 96.0701 7.864C96.1128 7.82133 96.1715 7.8 96.2461 7.8H102.07C102.145 7.8 102.203 7.82133 102.246 7.864C102.289 7.90667 102.31 7.96533 102.31 8.04V8.888C102.31 8.96267 102.289 9.02133 102.246 9.064C102.203 9.10667 102.145 9.128 102.07 9.128H97.6221C97.5688 9.128 97.5421 9.15467 97.5421 9.208L97.5261 12.52C97.5261 12.5947 97.5581 12.6107 97.6221 12.568C98.1341 12.1307 98.7795 11.912 99.5581 11.912C100.305 11.912 100.945 12.0987 101.478 12.472C102.022 12.8453 102.385 13.368 102.566 14.04ZM104.621 20.376C104.44 20.376 104.365 20.2907 104.397 20.12L105.021 16.728C105.053 16.5787 105.138 16.504 105.277 16.504H106.173C106.258 16.504 106.317 16.5307 106.349 16.584C106.392 16.6267 106.402 16.6907 106.381 16.776L105.469 20.168C105.437 20.3067 105.352 20.376 105.213 20.376H104.621ZM113.403 7.864C113.488 7.82133 113.59 7.8 113.707 7.8H114.843C114.918 7.8 114.976 7.82133 115.019 7.864C115.062 7.90667 115.083 7.96533 115.083 8.04V18.76C115.083 18.8347 115.062 18.8933 115.019 18.936C114.976 18.9787 114.918 19 114.843 19H113.787C113.712 19 113.654 18.9787 113.611 18.936C113.568 18.8933 113.547 18.8347 113.547 18.76V9.384C113.547 9.36267 113.536 9.34667 113.515 9.336C113.494 9.31467 113.472 9.30933 113.451 9.32L111.867 9.864C111.846 9.87467 111.814 9.88 111.771 9.88C111.654 9.88 111.595 9.81067 111.595 9.672V8.936C111.595 8.81867 111.654 8.728 111.771 8.664L113.403 7.864ZM123.847 14.04C123.965 14.5093 124.023 14.9947 124.023 15.496C124.023 15.9973 123.959 16.4613 123.831 16.888C123.629 17.5707 123.239 18.1147 122.663 18.52C122.098 18.9147 121.421 19.112 120.631 19.112C119.853 19.112 119.186 18.92 118.631 18.536C118.077 18.152 117.687 17.6293 117.463 16.968C117.378 16.6907 117.319 16.4613 117.287 16.28V16.248C117.287 16.0987 117.367 16.024 117.527 16.024H118.615C118.754 16.024 118.839 16.0987 118.871 16.248C118.893 16.376 118.914 16.4613 118.935 16.504C119.042 16.8987 119.245 17.2133 119.543 17.448C119.842 17.672 120.205 17.784 120.631 17.784C121.069 17.784 121.437 17.6613 121.735 17.416C122.034 17.1707 122.231 16.84 122.327 16.424C122.413 16.2 122.455 15.9013 122.455 15.528C122.477 15.24 122.445 14.904 122.359 14.52C122.285 14.1147 122.093 13.8053 121.783 13.592C121.474 13.368 121.09 13.256 120.631 13.256C120.247 13.256 119.901 13.336 119.591 13.496C119.293 13.6453 119.079 13.8693 118.951 14.168C118.887 14.296 118.791 14.36 118.663 14.36H117.527C117.453 14.36 117.394 14.3387 117.351 14.296C117.309 14.2533 117.287 14.1947 117.287 14.12V8.04C117.287 7.96533 117.309 7.90667 117.351 7.864C117.394 7.82133 117.453 7.8 117.527 7.8H123.351C123.426 7.8 123.485 7.82133 123.527 7.864C123.57 7.90667 123.591 7.96533 123.591 8.04V8.888C123.591 8.96267 123.57 9.02133 123.527 9.064C123.485 9.10667 123.426 9.128 123.351 9.128H118.903C118.85 9.128 118.823 9.15467 118.823 9.208L118.807 12.52C118.807 12.5947 118.839 12.6107 118.903 12.568C119.415 12.1307 120.061 11.912 120.839 11.912C121.586 11.912 122.226 12.0987 122.759 12.472C123.303 12.8453 123.666 13.368 123.847 14.04ZM132.222 14.04C132.34 14.5093 132.398 14.9947 132.398 15.496C132.398 15.9973 132.334 16.4613 132.206 16.888C132.004 17.5707 131.614 18.1147 131.038 18.52C130.473 18.9147 129.796 19.112 129.006 19.112C128.228 19.112 127.561 18.92 127.006 18.536C126.452 18.152 126.062 17.6293 125.838 16.968C125.753 16.6907 125.694 16.4613 125.662 16.28V16.248C125.662 16.0987 125.742 16.024 125.902 16.024H126.99C127.129 16.024 127.214 16.0987 127.246 16.248C127.268 16.376 127.289 16.4613 127.31 16.504C127.417 16.8987 127.62 17.2133 127.918 17.448C128.217 17.672 128.58 17.784 129.006 17.784C129.444 17.784 129.812 17.6613 130.11 17.416C130.409 17.1707 130.606 16.84 130.702 16.424C130.788 16.2 130.83 15.9013 130.83 15.528C130.852 15.24 130.82 14.904 130.734 14.52C130.66 14.1147 130.468 13.8053 130.158 13.592C129.849 13.368 129.465 13.256 129.006 13.256C128.622 13.256 128.276 13.336 127.966 13.496C127.668 13.6453 127.454 13.8693 127.326 14.168C127.262 14.296 127.166 14.36 127.038 14.36H125.902C125.828 14.36 125.769 14.3387 125.726 14.296C125.684 14.2533 125.662 14.1947 125.662 14.12V8.04C125.662 7.96533 125.684 7.90667 125.726 7.864C125.769 7.82133 125.828 7.8 125.902 7.8H131.726C131.801 7.8 131.86 7.82133 131.902 7.864C131.945 7.90667 131.966 7.96533 131.966 8.04V8.888C131.966 8.96267 131.945 9.02133 131.902 9.064C131.86 9.10667 131.801 9.128 131.726 9.128H127.278C127.225 9.128 127.198 9.15467 127.198 9.208L127.182 12.52C127.182 12.5947 127.214 12.6107 127.278 12.568C127.79 12.1307 128.436 11.912 129.214 11.912C129.961 11.912 130.601 12.0987 131.134 12.472C131.678 12.8453 132.041 13.368 132.222 14.04ZM134.277 20.376C134.096 20.376 134.021 20.2907 134.053 20.12L134.677 16.728C134.709 16.5787 134.795 16.504 134.933 16.504H135.829C135.915 16.504 135.973 16.5307 136.005 16.584C136.048 16.6267 136.059 16.6907 136.037 16.776L135.125 20.168C135.093 20.3067 135.008 20.376 134.869 20.376H134.277ZM147.779 9.768C147.939 10.216 148.019 10.7333 148.019 11.32V16.248C148.019 17.1227 147.715 17.8213 147.107 18.344C146.499 18.8667 145.705 19.128 144.723 19.128C144.094 19.128 143.534 19.0107 143.043 18.776C142.563 18.5413 142.19 18.216 141.923 17.8C141.657 17.3733 141.523 16.888 141.523 16.344V16.104C141.523 16.0293 141.545 15.9707 141.587 15.928C141.63 15.8853 141.689 15.864 141.763 15.864H142.819C142.979 15.864 143.059 15.912 143.059 16.008V16.168C143.059 16.648 143.214 17.0373 143.523 17.336C143.833 17.6347 144.233 17.784 144.723 17.784C145.246 17.784 145.667 17.6293 145.987 17.32C146.318 17.0107 146.483 16.6 146.483 16.088V14.104C146.483 14.072 146.473 14.056 146.451 14.056C146.43 14.0453 146.409 14.0507 146.387 14.072C145.929 14.5733 145.267 14.824 144.403 14.824C143.145 14.824 142.249 14.3227 141.715 13.32C141.417 12.7547 141.267 12.0773 141.267 11.288C141.267 10.6373 141.374 10.0667 141.587 9.576C141.833 8.968 142.211 8.504 142.723 8.184C143.246 7.85333 143.875 7.688 144.611 7.688C145.401 7.688 146.067 7.86933 146.611 8.232C147.166 8.59467 147.555 9.10667 147.779 9.768ZM146.227 12.568C146.398 12.216 146.483 11.7627 146.483 11.208C146.483 10.76 146.414 10.3813 146.275 10.072C146.137 9.73067 145.929 9.47467 145.651 9.304C145.374 9.12267 145.038 9.032 144.643 9.032C143.865 9.032 143.331 9.37333 143.043 10.056C142.883 10.3867 142.803 10.7973 142.803 11.288C142.803 11.8213 142.899 12.2587 143.091 12.6C143.401 13.2187 143.923 13.528 144.659 13.528C145.033 13.528 145.353 13.448 145.619 13.288C145.886 13.1173 146.089 12.8773 146.227 12.568ZM155.194 12.984C155.151 13.0267 155.156 13.064 155.21 13.096C155.658 13.3627 155.988 13.736 156.202 14.216C156.404 14.6533 156.506 15.1867 156.506 15.816C156.506 16.5093 156.367 17.1067 156.09 17.608C155.823 18.088 155.434 18.4613 154.922 18.728C154.41 18.9947 153.807 19.128 153.114 19.128C152.442 19.128 151.85 18.9947 151.338 18.728C150.826 18.4507 150.431 18.056 150.154 17.544C149.876 17.0213 149.738 16.44 149.738 15.8C149.738 15.2133 149.855 14.6747 150.09 14.184C150.314 13.7253 150.634 13.3573 151.049 13.08C151.103 13.048 151.103 13.016 151.049 12.984C150.708 12.76 150.431 12.4773 150.218 12.136C149.919 11.7093 149.77 11.2027 149.77 10.616C149.77 9.99733 149.93 9.45333 150.25 8.984C150.527 8.54667 150.916 8.21067 151.418 7.976C151.919 7.74133 152.49 7.624 153.13 7.624C153.844 7.624 154.458 7.75733 154.97 8.024C155.482 8.28 155.871 8.664 156.138 9.176C156.383 9.61333 156.506 10.0987 156.506 10.632C156.506 11.1547 156.367 11.6347 156.09 12.072C155.834 12.4453 155.535 12.7493 155.194 12.984ZM151.514 9.8C151.364 10.0773 151.289 10.4027 151.289 10.776C151.289 11.1813 151.391 11.528 151.594 11.816C151.743 12.0507 151.951 12.2373 152.218 12.376C152.484 12.504 152.788 12.568 153.13 12.568C153.844 12.568 154.378 12.296 154.73 11.752C154.9 11.4853 154.986 11.1547 154.986 10.76C154.986 10.3867 154.916 10.0773 154.778 9.832C154.628 9.544 154.41 9.32533 154.122 9.176C153.844 9.016 153.514 8.936 153.13 8.936C152.372 8.936 151.834 9.224 151.514 9.8ZM154.618 17.096C154.852 16.7227 154.97 16.248 154.97 15.672C154.97 15.32 154.911 14.9947 154.794 14.696C154.666 14.3547 154.458 14.0933 154.17 13.912C153.882 13.7307 153.535 13.64 153.13 13.64C152.372 13.64 151.834 13.9813 151.514 14.664C151.375 14.952 151.306 15.2987 151.306 15.704C151.306 16.2373 151.407 16.68 151.61 17.032C151.94 17.5547 152.447 17.816 153.13 17.816C153.812 17.816 154.308 17.576 154.618 17.096Z" fill="#162542"/>
</g>
<defs>
<clipPath id="clip0_0_411">
<rect width="158" height="26" fill="white"/>
</clipPath>
</defs>
</svg>
