<svg width="184" height="26" viewBox="0 0 184 26" fill="none" xmlns="http://www.w3.org/2000/svg">
<g clip-path="url(#clip0_0_414)">
<path d="M7.536 8.04C7.536 7.96533 7.55733 7.90667 7.6 7.864C7.64267 7.82133 7.70133 7.8 7.776 7.8H8.832C8.90667 7.8 8.96533 7.82133 9.008 7.864C9.05067 7.90667 9.072 7.96533 9.072 8.04V18.76C9.072 18.8347 9.05067 18.8933 9.008 18.936C8.96533 18.9787 8.90667 19 8.832 19H7.776C7.70133 19 7.64267 18.9787 7.6 18.936C7.55733 18.8933 7.536 18.8347 7.536 18.76V14.104C7.536 14.0507 7.50933 14.024 7.456 14.024H2.928C2.87467 14.024 2.848 14.0507 2.848 14.104V18.76C2.848 18.8347 2.82667 18.8933 2.784 18.936C2.74133 18.9787 2.68267 19 2.608 19H1.552C1.47733 19 1.41867 18.9787 1.376 18.936C1.33333 18.8933 1.312 18.8347 1.312 18.76V8.04C1.312 7.96533 1.33333 7.90667 1.376 7.864C1.41867 7.82133 1.47733 7.8 1.552 7.8H2.608C2.68267 7.8 2.74133 7.82133 2.784 7.864C2.82667 7.90667 2.848 7.96533 2.848 8.04V12.616C2.848 12.6693 2.87467 12.696 2.928 12.696H7.456C7.50933 12.696 7.536 12.6693 7.536 12.616V8.04ZM15.0805 19.128C14.2805 19.128 13.5818 19 12.9845 18.744C12.3872 18.488 11.9232 18.1253 11.5925 17.656C11.2725 17.1867 11.1125 16.6373 11.1125 16.008V15.624C11.1125 15.5493 11.1338 15.4907 11.1765 15.448C11.2192 15.4053 11.2778 15.384 11.3525 15.384H12.3765C12.4512 15.384 12.5098 15.4053 12.5525 15.448C12.5952 15.4907 12.6165 15.5493 12.6165 15.624V15.928C12.6165 16.472 12.8512 16.92 13.3205 17.272C13.7898 17.624 14.4138 17.8 15.1925 17.8C15.9285 17.8 16.4832 17.6453 16.8565 17.336C17.2298 17.0267 17.4165 16.6213 17.4165 16.12C17.4165 15.7893 17.3205 15.5067 17.1285 15.272C16.9365 15.0373 16.6538 14.824 16.2805 14.632C15.9178 14.4293 15.3845 14.1893 14.6805 13.912C13.9018 13.6133 13.2832 13.3413 12.8245 13.096C12.3765 12.8507 12.0032 12.5307 11.7045 12.136C11.4058 11.7307 11.2565 11.224 11.2565 10.616C11.2565 9.69867 11.5818 8.97867 12.2325 8.456C12.8938 7.93333 13.7845 7.672 14.9045 7.672C15.6938 7.672 16.3872 7.80533 16.9845 8.072C17.5818 8.33867 18.0405 8.712 18.3605 9.192C18.6912 9.672 18.8565 10.2267 18.8565 10.856V11.096C18.8565 11.1707 18.8352 11.2293 18.7925 11.272C18.7498 11.3147 18.6912 11.336 18.6165 11.336H17.5765C17.5018 11.336 17.4432 11.32 17.4005 11.288C17.3578 11.2453 17.3365 11.192 17.3365 11.128V10.936C17.3365 10.3813 17.1125 9.92267 16.6645 9.56C16.2272 9.18667 15.6192 9 14.8405 9C14.1792 9 13.6672 9.13867 13.3045 9.416C12.9418 9.68267 12.7605 10.072 12.7605 10.584C12.7605 10.936 12.8512 11.224 13.0325 11.448C13.2138 11.672 13.4805 11.8747 13.8325 12.056C14.1952 12.2267 14.7445 12.4507 15.4805 12.728C16.2378 13.0267 16.8512 13.304 17.3205 13.56C17.7898 13.8053 18.1792 14.136 18.4885 14.552C18.7978 14.9573 18.9525 15.464 18.9525 16.072C18.9525 16.68 18.7978 17.2133 18.4885 17.672C18.1792 18.1307 17.7312 18.488 17.1445 18.744C16.5578 19 15.8698 19.128 15.0805 19.128ZM21.2708 19C21.1961 19 21.1374 18.9787 21.0948 18.936C21.0521 18.8933 21.0308 18.8347 21.0308 18.76V8.04C21.0308 7.96533 21.0521 7.90667 21.0948 7.864C21.1374 7.82133 21.1961 7.8 21.2708 7.8H22.3268C22.4014 7.8 22.4601 7.82133 22.5028 7.864C22.5454 7.90667 22.5668 7.96533 22.5668 8.04V17.592C22.5668 17.6453 22.5934 17.672 22.6468 17.672H28.0708C28.1454 17.672 28.2041 17.6933 28.2468 17.736C28.2894 17.7787 28.3108 17.8373 28.3108 17.912V18.76C28.3108 18.8347 28.2894 18.8933 28.2468 18.936C28.2041 18.9787 28.1454 19 28.0708 19H21.2708Z" fill="#7B8BAD"/>
<path d="M79.104 19C79.0293 19 78.9707 18.9787 78.928 18.936C78.8853 18.8933 78.864 18.8347 78.864 18.76V17.928C78.864 17.8107 78.9013 17.7093 78.976 17.624C79.5627 16.9627 80.176 16.248 80.816 15.48C81.456 14.712 81.8667 14.2213 82.048 14.008C82.0693 13.9867 82.2347 13.7893 82.544 13.416C83.536 12.232 84.032 11.3147 84.032 10.664C84.032 10.1627 83.8613 9.76267 83.52 9.464C83.1893 9.15467 82.7467 9 82.192 9C81.6373 9 81.1947 9.15467 80.864 9.464C80.5333 9.77333 80.3733 10.1787 80.384 10.68V11.08C80.384 11.1547 80.3627 11.2133 80.32 11.256C80.2773 11.2987 80.2187 11.32 80.144 11.32H79.072C78.9973 11.32 78.9387 11.2987 78.896 11.256C78.8533 11.2133 78.832 11.1547 78.832 11.08V10.472C78.8533 9.91733 79.008 9.42667 79.296 9C79.5947 8.57333 79.9947 8.248 80.496 8.024C80.9973 7.78933 81.5627 7.672 82.192 7.672C82.8747 7.672 83.472 7.8 83.984 8.056C84.496 8.312 84.8907 8.664 85.168 9.112C85.4453 9.56 85.584 10.0667 85.584 10.632C85.584 11.5173 85.104 12.5627 84.144 13.768C83.536 14.5467 82.4693 15.816 80.944 17.576C80.9227 17.5973 80.9173 17.6187 80.928 17.64C80.9387 17.6613 80.96 17.672 80.992 17.672H85.648C85.7227 17.672 85.7813 17.6933 85.824 17.736C85.8667 17.7787 85.888 17.8373 85.888 17.912V18.76C85.888 18.8347 85.8667 18.8933 85.824 18.936C85.7813 18.9787 85.7227 19 85.648 19H79.104ZM87.8071 19C87.7325 19 87.6738 18.9787 87.6311 18.936C87.5885 18.8933 87.5671 18.8347 87.5671 18.76V17.928C87.5671 17.8107 87.6045 17.7093 87.6791 17.624C88.2658 16.9627 88.8791 16.248 89.5191 15.48C90.1591 14.712 90.5698 14.2213 90.7511 14.008C90.7725 13.9867 90.9378 13.7893 91.2471 13.416C92.2391 12.232 92.7351 11.3147 92.7351 10.664C92.7351 10.1627 92.5645 9.76267 92.2231 9.464C91.8925 9.15467 91.4498 9 90.8951 9C90.3405 9 89.8978 9.15467 89.5671 9.464C89.2365 9.77333 89.0765 10.1787 89.0871 10.68V11.08C89.0871 11.1547 89.0658 11.2133 89.0231 11.256C88.9805 11.2987 88.9218 11.32 88.8471 11.32H87.7751C87.7005 11.32 87.6418 11.2987 87.5991 11.256C87.5565 11.2133 87.5351 11.1547 87.5351 11.08V10.472C87.5565 9.91733 87.7111 9.42667 87.9991 9C88.2978 8.57333 88.6978 8.248 89.1991 8.024C89.7005 7.78933 90.2658 7.672 90.8951 7.672C91.5778 7.672 92.1751 7.8 92.6871 8.056C93.1991 8.312 93.5938 8.664 93.8711 9.112C94.1485 9.56 94.2871 10.0667 94.2871 10.632C94.2871 11.5173 93.8071 12.5627 92.8471 13.768C92.2391 14.5467 91.1725 15.816 89.6471 17.576C89.6258 17.5973 89.6205 17.6187 89.6311 17.64C89.6418 17.6613 89.6631 17.672 89.6951 17.672H94.3511C94.4258 17.672 94.4845 17.6933 94.5271 17.736C94.5698 17.7787 94.5911 17.8373 94.5911 17.912V18.76C94.5911 18.8347 94.5698 18.8933 94.5271 18.936C94.4845 18.9787 94.4258 19 94.3511 19H87.8071ZM98.4303 11.304C97.9503 11.304 97.5076 11.1867 97.1023 10.952C96.7076 10.7173 96.3929 10.4027 96.1583 10.008C95.9236 9.60267 95.8063 9.16 95.8063 8.68C95.8063 8.2 95.9236 7.76267 96.1583 7.368C96.3929 6.96267 96.7076 6.648 97.1023 6.424C97.5076 6.18933 97.9503 6.072 98.4303 6.072C98.9209 6.072 99.3636 6.18933 99.7583 6.424C100.164 6.648 100.484 6.96267 100.718 7.368C100.953 7.76267 101.07 8.2 101.07 8.68C101.07 9.16 100.953 9.60267 100.718 10.008C100.484 10.4027 100.164 10.7173 99.7583 10.952C99.3636 11.1867 98.9209 11.304 98.4303 11.304ZM98.4303 10.248C98.8783 10.248 99.2516 10.0987 99.5503 9.8C99.8596 9.49067 100.014 9.11733 100.014 8.68C100.014 8.232 99.8596 7.85867 99.5503 7.56C99.2516 7.25067 98.8783 7.096 98.4303 7.096C97.9929 7.096 97.6196 7.25067 97.3103 7.56C97.0116 7.85867 96.8623 8.232 96.8623 8.68C96.8623 9.11733 97.0116 9.49067 97.3103 9.8C97.6196 10.0987 97.9929 10.248 98.4303 10.248ZM102.637 20.376C102.455 20.376 102.381 20.2907 102.413 20.12L103.037 16.728C103.069 16.5787 103.154 16.504 103.293 16.504H104.189C104.274 16.504 104.333 16.5307 104.365 16.584C104.407 16.6267 104.418 16.6907 104.397 16.776L103.485 20.168C103.453 20.3067 103.367 20.376 103.229 20.376H102.637ZM111.419 7.864C111.504 7.82133 111.605 7.8 111.723 7.8H112.859C112.933 7.8 112.992 7.82133 113.035 7.864C113.077 7.90667 113.099 7.96533 113.099 8.04V18.76C113.099 18.8347 113.077 18.8933 113.035 18.936C112.992 18.9787 112.933 19 112.859 19H111.803C111.728 19 111.669 18.9787 111.627 18.936C111.584 18.8933 111.563 18.8347 111.563 18.76V9.384C111.563 9.36267 111.552 9.34667 111.531 9.336C111.509 9.31467 111.488 9.30933 111.467 9.32L109.883 9.864C109.861 9.87467 109.829 9.88 109.787 9.88C109.669 9.88 109.611 9.81067 109.611 9.672V8.936C109.611 8.81867 109.669 8.728 109.787 8.664L111.419 7.864ZM118.887 19.16C117.81 19.16 116.951 18.856 116.311 18.248C115.682 17.6293 115.367 16.8027 115.367 15.768V11.032C115.367 9.99733 115.682 9.176 116.311 8.568C116.951 7.96 117.81 7.656 118.887 7.656C119.964 7.656 120.823 7.96 121.463 8.568C122.114 9.176 122.439 9.99733 122.439 11.032V15.768C122.439 16.8027 122.114 17.6293 121.463 18.248C120.823 18.856 119.964 19.16 118.887 19.16ZM118.887 17.832C119.506 17.832 119.996 17.656 120.359 17.304C120.722 16.9413 120.903 16.4613 120.903 15.864V10.968C120.903 10.3707 120.722 9.896 120.359 9.544C119.996 9.18133 119.506 9 118.887 9C118.29 9 117.81 9.18133 117.447 9.544C117.084 9.896 116.903 10.3707 116.903 10.968V15.864C116.903 16.4613 117.084 16.9413 117.447 17.304C117.81 17.656 118.29 17.832 118.887 17.832ZM127.95 19.16C126.872 19.16 126.014 18.856 125.374 18.248C124.744 17.6293 124.43 16.8027 124.43 15.768V11.032C124.43 9.99733 124.744 9.176 125.374 8.568C126.014 7.96 126.872 7.656 127.95 7.656C129.027 7.656 129.886 7.96 130.526 8.568C131.176 9.176 131.502 9.99733 131.502 11.032V15.768C131.502 16.8027 131.176 17.6293 130.526 18.248C129.886 18.856 129.027 19.16 127.95 19.16ZM127.95 17.832C128.568 17.832 129.059 17.656 129.422 17.304C129.784 16.9413 129.966 16.4613 129.966 15.864V10.968C129.966 10.3707 129.784 9.896 129.422 9.544C129.059 9.18133 128.568 9 127.95 9C127.352 9 126.872 9.18133 126.51 9.544C126.147 9.896 125.966 10.3707 125.966 10.968V15.864C125.966 16.4613 126.147 16.9413 126.51 17.304C126.872 17.656 127.352 17.832 127.95 17.832ZM136.212 12.392C135.775 12.392 135.369 12.2853 134.996 12.072C134.633 11.8587 134.345 11.5707 134.132 11.208C133.919 10.8453 133.812 10.4453 133.812 10.008C133.812 9.58133 133.919 9.18667 134.132 8.824C134.345 8.46133 134.633 8.17867 134.996 7.976C135.369 7.76267 135.775 7.656 136.212 7.656C136.639 7.656 137.033 7.76267 137.396 7.976C137.759 8.18933 138.047 8.47733 138.26 8.84C138.473 9.192 138.58 9.58133 138.58 10.008C138.58 10.4453 138.473 10.8453 138.26 11.208C138.047 11.5707 137.759 11.8587 137.396 12.072C137.033 12.2853 136.639 12.392 136.212 12.392ZM135.844 19C135.78 19 135.727 18.9893 135.684 18.968C135.652 18.936 135.636 18.8987 135.636 18.856C135.636 18.8027 135.652 18.7547 135.684 18.712L141.652 7.96C141.705 7.85333 141.801 7.8 141.94 7.8H142.564C142.628 7.8 142.676 7.816 142.708 7.848C142.751 7.86933 142.772 7.90133 142.772 7.944C142.772 7.98667 142.756 8.03467 142.724 8.088L136.756 18.84C136.703 18.9467 136.607 19 136.468 19H135.844ZM136.212 11.528C136.628 11.528 136.98 11.384 137.268 11.096C137.556 10.7973 137.7 10.4347 137.7 10.008C137.7 9.592 137.551 9.24 137.252 8.952C136.964 8.65333 136.617 8.504 136.212 8.504C135.785 8.504 135.423 8.65333 135.124 8.952C134.836 9.24 134.692 9.592 134.692 10.008C134.692 10.4347 134.836 10.7973 135.124 11.096C135.423 11.384 135.785 11.528 136.212 11.528ZM142.308 19.144C141.871 19.144 141.465 19.0373 141.092 18.824C140.729 18.6107 140.441 18.3227 140.228 17.96C140.015 17.5973 139.908 17.2027 139.908 16.776C139.908 16.3493 140.015 15.9547 140.228 15.592C140.441 15.2293 140.729 14.9413 141.092 14.728C141.465 14.5147 141.871 14.408 142.308 14.408C142.735 14.408 143.129 14.5147 143.492 14.728C143.855 14.9413 144.143 15.2293 144.356 15.592C144.569 15.9547 144.676 16.3493 144.676 16.776C144.676 17.2027 144.569 17.5973 144.356 17.96C144.143 18.3227 143.855 18.6107 143.492 18.824C143.129 19.0373 142.735 19.144 142.308 19.144ZM142.308 18.296C142.724 18.296 143.076 18.1467 143.364 17.848C143.652 17.5493 143.796 17.192 143.796 16.776C143.796 16.36 143.647 16.008 143.348 15.72C143.06 15.4213 142.713 15.272 142.308 15.272C141.881 15.272 141.519 15.4213 141.22 15.72C140.932 16.008 140.788 16.36 140.788 16.776C140.788 17.2027 140.932 17.5653 141.22 17.864C141.519 18.152 141.881 18.296 142.308 18.296ZM147.09 20.376C146.909 20.376 146.834 20.2907 146.866 20.12L147.49 16.728C147.522 16.5787 147.607 16.504 147.746 16.504H148.642C148.727 16.504 148.786 16.5307 148.818 16.584C148.861 16.6267 148.871 16.6907 148.85 16.776L147.938 20.168C147.906 20.3067 147.821 20.376 147.682 20.376H147.09ZM160.56 13.48C160.858 14.0453 161.008 14.7227 161.008 15.512C161.008 16.1627 160.901 16.7333 160.688 17.224C160.442 17.832 160.058 18.3013 159.536 18.632C159.024 18.952 158.4 19.112 157.664 19.112C156.874 19.112 156.202 18.9307 155.648 18.568C155.104 18.2053 154.72 17.6933 154.496 17.032C154.336 16.584 154.256 16.0667 154.256 15.48V10.552C154.256 9.67733 154.56 8.97867 155.168 8.456C155.776 7.93333 156.57 7.672 157.552 7.672C158.181 7.672 158.736 7.78933 159.216 8.024C159.706 8.25867 160.085 8.58933 160.352 9.016C160.618 9.432 160.752 9.912 160.752 10.456V10.696C160.752 10.7707 160.73 10.8293 160.688 10.872C160.645 10.9147 160.586 10.936 160.512 10.936H159.456C159.381 10.936 159.322 10.92 159.28 10.888C159.237 10.856 159.216 10.8187 159.216 10.776V10.632C159.216 10.152 159.061 9.76267 158.752 9.464C158.442 9.16533 158.042 9.016 157.552 9.016C157.029 9.016 156.602 9.17067 156.272 9.48C155.952 9.78933 155.792 10.2 155.792 10.712V12.696C155.792 12.728 155.802 12.7493 155.824 12.76C155.845 12.76 155.866 12.7493 155.888 12.728C156.346 12.2267 157.008 11.976 157.872 11.976C159.13 11.976 160.026 12.4773 160.56 13.48ZM159.232 16.744C159.392 16.4027 159.472 15.992 159.472 15.512C159.472 14.968 159.376 14.5307 159.184 14.2C158.874 13.5813 158.352 13.272 157.616 13.272C157.242 13.272 156.922 13.3573 156.656 13.528C156.389 13.688 156.186 13.9227 156.048 14.232C155.877 14.584 155.792 15.0373 155.792 15.592C155.792 16.04 155.861 16.4187 156 16.728C156.138 17.0693 156.346 17.3307 156.624 17.512C156.901 17.6827 157.237 17.768 157.632 17.768C158.41 17.768 158.944 17.4267 159.232 16.744ZM168.967 9.768C169.127 10.216 169.207 10.7333 169.207 11.32V16.248C169.207 17.1227 168.903 17.8213 168.295 18.344C167.687 18.8667 166.892 19.128 165.911 19.128C165.281 19.128 164.721 19.0107 164.231 18.776C163.751 18.5413 163.377 18.216 163.111 17.8C162.844 17.3733 162.711 16.888 162.711 16.344V16.104C162.711 16.0293 162.732 15.9707 162.775 15.928C162.817 15.8853 162.876 15.864 162.951 15.864H164.007C164.167 15.864 164.247 15.912 164.247 16.008V16.168C164.247 16.648 164.401 17.0373 164.711 17.336C165.02 17.6347 165.42 17.784 165.911 17.784C166.433 17.784 166.855 17.6293 167.175 17.32C167.505 17.0107 167.671 16.6 167.671 16.088V14.104C167.671 14.072 167.66 14.056 167.639 14.056C167.617 14.0453 167.596 14.0507 167.575 14.072C167.116 14.5733 166.455 14.824 165.591 14.824C164.332 14.824 163.436 14.3227 162.903 13.32C162.604 12.7547 162.455 12.0773 162.455 11.288C162.455 10.6373 162.561 10.0667 162.775 9.576C163.02 8.968 163.399 8.504 163.911 8.184C164.433 7.85333 165.063 7.688 165.799 7.688C166.588 7.688 167.255 7.86933 167.799 8.232C168.353 8.59467 168.743 9.10667 168.967 9.768ZM167.415 12.568C167.585 12.216 167.671 11.7627 167.671 11.208C167.671 10.76 167.601 10.3813 167.463 10.072C167.324 9.73067 167.116 9.47467 166.839 9.304C166.561 9.12267 166.225 9.032 165.831 9.032C165.052 9.032 164.519 9.37333 164.231 10.056C164.071 10.3867 163.991 10.7973 163.991 11.288C163.991 11.8213 164.087 12.2587 164.279 12.6C164.588 13.2187 165.111 13.528 165.847 13.528C166.22 13.528 166.54 13.448 166.807 13.288C167.073 13.1173 167.276 12.8773 167.415 12.568ZM173.837 12.392C173.4 12.392 172.994 12.2853 172.621 12.072C172.258 11.8587 171.97 11.5707 171.757 11.208C171.544 10.8453 171.437 10.4453 171.437 10.008C171.437 9.58133 171.544 9.18667 171.757 8.824C171.97 8.46133 172.258 8.17867 172.621 7.976C172.994 7.76267 173.4 7.656 173.837 7.656C174.264 7.656 174.658 7.76267 175.021 7.976C175.384 8.18933 175.672 8.47733 175.885 8.84C176.098 9.192 176.205 9.58133 176.205 10.008C176.205 10.4453 176.098 10.8453 175.885 11.208C175.672 11.5707 175.384 11.8587 175.021 12.072C174.658 12.2853 174.264 12.392 173.837 12.392ZM173.469 19C173.405 19 173.352 18.9893 173.309 18.968C173.277 18.936 173.261 18.8987 173.261 18.856C173.261 18.8027 173.277 18.7547 173.309 18.712L179.277 7.96C179.33 7.85333 179.426 7.8 179.565 7.8H180.189C180.253 7.8 180.301 7.816 180.333 7.848C180.376 7.86933 180.397 7.90133 180.397 7.944C180.397 7.98667 180.381 8.03467 180.349 8.088L174.381 18.84C174.328 18.9467 174.232 19 174.093 19H173.469ZM173.837 11.528C174.253 11.528 174.605 11.384 174.893 11.096C175.181 10.7973 175.325 10.4347 175.325 10.008C175.325 9.592 175.176 9.24 174.877 8.952C174.589 8.65333 174.242 8.504 173.837 8.504C173.41 8.504 173.048 8.65333 172.749 8.952C172.461 9.24 172.317 9.592 172.317 10.008C172.317 10.4347 172.461 10.7973 172.749 11.096C173.048 11.384 173.41 11.528 173.837 11.528ZM179.933 19.144C179.496 19.144 179.09 19.0373 178.717 18.824C178.354 18.6107 178.066 18.3227 177.853 17.96C177.64 17.5973 177.533 17.2027 177.533 16.776C177.533 16.3493 177.64 15.9547 177.853 15.592C178.066 15.2293 178.354 14.9413 178.717 14.728C179.09 14.5147 179.496 14.408 179.933 14.408C180.36 14.408 180.754 14.5147 181.117 14.728C181.48 14.9413 181.768 15.2293 181.981 15.592C182.194 15.9547 182.301 16.3493 182.301 16.776C182.301 17.2027 182.194 17.5973 181.981 17.96C181.768 18.3227 181.48 18.6107 181.117 18.824C180.754 19.0373 180.36 19.144 179.933 19.144ZM179.933 18.296C180.349 18.296 180.701 18.1467 180.989 17.848C181.277 17.5493 181.421 17.192 181.421 16.776C181.421 16.36 181.272 16.008 180.973 15.72C180.685 15.4213 180.338 15.272 179.933 15.272C179.506 15.272 179.144 15.4213 178.845 15.72C178.557 16.008 178.413 16.36 178.413 16.776C178.413 17.2027 178.557 17.5653 178.845 17.864C179.144 18.152 179.506 18.296 179.933 18.296Z" fill="#162542"/>
</g>
<defs>
<clipPath id="clip0_0_414">
<rect width="184" height="26" fill="white"/>
</clipPath>
</defs>
</svg>
