<svg width="183" height="26" viewBox="0 0 183 26" fill="none" xmlns="http://www.w3.org/2000/svg">
<g clip-path="url(#clip0_0_374)">
<path d="M7.536 8.04C7.536 7.96533 7.55733 7.90667 7.6 7.864C7.64267 7.82133 7.70133 7.8 7.776 7.8H8.832C8.90667 7.8 8.96533 7.82133 9.008 7.864C9.05067 7.90667 9.072 7.96533 9.072 8.04V18.76C9.072 18.8347 9.05067 18.8933 9.008 18.936C8.96533 18.9787 8.90667 19 8.832 19H7.776C7.70133 19 7.64267 18.9787 7.6 18.936C7.55733 18.8933 7.536 18.8347 7.536 18.76V14.104C7.536 14.0507 7.50933 14.024 7.456 14.024H2.928C2.87467 14.024 2.848 14.0507 2.848 14.104V18.76C2.848 18.8347 2.82667 18.8933 2.784 18.936C2.74133 18.9787 2.68267 19 2.608 19H1.552C1.47733 19 1.41867 18.9787 1.376 18.936C1.33333 18.8933 1.312 18.8347 1.312 18.76V8.04C1.312 7.96533 1.33333 7.90667 1.376 7.864C1.41867 7.82133 1.47733 7.8 1.552 7.8H2.608C2.68267 7.8 2.74133 7.82133 2.784 7.864C2.82667 7.90667 2.848 7.96533 2.848 8.04V12.616C2.848 12.6693 2.87467 12.696 2.928 12.696H7.456C7.50933 12.696 7.536 12.6693 7.536 12.616V8.04ZM15.0805 19.128C14.2805 19.128 13.5818 19 12.9845 18.744C12.3872 18.488 11.9232 18.1253 11.5925 17.656C11.2725 17.1867 11.1125 16.6373 11.1125 16.008V15.624C11.1125 15.5493 11.1338 15.4907 11.1765 15.448C11.2192 15.4053 11.2778 15.384 11.3525 15.384H12.3765C12.4512 15.384 12.5098 15.4053 12.5525 15.448C12.5952 15.4907 12.6165 15.5493 12.6165 15.624V15.928C12.6165 16.472 12.8512 16.92 13.3205 17.272C13.7898 17.624 14.4138 17.8 15.1925 17.8C15.9285 17.8 16.4832 17.6453 16.8565 17.336C17.2298 17.0267 17.4165 16.6213 17.4165 16.12C17.4165 15.7893 17.3205 15.5067 17.1285 15.272C16.9365 15.0373 16.6538 14.824 16.2805 14.632C15.9178 14.4293 15.3845 14.1893 14.6805 13.912C13.9018 13.6133 13.2832 13.3413 12.8245 13.096C12.3765 12.8507 12.0032 12.5307 11.7045 12.136C11.4058 11.7307 11.2565 11.224 11.2565 10.616C11.2565 9.69867 11.5818 8.97867 12.2325 8.456C12.8938 7.93333 13.7845 7.672 14.9045 7.672C15.6938 7.672 16.3872 7.80533 16.9845 8.072C17.5818 8.33867 18.0405 8.712 18.3605 9.192C18.6912 9.672 18.8565 10.2267 18.8565 10.856V11.096C18.8565 11.1707 18.8352 11.2293 18.7925 11.272C18.7498 11.3147 18.6912 11.336 18.6165 11.336H17.5765C17.5018 11.336 17.4432 11.32 17.4005 11.288C17.3578 11.2453 17.3365 11.192 17.3365 11.128V10.936C17.3365 10.3813 17.1125 9.92267 16.6645 9.56C16.2272 9.18667 15.6192 9 14.8405 9C14.1792 9 13.6672 9.13867 13.3045 9.416C12.9418 9.68267 12.7605 10.072 12.7605 10.584C12.7605 10.936 12.8512 11.224 13.0325 11.448C13.2138 11.672 13.4805 11.8747 13.8325 12.056C14.1952 12.2267 14.7445 12.4507 15.4805 12.728C16.2378 13.0267 16.8512 13.304 17.3205 13.56C17.7898 13.8053 18.1792 14.136 18.4885 14.552C18.7978 14.9573 18.9525 15.464 18.9525 16.072C18.9525 16.68 18.7978 17.2133 18.4885 17.672C18.1792 18.1307 17.7312 18.488 17.1445 18.744C16.5578 19 15.8698 19.128 15.0805 19.128ZM21.2708 19C21.1961 19 21.1374 18.9787 21.0948 18.936C21.0521 18.8933 21.0308 18.8347 21.0308 18.76V8.04C21.0308 7.96533 21.0521 7.90667 21.0948 7.864C21.1374 7.82133 21.1961 7.8 21.2708 7.8H22.3268C22.4014 7.8 22.4601 7.82133 22.5028 7.864C22.5454 7.90667 22.5668 7.96533 22.5668 8.04V17.592C22.5668 17.6453 22.5934 17.672 22.6468 17.672H28.0708C28.1454 17.672 28.2041 17.6933 28.2468 17.736C28.2894 17.7787 28.3108 17.8373 28.3108 17.912V18.76C28.3108 18.8347 28.2894 18.8933 28.2468 18.936C28.2041 18.9787 28.1454 19 28.0708 19H21.2708Z" fill="#7B8BAD"/>
<path d="M80.528 7.864C80.6133 7.82133 80.7147 7.8 80.832 7.8H81.968C82.0427 7.8 82.1013 7.82133 82.144 7.864C82.1867 7.90667 82.208 7.96533 82.208 8.04V18.76C82.208 18.8347 82.1867 18.8933 82.144 18.936C82.1013 18.9787 82.0427 19 81.968 19H80.912C80.8373 19 80.7787 18.9787 80.736 18.936C80.6933 18.8933 80.672 18.8347 80.672 18.76V9.384C80.672 9.36267 80.6613 9.34667 80.64 9.336C80.6187 9.31467 80.5973 9.30933 80.576 9.32L78.992 9.864C78.9707 9.87467 78.9387 9.88 78.896 9.88C78.7787 9.88 78.72 9.81067 78.72 9.672V8.936C78.72 8.81867 78.7787 8.728 78.896 8.664L80.528 7.864ZM90.7324 9.768C90.8924 10.216 90.9724 10.7333 90.9724 11.32V16.248C90.9724 17.1227 90.6684 17.8213 90.0604 18.344C89.4524 18.8667 88.6577 19.128 87.6764 19.128C87.047 19.128 86.487 19.0107 85.9964 18.776C85.5164 18.5413 85.143 18.216 84.8764 17.8C84.6097 17.3733 84.4764 16.888 84.4764 16.344V16.104C84.4764 16.0293 84.4977 15.9707 84.5404 15.928C84.583 15.8853 84.6417 15.864 84.7164 15.864H85.7724C85.9324 15.864 86.0124 15.912 86.0124 16.008V16.168C86.0124 16.648 86.167 17.0373 86.4764 17.336C86.7857 17.6347 87.1857 17.784 87.6764 17.784C88.199 17.784 88.6204 17.6293 88.9404 17.32C89.271 17.0107 89.4364 16.6 89.4364 16.088V14.104C89.4364 14.072 89.4257 14.056 89.4044 14.056C89.383 14.0453 89.3617 14.0507 89.3404 14.072C88.8817 14.5733 88.2204 14.824 87.3564 14.824C86.0977 14.824 85.2017 14.3227 84.6684 13.32C84.3697 12.7547 84.2204 12.0773 84.2204 11.288C84.2204 10.6373 84.327 10.0667 84.5404 9.576C84.7857 8.968 85.1644 8.504 85.6764 8.184C86.199 7.85333 86.8284 7.688 87.5644 7.688C88.3537 7.688 89.0204 7.86933 89.5644 8.232C90.119 8.59467 90.5084 9.10667 90.7324 9.768ZM89.1804 12.568C89.351 12.216 89.4364 11.7627 89.4364 11.208C89.4364 10.76 89.367 10.3813 89.2284 10.072C89.0897 9.73067 88.8817 9.47467 88.6044 9.304C88.327 9.12267 87.991 9.032 87.5964 9.032C86.8177 9.032 86.2844 9.37333 85.9964 10.056C85.8364 10.3867 85.7564 10.7973 85.7564 11.288C85.7564 11.8213 85.8524 12.2587 86.0444 12.6C86.3537 13.2187 86.8764 13.528 87.6124 13.528C87.9857 13.528 88.3057 13.448 88.5724 13.288C88.839 13.1173 89.0417 12.8773 89.1804 12.568ZM98.1466 12.984C98.104 13.0267 98.1093 13.064 98.1626 13.096C98.6106 13.3627 98.9413 13.736 99.1546 14.216C99.3573 14.6533 99.4586 15.1867 99.4586 15.816C99.4586 16.5093 99.32 17.1067 99.0426 17.608C98.776 18.088 98.3866 18.4613 97.8746 18.728C97.3626 18.9947 96.76 19.128 96.0666 19.128C95.3946 19.128 94.8026 18.9947 94.2906 18.728C93.7786 18.4507 93.384 18.056 93.1066 17.544C92.8293 17.0213 92.6906 16.44 92.6906 15.8C92.6906 15.2133 92.808 14.6747 93.0426 14.184C93.2666 13.7253 93.5866 13.3573 94.0026 13.08C94.056 13.048 94.056 13.016 94.0026 12.984C93.6613 12.76 93.384 12.4773 93.1706 12.136C92.872 11.7093 92.7226 11.2027 92.7226 10.616C92.7226 9.99733 92.8826 9.45333 93.2026 8.984C93.48 8.54667 93.8693 8.21067 94.3706 7.976C94.872 7.74133 95.4426 7.624 96.0826 7.624C96.7973 7.624 97.4106 7.75733 97.9226 8.024C98.4346 8.28 98.824 8.664 99.0906 9.176C99.336 9.61333 99.4586 10.0987 99.4586 10.632C99.4586 11.1547 99.32 11.6347 99.0426 12.072C98.7866 12.4453 98.488 12.7493 98.1466 12.984ZM94.4666 9.8C94.3173 10.0773 94.2426 10.4027 94.2426 10.776C94.2426 11.1813 94.344 11.528 94.5466 11.816C94.696 12.0507 94.904 12.2373 95.1706 12.376C95.4373 12.504 95.7413 12.568 96.0826 12.568C96.7973 12.568 97.3306 12.296 97.6826 11.752C97.8533 11.4853 97.9386 11.1547 97.9386 10.76C97.9386 10.3867 97.8693 10.0773 97.7306 9.832C97.5813 9.544 97.3626 9.32533 97.0746 9.176C96.7973 9.016 96.4666 8.936 96.0826 8.936C95.3253 8.936 94.7866 9.224 94.4666 9.8ZM97.5706 17.096C97.8053 16.7227 97.9226 16.248 97.9226 15.672C97.9226 15.32 97.864 14.9947 97.7466 14.696C97.6186 14.3547 97.4106 14.0933 97.1226 13.912C96.8346 13.7307 96.488 13.64 96.0826 13.64C95.3253 13.64 94.7866 13.9813 94.4666 14.664C94.328 14.952 94.2586 15.2987 94.2586 15.704C94.2586 16.2373 94.36 16.68 94.5626 17.032C94.8933 17.5547 95.4 17.816 96.0826 17.816C96.7653 17.816 97.2613 17.576 97.5706 17.096ZM103.352 11.304C102.872 11.304 102.429 11.1867 102.024 10.952C101.629 10.7173 101.315 10.4027 101.08 10.008C100.845 9.60267 100.728 9.16 100.728 8.68C100.728 8.2 100.845 7.76267 101.08 7.368C101.315 6.96267 101.629 6.648 102.024 6.424C102.429 6.18933 102.872 6.072 103.352 6.072C103.843 6.072 104.285 6.18933 104.68 6.424C105.085 6.648 105.405 6.96267 105.64 7.368C105.875 7.76267 105.992 8.2 105.992 8.68C105.992 9.16 105.875 9.60267 105.64 10.008C105.405 10.4027 105.085 10.7173 104.68 10.952C104.285 11.1867 103.843 11.304 103.352 11.304ZM103.352 10.248C103.8 10.248 104.173 10.0987 104.472 9.8C104.781 9.49067 104.936 9.11733 104.936 8.68C104.936 8.232 104.781 7.85867 104.472 7.56C104.173 7.25067 103.8 7.096 103.352 7.096C102.915 7.096 102.541 7.25067 102.232 7.56C101.933 7.85867 101.784 8.232 101.784 8.68C101.784 9.11733 101.933 9.49067 102.232 9.8C102.541 10.0987 102.915 10.248 103.352 10.248ZM107.559 20.376C107.377 20.376 107.303 20.2907 107.335 20.12L107.959 16.728C107.991 16.5787 108.076 16.504 108.215 16.504H109.111C109.196 16.504 109.255 16.5307 109.287 16.584C109.329 16.6267 109.34 16.6907 109.319 16.776L108.407 20.168C108.375 20.3067 108.289 20.376 108.151 20.376H107.559ZM114.917 19C114.842 19 114.783 18.9787 114.741 18.936C114.698 18.8933 114.677 18.8347 114.677 18.76V17.928C114.677 17.8107 114.714 17.7093 114.789 17.624C115.375 16.9627 115.989 16.248 116.629 15.48C117.269 14.712 117.679 14.2213 117.861 14.008C117.882 13.9867 118.047 13.7893 118.357 13.416C119.349 12.232 119.845 11.3147 119.845 10.664C119.845 10.1627 119.674 9.76267 119.333 9.464C119.002 9.15467 118.559 9 118.005 9C117.45 9 117.007 9.15467 116.677 9.464C116.346 9.77333 116.186 10.1787 116.197 10.68V11.08C116.197 11.1547 116.175 11.2133 116.133 11.256C116.09 11.2987 116.031 11.32 115.957 11.32H114.885C114.81 11.32 114.751 11.2987 114.709 11.256C114.666 11.2133 114.645 11.1547 114.645 11.08V10.472C114.666 9.91733 114.821 9.42667 115.109 9C115.407 8.57333 115.807 8.248 116.309 8.024C116.81 7.78933 117.375 7.672 118.005 7.672C118.687 7.672 119.285 7.8 119.797 8.056C120.309 8.312 120.703 8.664 120.981 9.112C121.258 9.56 121.397 10.0667 121.397 10.632C121.397 11.5173 120.917 12.5627 119.957 13.768C119.349 14.5467 118.282 15.816 116.757 17.576C116.735 17.5973 116.73 17.6187 116.741 17.64C116.751 17.6613 116.773 17.672 116.805 17.672H121.461C121.535 17.672 121.594 17.6933 121.637 17.736C121.679 17.7787 121.701 17.8373 121.701 17.912V18.76C121.701 18.8347 121.679 18.8933 121.637 18.936C121.594 18.9787 121.535 19 121.461 19H114.917ZM128.772 12.984C128.729 13.0267 128.734 13.064 128.788 13.096C129.236 13.3627 129.566 13.736 129.78 14.216C129.982 14.6533 130.084 15.1867 130.084 15.816C130.084 16.5093 129.945 17.1067 129.668 17.608C129.401 18.088 129.012 18.4613 128.5 18.728C127.988 18.9947 127.385 19.128 126.692 19.128C126.02 19.128 125.428 18.9947 124.916 18.728C124.404 18.4507 124.009 18.056 123.732 17.544C123.454 17.0213 123.316 16.44 123.316 15.8C123.316 15.2133 123.433 14.6747 123.668 14.184C123.892 13.7253 124.212 13.3573 124.628 13.08C124.681 13.048 124.681 13.016 124.628 12.984C124.286 12.76 124.009 12.4773 123.796 12.136C123.497 11.7093 123.348 11.2027 123.348 10.616C123.348 9.99733 123.508 9.45333 123.828 8.984C124.105 8.54667 124.494 8.21067 124.996 7.976C125.497 7.74133 126.068 7.624 126.708 7.624C127.422 7.624 128.036 7.75733 128.548 8.024C129.06 8.28 129.449 8.664 129.716 9.176C129.961 9.61333 130.084 10.0987 130.084 10.632C130.084 11.1547 129.945 11.6347 129.668 12.072C129.412 12.4453 129.113 12.7493 128.772 12.984ZM125.092 9.8C124.942 10.0773 124.868 10.4027 124.868 10.776C124.868 11.1813 124.969 11.528 125.172 11.816C125.321 12.0507 125.529 12.2373 125.796 12.376C126.062 12.504 126.366 12.568 126.708 12.568C127.422 12.568 127.956 12.296 128.308 11.752C128.478 11.4853 128.564 11.1547 128.564 10.76C128.564 10.3867 128.494 10.0773 128.356 9.832C128.206 9.544 127.988 9.32533 127.7 9.176C127.422 9.016 127.092 8.936 126.708 8.936C125.95 8.936 125.412 9.224 125.092 9.8ZM128.196 17.096C128.43 16.7227 128.548 16.248 128.548 15.672C128.548 15.32 128.489 14.9947 128.372 14.696C128.244 14.3547 128.036 14.0933 127.748 13.912C127.46 13.7307 127.113 13.64 126.708 13.64C125.95 13.64 125.412 13.9813 125.092 14.664C124.953 14.952 124.884 15.2987 124.884 15.704C124.884 16.2373 124.985 16.68 125.188 17.032C125.518 17.5547 126.025 17.816 126.708 17.816C127.39 17.816 127.886 17.576 128.196 17.096ZM134.665 12.392C134.228 12.392 133.822 12.2853 133.449 12.072C133.086 11.8587 132.798 11.5707 132.585 11.208C132.372 10.8453 132.265 10.4453 132.265 10.008C132.265 9.58133 132.372 9.18667 132.585 8.824C132.798 8.46133 133.086 8.17867 133.449 7.976C133.822 7.76267 134.228 7.656 134.665 7.656C135.092 7.656 135.486 7.76267 135.849 7.976C136.212 8.18933 136.5 8.47733 136.713 8.84C136.926 9.192 137.033 9.58133 137.033 10.008C137.033 10.4453 136.926 10.8453 136.713 11.208C136.5 11.5707 136.212 11.8587 135.849 12.072C135.486 12.2853 135.092 12.392 134.665 12.392ZM134.297 19C134.233 19 134.18 18.9893 134.137 18.968C134.105 18.936 134.089 18.8987 134.089 18.856C134.089 18.8027 134.105 18.7547 134.137 18.712L140.105 7.96C140.158 7.85333 140.254 7.8 140.393 7.8H141.017C141.081 7.8 141.129 7.816 141.161 7.848C141.204 7.86933 141.225 7.90133 141.225 7.944C141.225 7.98667 141.209 8.03467 141.177 8.088L135.209 18.84C135.156 18.9467 135.06 19 134.921 19H134.297ZM134.665 11.528C135.081 11.528 135.433 11.384 135.721 11.096C136.009 10.7973 136.153 10.4347 136.153 10.008C136.153 9.592 136.004 9.24 135.705 8.952C135.417 8.65333 135.07 8.504 134.665 8.504C134.238 8.504 133.876 8.65333 133.577 8.952C133.289 9.24 133.145 9.592 133.145 10.008C133.145 10.4347 133.289 10.7973 133.577 11.096C133.876 11.384 134.238 11.528 134.665 11.528ZM140.761 19.144C140.324 19.144 139.918 19.0373 139.545 18.824C139.182 18.6107 138.894 18.3227 138.681 17.96C138.468 17.5973 138.361 17.2027 138.361 16.776C138.361 16.3493 138.468 15.9547 138.681 15.592C138.894 15.2293 139.182 14.9413 139.545 14.728C139.918 14.5147 140.324 14.408 140.761 14.408C141.188 14.408 141.582 14.5147 141.945 14.728C142.308 14.9413 142.596 15.2293 142.809 15.592C143.022 15.9547 143.129 16.3493 143.129 16.776C143.129 17.2027 143.022 17.5973 142.809 17.96C142.596 18.3227 142.308 18.6107 141.945 18.824C141.582 19.0373 141.188 19.144 140.761 19.144ZM140.761 18.296C141.177 18.296 141.529 18.1467 141.817 17.848C142.105 17.5493 142.249 17.192 142.249 16.776C142.249 16.36 142.1 16.008 141.801 15.72C141.513 15.4213 141.166 15.272 140.761 15.272C140.334 15.272 139.972 15.4213 139.673 15.72C139.385 16.008 139.241 16.36 139.241 16.776C139.241 17.2027 139.385 17.5653 139.673 17.864C139.972 18.152 140.334 18.296 140.761 18.296ZM145.543 20.376C145.362 20.376 145.287 20.2907 145.319 20.12L145.943 16.728C145.975 16.5787 146.06 16.504 146.199 16.504H147.095C147.18 16.504 147.239 16.5307 147.271 16.584C147.314 16.6267 147.324 16.6907 147.303 16.776L146.391 20.168C146.359 20.3067 146.274 20.376 146.135 20.376H145.543ZM159.045 9.768C159.205 10.216 159.285 10.7333 159.285 11.32V16.248C159.285 17.1227 158.981 17.8213 158.373 18.344C157.765 18.8667 156.97 19.128 155.989 19.128C155.36 19.128 154.8 19.0107 154.309 18.776C153.829 18.5413 153.456 18.216 153.189 17.8C152.922 17.3733 152.789 16.888 152.789 16.344V16.104C152.789 16.0293 152.81 15.9707 152.853 15.928C152.896 15.8853 152.954 15.864 153.029 15.864H154.085C154.245 15.864 154.325 15.912 154.325 16.008V16.168C154.325 16.648 154.48 17.0373 154.789 17.336C155.098 17.6347 155.498 17.784 155.989 17.784C156.512 17.784 156.933 17.6293 157.253 17.32C157.584 17.0107 157.749 16.6 157.749 16.088V14.104C157.749 14.072 157.738 14.056 157.717 14.056C157.696 14.0453 157.674 14.0507 157.653 14.072C157.194 14.5733 156.533 14.824 155.669 14.824C154.41 14.824 153.514 14.3227 152.981 13.32C152.682 12.7547 152.533 12.0773 152.533 11.288C152.533 10.6373 152.64 10.0667 152.853 9.576C153.098 8.968 153.477 8.504 153.989 8.184C154.512 7.85333 155.141 7.688 155.877 7.688C156.666 7.688 157.333 7.86933 157.877 8.232C158.432 8.59467 158.821 9.10667 159.045 9.768ZM157.493 12.568C157.664 12.216 157.749 11.7627 157.749 11.208C157.749 10.76 157.68 10.3813 157.541 10.072C157.402 9.73067 157.194 9.47467 156.917 9.304C156.64 9.12267 156.304 9.032 155.909 9.032C155.13 9.032 154.597 9.37333 154.309 10.056C154.149 10.3867 154.069 10.7973 154.069 11.288C154.069 11.8213 154.165 12.2587 154.357 12.6C154.666 13.2187 155.189 13.528 155.925 13.528C156.298 13.528 156.618 13.448 156.885 13.288C157.152 13.1173 157.354 12.8773 157.493 12.568ZM167.355 13.688C167.568 14.2 167.675 14.8027 167.675 15.496C167.675 16.008 167.59 16.5307 167.419 17.064C167.184 17.7147 166.795 18.2213 166.251 18.584C165.718 18.9467 165.062 19.128 164.283 19.128C163.515 19.128 162.848 18.9307 162.283 18.536C161.728 18.1307 161.339 17.592 161.115 16.92C160.998 16.5573 160.928 16.1627 160.907 15.736C160.907 15.576 160.987 15.496 161.147 15.496H162.219C162.379 15.496 162.459 15.576 162.459 15.736C162.512 16.1307 162.555 16.3867 162.587 16.504C162.694 16.8987 162.896 17.2133 163.195 17.448C163.494 17.672 163.856 17.784 164.283 17.784C164.688 17.784 165.024 17.6933 165.291 17.512C165.568 17.3307 165.771 17.064 165.899 16.712C166.048 16.328 166.123 15.912 166.123 15.464C166.123 14.888 166.032 14.4027 165.851 14.008C165.574 13.3253 165.046 12.984 164.267 12.984C164.086 12.984 163.899 13.032 163.707 13.128C163.675 13.1493 163.627 13.16 163.563 13.16C163.499 13.16 163.435 13.128 163.371 13.064L162.859 12.44C162.816 12.3867 162.795 12.3333 162.795 12.28C162.795 12.2373 162.822 12.1787 162.875 12.104L165.563 9.24C165.616 9.176 165.606 9.144 165.531 9.144H161.291C161.216 9.144 161.158 9.12267 161.115 9.08C161.072 9.03733 161.051 8.97867 161.051 8.904V8.04C161.051 7.96533 161.072 7.90667 161.115 7.864C161.158 7.82133 161.216 7.8 161.291 7.8H167.339C167.414 7.8 167.472 7.82133 167.515 7.864C167.558 7.90667 167.579 7.96533 167.579 8.04V8.968C167.579 9.096 167.542 9.19733 167.467 9.272L165.019 11.944C164.998 11.9653 164.992 11.9867 165.003 12.008C165.014 12.0293 165.04 12.0453 165.083 12.056C166.171 12.1413 166.928 12.6853 167.355 13.688ZM172.321 12.392C171.884 12.392 171.479 12.2853 171.105 12.072C170.743 11.8587 170.455 11.5707 170.241 11.208C170.028 10.8453 169.921 10.4453 169.921 10.008C169.921 9.58133 170.028 9.18667 170.241 8.824C170.455 8.46133 170.743 8.17867 171.105 7.976C171.479 7.76267 171.884 7.656 172.321 7.656C172.748 7.656 173.143 7.76267 173.505 7.976C173.868 8.18933 174.156 8.47733 174.369 8.84C174.583 9.192 174.689 9.58133 174.689 10.008C174.689 10.4453 174.583 10.8453 174.369 11.208C174.156 11.5707 173.868 11.8587 173.505 12.072C173.143 12.2853 172.748 12.392 172.321 12.392ZM171.953 19C171.889 19 171.836 18.9893 171.793 18.968C171.761 18.936 171.745 18.8987 171.745 18.856C171.745 18.8027 171.761 18.7547 171.793 18.712L177.761 7.96C177.815 7.85333 177.911 7.8 178.049 7.8H178.673C178.737 7.8 178.785 7.816 178.817 7.848C178.86 7.86933 178.881 7.90133 178.881 7.944C178.881 7.98667 178.865 8.03467 178.833 8.088L172.865 18.84C172.812 18.9467 172.716 19 172.577 19H171.953ZM172.321 11.528C172.737 11.528 173.089 11.384 173.377 11.096C173.665 10.7973 173.809 10.4347 173.809 10.008C173.809 9.592 173.66 9.24 173.361 8.952C173.073 8.65333 172.727 8.504 172.321 8.504C171.895 8.504 171.532 8.65333 171.233 8.952C170.945 9.24 170.801 9.592 170.801 10.008C170.801 10.4347 170.945 10.7973 171.233 11.096C171.532 11.384 171.895 11.528 172.321 11.528ZM178.417 19.144C177.98 19.144 177.575 19.0373 177.201 18.824C176.839 18.6107 176.551 18.3227 176.337 17.96C176.124 17.5973 176.017 17.2027 176.017 16.776C176.017 16.3493 176.124 15.9547 176.337 15.592C176.551 15.2293 176.839 14.9413 177.201 14.728C177.575 14.5147 177.98 14.408 178.417 14.408C178.844 14.408 179.239 14.5147 179.601 14.728C179.964 14.9413 180.252 15.2293 180.465 15.592C180.679 15.9547 180.785 16.3493 180.785 16.776C180.785 17.2027 180.679 17.5973 180.465 17.96C180.252 18.3227 179.964 18.6107 179.601 18.824C179.239 19.0373 178.844 19.144 178.417 19.144ZM178.417 18.296C178.833 18.296 179.185 18.1467 179.473 17.848C179.761 17.5493 179.905 17.192 179.905 16.776C179.905 16.36 179.756 16.008 179.457 15.72C179.169 15.4213 178.823 15.272 178.417 15.272C177.991 15.272 177.628 15.4213 177.329 15.72C177.041 16.008 176.897 16.36 176.897 16.776C176.897 17.2027 177.041 17.5653 177.329 17.864C177.628 18.152 177.991 18.296 178.417 18.296Z" fill="#162542"/>
</g>
<defs>
<clipPath id="clip0_0_374">
<rect width="183" height="26" fill="white"/>
</clipPath>
</defs>
</svg>
