<svg width="158" height="26" viewBox="0 0 158 26" fill="none" xmlns="http://www.w3.org/2000/svg">
<path d="M7.76 19C7.632 19 7.54133 18.9413 7.488 18.824L5.28 14.088C5.25867 14.0453 5.22667 14.024 5.184 14.024H2.928C2.87467 14.024 2.848 14.0507 2.848 14.104V18.76C2.848 18.8347 2.82667 18.8933 2.784 18.936C2.74133 18.9787 2.68267 19 2.608 19H1.552C1.47733 19 1.41867 18.9787 1.376 18.936C1.33333 18.8933 1.312 18.8347 1.312 18.76V8.024C1.312 7.94933 1.33333 7.89067 1.376 7.848C1.41867 7.80533 1.47733 7.784 1.552 7.784H5.776C6.416 7.784 6.976 7.91733 7.456 8.184C7.94667 8.45067 8.32533 8.824 8.592 9.304C8.85867 9.784 8.992 10.3387 8.992 10.968C8.992 11.704 8.79467 12.3333 8.4 12.856C8.00533 13.368 7.472 13.7147 6.8 13.896C6.75733 13.9173 6.74133 13.9493 6.752 13.992L9.024 18.712L9.056 18.84C9.056 18.9467 8.98667 19 8.848 19H7.76ZM2.928 9.112C2.87467 9.112 2.848 9.13867 2.848 9.192V12.744C2.848 12.7973 2.87467 12.824 2.928 12.824H5.584C6.13867 12.824 6.58667 12.6533 6.928 12.312C7.28 11.9707 7.456 11.528 7.456 10.984C7.456 10.4187 7.28533 9.96533 6.944 9.624C6.60267 9.28267 6.14933 9.112 5.584 9.112H2.928ZM14.7245 19.128C13.9565 19.128 13.2738 18.9787 12.6765 18.68C12.0898 18.3707 11.6312 17.9387 11.3005 17.384C10.9805 16.8187 10.8205 16.1733 10.8205 15.448V11.352C10.8205 10.616 10.9805 9.97067 11.3005 9.416C11.6312 8.86133 12.0898 8.43467 12.6765 8.136C13.2738 7.82667 13.9565 7.672 14.7245 7.672C15.4925 7.672 16.1698 7.82133 16.7565 8.12C17.3432 8.41867 17.7965 8.83467 18.1165 9.368C18.4472 9.89067 18.6125 10.4827 18.6125 11.144V11.24C18.6125 11.3147 18.5912 11.3733 18.5485 11.416C18.5058 11.4587 18.4472 11.48 18.3725 11.48H17.3165C17.2418 11.48 17.1832 11.464 17.1405 11.432C17.0978 11.4 17.0765 11.3627 17.0765 11.32V11.176C17.0765 10.536 16.8578 10.0187 16.4205 9.624C15.9938 9.21867 15.4285 9.016 14.7245 9.016C14.0098 9.016 13.4338 9.224 12.9965 9.64C12.5698 10.056 12.3565 10.6107 12.3565 11.304V15.496C12.3565 16.1893 12.5805 16.744 13.0285 17.16C13.4765 17.576 14.0632 17.784 14.7885 17.784C15.4925 17.784 16.0472 17.6027 16.4525 17.24C16.8685 16.8667 17.0765 16.36 17.0765 15.72V14.504C17.0765 14.4507 17.0498 14.424 16.9965 14.424H14.9325C14.8578 14.424 14.7992 14.4027 14.7565 14.36C14.7138 14.3173 14.6925 14.2587 14.6925 14.184V13.352C14.6925 13.2773 14.7138 13.2187 14.7565 13.176C14.7992 13.1333 14.8578 13.112 14.9325 13.112H18.3725C18.4472 13.112 18.5058 13.1333 18.5485 13.176C18.5912 13.2187 18.6125 13.2773 18.6125 13.352V15.304C18.6125 16.5307 18.2605 17.4747 17.5565 18.136C16.8632 18.7973 15.9192 19.128 14.7245 19.128ZM26.8276 13.16C26.7636 13.192 26.7583 13.224 26.8116 13.256C27.9316 13.7573 28.4916 14.648 28.4916 15.928C28.4916 16.9093 28.1663 17.6667 27.5156 18.2C26.865 18.7333 26.017 19 24.9716 19H21.0676C20.993 19 20.9343 18.9787 20.8916 18.936C20.849 18.8933 20.8276 18.8347 20.8276 18.76V8.04C20.8276 7.96533 20.849 7.90667 20.8916 7.864C20.9343 7.82133 20.993 7.8 21.0676 7.8H24.8436C25.953 7.8 26.8116 8.056 27.4196 8.568C28.0383 9.06933 28.3476 9.80533 28.3476 10.776C28.3476 11.9173 27.841 12.712 26.8276 13.16ZM22.4436 9.128C22.3903 9.128 22.3636 9.15467 22.3636 9.208V12.552C22.3636 12.6053 22.3903 12.632 22.4436 12.632H24.8436C25.4623 12.632 25.9476 12.4773 26.2996 12.168C26.6623 11.8587 26.8436 11.4373 26.8436 10.904C26.8436 10.36 26.6623 9.928 26.2996 9.608C25.9476 9.288 25.4623 9.128 24.8436 9.128H22.4436ZM24.9716 17.656C25.5796 17.656 26.0596 17.4907 26.4116 17.16C26.7743 16.8187 26.9556 16.36 26.9556 15.784C26.9556 15.208 26.7743 14.7547 26.4116 14.424C26.049 14.0827 25.553 13.912 24.9236 13.912H22.4436C22.3903 13.912 22.3636 13.9387 22.3636 13.992V17.576C22.3636 17.6293 22.3903 17.656 22.4436 17.656H24.9716Z" fill="#7B8BAD"/>
<path d="M79.104 19C79.0293 19 78.9707 18.9787 78.928 18.936C78.8853 18.8933 78.864 18.8347 78.864 18.76V17.928C78.864 17.8107 78.9013 17.7093 78.976 17.624C79.5627 16.9627 80.176 16.248 80.816 15.48C81.456 14.712 81.8667 14.2213 82.048 14.008C82.0693 13.9867 82.2347 13.7893 82.544 13.416C83.536 12.232 84.032 11.3147 84.032 10.664C84.032 10.1627 83.8613 9.76267 83.52 9.464C83.1893 9.15467 82.7467 9 82.192 9C81.6373 9 81.1947 9.15467 80.864 9.464C80.5333 9.77333 80.3733 10.1787 80.384 10.68V11.08C80.384 11.1547 80.3627 11.2133 80.32 11.256C80.2773 11.2987 80.2187 11.32 80.144 11.32H79.072C78.9973 11.32 78.9387 11.2987 78.896 11.256C78.8533 11.2133 78.832 11.1547 78.832 11.08V10.472C78.8533 9.91733 79.008 9.42667 79.296 9C79.5947 8.57333 79.9947 8.248 80.496 8.024C80.9973 7.78933 81.5627 7.672 82.192 7.672C82.8747 7.672 83.472 7.8 83.984 8.056C84.496 8.312 84.8907 8.664 85.168 9.112C85.4453 9.56 85.584 10.0667 85.584 10.632C85.584 11.5173 85.104 12.5627 84.144 13.768C83.536 14.5467 82.4693 15.816 80.944 17.576C80.9227 17.5973 80.9173 17.6187 80.928 17.64C80.9387 17.6613 80.96 17.672 80.992 17.672H85.648C85.7227 17.672 85.7813 17.6933 85.824 17.736C85.8667 17.7787 85.888 17.8373 85.888 17.912V18.76C85.888 18.8347 85.8667 18.8933 85.824 18.936C85.7813 18.9787 85.7227 19 85.648 19H79.104ZM94.7031 14.616C94.7778 14.616 94.8365 14.6373 94.8791 14.68C94.9218 14.7227 94.9431 14.7813 94.9431 14.856V15.752C94.9431 15.8267 94.9218 15.8853 94.8791 15.928C94.8365 15.9707 94.7778 15.992 94.7031 15.992H94.0951C94.0418 15.992 94.0151 16.0187 94.0151 16.072V18.76C94.0151 18.8347 93.9938 18.8933 93.9511 18.936C93.9085 18.9787 93.8498 19 93.7751 19H92.7191C92.6445 19 92.5858 18.9787 92.5431 18.936C92.5005 18.8933 92.4791 18.8347 92.4791 18.76V16.072C92.4791 16.0187 92.4525 15.992 92.3991 15.992H87.6311C87.5565 15.992 87.4978 15.9707 87.4551 15.928C87.4125 15.8853 87.3911 15.8267 87.3911 15.752V15.032C87.3911 14.9253 87.4125 14.824 87.4551 14.728L90.5591 7.976C90.6125 7.85867 90.7031 7.8 90.8311 7.8H91.9511C92.0898 7.8 92.1591 7.85333 92.1591 7.96L92.1271 8.088L89.1831 14.52C89.1725 14.5413 89.1725 14.5627 89.1831 14.584C89.1938 14.6053 89.2098 14.616 89.2311 14.616H92.3991C92.4525 14.616 92.4791 14.5893 92.4791 14.536V12.248C92.4791 12.1733 92.5005 12.1147 92.5431 12.072C92.5858 12.0293 92.6445 12.008 92.7191 12.008H93.7751C93.8498 12.008 93.9085 12.0293 93.9511 12.072C93.9938 12.1147 94.0151 12.1733 94.0151 12.248V14.536C94.0151 14.5893 94.0418 14.616 94.0951 14.616H94.7031ZM97.1843 7.864C97.2696 7.82133 97.3709 7.8 97.4883 7.8H98.6243C98.6989 7.8 98.7576 7.82133 98.8003 7.864C98.8429 7.90667 98.8643 7.96533 98.8643 8.04V18.76C98.8643 18.8347 98.8429 18.8933 98.8003 18.936C98.7576 18.9787 98.6989 19 98.6243 19H97.5683C97.4936 19 97.4349 18.9787 97.3923 18.936C97.3496 18.8933 97.3283 18.8347 97.3283 18.76V9.384C97.3283 9.36267 97.3176 9.34667 97.2963 9.336C97.2749 9.31467 97.2536 9.30933 97.2323 9.32L95.6483 9.864C95.6269 9.87467 95.5949 9.88 95.5523 9.88C95.4349 9.88 95.3763 9.81067 95.3763 9.672V8.936C95.3763 8.81867 95.4349 8.728 95.5523 8.664L97.1843 7.864ZM101.309 20.376C101.127 20.376 101.053 20.2907 101.085 20.12L101.709 16.728C101.741 16.5787 101.826 16.504 101.965 16.504H102.861C102.946 16.504 103.005 16.5307 103.037 16.584C103.079 16.6267 103.09 16.6907 103.069 16.776L102.157 20.168C102.125 20.3067 102.039 20.376 101.901 20.376H101.309ZM110.091 7.864C110.176 7.82133 110.277 7.8 110.395 7.8H111.531C111.605 7.8 111.664 7.82133 111.707 7.864C111.749 7.90667 111.771 7.96533 111.771 8.04V18.76C111.771 18.8347 111.749 18.8933 111.707 18.936C111.664 18.9787 111.605 19 111.531 19H110.475C110.4 19 110.341 18.9787 110.299 18.936C110.256 18.8933 110.235 18.8347 110.235 18.76V9.384C110.235 9.36267 110.224 9.34667 110.203 9.336C110.181 9.31467 110.16 9.30933 110.139 9.32L108.555 9.864C108.533 9.87467 108.501 9.88 108.459 9.88C108.341 9.88 108.283 9.81067 108.283 9.672V8.936C108.283 8.81867 108.341 8.728 108.459 8.664L110.091 7.864ZM117.559 19.16C116.482 19.16 115.623 18.856 114.983 18.248C114.354 17.6293 114.039 16.8027 114.039 15.768V11.032C114.039 9.99733 114.354 9.176 114.983 8.568C115.623 7.96 116.482 7.656 117.559 7.656C118.636 7.656 119.495 7.96 120.135 8.568C120.786 9.176 121.111 9.99733 121.111 11.032V15.768C121.111 16.8027 120.786 17.6293 120.135 18.248C119.495 18.856 118.636 19.16 117.559 19.16ZM117.559 17.832C118.178 17.832 118.668 17.656 119.031 17.304C119.394 16.9413 119.575 16.4613 119.575 15.864V10.968C119.575 10.3707 119.394 9.896 119.031 9.544C118.668 9.18133 118.178 9 117.559 9C116.962 9 116.482 9.18133 116.119 9.544C115.756 9.896 115.575 10.3707 115.575 10.968V15.864C115.575 16.4613 115.756 16.9413 116.119 17.304C116.482 17.656 116.962 17.832 117.559 17.832ZM129.261 13.688C129.475 14.2 129.581 14.8027 129.581 15.496C129.581 16.008 129.496 16.5307 129.325 17.064C129.091 17.7147 128.701 18.2213 128.157 18.584C127.624 18.9467 126.968 19.128 126.189 19.128C125.421 19.128 124.755 18.9307 124.189 18.536C123.635 18.1307 123.245 17.592 123.021 16.92C122.904 16.5573 122.835 16.1627 122.813 15.736C122.813 15.576 122.893 15.496 123.053 15.496H124.125C124.285 15.496 124.365 15.576 124.365 15.736C124.419 16.1307 124.461 16.3867 124.493 16.504C124.6 16.8987 124.803 17.2133 125.101 17.448C125.4 17.672 125.763 17.784 126.189 17.784C126.595 17.784 126.931 17.6933 127.197 17.512C127.475 17.3307 127.677 17.064 127.805 16.712C127.955 16.328 128.029 15.912 128.029 15.464C128.029 14.888 127.939 14.4027 127.757 14.008C127.48 13.3253 126.952 12.984 126.173 12.984C125.992 12.984 125.805 13.032 125.613 13.128C125.581 13.1493 125.533 13.16 125.469 13.16C125.405 13.16 125.341 13.128 125.277 13.064L124.765 12.44C124.723 12.3867 124.701 12.3333 124.701 12.28C124.701 12.2373 124.728 12.1787 124.781 12.104L127.469 9.24C127.523 9.176 127.512 9.144 127.437 9.144H123.197C123.123 9.144 123.064 9.12267 123.021 9.08C122.979 9.03733 122.957 8.97867 122.957 8.904V8.04C122.957 7.96533 122.979 7.90667 123.021 7.864C123.064 7.82133 123.123 7.8 123.197 7.8H129.245C129.32 7.8 129.379 7.82133 129.421 7.864C129.464 7.90667 129.485 7.96533 129.485 8.04V8.968C129.485 9.096 129.448 9.19733 129.373 9.272L126.925 11.944C126.904 11.9653 126.899 11.9867 126.909 12.008C126.92 12.0293 126.947 12.0453 126.989 12.056C128.077 12.1413 128.835 12.6853 129.261 13.688ZM131.684 20.376C131.502 20.376 131.428 20.2907 131.46 20.12L132.084 16.728C132.116 16.5787 132.201 16.504 132.34 16.504H133.236C133.321 16.504 133.38 16.5307 133.412 16.584C133.454 16.6267 133.465 16.6907 133.444 16.776L132.532 20.168C132.5 20.3067 132.414 20.376 132.276 20.376H131.684ZM139.042 19C138.967 19 138.908 18.9787 138.866 18.936C138.823 18.8933 138.802 18.8347 138.802 18.76V17.928C138.802 17.8107 138.839 17.7093 138.914 17.624C139.5 16.9627 140.114 16.248 140.754 15.48C141.394 14.712 141.804 14.2213 141.986 14.008C142.007 13.9867 142.172 13.7893 142.482 13.416C143.474 12.232 143.97 11.3147 143.97 10.664C143.97 10.1627 143.799 9.76267 143.458 9.464C143.127 9.15467 142.684 9 142.13 9C141.575 9 141.132 9.15467 140.802 9.464C140.471 9.77333 140.311 10.1787 140.322 10.68V11.08C140.322 11.1547 140.3 11.2133 140.258 11.256C140.215 11.2987 140.156 11.32 140.082 11.32H139.01C138.935 11.32 138.876 11.2987 138.834 11.256C138.791 11.2133 138.77 11.1547 138.77 11.08V10.472C138.791 9.91733 138.946 9.42667 139.234 9C139.532 8.57333 139.932 8.248 140.434 8.024C140.935 7.78933 141.5 7.672 142.13 7.672C142.812 7.672 143.41 7.8 143.922 8.056C144.434 8.312 144.828 8.664 145.106 9.112C145.383 9.56 145.522 10.0667 145.522 10.632C145.522 11.5173 145.042 12.5627 144.082 13.768C143.474 14.5467 142.407 15.816 140.882 17.576C140.86 17.5973 140.855 17.6187 140.866 17.64C140.876 17.6613 140.898 17.672 140.93 17.672H145.586C145.66 17.672 145.719 17.6933 145.762 17.736C145.804 17.7787 145.826 17.8373 145.826 17.912V18.76C145.826 18.8347 145.804 18.8933 145.762 18.936C145.719 18.9787 145.66 19 145.586 19H139.042ZM154.641 14.616C154.715 14.616 154.774 14.6373 154.817 14.68C154.859 14.7227 154.881 14.7813 154.881 14.856V15.752C154.881 15.8267 154.859 15.8853 154.817 15.928C154.774 15.9707 154.715 15.992 154.641 15.992H154.033C153.979 15.992 153.953 16.0187 153.953 16.072V18.76C153.953 18.8347 153.931 18.8933 153.889 18.936C153.846 18.9787 153.787 19 153.713 19H152.657C152.582 19 152.523 18.9787 152.481 18.936C152.438 18.8933 152.417 18.8347 152.417 18.76V16.072C152.417 16.0187 152.39 15.992 152.337 15.992H147.569C147.494 15.992 147.435 15.9707 147.393 15.928C147.35 15.8853 147.329 15.8267 147.329 15.752V15.032C147.329 14.9253 147.35 14.824 147.393 14.728L150.497 7.976C150.55 7.85867 150.641 7.8 150.769 7.8H151.889C152.027 7.8 152.097 7.85333 152.097 7.96L152.065 8.088L149.121 14.52C149.11 14.5413 149.11 14.5627 149.121 14.584C149.131 14.6053 149.147 14.616 149.169 14.616H152.337C152.39 14.616 152.417 14.5893 152.417 14.536V12.248C152.417 12.1733 152.438 12.1147 152.481 12.072C152.523 12.0293 152.582 12.008 152.657 12.008H153.713C153.787 12.008 153.846 12.0293 153.889 12.072C153.931 12.1147 153.953 12.1733 153.953 12.248V14.536C153.953 14.5893 153.979 14.616 154.033 14.616H154.641Z" fill="#162542"/>
</svg>
