<svg width="183" height="26" viewBox="0 0 183 26" fill="none" xmlns="http://www.w3.org/2000/svg">
<g clip-path="url(#clip0_0_404)">
<path d="M7.536 8.04C7.536 7.96533 7.55733 7.90667 7.6 7.864C7.64267 7.82133 7.70133 7.8 7.776 7.8H8.832C8.90667 7.8 8.96533 7.82133 9.008 7.864C9.05067 7.90667 9.072 7.96533 9.072 8.04V18.76C9.072 18.8347 9.05067 18.8933 9.008 18.936C8.96533 18.9787 8.90667 19 8.832 19H7.776C7.70133 19 7.64267 18.9787 7.6 18.936C7.55733 18.8933 7.536 18.8347 7.536 18.76V14.104C7.536 14.0507 7.50933 14.024 7.456 14.024H2.928C2.87467 14.024 2.848 14.0507 2.848 14.104V18.76C2.848 18.8347 2.82667 18.8933 2.784 18.936C2.74133 18.9787 2.68267 19 2.608 19H1.552C1.47733 19 1.41867 18.9787 1.376 18.936C1.33333 18.8933 1.312 18.8347 1.312 18.76V8.04C1.312 7.96533 1.33333 7.90667 1.376 7.864C1.41867 7.82133 1.47733 7.8 1.552 7.8H2.608C2.68267 7.8 2.74133 7.82133 2.784 7.864C2.82667 7.90667 2.848 7.96533 2.848 8.04V12.616C2.848 12.6693 2.87467 12.696 2.928 12.696H7.456C7.50933 12.696 7.536 12.6693 7.536 12.616V8.04ZM15.0805 19.128C14.2805 19.128 13.5818 19 12.9845 18.744C12.3872 18.488 11.9232 18.1253 11.5925 17.656C11.2725 17.1867 11.1125 16.6373 11.1125 16.008V15.624C11.1125 15.5493 11.1338 15.4907 11.1765 15.448C11.2192 15.4053 11.2778 15.384 11.3525 15.384H12.3765C12.4512 15.384 12.5098 15.4053 12.5525 15.448C12.5952 15.4907 12.6165 15.5493 12.6165 15.624V15.928C12.6165 16.472 12.8512 16.92 13.3205 17.272C13.7898 17.624 14.4138 17.8 15.1925 17.8C15.9285 17.8 16.4832 17.6453 16.8565 17.336C17.2298 17.0267 17.4165 16.6213 17.4165 16.12C17.4165 15.7893 17.3205 15.5067 17.1285 15.272C16.9365 15.0373 16.6538 14.824 16.2805 14.632C15.9178 14.4293 15.3845 14.1893 14.6805 13.912C13.9018 13.6133 13.2832 13.3413 12.8245 13.096C12.3765 12.8507 12.0032 12.5307 11.7045 12.136C11.4058 11.7307 11.2565 11.224 11.2565 10.616C11.2565 9.69867 11.5818 8.97867 12.2325 8.456C12.8938 7.93333 13.7845 7.672 14.9045 7.672C15.6938 7.672 16.3872 7.80533 16.9845 8.072C17.5818 8.33867 18.0405 8.712 18.3605 9.192C18.6912 9.672 18.8565 10.2267 18.8565 10.856V11.096C18.8565 11.1707 18.8352 11.2293 18.7925 11.272C18.7498 11.3147 18.6912 11.336 18.6165 11.336H17.5765C17.5018 11.336 17.4432 11.32 17.4005 11.288C17.3578 11.2453 17.3365 11.192 17.3365 11.128V10.936C17.3365 10.3813 17.1125 9.92267 16.6645 9.56C16.2272 9.18667 15.6192 9 14.8405 9C14.1792 9 13.6672 9.13867 13.3045 9.416C12.9418 9.68267 12.7605 10.072 12.7605 10.584C12.7605 10.936 12.8512 11.224 13.0325 11.448C13.2138 11.672 13.4805 11.8747 13.8325 12.056C14.1952 12.2267 14.7445 12.4507 15.4805 12.728C16.2378 13.0267 16.8512 13.304 17.3205 13.56C17.7898 13.8053 18.1792 14.136 18.4885 14.552C18.7978 14.9573 18.9525 15.464 18.9525 16.072C18.9525 16.68 18.7978 17.2133 18.4885 17.672C18.1792 18.1307 17.7312 18.488 17.1445 18.744C16.5578 19 15.8698 19.128 15.0805 19.128ZM21.2708 19C21.1961 19 21.1374 18.9787 21.0948 18.936C21.0521 18.8933 21.0308 18.8347 21.0308 18.76V8.04C21.0308 7.96533 21.0521 7.90667 21.0948 7.864C21.1374 7.82133 21.1961 7.8 21.2708 7.8H22.3268C22.4014 7.8 22.4601 7.82133 22.5028 7.864C22.5454 7.90667 22.5668 7.96533 22.5668 8.04V17.592C22.5668 17.6453 22.5934 17.672 22.6468 17.672H28.0708C28.1454 17.672 28.2041 17.6933 28.2468 17.736C28.2894 17.7787 28.3108 17.8373 28.3108 17.912V18.76C28.3108 18.8347 28.2894 18.8933 28.2468 18.936C28.2041 18.9787 28.1454 19 28.0708 19H21.2708Z" fill="#7B8BAD"/>
<path d="M79.104 19C79.0293 19 78.9707 18.9787 78.928 18.936C78.8853 18.8933 78.864 18.8347 78.864 18.76V17.928C78.864 17.8107 78.9013 17.7093 78.976 17.624C79.5627 16.9627 80.176 16.248 80.816 15.48C81.456 14.712 81.8667 14.2213 82.048 14.008C82.0693 13.9867 82.2347 13.7893 82.544 13.416C83.536 12.232 84.032 11.3147 84.032 10.664C84.032 10.1627 83.8613 9.76267 83.52 9.464C83.1893 9.15467 82.7467 9 82.192 9C81.6373 9 81.1947 9.15467 80.864 9.464C80.5333 9.77333 80.3733 10.1787 80.384 10.68V11.08C80.384 11.1547 80.3627 11.2133 80.32 11.256C80.2773 11.2987 80.2187 11.32 80.144 11.32H79.072C78.9973 11.32 78.9387 11.2987 78.896 11.256C78.8533 11.2133 78.832 11.1547 78.832 11.08V10.472C78.8533 9.91733 79.008 9.42667 79.296 9C79.5947 8.57333 79.9947 8.248 80.496 8.024C80.9973 7.78933 81.5627 7.672 82.192 7.672C82.8747 7.672 83.472 7.8 83.984 8.056C84.496 8.312 84.8907 8.664 85.168 9.112C85.4453 9.56 85.584 10.0667 85.584 10.632C85.584 11.5173 85.104 12.5627 84.144 13.768C83.536 14.5467 82.4693 15.816 80.944 17.576C80.9227 17.5973 80.9173 17.6187 80.928 17.64C80.9387 17.6613 80.96 17.672 80.992 17.672H85.648C85.7227 17.672 85.7813 17.6933 85.824 17.736C85.8667 17.7787 85.888 17.8373 85.888 17.912V18.76C85.888 18.8347 85.8667 18.8933 85.824 18.936C85.7813 18.9787 85.7227 19 85.648 19H79.104ZM87.8071 19C87.7325 19 87.6738 18.9787 87.6311 18.936C87.5885 18.8933 87.5671 18.8347 87.5671 18.76V17.928C87.5671 17.8107 87.6045 17.7093 87.6791 17.624C88.2658 16.9627 88.8791 16.248 89.5191 15.48C90.1591 14.712 90.5698 14.2213 90.7511 14.008C90.7725 13.9867 90.9378 13.7893 91.2471 13.416C92.2391 12.232 92.7351 11.3147 92.7351 10.664C92.7351 10.1627 92.5645 9.76267 92.2231 9.464C91.8925 9.15467 91.4498 9 90.8951 9C90.3405 9 89.8978 9.15467 89.5671 9.464C89.2365 9.77333 89.0765 10.1787 89.0871 10.68V11.08C89.0871 11.1547 89.0658 11.2133 89.0231 11.256C88.9805 11.2987 88.9218 11.32 88.8471 11.32H87.7751C87.7005 11.32 87.6418 11.2987 87.5991 11.256C87.5565 11.2133 87.5351 11.1547 87.5351 11.08V10.472C87.5565 9.91733 87.7111 9.42667 87.9991 9C88.2978 8.57333 88.6978 8.248 89.1991 8.024C89.7005 7.78933 90.2658 7.672 90.8951 7.672C91.5778 7.672 92.1751 7.8 92.6871 8.056C93.1991 8.312 93.5938 8.664 93.8711 9.112C94.1485 9.56 94.2871 10.0667 94.2871 10.632C94.2871 11.5173 93.8071 12.5627 92.8471 13.768C92.2391 14.5467 91.1725 15.816 89.6471 17.576C89.6258 17.5973 89.6205 17.6187 89.6311 17.64C89.6418 17.6613 89.6631 17.672 89.6951 17.672H94.3511C94.4258 17.672 94.4845 17.6933 94.5271 17.736C94.5698 17.7787 94.5911 17.8373 94.5911 17.912V18.76C94.5911 18.8347 94.5698 18.8933 94.5271 18.936C94.4845 18.9787 94.4258 19 94.3511 19H87.8071ZM97.7624 7.864C97.8477 7.82133 97.949 7.8 98.0664 7.8H99.2024C99.277 7.8 99.3357 7.82133 99.3784 7.864C99.421 7.90667 99.4424 7.96533 99.4424 8.04V18.76C99.4424 18.8347 99.421 18.8933 99.3784 18.936C99.3357 18.9787 99.277 19 99.2024 19H98.1464C98.0717 19 98.013 18.9787 97.9704 18.936C97.9277 18.8933 97.9064 18.8347 97.9064 18.76V9.384C97.9064 9.36267 97.8957 9.34667 97.8744 9.336C97.853 9.31467 97.8317 9.30933 97.8104 9.32L96.2264 9.864C96.205 9.87467 96.173 9.88 96.1304 9.88C96.013 9.88 95.9544 9.81067 95.9544 9.672V8.936C95.9544 8.81867 96.013 8.728 96.1304 8.664L97.7624 7.864ZM103.743 11.304C103.263 11.304 102.82 11.1867 102.415 10.952C102.02 10.7173 101.705 10.4027 101.471 10.008C101.236 9.60267 101.119 9.16 101.119 8.68C101.119 8.2 101.236 7.76267 101.471 7.368C101.705 6.96267 102.02 6.648 102.415 6.424C102.82 6.18933 103.263 6.072 103.743 6.072C104.233 6.072 104.676 6.18933 105.071 6.424C105.476 6.648 105.796 6.96267 106.031 7.368C106.265 7.76267 106.383 8.2 106.383 8.68C106.383 9.16 106.265 9.60267 106.031 10.008C105.796 10.4027 105.476 10.7173 105.071 10.952C104.676 11.1867 104.233 11.304 103.743 11.304ZM103.743 10.248C104.191 10.248 104.564 10.0987 104.863 9.8C105.172 9.49067 105.327 9.11733 105.327 8.68C105.327 8.232 105.172 7.85867 104.863 7.56C104.564 7.25067 104.191 7.096 103.743 7.096C103.305 7.096 102.932 7.25067 102.623 7.56C102.324 7.85867 102.175 8.232 102.175 8.68C102.175 9.11733 102.324 9.49067 102.623 9.8C102.932 10.0987 103.305 10.248 103.743 10.248ZM107.949 20.376C107.768 20.376 107.693 20.2907 107.725 20.12L108.349 16.728C108.381 16.5787 108.467 16.504 108.605 16.504H109.501C109.587 16.504 109.645 16.5307 109.677 16.584C109.72 16.6267 109.731 16.6907 109.709 16.776L108.797 20.168C108.765 20.3067 108.68 20.376 108.541 20.376H107.949ZM115.307 19C115.232 19 115.174 18.9787 115.131 18.936C115.088 18.8933 115.067 18.8347 115.067 18.76V17.928C115.067 17.8107 115.104 17.7093 115.179 17.624C115.766 16.9627 116.379 16.248 117.019 15.48C117.659 14.712 118.07 14.2213 118.251 14.008C118.272 13.9867 118.438 13.7893 118.747 13.416C119.739 12.232 120.235 11.3147 120.235 10.664C120.235 10.1627 120.064 9.76267 119.723 9.464C119.392 9.15467 118.95 9 118.395 9C117.84 9 117.398 9.15467 117.067 9.464C116.736 9.77333 116.576 10.1787 116.587 10.68V11.08C116.587 11.1547 116.566 11.2133 116.523 11.256C116.48 11.2987 116.422 11.32 116.347 11.32H115.275C115.2 11.32 115.142 11.2987 115.099 11.256C115.056 11.2133 115.035 11.1547 115.035 11.08V10.472C115.056 9.91733 115.211 9.42667 115.499 9C115.798 8.57333 116.198 8.248 116.699 8.024C117.2 7.78933 117.766 7.672 118.395 7.672C119.078 7.672 119.675 7.8 120.187 8.056C120.699 8.312 121.094 8.664 121.371 9.112C121.648 9.56 121.787 10.0667 121.787 10.632C121.787 11.5173 121.307 12.5627 120.347 13.768C119.739 14.5467 118.672 15.816 117.147 17.576C117.126 17.5973 117.12 17.6187 117.131 17.64C117.142 17.6613 117.163 17.672 117.195 17.672H121.851C121.926 17.672 121.984 17.6933 122.027 17.736C122.07 17.7787 122.091 17.8373 122.091 17.912V18.76C122.091 18.8347 122.07 18.8933 122.027 18.936C121.984 18.9787 121.926 19 121.851 19H115.307ZM129.918 13.688C130.131 14.2 130.238 14.8027 130.238 15.496C130.238 16.008 130.152 16.5307 129.982 17.064C129.747 17.7147 129.358 18.2213 128.814 18.584C128.28 18.9467 127.624 19.128 126.846 19.128C126.078 19.128 125.411 18.9307 124.846 18.536C124.291 18.1307 123.902 17.592 123.678 16.92C123.56 16.5573 123.491 16.1627 123.47 15.736C123.47 15.576 123.55 15.496 123.71 15.496H124.782C124.942 15.496 125.022 15.576 125.022 15.736C125.075 16.1307 125.118 16.3867 125.15 16.504C125.256 16.8987 125.459 17.2133 125.758 17.448C126.056 17.672 126.419 17.784 126.846 17.784C127.251 17.784 127.587 17.6933 127.854 17.512C128.131 17.3307 128.334 17.064 128.462 16.712C128.611 16.328 128.686 15.912 128.686 15.464C128.686 14.888 128.595 14.4027 128.414 14.008C128.136 13.3253 127.608 12.984 126.83 12.984C126.648 12.984 126.462 13.032 126.27 13.128C126.238 13.1493 126.19 13.16 126.126 13.16C126.062 13.16 125.998 13.128 125.934 13.064L125.422 12.44C125.379 12.3867 125.358 12.3333 125.358 12.28C125.358 12.2373 125.384 12.1787 125.438 12.104L128.126 9.24C128.179 9.176 128.168 9.144 128.094 9.144H123.854C123.779 9.144 123.72 9.12267 123.678 9.08C123.635 9.03733 123.614 8.97867 123.614 8.904V8.04C123.614 7.96533 123.635 7.90667 123.678 7.864C123.72 7.82133 123.779 7.8 123.854 7.8H129.902C129.976 7.8 130.035 7.82133 130.078 7.864C130.12 7.90667 130.142 7.96533 130.142 8.04V8.968C130.142 9.096 130.104 9.19733 130.03 9.272L127.582 11.944C127.56 11.9653 127.555 11.9867 127.566 12.008C127.576 12.0293 127.603 12.0453 127.646 12.056C128.734 12.1413 129.491 12.6853 129.918 13.688ZM134.884 12.392C134.447 12.392 134.041 12.2853 133.668 12.072C133.305 11.8587 133.017 11.5707 132.804 11.208C132.591 10.8453 132.484 10.4453 132.484 10.008C132.484 9.58133 132.591 9.18667 132.804 8.824C133.017 8.46133 133.305 8.17867 133.668 7.976C134.041 7.76267 134.447 7.656 134.884 7.656C135.311 7.656 135.705 7.76267 136.068 7.976C136.431 8.18933 136.719 8.47733 136.932 8.84C137.145 9.192 137.252 9.58133 137.252 10.008C137.252 10.4453 137.145 10.8453 136.932 11.208C136.719 11.5707 136.431 11.8587 136.068 12.072C135.705 12.2853 135.311 12.392 134.884 12.392ZM134.516 19C134.452 19 134.399 18.9893 134.356 18.968C134.324 18.936 134.308 18.8987 134.308 18.856C134.308 18.8027 134.324 18.7547 134.356 18.712L140.324 7.96C140.377 7.85333 140.473 7.8 140.612 7.8H141.236C141.3 7.8 141.348 7.816 141.38 7.848C141.423 7.86933 141.444 7.90133 141.444 7.944C141.444 7.98667 141.428 8.03467 141.396 8.088L135.428 18.84C135.375 18.9467 135.279 19 135.14 19H134.516ZM134.884 11.528C135.3 11.528 135.652 11.384 135.94 11.096C136.228 10.7973 136.372 10.4347 136.372 10.008C136.372 9.592 136.223 9.24 135.924 8.952C135.636 8.65333 135.289 8.504 134.884 8.504C134.457 8.504 134.095 8.65333 133.796 8.952C133.508 9.24 133.364 9.592 133.364 10.008C133.364 10.4347 133.508 10.7973 133.796 11.096C134.095 11.384 134.457 11.528 134.884 11.528ZM140.98 19.144C140.543 19.144 140.137 19.0373 139.764 18.824C139.401 18.6107 139.113 18.3227 138.9 17.96C138.687 17.5973 138.58 17.2027 138.58 16.776C138.58 16.3493 138.687 15.9547 138.9 15.592C139.113 15.2293 139.401 14.9413 139.764 14.728C140.137 14.5147 140.543 14.408 140.98 14.408C141.407 14.408 141.801 14.5147 142.164 14.728C142.527 14.9413 142.815 15.2293 143.028 15.592C143.241 15.9547 143.348 16.3493 143.348 16.776C143.348 17.2027 143.241 17.5973 143.028 17.96C142.815 18.3227 142.527 18.6107 142.164 18.824C141.801 19.0373 141.407 19.144 140.98 19.144ZM140.98 18.296C141.396 18.296 141.748 18.1467 142.036 17.848C142.324 17.5493 142.468 17.192 142.468 16.776C142.468 16.36 142.319 16.008 142.02 15.72C141.732 15.4213 141.385 15.272 140.98 15.272C140.553 15.272 140.191 15.4213 139.892 15.72C139.604 16.008 139.46 16.36 139.46 16.776C139.46 17.2027 139.604 17.5653 139.892 17.864C140.191 18.152 140.553 18.296 140.98 18.296ZM145.762 20.376C145.58 20.376 145.506 20.2907 145.538 20.12L146.162 16.728C146.194 16.5787 146.279 16.504 146.418 16.504H147.314C147.399 16.504 147.458 16.5307 147.49 16.584C147.532 16.6267 147.543 16.6907 147.522 16.776L146.61 20.168C146.578 20.3067 146.492 20.376 146.354 20.376H145.762ZM159.504 14.04C159.621 14.5093 159.68 14.9947 159.68 15.496C159.68 15.9973 159.616 16.4613 159.488 16.888C159.285 17.5707 158.896 18.1147 158.32 18.52C157.754 18.9147 157.077 19.112 156.288 19.112C155.509 19.112 154.842 18.92 154.288 18.536C153.733 18.152 153.344 17.6293 153.12 16.968C153.034 16.6907 152.976 16.4613 152.944 16.28V16.248C152.944 16.0987 153.024 16.024 153.184 16.024H154.272C154.41 16.024 154.496 16.0987 154.528 16.248C154.549 16.376 154.57 16.4613 154.592 16.504C154.698 16.8987 154.901 17.2133 155.2 17.448C155.498 17.672 155.861 17.784 156.288 17.784C156.725 17.784 157.093 17.6613 157.392 17.416C157.69 17.1707 157.888 16.84 157.984 16.424C158.069 16.2 158.112 15.9013 158.112 15.528C158.133 15.24 158.101 14.904 158.016 14.52C157.941 14.1147 157.749 13.8053 157.44 13.592C157.13 13.368 156.746 13.256 156.288 13.256C155.904 13.256 155.557 13.336 155.248 13.496C154.949 13.6453 154.736 13.8693 154.608 14.168C154.544 14.296 154.448 14.36 154.32 14.36H153.184C153.109 14.36 153.05 14.3387 153.008 14.296C152.965 14.2533 152.944 14.1947 152.944 14.12V8.04C152.944 7.96533 152.965 7.90667 153.008 7.864C153.05 7.82133 153.109 7.8 153.184 7.8H159.008C159.082 7.8 159.141 7.82133 159.184 7.864C159.226 7.90667 159.248 7.96533 159.248 8.04V8.888C159.248 8.96267 159.226 9.02133 159.184 9.064C159.141 9.10667 159.082 9.128 159.008 9.128H154.56C154.506 9.128 154.48 9.15467 154.48 9.208L154.464 12.52C154.464 12.5947 154.496 12.6107 154.56 12.568C155.072 12.1307 155.717 11.912 156.496 11.912C157.242 11.912 157.882 12.0987 158.416 12.472C158.96 12.8453 159.322 13.368 159.504 14.04ZM166.647 12.984C166.604 13.0267 166.609 13.064 166.663 13.096C167.111 13.3627 167.441 13.736 167.655 14.216C167.857 14.6533 167.959 15.1867 167.959 15.816C167.959 16.5093 167.82 17.1067 167.543 17.608C167.276 18.088 166.887 18.4613 166.375 18.728C165.863 18.9947 165.26 19.128 164.567 19.128C163.895 19.128 163.303 18.9947 162.791 18.728C162.279 18.4507 161.884 18.056 161.607 17.544C161.329 17.0213 161.191 16.44 161.191 15.8C161.191 15.2133 161.308 14.6747 161.543 14.184C161.767 13.7253 162.087 13.3573 162.503 13.08C162.556 13.048 162.556 13.016 162.503 12.984C162.161 12.76 161.884 12.4773 161.671 12.136C161.372 11.7093 161.223 11.2027 161.223 10.616C161.223 9.99733 161.383 9.45333 161.703 8.984C161.98 8.54667 162.369 8.21067 162.871 7.976C163.372 7.74133 163.943 7.624 164.583 7.624C165.297 7.624 165.911 7.75733 166.423 8.024C166.935 8.28 167.324 8.664 167.591 9.176C167.836 9.61333 167.959 10.0987 167.959 10.632C167.959 11.1547 167.82 11.6347 167.543 12.072C167.287 12.4453 166.988 12.7493 166.647 12.984ZM162.967 9.8C162.817 10.0773 162.743 10.4027 162.743 10.776C162.743 11.1813 162.844 11.528 163.047 11.816C163.196 12.0507 163.404 12.2373 163.671 12.376C163.937 12.504 164.241 12.568 164.583 12.568C165.297 12.568 165.831 12.296 166.183 11.752C166.353 11.4853 166.439 11.1547 166.439 10.76C166.439 10.3867 166.369 10.0773 166.231 9.832C166.081 9.544 165.863 9.32533 165.575 9.176C165.297 9.016 164.967 8.936 164.583 8.936C163.825 8.936 163.287 9.224 162.967 9.8ZM166.071 17.096C166.305 16.7227 166.423 16.248 166.423 15.672C166.423 15.32 166.364 14.9947 166.247 14.696C166.119 14.3547 165.911 14.0933 165.623 13.912C165.335 13.7307 164.988 13.64 164.583 13.64C163.825 13.64 163.287 13.9813 162.967 14.664C162.828 14.952 162.759 15.2987 162.759 15.704C162.759 16.2373 162.86 16.68 163.063 17.032C163.393 17.5547 163.9 17.816 164.583 17.816C165.265 17.816 165.761 17.576 166.071 17.096ZM172.54 12.392C172.103 12.392 171.697 12.2853 171.324 12.072C170.961 11.8587 170.673 11.5707 170.46 11.208C170.247 10.8453 170.14 10.4453 170.14 10.008C170.14 9.58133 170.247 9.18667 170.46 8.824C170.673 8.46133 170.961 8.17867 171.324 7.976C171.697 7.76267 172.103 7.656 172.54 7.656C172.967 7.656 173.361 7.76267 173.724 7.976C174.087 8.18933 174.375 8.47733 174.588 8.84C174.801 9.192 174.908 9.58133 174.908 10.008C174.908 10.4453 174.801 10.8453 174.588 11.208C174.375 11.5707 174.087 11.8587 173.724 12.072C173.361 12.2853 172.967 12.392 172.54 12.392ZM172.172 19C172.108 19 172.055 18.9893 172.012 18.968C171.98 18.936 171.964 18.8987 171.964 18.856C171.964 18.8027 171.98 18.7547 172.012 18.712L177.98 7.96C178.033 7.85333 178.129 7.8 178.268 7.8H178.892C178.956 7.8 179.004 7.816 179.036 7.848C179.079 7.86933 179.1 7.90133 179.1 7.944C179.1 7.98667 179.084 8.03467 179.052 8.088L173.084 18.84C173.031 18.9467 172.935 19 172.796 19H172.172ZM172.54 11.528C172.956 11.528 173.308 11.384 173.596 11.096C173.884 10.7973 174.028 10.4347 174.028 10.008C174.028 9.592 173.879 9.24 173.58 8.952C173.292 8.65333 172.945 8.504 172.54 8.504C172.113 8.504 171.751 8.65333 171.452 8.952C171.164 9.24 171.02 9.592 171.02 10.008C171.02 10.4347 171.164 10.7973 171.452 11.096C171.751 11.384 172.113 11.528 172.54 11.528ZM178.636 19.144C178.199 19.144 177.793 19.0373 177.42 18.824C177.057 18.6107 176.769 18.3227 176.556 17.96C176.343 17.5973 176.236 17.2027 176.236 16.776C176.236 16.3493 176.343 15.9547 176.556 15.592C176.769 15.2293 177.057 14.9413 177.42 14.728C177.793 14.5147 178.199 14.408 178.636 14.408C179.063 14.408 179.457 14.5147 179.82 14.728C180.183 14.9413 180.471 15.2293 180.684 15.592C180.897 15.9547 181.004 16.3493 181.004 16.776C181.004 17.2027 180.897 17.5973 180.684 17.96C180.471 18.3227 180.183 18.6107 179.82 18.824C179.457 19.0373 179.063 19.144 178.636 19.144ZM178.636 18.296C179.052 18.296 179.404 18.1467 179.692 17.848C179.98 17.5493 180.124 17.192 180.124 16.776C180.124 16.36 179.975 16.008 179.676 15.72C179.388 15.4213 179.041 15.272 178.636 15.272C178.209 15.272 177.847 15.4213 177.548 15.72C177.26 16.008 177.116 16.36 177.116 16.776C177.116 17.2027 177.26 17.5653 177.548 17.864C177.847 18.152 178.209 18.296 178.636 18.296Z" fill="#162542"/>
</g>
<defs>
<clipPath id="clip0_0_404">
<rect width="183" height="26" fill="white"/>
</clipPath>
</defs>
</svg>
