<svg width="178" height="26" viewBox="0 0 178 26" fill="none" xmlns="http://www.w3.org/2000/svg">
<g clip-path="url(#clip0_0_364)">
<path d="M7.536 8.04C7.536 7.96533 7.55733 7.90667 7.6 7.864C7.64267 7.82133 7.70133 7.8 7.776 7.8H8.832C8.90667 7.8 8.96533 7.82133 9.008 7.864C9.05067 7.90667 9.072 7.96533 9.072 8.04V18.76C9.072 18.8347 9.05067 18.8933 9.008 18.936C8.96533 18.9787 8.90667 19 8.832 19H7.776C7.70133 19 7.64267 18.9787 7.6 18.936C7.55733 18.8933 7.536 18.8347 7.536 18.76V14.104C7.536 14.0507 7.50933 14.024 7.456 14.024H2.928C2.87467 14.024 2.848 14.0507 2.848 14.104V18.76C2.848 18.8347 2.82667 18.8933 2.784 18.936C2.74133 18.9787 2.68267 19 2.608 19H1.552C1.47733 19 1.41867 18.9787 1.376 18.936C1.33333 18.8933 1.312 18.8347 1.312 18.76V8.04C1.312 7.96533 1.33333 7.90667 1.376 7.864C1.41867 7.82133 1.47733 7.8 1.552 7.8H2.608C2.68267 7.8 2.74133 7.82133 2.784 7.864C2.82667 7.90667 2.848 7.96533 2.848 8.04V12.616C2.848 12.6693 2.87467 12.696 2.928 12.696H7.456C7.50933 12.696 7.536 12.6693 7.536 12.616V8.04ZM15.0805 19.128C14.2805 19.128 13.5818 19 12.9845 18.744C12.3872 18.488 11.9232 18.1253 11.5925 17.656C11.2725 17.1867 11.1125 16.6373 11.1125 16.008V15.624C11.1125 15.5493 11.1338 15.4907 11.1765 15.448C11.2192 15.4053 11.2778 15.384 11.3525 15.384H12.3765C12.4512 15.384 12.5098 15.4053 12.5525 15.448C12.5952 15.4907 12.6165 15.5493 12.6165 15.624V15.928C12.6165 16.472 12.8512 16.92 13.3205 17.272C13.7898 17.624 14.4138 17.8 15.1925 17.8C15.9285 17.8 16.4832 17.6453 16.8565 17.336C17.2298 17.0267 17.4165 16.6213 17.4165 16.12C17.4165 15.7893 17.3205 15.5067 17.1285 15.272C16.9365 15.0373 16.6538 14.824 16.2805 14.632C15.9178 14.4293 15.3845 14.1893 14.6805 13.912C13.9018 13.6133 13.2832 13.3413 12.8245 13.096C12.3765 12.8507 12.0032 12.5307 11.7045 12.136C11.4058 11.7307 11.2565 11.224 11.2565 10.616C11.2565 9.69867 11.5818 8.97867 12.2325 8.456C12.8938 7.93333 13.7845 7.672 14.9045 7.672C15.6938 7.672 16.3872 7.80533 16.9845 8.072C17.5818 8.33867 18.0405 8.712 18.3605 9.192C18.6912 9.672 18.8565 10.2267 18.8565 10.856V11.096C18.8565 11.1707 18.8352 11.2293 18.7925 11.272C18.7498 11.3147 18.6912 11.336 18.6165 11.336H17.5765C17.5018 11.336 17.4432 11.32 17.4005 11.288C17.3578 11.2453 17.3365 11.192 17.3365 11.128V10.936C17.3365 10.3813 17.1125 9.92267 16.6645 9.56C16.2272 9.18667 15.6192 9 14.8405 9C14.1792 9 13.6672 9.13867 13.3045 9.416C12.9418 9.68267 12.7605 10.072 12.7605 10.584C12.7605 10.936 12.8512 11.224 13.0325 11.448C13.2138 11.672 13.4805 11.8747 13.8325 12.056C14.1952 12.2267 14.7445 12.4507 15.4805 12.728C16.2378 13.0267 16.8512 13.304 17.3205 13.56C17.7898 13.8053 18.1792 14.136 18.4885 14.552C18.7978 14.9573 18.9525 15.464 18.9525 16.072C18.9525 16.68 18.7978 17.2133 18.4885 17.672C18.1792 18.1307 17.7312 18.488 17.1445 18.744C16.5578 19 15.8698 19.128 15.0805 19.128ZM21.2708 19C21.1961 19 21.1374 18.9787 21.0948 18.936C21.0521 18.8933 21.0308 18.8347 21.0308 18.76V8.04C21.0308 7.96533 21.0521 7.90667 21.0948 7.864C21.1374 7.82133 21.1961 7.8 21.2708 7.8H22.3268C22.4014 7.8 22.4601 7.82133 22.5028 7.864C22.5454 7.90667 22.5668 7.96533 22.5668 8.04V17.592C22.5668 17.6453 22.5934 17.672 22.6468 17.672H28.0708C28.1454 17.672 28.2041 17.6933 28.2468 17.736C28.2894 17.7787 28.3108 17.8373 28.3108 17.912V18.76C28.3108 18.8347 28.2894 18.8933 28.2468 18.936C28.2041 18.9787 28.1454 19 28.0708 19H21.2708Z" fill="#7B8BAD"/>
<path d="M79.104 19C79.0293 19 78.9707 18.9787 78.928 18.936C78.8853 18.8933 78.864 18.8347 78.864 18.76V17.928C78.864 17.8107 78.9013 17.7093 78.976 17.624C79.5627 16.9627 80.176 16.248 80.816 15.48C81.456 14.712 81.8667 14.2213 82.048 14.008C82.0693 13.9867 82.2347 13.7893 82.544 13.416C83.536 12.232 84.032 11.3147 84.032 10.664C84.032 10.1627 83.8613 9.76267 83.52 9.464C83.1893 9.15467 82.7467 9 82.192 9C81.6373 9 81.1947 9.15467 80.864 9.464C80.5333 9.77333 80.3733 10.1787 80.384 10.68V11.08C80.384 11.1547 80.3627 11.2133 80.32 11.256C80.2773 11.2987 80.2187 11.32 80.144 11.32H79.072C78.9973 11.32 78.9387 11.2987 78.896 11.256C78.8533 11.2133 78.832 11.1547 78.832 11.08V10.472C78.8533 9.91733 79.008 9.42667 79.296 9C79.5947 8.57333 79.9947 8.248 80.496 8.024C80.9973 7.78933 81.5627 7.672 82.192 7.672C82.8747 7.672 83.472 7.8 83.984 8.056C84.496 8.312 84.8907 8.664 85.168 9.112C85.4453 9.56 85.584 10.0667 85.584 10.632C85.584 11.5173 85.104 12.5627 84.144 13.768C83.536 14.5467 82.4693 15.816 80.944 17.576C80.9227 17.5973 80.9173 17.6187 80.928 17.64C80.9387 17.6613 80.96 17.672 80.992 17.672H85.648C85.7227 17.672 85.7813 17.6933 85.824 17.736C85.8667 17.7787 85.888 17.8373 85.888 17.912V18.76C85.888 18.8347 85.8667 18.8933 85.824 18.936C85.7813 18.9787 85.7227 19 85.648 19H79.104ZM87.8071 19C87.7325 19 87.6738 18.9787 87.6311 18.936C87.5885 18.8933 87.5671 18.8347 87.5671 18.76V17.928C87.5671 17.8107 87.6045 17.7093 87.6791 17.624C88.2658 16.9627 88.8791 16.248 89.5191 15.48C90.1591 14.712 90.5698 14.2213 90.7511 14.008C90.7725 13.9867 90.9378 13.7893 91.2471 13.416C92.2391 12.232 92.7351 11.3147 92.7351 10.664C92.7351 10.1627 92.5645 9.76267 92.2231 9.464C91.8925 9.15467 91.4498 9 90.8951 9C90.3405 9 89.8978 9.15467 89.5671 9.464C89.2365 9.77333 89.0765 10.1787 89.0871 10.68V11.08C89.0871 11.1547 89.0658 11.2133 89.0231 11.256C88.9805 11.2987 88.9218 11.32 88.8471 11.32H87.7751C87.7005 11.32 87.6418 11.2987 87.5991 11.256C87.5565 11.2133 87.5351 11.1547 87.5351 11.08V10.472C87.5565 9.91733 87.7111 9.42667 87.9991 9C88.2978 8.57333 88.6978 8.248 89.1991 8.024C89.7005 7.78933 90.2658 7.672 90.8951 7.672C91.5778 7.672 92.1751 7.8 92.6871 8.056C93.1991 8.312 93.5938 8.664 93.8711 9.112C94.1485 9.56 94.2871 10.0667 94.2871 10.632C94.2871 11.5173 93.8071 12.5627 92.8471 13.768C92.2391 14.5467 91.1725 15.816 89.6471 17.576C89.6258 17.5973 89.6205 17.6187 89.6311 17.64C89.6418 17.6613 89.6631 17.672 89.6951 17.672H94.3511C94.4258 17.672 94.4845 17.6933 94.5271 17.736C94.5698 17.7787 94.5911 17.8373 94.5911 17.912V18.76C94.5911 18.8347 94.5698 18.8933 94.5271 18.936C94.4845 18.9787 94.4258 19 94.3511 19H87.8071ZM98.4303 11.304C97.9503 11.304 97.5076 11.1867 97.1023 10.952C96.7076 10.7173 96.3929 10.4027 96.1583 10.008C95.9236 9.60267 95.8063 9.16 95.8063 8.68C95.8063 8.2 95.9236 7.76267 96.1583 7.368C96.3929 6.96267 96.7076 6.648 97.1023 6.424C97.5076 6.18933 97.9503 6.072 98.4303 6.072C98.9209 6.072 99.3636 6.18933 99.7583 6.424C100.164 6.648 100.484 6.96267 100.718 7.368C100.953 7.76267 101.07 8.2 101.07 8.68C101.07 9.16 100.953 9.60267 100.718 10.008C100.484 10.4027 100.164 10.7173 99.7583 10.952C99.3636 11.1867 98.9209 11.304 98.4303 11.304ZM98.4303 10.248C98.8783 10.248 99.2516 10.0987 99.5503 9.8C99.8596 9.49067 100.014 9.11733 100.014 8.68C100.014 8.232 99.8596 7.85867 99.5503 7.56C99.2516 7.25067 98.8783 7.096 98.4303 7.096C97.9929 7.096 97.6196 7.25067 97.3103 7.56C97.0116 7.85867 96.8623 8.232 96.8623 8.68C96.8623 9.11733 97.0116 9.49067 97.3103 9.8C97.6196 10.0987 97.9929 10.248 98.4303 10.248ZM102.637 20.376C102.455 20.376 102.381 20.2907 102.413 20.12L103.037 16.728C103.069 16.5787 103.154 16.504 103.293 16.504H104.189C104.274 16.504 104.333 16.5307 104.365 16.584C104.407 16.6267 104.418 16.6907 104.397 16.776L103.485 20.168C103.453 20.3067 103.367 20.376 103.229 20.376H102.637ZM115.147 12.984C115.104 13.0267 115.109 13.064 115.163 13.096C115.611 13.3627 115.941 13.736 116.155 14.216C116.357 14.6533 116.459 15.1867 116.459 15.816C116.459 16.5093 116.32 17.1067 116.043 17.608C115.776 18.088 115.387 18.4613 114.875 18.728C114.363 18.9947 113.76 19.128 113.067 19.128C112.395 19.128 111.803 18.9947 111.291 18.728C110.779 18.4507 110.384 18.056 110.107 17.544C109.829 17.0213 109.691 16.44 109.691 15.8C109.691 15.2133 109.808 14.6747 110.043 14.184C110.267 13.7253 110.587 13.3573 111.003 13.08C111.056 13.048 111.056 13.016 111.003 12.984C110.661 12.76 110.384 12.4773 110.171 12.136C109.872 11.7093 109.723 11.2027 109.723 10.616C109.723 9.99733 109.883 9.45333 110.203 8.984C110.48 8.54667 110.869 8.21067 111.371 7.976C111.872 7.74133 112.443 7.624 113.083 7.624C113.797 7.624 114.411 7.75733 114.923 8.024C115.435 8.28 115.824 8.664 116.091 9.176C116.336 9.61333 116.459 10.0987 116.459 10.632C116.459 11.1547 116.32 11.6347 116.043 12.072C115.787 12.4453 115.488 12.7493 115.147 12.984ZM111.467 9.8C111.317 10.0773 111.243 10.4027 111.243 10.776C111.243 11.1813 111.344 11.528 111.547 11.816C111.696 12.0507 111.904 12.2373 112.171 12.376C112.437 12.504 112.741 12.568 113.083 12.568C113.797 12.568 114.331 12.296 114.683 11.752C114.853 11.4853 114.939 11.1547 114.939 10.76C114.939 10.3867 114.869 10.0773 114.731 9.832C114.581 9.544 114.363 9.32533 114.075 9.176C113.797 9.016 113.467 8.936 113.083 8.936C112.325 8.936 111.787 9.224 111.467 9.8ZM114.571 17.096C114.805 16.7227 114.923 16.248 114.923 15.672C114.923 15.32 114.864 14.9947 114.747 14.696C114.619 14.3547 114.411 14.0933 114.123 13.912C113.835 13.7307 113.488 13.64 113.083 13.64C112.325 13.64 111.787 13.9813 111.467 14.664C111.328 14.952 111.259 15.2987 111.259 15.704C111.259 16.2373 111.36 16.68 111.563 17.032C111.893 17.5547 112.4 17.816 113.083 17.816C113.765 17.816 114.261 17.576 114.571 17.096ZM124.576 9.768C124.736 10.216 124.816 10.7333 124.816 11.32V16.248C124.816 17.1227 124.512 17.8213 123.904 18.344C123.296 18.8667 122.501 19.128 121.52 19.128C120.891 19.128 120.331 19.0107 119.84 18.776C119.36 18.5413 118.987 18.216 118.72 17.8C118.453 17.3733 118.32 16.888 118.32 16.344V16.104C118.32 16.0293 118.341 15.9707 118.384 15.928C118.427 15.8853 118.485 15.864 118.56 15.864H119.616C119.776 15.864 119.856 15.912 119.856 16.008V16.168C119.856 16.648 120.011 17.0373 120.32 17.336C120.629 17.6347 121.029 17.784 121.52 17.784C122.043 17.784 122.464 17.6293 122.784 17.32C123.115 17.0107 123.28 16.6 123.28 16.088V14.104C123.28 14.072 123.269 14.056 123.248 14.056C123.227 14.0453 123.205 14.0507 123.184 14.072C122.725 14.5733 122.064 14.824 121.2 14.824C119.941 14.824 119.045 14.3227 118.512 13.32C118.213 12.7547 118.064 12.0773 118.064 11.288C118.064 10.6373 118.171 10.0667 118.384 9.576C118.629 8.968 119.008 8.504 119.52 8.184C120.043 7.85333 120.672 7.688 121.408 7.688C122.197 7.688 122.864 7.86933 123.408 8.232C123.963 8.59467 124.352 9.10667 124.576 9.768ZM123.024 12.568C123.195 12.216 123.28 11.7627 123.28 11.208C123.28 10.76 123.211 10.3813 123.072 10.072C122.933 9.73067 122.725 9.47467 122.448 9.304C122.171 9.12267 121.835 9.032 121.44 9.032C120.661 9.032 120.128 9.37333 119.84 10.056C119.68 10.3867 119.6 10.7973 119.6 11.288C119.6 11.8213 119.696 12.2587 119.888 12.6C120.197 13.2187 120.72 13.528 121.456 13.528C121.829 13.528 122.149 13.448 122.416 13.288C122.683 13.1173 122.885 12.8773 123.024 12.568ZM129.446 12.392C129.009 12.392 128.604 12.2853 128.23 12.072C127.868 11.8587 127.58 11.5707 127.366 11.208C127.153 10.8453 127.046 10.4453 127.046 10.008C127.046 9.58133 127.153 9.18667 127.366 8.824C127.58 8.46133 127.868 8.17867 128.23 7.976C128.604 7.76267 129.009 7.656 129.446 7.656C129.873 7.656 130.268 7.76267 130.63 7.976C130.993 8.18933 131.281 8.47733 131.494 8.84C131.708 9.192 131.814 9.58133 131.814 10.008C131.814 10.4453 131.708 10.8453 131.494 11.208C131.281 11.5707 130.993 11.8587 130.63 12.072C130.268 12.2853 129.873 12.392 129.446 12.392ZM129.078 19C129.014 19 128.961 18.9893 128.918 18.968C128.886 18.936 128.87 18.8987 128.87 18.856C128.87 18.8027 128.886 18.7547 128.918 18.712L134.886 7.96C134.94 7.85333 135.036 7.8 135.174 7.8H135.798C135.862 7.8 135.91 7.816 135.942 7.848C135.985 7.86933 136.006 7.90133 136.006 7.944C136.006 7.98667 135.99 8.03467 135.958 8.088L129.99 18.84C129.937 18.9467 129.841 19 129.702 19H129.078ZM129.446 11.528C129.862 11.528 130.214 11.384 130.502 11.096C130.79 10.7973 130.934 10.4347 130.934 10.008C130.934 9.592 130.785 9.24 130.486 8.952C130.198 8.65333 129.852 8.504 129.446 8.504C129.02 8.504 128.657 8.65333 128.358 8.952C128.07 9.24 127.926 9.592 127.926 10.008C127.926 10.4347 128.07 10.7973 128.358 11.096C128.657 11.384 129.02 11.528 129.446 11.528ZM135.542 19.144C135.105 19.144 134.7 19.0373 134.326 18.824C133.964 18.6107 133.676 18.3227 133.462 17.96C133.249 17.5973 133.142 17.2027 133.142 16.776C133.142 16.3493 133.249 15.9547 133.462 15.592C133.676 15.2293 133.964 14.9413 134.326 14.728C134.7 14.5147 135.105 14.408 135.542 14.408C135.969 14.408 136.364 14.5147 136.726 14.728C137.089 14.9413 137.377 15.2293 137.59 15.592C137.804 15.9547 137.91 16.3493 137.91 16.776C137.91 17.2027 137.804 17.5973 137.59 17.96C137.377 18.3227 137.089 18.6107 136.726 18.824C136.364 19.0373 135.969 19.144 135.542 19.144ZM135.542 18.296C135.958 18.296 136.31 18.1467 136.598 17.848C136.886 17.5493 137.03 17.192 137.03 16.776C137.03 16.36 136.881 16.008 136.582 15.72C136.294 15.4213 135.948 15.272 135.542 15.272C135.116 15.272 134.753 15.4213 134.454 15.72C134.166 16.008 134.022 16.36 134.022 16.776C134.022 17.2027 134.166 17.5653 134.454 17.864C134.753 18.152 135.116 18.296 135.542 18.296ZM140.324 20.376C140.143 20.376 140.068 20.2907 140.1 20.12L140.724 16.728C140.756 16.5787 140.842 16.504 140.98 16.504H141.876C141.962 16.504 142.02 16.5307 142.052 16.584C142.095 16.6267 142.106 16.6907 142.084 16.776L141.172 20.168C141.14 20.3067 141.055 20.376 140.916 20.376H140.324ZM154.066 14.04C154.183 14.5093 154.242 14.9947 154.242 15.496C154.242 15.9973 154.178 16.4613 154.05 16.888C153.847 17.5707 153.458 18.1147 152.882 18.52C152.317 18.9147 151.639 19.112 150.85 19.112C150.071 19.112 149.405 18.92 148.85 18.536C148.295 18.152 147.906 17.6293 147.682 16.968C147.597 16.6907 147.538 16.4613 147.506 16.28V16.248C147.506 16.0987 147.586 16.024 147.746 16.024H148.834C148.973 16.024 149.058 16.0987 149.09 16.248C149.111 16.376 149.133 16.4613 149.154 16.504C149.261 16.8987 149.463 17.2133 149.762 17.448C150.061 17.672 150.423 17.784 150.85 17.784C151.287 17.784 151.655 17.6613 151.954 17.416C152.253 17.1707 152.45 16.84 152.546 16.424C152.631 16.2 152.674 15.9013 152.674 15.528C152.695 15.24 152.663 14.904 152.578 14.52C152.503 14.1147 152.311 13.8053 152.002 13.592C151.693 13.368 151.309 13.256 150.85 13.256C150.466 13.256 150.119 13.336 149.81 13.496C149.511 13.6453 149.298 13.8693 149.17 14.168C149.106 14.296 149.01 14.36 148.882 14.36H147.746C147.671 14.36 147.613 14.3387 147.57 14.296C147.527 14.2533 147.506 14.1947 147.506 14.12V8.04C147.506 7.96533 147.527 7.90667 147.57 7.864C147.613 7.82133 147.671 7.8 147.746 7.8H153.57C153.645 7.8 153.703 7.82133 153.746 7.864C153.789 7.90667 153.81 7.96533 153.81 8.04V8.888C153.81 8.96267 153.789 9.02133 153.746 9.064C153.703 9.10667 153.645 9.128 153.57 9.128H149.122C149.069 9.128 149.042 9.15467 149.042 9.208L149.026 12.52C149.026 12.5947 149.058 12.6107 149.122 12.568C149.634 12.1307 150.279 11.912 151.058 11.912C151.805 11.912 152.445 12.0987 152.978 12.472C153.522 12.8453 153.885 13.368 154.066 14.04ZM156.057 19C155.982 19 155.924 18.9787 155.881 18.936C155.838 18.8933 155.817 18.8347 155.817 18.76V17.928C155.817 17.8107 155.854 17.7093 155.929 17.624C156.516 16.9627 157.129 16.248 157.769 15.48C158.409 14.712 158.82 14.2213 159.001 14.008C159.022 13.9867 159.188 13.7893 159.497 13.416C160.489 12.232 160.985 11.3147 160.985 10.664C160.985 10.1627 160.814 9.76267 160.473 9.464C160.142 9.15467 159.7 9 159.145 9C158.59 9 158.148 9.15467 157.817 9.464C157.486 9.77333 157.326 10.1787 157.337 10.68V11.08C157.337 11.1547 157.316 11.2133 157.273 11.256C157.23 11.2987 157.172 11.32 157.097 11.32H156.025C155.95 11.32 155.892 11.2987 155.849 11.256C155.806 11.2133 155.785 11.1547 155.785 11.08V10.472C155.806 9.91733 155.961 9.42667 156.249 9C156.548 8.57333 156.948 8.248 157.449 8.024C157.95 7.78933 158.516 7.672 159.145 7.672C159.828 7.672 160.425 7.8 160.937 8.056C161.449 8.312 161.844 8.664 162.121 9.112C162.398 9.56 162.537 10.0667 162.537 10.632C162.537 11.5173 162.057 12.5627 161.097 13.768C160.489 14.5467 159.422 15.816 157.897 17.576C157.876 17.5973 157.87 17.6187 157.881 17.64C157.892 17.6613 157.913 17.672 157.945 17.672H162.601C162.676 17.672 162.734 17.6933 162.777 17.736C162.82 17.7787 162.841 17.8373 162.841 17.912V18.76C162.841 18.8347 162.82 18.8933 162.777 18.936C162.734 18.9787 162.676 19 162.601 19H156.057ZM167.368 12.392C166.931 12.392 166.526 12.2853 166.152 12.072C165.79 11.8587 165.502 11.5707 165.288 11.208C165.075 10.8453 164.968 10.4453 164.968 10.008C164.968 9.58133 165.075 9.18667 165.288 8.824C165.502 8.46133 165.79 8.17867 166.152 7.976C166.526 7.76267 166.931 7.656 167.368 7.656C167.795 7.656 168.19 7.76267 168.552 7.976C168.915 8.18933 169.203 8.47733 169.416 8.84C169.63 9.192 169.736 9.58133 169.736 10.008C169.736 10.4453 169.63 10.8453 169.416 11.208C169.203 11.5707 168.915 11.8587 168.552 12.072C168.19 12.2853 167.795 12.392 167.368 12.392ZM167 19C166.936 19 166.883 18.9893 166.84 18.968C166.808 18.936 166.792 18.8987 166.792 18.856C166.792 18.8027 166.808 18.7547 166.84 18.712L172.808 7.96C172.862 7.85333 172.958 7.8 173.096 7.8H173.72C173.784 7.8 173.832 7.816 173.864 7.848C173.907 7.86933 173.928 7.90133 173.928 7.944C173.928 7.98667 173.912 8.03467 173.88 8.088L167.912 18.84C167.859 18.9467 167.763 19 167.624 19H167ZM167.368 11.528C167.784 11.528 168.136 11.384 168.424 11.096C168.712 10.7973 168.856 10.4347 168.856 10.008C168.856 9.592 168.707 9.24 168.408 8.952C168.12 8.65333 167.774 8.504 167.368 8.504C166.942 8.504 166.579 8.65333 166.28 8.952C165.992 9.24 165.848 9.592 165.848 10.008C165.848 10.4347 165.992 10.7973 166.28 11.096C166.579 11.384 166.942 11.528 167.368 11.528ZM173.464 19.144C173.027 19.144 172.622 19.0373 172.248 18.824C171.886 18.6107 171.598 18.3227 171.384 17.96C171.171 17.5973 171.064 17.2027 171.064 16.776C171.064 16.3493 171.171 15.9547 171.384 15.592C171.598 15.2293 171.886 14.9413 172.248 14.728C172.622 14.5147 173.027 14.408 173.464 14.408C173.891 14.408 174.286 14.5147 174.648 14.728C175.011 14.9413 175.299 15.2293 175.512 15.592C175.726 15.9547 175.832 16.3493 175.832 16.776C175.832 17.2027 175.726 17.5973 175.512 17.96C175.299 18.3227 175.011 18.6107 174.648 18.824C174.286 19.0373 173.891 19.144 173.464 19.144ZM173.464 18.296C173.88 18.296 174.232 18.1467 174.52 17.848C174.808 17.5493 174.952 17.192 174.952 16.776C174.952 16.36 174.803 16.008 174.504 15.72C174.216 15.4213 173.87 15.272 173.464 15.272C173.038 15.272 172.675 15.4213 172.376 15.72C172.088 16.008 171.944 16.36 171.944 16.776C171.944 17.2027 172.088 17.5653 172.376 17.864C172.675 18.152 173.038 18.296 173.464 18.296Z" fill="#162542"/>
</g>
<defs>
<clipPath id="clip0_0_364">
<rect width="178" height="26" fill="white"/>
</clipPath>
</defs>
</svg>
