<svg width="144" height="26" viewBox="0 0 144 26" fill="none" xmlns="http://www.w3.org/2000/svg">
<path d="M7.76 19C7.632 19 7.54133 18.9413 7.488 18.824L5.28 14.088C5.25867 14.0453 5.22667 14.024 5.184 14.024H2.928C2.87467 14.024 2.848 14.0507 2.848 14.104V18.76C2.848 18.8347 2.82667 18.8933 2.784 18.936C2.74133 18.9787 2.68267 19 2.608 19H1.552C1.47733 19 1.41867 18.9787 1.376 18.936C1.33333 18.8933 1.312 18.8347 1.312 18.76V8.024C1.312 7.94933 1.33333 7.89067 1.376 7.848C1.41867 7.80533 1.47733 7.784 1.552 7.784H5.776C6.416 7.784 6.976 7.91733 7.456 8.184C7.94667 8.45067 8.32533 8.824 8.592 9.304C8.85867 9.784 8.992 10.3387 8.992 10.968C8.992 11.704 8.79467 12.3333 8.4 12.856C8.00533 13.368 7.472 13.7147 6.8 13.896C6.75733 13.9173 6.74133 13.9493 6.752 13.992L9.024 18.712L9.056 18.84C9.056 18.9467 8.98667 19 8.848 19H7.76ZM2.928 9.112C2.87467 9.112 2.848 9.13867 2.848 9.192V12.744C2.848 12.7973 2.87467 12.824 2.928 12.824H5.584C6.13867 12.824 6.58667 12.6533 6.928 12.312C7.28 11.9707 7.456 11.528 7.456 10.984C7.456 10.4187 7.28533 9.96533 6.944 9.624C6.60267 9.28267 6.14933 9.112 5.584 9.112H2.928ZM14.7245 19.128C13.9565 19.128 13.2738 18.9787 12.6765 18.68C12.0898 18.3707 11.6312 17.9387 11.3005 17.384C10.9805 16.8187 10.8205 16.1733 10.8205 15.448V11.352C10.8205 10.616 10.9805 9.97067 11.3005 9.416C11.6312 8.86133 12.0898 8.43467 12.6765 8.136C13.2738 7.82667 13.9565 7.672 14.7245 7.672C15.4925 7.672 16.1698 7.82133 16.7565 8.12C17.3432 8.41867 17.7965 8.83467 18.1165 9.368C18.4472 9.89067 18.6125 10.4827 18.6125 11.144V11.24C18.6125 11.3147 18.5912 11.3733 18.5485 11.416C18.5058 11.4587 18.4472 11.48 18.3725 11.48H17.3165C17.2418 11.48 17.1832 11.464 17.1405 11.432C17.0978 11.4 17.0765 11.3627 17.0765 11.32V11.176C17.0765 10.536 16.8578 10.0187 16.4205 9.624C15.9938 9.21867 15.4285 9.016 14.7245 9.016C14.0098 9.016 13.4338 9.224 12.9965 9.64C12.5698 10.056 12.3565 10.6107 12.3565 11.304V15.496C12.3565 16.1893 12.5805 16.744 13.0285 17.16C13.4765 17.576 14.0632 17.784 14.7885 17.784C15.4925 17.784 16.0472 17.6027 16.4525 17.24C16.8685 16.8667 17.0765 16.36 17.0765 15.72V14.504C17.0765 14.4507 17.0498 14.424 16.9965 14.424H14.9325C14.8578 14.424 14.7992 14.4027 14.7565 14.36C14.7138 14.3173 14.6925 14.2587 14.6925 14.184V13.352C14.6925 13.2773 14.7138 13.2187 14.7565 13.176C14.7992 13.1333 14.8578 13.112 14.9325 13.112H18.3725C18.4472 13.112 18.5058 13.1333 18.5485 13.176C18.5912 13.2187 18.6125 13.2773 18.6125 13.352V15.304C18.6125 16.5307 18.2605 17.4747 17.5565 18.136C16.8632 18.7973 15.9192 19.128 14.7245 19.128ZM26.8276 13.16C26.7636 13.192 26.7583 13.224 26.8116 13.256C27.9316 13.7573 28.4916 14.648 28.4916 15.928C28.4916 16.9093 28.1663 17.6667 27.5156 18.2C26.865 18.7333 26.017 19 24.9716 19H21.0676C20.993 19 20.9343 18.9787 20.8916 18.936C20.849 18.8933 20.8276 18.8347 20.8276 18.76V8.04C20.8276 7.96533 20.849 7.90667 20.8916 7.864C20.9343 7.82133 20.993 7.8 21.0676 7.8H24.8436C25.953 7.8 26.8116 8.056 27.4196 8.568C28.0383 9.06933 28.3476 9.80533 28.3476 10.776C28.3476 11.9173 27.841 12.712 26.8276 13.16ZM22.4436 9.128C22.3903 9.128 22.3636 9.15467 22.3636 9.208V12.552C22.3636 12.6053 22.3903 12.632 22.4436 12.632H24.8436C25.4623 12.632 25.9476 12.4773 26.2996 12.168C26.6623 11.8587 26.8436 11.4373 26.8436 10.904C26.8436 10.36 26.6623 9.928 26.2996 9.608C25.9476 9.288 25.4623 9.128 24.8436 9.128H22.4436ZM24.9716 17.656C25.5796 17.656 26.0596 17.4907 26.4116 17.16C26.7743 16.8187 26.9556 16.36 26.9556 15.784C26.9556 15.208 26.7743 14.7547 26.4116 14.424C26.049 14.0827 25.553 13.912 24.9236 13.912H22.4436C22.3903 13.912 22.3636 13.9387 22.3636 13.992V17.576C22.3636 17.6293 22.3903 17.656 22.4436 17.656H24.9716Z" fill="#7B8BAD"/>
<path d="M79.104 19C79.0293 19 78.9707 18.9787 78.928 18.936C78.8853 18.8933 78.864 18.8347 78.864 18.76V17.928C78.864 17.8107 78.9013 17.7093 78.976 17.624C79.5627 16.9627 80.176 16.248 80.816 15.48C81.456 14.712 81.8667 14.2213 82.048 14.008C82.0693 13.9867 82.2347 13.7893 82.544 13.416C83.536 12.232 84.032 11.3147 84.032 10.664C84.032 10.1627 83.8613 9.76267 83.52 9.464C83.1893 9.15467 82.7467 9 82.192 9C81.6373 9 81.1947 9.15467 80.864 9.464C80.5333 9.77333 80.3733 10.1787 80.384 10.68V11.08C80.384 11.1547 80.3627 11.2133 80.32 11.256C80.2773 11.2987 80.2187 11.32 80.144 11.32H79.072C78.9973 11.32 78.9387 11.2987 78.896 11.256C78.8533 11.2133 78.832 11.1547 78.832 11.08V10.472C78.8533 9.91733 79.008 9.42667 79.296 9C79.5947 8.57333 79.9947 8.248 80.496 8.024C80.9973 7.78933 81.5627 7.672 82.192 7.672C82.8747 7.672 83.472 7.8 83.984 8.056C84.496 8.312 84.8907 8.664 85.168 9.112C85.4453 9.56 85.584 10.0667 85.584 10.632C85.584 11.5173 85.104 12.5627 84.144 13.768C83.536 14.5467 82.4693 15.816 80.944 17.576C80.9227 17.5973 80.9173 17.6187 80.928 17.64C80.9387 17.6613 80.96 17.672 80.992 17.672H85.648C85.7227 17.672 85.7813 17.6933 85.824 17.736C85.8667 17.7787 85.888 17.8373 85.888 17.912V18.76C85.888 18.8347 85.8667 18.8933 85.824 18.936C85.7813 18.9787 85.7227 19 85.648 19H79.104ZM87.8071 19C87.7325 19 87.6738 18.9787 87.6311 18.936C87.5885 18.8933 87.5671 18.8347 87.5671 18.76V17.928C87.5671 17.8107 87.6045 17.7093 87.6791 17.624C88.2658 16.9627 88.8791 16.248 89.5191 15.48C90.1591 14.712 90.5698 14.2213 90.7511 14.008C90.7725 13.9867 90.9378 13.7893 91.2471 13.416C92.2391 12.232 92.7351 11.3147 92.7351 10.664C92.7351 10.1627 92.5645 9.76267 92.2231 9.464C91.8925 9.15467 91.4498 9 90.8951 9C90.3405 9 89.8978 9.15467 89.5671 9.464C89.2365 9.77333 89.0765 10.1787 89.0871 10.68V11.08C89.0871 11.1547 89.0658 11.2133 89.0231 11.256C88.9805 11.2987 88.9218 11.32 88.8471 11.32H87.7751C87.7005 11.32 87.6418 11.2987 87.5991 11.256C87.5565 11.2133 87.5351 11.1547 87.5351 11.08V10.472C87.5565 9.91733 87.7111 9.42667 87.9991 9C88.2978 8.57333 88.6978 8.248 89.1991 8.024C89.7005 7.78933 90.2658 7.672 90.8951 7.672C91.5778 7.672 92.1751 7.8 92.6871 8.056C93.1991 8.312 93.5938 8.664 93.8711 9.112C94.1485 9.56 94.2871 10.0667 94.2871 10.632C94.2871 11.5173 93.8071 12.5627 92.8471 13.768C92.2391 14.5467 91.1725 15.816 89.6471 17.576C89.6258 17.5973 89.6205 17.6187 89.6311 17.64C89.6418 17.6613 89.6631 17.672 89.6951 17.672H94.3511C94.4258 17.672 94.4845 17.6933 94.5271 17.736C94.5698 17.7787 94.5911 17.8373 94.5911 17.912V18.76C94.5911 18.8347 94.5698 18.8933 94.5271 18.936C94.4845 18.9787 94.4258 19 94.3511 19H87.8071ZM96.5743 20.376C96.3929 20.376 96.3183 20.2907 96.3503 20.12L96.9743 16.728C97.0063 16.5787 97.0916 16.504 97.2303 16.504H98.1263C98.2116 16.504 98.2703 16.5307 98.3023 16.584C98.3449 16.6267 98.3556 16.6907 98.3343 16.776L97.4223 20.168C97.3903 20.3067 97.3049 20.376 97.1663 20.376H96.5743ZM109.98 13.688C110.193 14.2 110.3 14.8027 110.3 15.496C110.3 16.008 110.215 16.5307 110.044 17.064C109.809 17.7147 109.42 18.2213 108.876 18.584C108.343 18.9467 107.687 19.128 106.908 19.128C106.14 19.128 105.473 18.9307 104.908 18.536C104.353 18.1307 103.964 17.592 103.74 16.92C103.623 16.5573 103.553 16.1627 103.532 15.736C103.532 15.576 103.612 15.496 103.772 15.496H104.844C105.004 15.496 105.084 15.576 105.084 15.736C105.137 16.1307 105.18 16.3867 105.212 16.504C105.319 16.8987 105.521 17.2133 105.82 17.448C106.119 17.672 106.481 17.784 106.908 17.784C107.313 17.784 107.649 17.6933 107.916 17.512C108.193 17.3307 108.396 17.064 108.524 16.712C108.673 16.328 108.748 15.912 108.748 15.464C108.748 14.888 108.657 14.4027 108.476 14.008C108.199 13.3253 107.671 12.984 106.892 12.984C106.711 12.984 106.524 13.032 106.332 13.128C106.3 13.1493 106.252 13.16 106.188 13.16C106.124 13.16 106.06 13.128 105.996 13.064L105.484 12.44C105.441 12.3867 105.42 12.3333 105.42 12.28C105.42 12.2373 105.447 12.1787 105.5 12.104L108.188 9.24C108.241 9.176 108.231 9.144 108.156 9.144H103.916C103.841 9.144 103.783 9.12267 103.74 9.08C103.697 9.03733 103.676 8.97867 103.676 8.904V8.04C103.676 7.96533 103.697 7.90667 103.74 7.864C103.783 7.82133 103.841 7.8 103.916 7.8H109.964C110.039 7.8 110.097 7.82133 110.14 7.864C110.183 7.90667 110.204 7.96533 110.204 8.04V8.968C110.204 9.096 110.167 9.19733 110.092 9.272L107.644 11.944C107.623 11.9653 107.617 11.9867 107.628 12.008C107.639 12.0293 107.665 12.0453 107.708 12.056C108.796 12.1413 109.553 12.6853 109.98 13.688ZM113.57 19C113.389 19 113.33 18.9093 113.394 18.728L116.978 9.224C117 9.16 116.978 9.128 116.914 9.128H113.09C113.037 9.128 113.01 9.15467 113.01 9.208V9.864C113.01 9.93867 112.989 9.99733 112.946 10.04C112.904 10.0827 112.845 10.104 112.77 10.104H111.97C111.896 10.104 111.837 10.0827 111.794 10.04C111.752 9.99733 111.73 9.93867 111.73 9.864V8.04C111.73 7.96533 111.752 7.90667 111.794 7.864C111.837 7.82133 111.896 7.8 111.97 7.8H118.386C118.461 7.8 118.52 7.82133 118.562 7.864C118.605 7.90667 118.626 7.96533 118.626 8.04V8.984C118.626 9.05867 118.61 9.15467 118.578 9.272L114.994 18.808C114.952 18.936 114.861 19 114.722 19H113.57ZM119.277 20.376C119.096 20.376 119.021 20.2907 119.053 20.12L119.677 16.728C119.709 16.5787 119.795 16.504 119.933 16.504H120.829C120.915 16.504 120.973 16.5307 121.005 16.584C121.048 16.6267 121.059 16.6907 121.037 16.776L120.125 20.168C120.093 20.3067 120.008 20.376 119.869 20.376H119.277ZM132.747 13.48C133.046 14.0453 133.195 14.7227 133.195 15.512C133.195 16.1627 133.089 16.7333 132.875 17.224C132.63 17.832 132.246 18.3013 131.723 18.632C131.211 18.952 130.587 19.112 129.851 19.112C129.062 19.112 128.39 18.9307 127.835 18.568C127.291 18.2053 126.907 17.6933 126.683 17.032C126.523 16.584 126.443 16.0667 126.443 15.48V10.552C126.443 9.67733 126.747 8.97867 127.355 8.456C127.963 7.93333 128.758 7.672 129.739 7.672C130.369 7.672 130.923 7.78933 131.403 8.024C131.894 8.25867 132.273 8.58933 132.539 9.016C132.806 9.432 132.939 9.912 132.939 10.456V10.696C132.939 10.7707 132.918 10.8293 132.875 10.872C132.833 10.9147 132.774 10.936 132.699 10.936H131.643C131.569 10.936 131.51 10.92 131.467 10.888C131.425 10.856 131.403 10.8187 131.403 10.776V10.632C131.403 10.152 131.249 9.76267 130.939 9.464C130.63 9.16533 130.23 9.016 129.739 9.016C129.217 9.016 128.79 9.17067 128.459 9.48C128.139 9.78933 127.979 10.2 127.979 10.712V12.696C127.979 12.728 127.99 12.7493 128.011 12.76C128.033 12.76 128.054 12.7493 128.075 12.728C128.534 12.2267 129.195 11.976 130.059 11.976C131.318 11.976 132.214 12.4773 132.747 13.48ZM131.419 16.744C131.579 16.4027 131.659 15.992 131.659 15.512C131.659 14.968 131.563 14.5307 131.371 14.2C131.062 13.5813 130.539 13.272 129.803 13.272C129.43 13.272 129.11 13.3573 128.843 13.528C128.577 13.688 128.374 13.9227 128.235 14.232C128.065 14.584 127.979 15.0373 127.979 15.592C127.979 16.04 128.049 16.4187 128.187 16.728C128.326 17.0693 128.534 17.3307 128.811 17.512C129.089 17.6827 129.425 17.768 129.819 17.768C130.598 17.768 131.131 17.4267 131.419 16.744ZM141.122 13.48C141.421 14.0453 141.57 14.7227 141.57 15.512C141.57 16.1627 141.464 16.7333 141.25 17.224C141.005 17.832 140.621 18.3013 140.098 18.632C139.586 18.952 138.962 19.112 138.226 19.112C137.437 19.112 136.765 18.9307 136.21 18.568C135.666 18.2053 135.282 17.6933 135.058 17.032C134.898 16.584 134.818 16.0667 134.818 15.48V10.552C134.818 9.67733 135.122 8.97867 135.73 8.456C136.338 7.93333 137.133 7.672 138.114 7.672C138.744 7.672 139.298 7.78933 139.778 8.024C140.269 8.25867 140.648 8.58933 140.914 9.016C141.181 9.432 141.314 9.912 141.314 10.456V10.696C141.314 10.7707 141.293 10.8293 141.25 10.872C141.208 10.9147 141.149 10.936 141.074 10.936H140.018C139.944 10.936 139.885 10.92 139.842 10.888C139.8 10.856 139.778 10.8187 139.778 10.776V10.632C139.778 10.152 139.624 9.76267 139.314 9.464C139.005 9.16533 138.605 9.016 138.114 9.016C137.592 9.016 137.165 9.17067 136.834 9.48C136.514 9.78933 136.354 10.2 136.354 10.712V12.696C136.354 12.728 136.365 12.7493 136.386 12.76C136.408 12.76 136.429 12.7493 136.45 12.728C136.909 12.2267 137.57 11.976 138.434 11.976C139.693 11.976 140.589 12.4773 141.122 13.48ZM139.794 16.744C139.954 16.4027 140.034 15.992 140.034 15.512C140.034 14.968 139.938 14.5307 139.746 14.2C139.437 13.5813 138.914 13.272 138.178 13.272C137.805 13.272 137.485 13.3573 137.218 13.528C136.952 13.688 136.749 13.9227 136.61 14.232C136.44 14.584 136.354 15.0373 136.354 15.592C136.354 16.04 136.424 16.4187 136.562 16.728C136.701 17.0693 136.909 17.3307 137.186 17.512C137.464 17.6827 137.8 17.768 138.194 17.768C138.973 17.768 139.506 17.4267 139.794 16.744Z" fill="#162542"/>
</svg>
