<svg width="168" height="26" viewBox="0 0 168 26" fill="none" xmlns="http://www.w3.org/2000/svg">
<g clip-path="url(#clip0_0_384)">
<path d="M7.536 8.04C7.536 7.96533 7.55733 7.90667 7.6 7.864C7.64267 7.82133 7.70133 7.8 7.776 7.8H8.832C8.90667 7.8 8.96533 7.82133 9.008 7.864C9.05067 7.90667 9.072 7.96533 9.072 8.04V18.76C9.072 18.8347 9.05067 18.8933 9.008 18.936C8.96533 18.9787 8.90667 19 8.832 19H7.776C7.70133 19 7.64267 18.9787 7.6 18.936C7.55733 18.8933 7.536 18.8347 7.536 18.76V14.104C7.536 14.0507 7.50933 14.024 7.456 14.024H2.928C2.87467 14.024 2.848 14.0507 2.848 14.104V18.76C2.848 18.8347 2.82667 18.8933 2.784 18.936C2.74133 18.9787 2.68267 19 2.608 19H1.552C1.47733 19 1.41867 18.9787 1.376 18.936C1.33333 18.8933 1.312 18.8347 1.312 18.76V8.04C1.312 7.96533 1.33333 7.90667 1.376 7.864C1.41867 7.82133 1.47733 7.8 1.552 7.8H2.608C2.68267 7.8 2.74133 7.82133 2.784 7.864C2.82667 7.90667 2.848 7.96533 2.848 8.04V12.616C2.848 12.6693 2.87467 12.696 2.928 12.696H7.456C7.50933 12.696 7.536 12.6693 7.536 12.616V8.04ZM15.0805 19.128C14.2805 19.128 13.5818 19 12.9845 18.744C12.3872 18.488 11.9232 18.1253 11.5925 17.656C11.2725 17.1867 11.1125 16.6373 11.1125 16.008V15.624C11.1125 15.5493 11.1338 15.4907 11.1765 15.448C11.2192 15.4053 11.2778 15.384 11.3525 15.384H12.3765C12.4512 15.384 12.5098 15.4053 12.5525 15.448C12.5952 15.4907 12.6165 15.5493 12.6165 15.624V15.928C12.6165 16.472 12.8512 16.92 13.3205 17.272C13.7898 17.624 14.4138 17.8 15.1925 17.8C15.9285 17.8 16.4832 17.6453 16.8565 17.336C17.2298 17.0267 17.4165 16.6213 17.4165 16.12C17.4165 15.7893 17.3205 15.5067 17.1285 15.272C16.9365 15.0373 16.6538 14.824 16.2805 14.632C15.9178 14.4293 15.3845 14.1893 14.6805 13.912C13.9018 13.6133 13.2832 13.3413 12.8245 13.096C12.3765 12.8507 12.0032 12.5307 11.7045 12.136C11.4058 11.7307 11.2565 11.224 11.2565 10.616C11.2565 9.69867 11.5818 8.97867 12.2325 8.456C12.8938 7.93333 13.7845 7.672 14.9045 7.672C15.6938 7.672 16.3872 7.80533 16.9845 8.072C17.5818 8.33867 18.0405 8.712 18.3605 9.192C18.6912 9.672 18.8565 10.2267 18.8565 10.856V11.096C18.8565 11.1707 18.8352 11.2293 18.7925 11.272C18.7498 11.3147 18.6912 11.336 18.6165 11.336H17.5765C17.5018 11.336 17.4432 11.32 17.4005 11.288C17.3578 11.2453 17.3365 11.192 17.3365 11.128V10.936C17.3365 10.3813 17.1125 9.92267 16.6645 9.56C16.2272 9.18667 15.6192 9 14.8405 9C14.1792 9 13.6672 9.13867 13.3045 9.416C12.9418 9.68267 12.7605 10.072 12.7605 10.584C12.7605 10.936 12.8512 11.224 13.0325 11.448C13.2138 11.672 13.4805 11.8747 13.8325 12.056C14.1952 12.2267 14.7445 12.4507 15.4805 12.728C16.2378 13.0267 16.8512 13.304 17.3205 13.56C17.7898 13.8053 18.1792 14.136 18.4885 14.552C18.7978 14.9573 18.9525 15.464 18.9525 16.072C18.9525 16.68 18.7978 17.2133 18.4885 17.672C18.1792 18.1307 17.7312 18.488 17.1445 18.744C16.5578 19 15.8698 19.128 15.0805 19.128ZM21.2708 19C21.1961 19 21.1374 18.9787 21.0948 18.936C21.0521 18.8933 21.0308 18.8347 21.0308 18.76V8.04C21.0308 7.96533 21.0521 7.90667 21.0948 7.864C21.1374 7.82133 21.1961 7.8 21.2708 7.8H22.3268C22.4014 7.8 22.4601 7.82133 22.5028 7.864C22.5454 7.90667 22.5668 7.96533 22.5668 8.04V17.592C22.5668 17.6453 22.5934 17.672 22.6468 17.672H28.0708C28.1454 17.672 28.2041 17.6933 28.2468 17.736C28.2894 17.7787 28.3108 17.8373 28.3108 17.912V18.76C28.3108 18.8347 28.2894 18.8933 28.2468 18.936C28.2041 18.9787 28.1454 19 28.0708 19H21.2708Z" fill="#7B8BAD"/>
<path d="M82.512 19.16C81.4347 19.16 80.576 18.856 79.936 18.248C79.3067 17.6293 78.992 16.8027 78.992 15.768V11.032C78.992 9.99733 79.3067 9.176 79.936 8.568C80.576 7.96 81.4347 7.656 82.512 7.656C83.5893 7.656 84.448 7.96 85.088 8.568C85.7387 9.176 86.064 9.99733 86.064 11.032V15.768C86.064 16.8027 85.7387 17.6293 85.088 18.248C84.448 18.856 83.5893 19.16 82.512 19.16ZM82.512 17.832C83.1307 17.832 83.6213 17.656 83.984 17.304C84.3467 16.9413 84.528 16.4613 84.528 15.864V10.968C84.528 10.3707 84.3467 9.896 83.984 9.544C83.6213 9.18133 83.1307 9 82.512 9C81.9147 9 81.4347 9.18133 81.072 9.544C80.7093 9.896 80.528 10.3707 80.528 10.968V15.864C80.528 16.4613 80.7093 16.9413 81.072 17.304C81.4347 17.656 81.9147 17.832 82.512 17.832ZM90.0865 11.304C89.6065 11.304 89.1638 11.1867 88.7585 10.952C88.3638 10.7173 88.0492 10.4027 87.8145 10.008C87.5798 9.60267 87.4625 9.16 87.4625 8.68C87.4625 8.2 87.5798 7.76267 87.8145 7.368C88.0492 6.96267 88.3638 6.648 88.7585 6.424C89.1638 6.18933 89.6065 6.072 90.0865 6.072C90.5772 6.072 91.0198 6.18933 91.4145 6.424C91.8198 6.648 92.1398 6.96267 92.3745 7.368C92.6092 7.76267 92.7265 8.2 92.7265 8.68C92.7265 9.16 92.6092 9.60267 92.3745 10.008C92.1398 10.4027 91.8198 10.7173 91.4145 10.952C91.0198 11.1867 90.5772 11.304 90.0865 11.304ZM90.0865 10.248C90.5345 10.248 90.9078 10.0987 91.2065 9.8C91.5158 9.49067 91.6705 9.11733 91.6705 8.68C91.6705 8.232 91.5158 7.85867 91.2065 7.56C90.9078 7.25067 90.5345 7.096 90.0865 7.096C89.6492 7.096 89.2758 7.25067 88.9665 7.56C88.6678 7.85867 88.5185 8.232 88.5185 8.68C88.5185 9.11733 88.6678 9.49067 88.9665 9.8C89.2758 10.0987 89.6492 10.248 90.0865 10.248ZM94.293 20.376C94.1117 20.376 94.037 20.2907 94.069 20.12L94.693 16.728C94.725 16.5787 94.8103 16.504 94.949 16.504H95.845C95.9303 16.504 95.989 16.5307 96.021 16.584C96.0637 16.6267 96.0743 16.6907 96.053 16.776L95.141 20.168C95.109 20.3067 95.0237 20.376 94.885 20.376H94.293ZM105.059 19.16C103.982 19.16 103.123 18.856 102.483 18.248C101.854 17.6293 101.539 16.8027 101.539 15.768V11.032C101.539 9.99733 101.854 9.176 102.483 8.568C103.123 7.96 103.982 7.656 105.059 7.656C106.136 7.656 106.995 7.96 107.635 8.568C108.286 9.176 108.611 9.99733 108.611 11.032V15.768C108.611 16.8027 108.286 17.6293 107.635 18.248C106.995 18.856 106.136 19.16 105.059 19.16ZM105.059 17.832C105.678 17.832 106.168 17.656 106.531 17.304C106.894 16.9413 107.075 16.4613 107.075 15.864V10.968C107.075 10.3707 106.894 9.896 106.531 9.544C106.168 9.18133 105.678 9 105.059 9C104.462 9 103.982 9.18133 103.619 9.544C103.256 9.896 103.075 10.3707 103.075 10.968V15.864C103.075 16.4613 103.256 16.9413 103.619 17.304C103.982 17.656 104.462 17.832 105.059 17.832ZM113.321 12.392C112.884 12.392 112.479 12.2853 112.105 12.072C111.743 11.8587 111.455 11.5707 111.241 11.208C111.028 10.8453 110.921 10.4453 110.921 10.008C110.921 9.58133 111.028 9.18667 111.241 8.824C111.455 8.46133 111.743 8.17867 112.105 7.976C112.479 7.76267 112.884 7.656 113.321 7.656C113.748 7.656 114.143 7.76267 114.505 7.976C114.868 8.18933 115.156 8.47733 115.369 8.84C115.583 9.192 115.689 9.58133 115.689 10.008C115.689 10.4453 115.583 10.8453 115.369 11.208C115.156 11.5707 114.868 11.8587 114.505 12.072C114.143 12.2853 113.748 12.392 113.321 12.392ZM112.953 19C112.889 19 112.836 18.9893 112.793 18.968C112.761 18.936 112.745 18.8987 112.745 18.856C112.745 18.8027 112.761 18.7547 112.793 18.712L118.761 7.96C118.815 7.85333 118.911 7.8 119.049 7.8H119.673C119.737 7.8 119.785 7.816 119.817 7.848C119.86 7.86933 119.881 7.90133 119.881 7.944C119.881 7.98667 119.865 8.03467 119.833 8.088L113.865 18.84C113.812 18.9467 113.716 19 113.577 19H112.953ZM113.321 11.528C113.737 11.528 114.089 11.384 114.377 11.096C114.665 10.7973 114.809 10.4347 114.809 10.008C114.809 9.592 114.66 9.24 114.361 8.952C114.073 8.65333 113.727 8.504 113.321 8.504C112.895 8.504 112.532 8.65333 112.233 8.952C111.945 9.24 111.801 9.592 111.801 10.008C111.801 10.4347 111.945 10.7973 112.233 11.096C112.532 11.384 112.895 11.528 113.321 11.528ZM119.417 19.144C118.98 19.144 118.575 19.0373 118.201 18.824C117.839 18.6107 117.551 18.3227 117.337 17.96C117.124 17.5973 117.017 17.2027 117.017 16.776C117.017 16.3493 117.124 15.9547 117.337 15.592C117.551 15.2293 117.839 14.9413 118.201 14.728C118.575 14.5147 118.98 14.408 119.417 14.408C119.844 14.408 120.239 14.5147 120.601 14.728C120.964 14.9413 121.252 15.2293 121.465 15.592C121.679 15.9547 121.785 16.3493 121.785 16.776C121.785 17.2027 121.679 17.5973 121.465 17.96C121.252 18.3227 120.964 18.6107 120.601 18.824C120.239 19.0373 119.844 19.144 119.417 19.144ZM119.417 18.296C119.833 18.296 120.185 18.1467 120.473 17.848C120.761 17.5493 120.905 17.192 120.905 16.776C120.905 16.36 120.756 16.008 120.457 15.72C120.169 15.4213 119.823 15.272 119.417 15.272C118.991 15.272 118.628 15.4213 118.329 15.72C118.041 16.008 117.897 16.36 117.897 16.776C117.897 17.2027 118.041 17.5653 118.329 17.864C118.628 18.152 118.991 18.296 119.417 18.296ZM124.199 20.376C124.018 20.376 123.943 20.2907 123.975 20.12L124.599 16.728C124.631 16.5787 124.717 16.504 124.855 16.504H125.751C125.837 16.504 125.895 16.5307 125.927 16.584C125.97 16.6267 125.981 16.6907 125.959 16.776L125.047 20.168C125.015 20.3067 124.93 20.376 124.791 20.376H124.199ZM132.981 7.864C133.066 7.82133 133.168 7.8 133.285 7.8H134.421C134.496 7.8 134.554 7.82133 134.597 7.864C134.64 7.90667 134.661 7.96533 134.661 8.04V18.76C134.661 18.8347 134.64 18.8933 134.597 18.936C134.554 18.9787 134.496 19 134.421 19H133.365C133.29 19 133.232 18.9787 133.189 18.936C133.146 18.8933 133.125 18.8347 133.125 18.76V9.384C133.125 9.36267 133.114 9.34667 133.093 9.336C133.072 9.31467 133.05 9.30933 133.029 9.32L131.445 9.864C131.424 9.87467 131.392 9.88 131.349 9.88C131.232 9.88 131.173 9.81067 131.173 9.672V8.936C131.173 8.81867 131.232 8.728 131.349 8.664L132.981 7.864ZM140.45 19.16C139.372 19.16 138.514 18.856 137.874 18.248C137.244 17.6293 136.93 16.8027 136.93 15.768V11.032C136.93 9.99733 137.244 9.176 137.874 8.568C138.514 7.96 139.372 7.656 140.45 7.656C141.527 7.656 142.386 7.96 143.026 8.568C143.676 9.176 144.002 9.99733 144.002 11.032V15.768C144.002 16.8027 143.676 17.6293 143.026 18.248C142.386 18.856 141.527 19.16 140.45 19.16ZM140.45 17.832C141.068 17.832 141.559 17.656 141.922 17.304C142.284 16.9413 142.466 16.4613 142.466 15.864V10.968C142.466 10.3707 142.284 9.896 141.922 9.544C141.559 9.18133 141.068 9 140.45 9C139.852 9 139.372 9.18133 139.01 9.544C138.647 9.896 138.466 10.3707 138.466 10.968V15.864C138.466 16.4613 138.647 16.9413 139.01 17.304C139.372 17.656 139.852 17.832 140.45 17.832ZM149.512 19.16C148.435 19.16 147.576 18.856 146.936 18.248C146.307 17.6293 145.992 16.8027 145.992 15.768V11.032C145.992 9.99733 146.307 9.176 146.936 8.568C147.576 7.96 148.435 7.656 149.512 7.656C150.589 7.656 151.448 7.96 152.088 8.568C152.739 9.176 153.064 9.99733 153.064 11.032V15.768C153.064 16.8027 152.739 17.6293 152.088 18.248C151.448 18.856 150.589 19.16 149.512 19.16ZM149.512 17.832C150.131 17.832 150.621 17.656 150.984 17.304C151.347 16.9413 151.528 16.4613 151.528 15.864V10.968C151.528 10.3707 151.347 9.896 150.984 9.544C150.621 9.18133 150.131 9 149.512 9C148.915 9 148.435 9.18133 148.072 9.544C147.709 9.896 147.528 10.3707 147.528 10.968V15.864C147.528 16.4613 147.709 16.9413 148.072 17.304C148.435 17.656 148.915 17.832 149.512 17.832ZM157.775 12.392C157.337 12.392 156.932 12.2853 156.559 12.072C156.196 11.8587 155.908 11.5707 155.695 11.208C155.481 10.8453 155.375 10.4453 155.375 10.008C155.375 9.58133 155.481 9.18667 155.695 8.824C155.908 8.46133 156.196 8.17867 156.559 7.976C156.932 7.76267 157.337 7.656 157.775 7.656C158.201 7.656 158.596 7.76267 158.959 7.976C159.321 8.18933 159.609 8.47733 159.823 8.84C160.036 9.192 160.143 9.58133 160.143 10.008C160.143 10.4453 160.036 10.8453 159.823 11.208C159.609 11.5707 159.321 11.8587 158.959 12.072C158.596 12.2853 158.201 12.392 157.775 12.392ZM157.407 19C157.343 19 157.289 18.9893 157.247 18.968C157.215 18.936 157.199 18.8987 157.199 18.856C157.199 18.8027 157.215 18.7547 157.247 18.712L163.215 7.96C163.268 7.85333 163.364 7.8 163.503 7.8H164.127C164.191 7.8 164.239 7.816 164.271 7.848C164.313 7.86933 164.335 7.90133 164.335 7.944C164.335 7.98667 164.319 8.03467 164.287 8.088L158.319 18.84C158.265 18.9467 158.169 19 158.031 19H157.407ZM157.775 11.528C158.191 11.528 158.543 11.384 158.831 11.096C159.119 10.7973 159.263 10.4347 159.263 10.008C159.263 9.592 159.113 9.24 158.815 8.952C158.527 8.65333 158.18 8.504 157.775 8.504C157.348 8.504 156.985 8.65333 156.687 8.952C156.399 9.24 156.255 9.592 156.255 10.008C156.255 10.4347 156.399 10.7973 156.687 11.096C156.985 11.384 157.348 11.528 157.775 11.528ZM163.871 19.144C163.433 19.144 163.028 19.0373 162.655 18.824C162.292 18.6107 162.004 18.3227 161.791 17.96C161.577 17.5973 161.471 17.2027 161.471 16.776C161.471 16.3493 161.577 15.9547 161.791 15.592C162.004 15.2293 162.292 14.9413 162.655 14.728C163.028 14.5147 163.433 14.408 163.871 14.408C164.297 14.408 164.692 14.5147 165.055 14.728C165.417 14.9413 165.705 15.2293 165.919 15.592C166.132 15.9547 166.239 16.3493 166.239 16.776C166.239 17.2027 166.132 17.5973 165.919 17.96C165.705 18.3227 165.417 18.6107 165.055 18.824C164.692 19.0373 164.297 19.144 163.871 19.144ZM163.871 18.296C164.287 18.296 164.639 18.1467 164.927 17.848C165.215 17.5493 165.359 17.192 165.359 16.776C165.359 16.36 165.209 16.008 164.911 15.72C164.623 15.4213 164.276 15.272 163.871 15.272C163.444 15.272 163.081 15.4213 162.783 15.72C162.495 16.008 162.351 16.36 162.351 16.776C162.351 17.2027 162.495 17.5653 162.783 17.864C163.081 18.152 163.444 18.296 163.871 18.296Z" fill="#162542"/>
</g>
<defs>
<clipPath id="clip0_0_384">
<rect width="168" height="26" fill="white"/>
</clipPath>
</defs>
</svg>
