<svg width="183" height="26" viewBox="0 0 183 26" fill="none" xmlns="http://www.w3.org/2000/svg">
<g clip-path="url(#clip0_0_394)">
<path d="M7.536 8.04C7.536 7.96533 7.55733 7.90667 7.6 7.864C7.64267 7.82133 7.70133 7.8 7.776 7.8H8.832C8.90667 7.8 8.96533 7.82133 9.008 7.864C9.05067 7.90667 9.072 7.96533 9.072 8.04V18.76C9.072 18.8347 9.05067 18.8933 9.008 18.936C8.96533 18.9787 8.90667 19 8.832 19H7.776C7.70133 19 7.64267 18.9787 7.6 18.936C7.55733 18.8933 7.536 18.8347 7.536 18.76V14.104C7.536 14.0507 7.50933 14.024 7.456 14.024H2.928C2.87467 14.024 2.848 14.0507 2.848 14.104V18.76C2.848 18.8347 2.82667 18.8933 2.784 18.936C2.74133 18.9787 2.68267 19 2.608 19H1.552C1.47733 19 1.41867 18.9787 1.376 18.936C1.33333 18.8933 1.312 18.8347 1.312 18.76V8.04C1.312 7.96533 1.33333 7.90667 1.376 7.864C1.41867 7.82133 1.47733 7.8 1.552 7.8H2.608C2.68267 7.8 2.74133 7.82133 2.784 7.864C2.82667 7.90667 2.848 7.96533 2.848 8.04V12.616C2.848 12.6693 2.87467 12.696 2.928 12.696H7.456C7.50933 12.696 7.536 12.6693 7.536 12.616V8.04ZM15.0805 19.128C14.2805 19.128 13.5818 19 12.9845 18.744C12.3872 18.488 11.9232 18.1253 11.5925 17.656C11.2725 17.1867 11.1125 16.6373 11.1125 16.008V15.624C11.1125 15.5493 11.1338 15.4907 11.1765 15.448C11.2192 15.4053 11.2778 15.384 11.3525 15.384H12.3765C12.4512 15.384 12.5098 15.4053 12.5525 15.448C12.5952 15.4907 12.6165 15.5493 12.6165 15.624V15.928C12.6165 16.472 12.8512 16.92 13.3205 17.272C13.7898 17.624 14.4138 17.8 15.1925 17.8C15.9285 17.8 16.4832 17.6453 16.8565 17.336C17.2298 17.0267 17.4165 16.6213 17.4165 16.12C17.4165 15.7893 17.3205 15.5067 17.1285 15.272C16.9365 15.0373 16.6538 14.824 16.2805 14.632C15.9178 14.4293 15.3845 14.1893 14.6805 13.912C13.9018 13.6133 13.2832 13.3413 12.8245 13.096C12.3765 12.8507 12.0032 12.5307 11.7045 12.136C11.4058 11.7307 11.2565 11.224 11.2565 10.616C11.2565 9.69867 11.5818 8.97867 12.2325 8.456C12.8938 7.93333 13.7845 7.672 14.9045 7.672C15.6938 7.672 16.3872 7.80533 16.9845 8.072C17.5818 8.33867 18.0405 8.712 18.3605 9.192C18.6912 9.672 18.8565 10.2267 18.8565 10.856V11.096C18.8565 11.1707 18.8352 11.2293 18.7925 11.272C18.7498 11.3147 18.6912 11.336 18.6165 11.336H17.5765C17.5018 11.336 17.4432 11.32 17.4005 11.288C17.3578 11.2453 17.3365 11.192 17.3365 11.128V10.936C17.3365 10.3813 17.1125 9.92267 16.6645 9.56C16.2272 9.18667 15.6192 9 14.8405 9C14.1792 9 13.6672 9.13867 13.3045 9.416C12.9418 9.68267 12.7605 10.072 12.7605 10.584C12.7605 10.936 12.8512 11.224 13.0325 11.448C13.2138 11.672 13.4805 11.8747 13.8325 12.056C14.1952 12.2267 14.7445 12.4507 15.4805 12.728C16.2378 13.0267 16.8512 13.304 17.3205 13.56C17.7898 13.8053 18.1792 14.136 18.4885 14.552C18.7978 14.9573 18.9525 15.464 18.9525 16.072C18.9525 16.68 18.7978 17.2133 18.4885 17.672C18.1792 18.1307 17.7312 18.488 17.1445 18.744C16.5578 19 15.8698 19.128 15.0805 19.128ZM21.2708 19C21.1961 19 21.1374 18.9787 21.0948 18.936C21.0521 18.8933 21.0308 18.8347 21.0308 18.76V8.04C21.0308 7.96533 21.0521 7.90667 21.0948 7.864C21.1374 7.82133 21.1961 7.8 21.2708 7.8H22.3268C22.4014 7.8 22.4601 7.82133 22.5028 7.864C22.5454 7.90667 22.5668 7.96533 22.5668 8.04V17.592C22.5668 17.6453 22.5934 17.672 22.6468 17.672H28.0708C28.1454 17.672 28.2041 17.6933 28.2468 17.736C28.2894 17.7787 28.3108 17.8373 28.3108 17.912V18.76C28.3108 18.8347 28.2894 18.8933 28.2468 18.936C28.2041 18.9787 28.1454 19 28.0708 19H21.2708Z" fill="#7B8BAD"/>
<path d="M79.104 19C79.0293 19 78.9707 18.9787 78.928 18.936C78.8853 18.8933 78.864 18.8347 78.864 18.76V17.928C78.864 17.8107 78.9013 17.7093 78.976 17.624C79.5627 16.9627 80.176 16.248 80.816 15.48C81.456 14.712 81.8667 14.2213 82.048 14.008C82.0693 13.9867 82.2347 13.7893 82.544 13.416C83.536 12.232 84.032 11.3147 84.032 10.664C84.032 10.1627 83.8613 9.76267 83.52 9.464C83.1893 9.15467 82.7467 9 82.192 9C81.6373 9 81.1947 9.15467 80.864 9.464C80.5333 9.77333 80.3733 10.1787 80.384 10.68V11.08C80.384 11.1547 80.3627 11.2133 80.32 11.256C80.2773 11.2987 80.2187 11.32 80.144 11.32H79.072C78.9973 11.32 78.9387 11.2987 78.896 11.256C78.8533 11.2133 78.832 11.1547 78.832 11.08V10.472C78.8533 9.91733 79.008 9.42667 79.296 9C79.5947 8.57333 79.9947 8.248 80.496 8.024C80.9973 7.78933 81.5627 7.672 82.192 7.672C82.8747 7.672 83.472 7.8 83.984 8.056C84.496 8.312 84.8907 8.664 85.168 9.112C85.4453 9.56 85.584 10.0667 85.584 10.632C85.584 11.5173 85.104 12.5627 84.144 13.768C83.536 14.5467 82.4693 15.816 80.944 17.576C80.9227 17.5973 80.9173 17.6187 80.928 17.64C80.9387 17.6613 80.96 17.672 80.992 17.672H85.648C85.7227 17.672 85.7813 17.6933 85.824 17.736C85.8667 17.7787 85.888 17.8373 85.888 17.912V18.76C85.888 18.8347 85.8667 18.8933 85.824 18.936C85.7813 18.9787 85.7227 19 85.648 19H79.104ZM87.8071 19C87.7325 19 87.6738 18.9787 87.6311 18.936C87.5885 18.8933 87.5671 18.8347 87.5671 18.76V17.928C87.5671 17.8107 87.6045 17.7093 87.6791 17.624C88.2658 16.9627 88.8791 16.248 89.5191 15.48C90.1591 14.712 90.5698 14.2213 90.7511 14.008C90.7725 13.9867 90.9378 13.7893 91.2471 13.416C92.2391 12.232 92.7351 11.3147 92.7351 10.664C92.7351 10.1627 92.5645 9.76267 92.2231 9.464C91.8925 9.15467 91.4498 9 90.8951 9C90.3405 9 89.8978 9.15467 89.5671 9.464C89.2365 9.77333 89.0765 10.1787 89.0871 10.68V11.08C89.0871 11.1547 89.0658 11.2133 89.0231 11.256C88.9805 11.2987 88.9218 11.32 88.8471 11.32H87.7751C87.7005 11.32 87.6418 11.2987 87.5991 11.256C87.5565 11.2133 87.5351 11.1547 87.5351 11.08V10.472C87.5565 9.91733 87.7111 9.42667 87.9991 9C88.2978 8.57333 88.6978 8.248 89.1991 8.024C89.7005 7.78933 90.2658 7.672 90.8951 7.672C91.5778 7.672 92.1751 7.8 92.6871 8.056C93.1991 8.312 93.5938 8.664 93.8711 9.112C94.1485 9.56 94.2871 10.0667 94.2871 10.632C94.2871 11.5173 93.8071 12.5627 92.8471 13.768C92.2391 14.5467 91.1725 15.816 89.6471 17.576C89.6258 17.5973 89.6205 17.6187 89.6311 17.64C89.6418 17.6613 89.6631 17.672 89.6951 17.672H94.3511C94.4258 17.672 94.4845 17.6933 94.5271 17.736C94.5698 17.7787 94.5911 17.8373 94.5911 17.912V18.76C94.5911 18.8347 94.5698 18.8933 94.5271 18.936C94.4845 18.9787 94.4258 19 94.3511 19H87.8071ZM99.9183 19.16C98.8409 19.16 97.9823 18.856 97.3423 18.248C96.7129 17.6293 96.3983 16.8027 96.3983 15.768V11.032C96.3983 9.99733 96.7129 9.176 97.3423 8.568C97.9823 7.96 98.8409 7.656 99.9183 7.656C100.996 7.656 101.854 7.96 102.494 8.568C103.145 9.176 103.47 9.99733 103.47 11.032V15.768C103.47 16.8027 103.145 17.6293 102.494 18.248C101.854 18.856 100.996 19.16 99.9183 19.16ZM99.9183 17.832C100.537 17.832 101.028 17.656 101.39 17.304C101.753 16.9413 101.934 16.4613 101.934 15.864V10.968C101.934 10.3707 101.753 9.896 101.39 9.544C101.028 9.18133 100.537 9 99.9183 9C99.3209 9 98.8409 9.18133 98.4783 9.544C98.1156 9.896 97.9343 10.3707 97.9343 10.968V15.864C97.9343 16.4613 98.1156 16.9413 98.4783 17.304C98.8409 17.656 99.3209 17.832 99.9183 17.832ZM107.493 11.304C107.013 11.304 106.57 11.1867 106.165 10.952C105.77 10.7173 105.455 10.4027 105.221 10.008C104.986 9.60267 104.869 9.16 104.869 8.68C104.869 8.2 104.986 7.76267 105.221 7.368C105.455 6.96267 105.77 6.648 106.165 6.424C106.57 6.18933 107.013 6.072 107.493 6.072C107.983 6.072 108.426 6.18933 108.821 6.424C109.226 6.648 109.546 6.96267 109.781 7.368C110.015 7.76267 110.133 8.2 110.133 8.68C110.133 9.16 110.015 9.60267 109.781 10.008C109.546 10.4027 109.226 10.7173 108.821 10.952C108.426 11.1867 107.983 11.304 107.493 11.304ZM107.493 10.248C107.941 10.248 108.314 10.0987 108.613 9.8C108.922 9.49067 109.077 9.11733 109.077 8.68C109.077 8.232 108.922 7.85867 108.613 7.56C108.314 7.25067 107.941 7.096 107.493 7.096C107.055 7.096 106.682 7.25067 106.373 7.56C106.074 7.85867 105.925 8.232 105.925 8.68C105.925 9.11733 106.074 9.49067 106.373 9.8C106.682 10.0987 107.055 10.248 107.493 10.248ZM111.699 20.376C111.518 20.376 111.443 20.2907 111.475 20.12L112.099 16.728C112.131 16.5787 112.217 16.504 112.355 16.504H113.251C113.337 16.504 113.395 16.5307 113.427 16.584C113.47 16.6267 113.481 16.6907 113.459 16.776L112.547 20.168C112.515 20.3067 112.43 20.376 112.291 20.376H111.699ZM125.441 14.04C125.558 14.5093 125.617 14.9947 125.617 15.496C125.617 15.9973 125.553 16.4613 125.425 16.888C125.222 17.5707 124.833 18.1147 124.257 18.52C123.692 18.9147 123.014 19.112 122.225 19.112C121.446 19.112 120.78 18.92 120.225 18.536C119.67 18.152 119.281 17.6293 119.057 16.968C118.972 16.6907 118.913 16.4613 118.881 16.28V16.248C118.881 16.0987 118.961 16.024 119.121 16.024H120.209C120.348 16.024 120.433 16.0987 120.465 16.248C120.486 16.376 120.508 16.4613 120.529 16.504C120.636 16.8987 120.838 17.2133 121.137 17.448C121.436 17.672 121.798 17.784 122.225 17.784C122.662 17.784 123.03 17.6613 123.329 17.416C123.628 17.1707 123.825 16.84 123.921 16.424C124.006 16.2 124.049 15.9013 124.049 15.528C124.07 15.24 124.038 14.904 123.953 14.52C123.878 14.1147 123.686 13.8053 123.377 13.592C123.068 13.368 122.684 13.256 122.225 13.256C121.841 13.256 121.494 13.336 121.185 13.496C120.886 13.6453 120.673 13.8693 120.545 14.168C120.481 14.296 120.385 14.36 120.257 14.36H119.121C119.046 14.36 118.988 14.3387 118.945 14.296C118.902 14.2533 118.881 14.1947 118.881 14.12V8.04C118.881 7.96533 118.902 7.90667 118.945 7.864C118.988 7.82133 119.046 7.8 119.121 7.8H124.945C125.02 7.8 125.078 7.82133 125.121 7.864C125.164 7.90667 125.185 7.96533 125.185 8.04V8.888C125.185 8.96267 125.164 9.02133 125.121 9.064C125.078 9.10667 125.02 9.128 124.945 9.128H120.497C120.444 9.128 120.417 9.15467 120.417 9.208L120.401 12.52C120.401 12.5947 120.433 12.6107 120.497 12.568C121.009 12.1307 121.654 11.912 122.433 11.912C123.18 11.912 123.82 12.0987 124.353 12.472C124.897 12.8453 125.26 13.368 125.441 14.04ZM130.84 19.16C129.763 19.16 128.904 18.856 128.264 18.248C127.635 17.6293 127.32 16.8027 127.32 15.768V11.032C127.32 9.99733 127.635 9.176 128.264 8.568C128.904 7.96 129.763 7.656 130.84 7.656C131.917 7.656 132.776 7.96 133.416 8.568C134.067 9.176 134.392 9.99733 134.392 11.032V15.768C134.392 16.8027 134.067 17.6293 133.416 18.248C132.776 18.856 131.917 19.16 130.84 19.16ZM130.84 17.832C131.459 17.832 131.949 17.656 132.312 17.304C132.675 16.9413 132.856 16.4613 132.856 15.864V10.968C132.856 10.3707 132.675 9.896 132.312 9.544C131.949 9.18133 131.459 9 130.84 9C130.243 9 129.763 9.18133 129.4 9.544C129.037 9.896 128.856 10.3707 128.856 10.968V15.864C128.856 16.4613 129.037 16.9413 129.4 17.304C129.763 17.656 130.243 17.832 130.84 17.832ZM139.103 12.392C138.665 12.392 138.26 12.2853 137.887 12.072C137.524 11.8587 137.236 11.5707 137.023 11.208C136.809 10.8453 136.703 10.4453 136.703 10.008C136.703 9.58133 136.809 9.18667 137.023 8.824C137.236 8.46133 137.524 8.17867 137.887 7.976C138.26 7.76267 138.665 7.656 139.103 7.656C139.529 7.656 139.924 7.76267 140.287 7.976C140.649 8.18933 140.937 8.47733 141.151 8.84C141.364 9.192 141.471 9.58133 141.471 10.008C141.471 10.4453 141.364 10.8453 141.151 11.208C140.937 11.5707 140.649 11.8587 140.287 12.072C139.924 12.2853 139.529 12.392 139.103 12.392ZM138.735 19C138.671 19 138.617 18.9893 138.575 18.968C138.543 18.936 138.527 18.8987 138.527 18.856C138.527 18.8027 138.543 18.7547 138.575 18.712L144.543 7.96C144.596 7.85333 144.692 7.8 144.831 7.8H145.455C145.519 7.8 145.567 7.816 145.599 7.848C145.641 7.86933 145.663 7.90133 145.663 7.944C145.663 7.98667 145.647 8.03467 145.615 8.088L139.647 18.84C139.593 18.9467 139.497 19 139.359 19H138.735ZM139.103 11.528C139.519 11.528 139.871 11.384 140.159 11.096C140.447 10.7973 140.591 10.4347 140.591 10.008C140.591 9.592 140.441 9.24 140.143 8.952C139.855 8.65333 139.508 8.504 139.103 8.504C138.676 8.504 138.313 8.65333 138.015 8.952C137.727 9.24 137.583 9.592 137.583 10.008C137.583 10.4347 137.727 10.7973 138.015 11.096C138.313 11.384 138.676 11.528 139.103 11.528ZM145.199 19.144C144.761 19.144 144.356 19.0373 143.983 18.824C143.62 18.6107 143.332 18.3227 143.119 17.96C142.905 17.5973 142.799 17.2027 142.799 16.776C142.799 16.3493 142.905 15.9547 143.119 15.592C143.332 15.2293 143.62 14.9413 143.983 14.728C144.356 14.5147 144.761 14.408 145.199 14.408C145.625 14.408 146.02 14.5147 146.383 14.728C146.745 14.9413 147.033 15.2293 147.247 15.592C147.46 15.9547 147.567 16.3493 147.567 16.776C147.567 17.2027 147.46 17.5973 147.247 17.96C147.033 18.3227 146.745 18.6107 146.383 18.824C146.02 19.0373 145.625 19.144 145.199 19.144ZM145.199 18.296C145.615 18.296 145.967 18.1467 146.255 17.848C146.543 17.5493 146.687 17.192 146.687 16.776C146.687 16.36 146.537 16.008 146.239 15.72C145.951 15.4213 145.604 15.272 145.199 15.272C144.772 15.272 144.409 15.4213 144.111 15.72C143.823 16.008 143.679 16.36 143.679 16.776C143.679 17.2027 143.823 17.5653 144.111 17.864C144.409 18.152 144.772 18.296 145.199 18.296ZM149.981 20.376C149.799 20.376 149.725 20.2907 149.757 20.12L150.381 16.728C150.413 16.5787 150.498 16.504 150.637 16.504H151.533C151.618 16.504 151.677 16.5307 151.709 16.584C151.751 16.6267 151.762 16.6907 151.741 16.776L150.829 20.168C150.797 20.3067 150.711 20.376 150.573 20.376H149.981ZM158.762 7.864C158.848 7.82133 158.949 7.8 159.066 7.8H160.202C160.277 7.8 160.336 7.82133 160.378 7.864C160.421 7.90667 160.442 7.96533 160.442 8.04V18.76C160.442 18.8347 160.421 18.8933 160.378 18.936C160.336 18.9787 160.277 19 160.202 19H159.146C159.072 19 159.013 18.9787 158.97 18.936C158.928 18.8933 158.906 18.8347 158.906 18.76V9.384C158.906 9.36267 158.896 9.34667 158.874 9.336C158.853 9.31467 158.832 9.30933 158.81 9.32L157.226 9.864C157.205 9.87467 157.173 9.88 157.13 9.88C157.013 9.88 156.954 9.81067 156.954 9.672V8.936C156.954 8.81867 157.013 8.728 157.13 8.664L158.762 7.864ZM164.055 19C163.873 19 163.815 18.9093 163.879 18.728L167.463 9.224C167.484 9.16 167.463 9.128 167.399 9.128H163.575C163.521 9.128 163.495 9.15467 163.495 9.208V9.864C163.495 9.93867 163.473 9.99733 163.431 10.04C163.388 10.0827 163.329 10.104 163.255 10.104H162.455C162.38 10.104 162.321 10.0827 162.279 10.04C162.236 9.99733 162.215 9.93867 162.215 9.864V8.04C162.215 7.96533 162.236 7.90667 162.279 7.864C162.321 7.82133 162.38 7.8 162.455 7.8H168.871C168.945 7.8 169.004 7.82133 169.047 7.864C169.089 7.90667 169.111 7.96533 169.111 8.04V8.984C169.111 9.05867 169.095 9.15467 169.063 9.272L165.479 18.808C165.436 18.936 165.345 19 165.207 19H164.055ZM173.134 12.392C172.697 12.392 172.291 12.2853 171.918 12.072C171.555 11.8587 171.267 11.5707 171.054 11.208C170.841 10.8453 170.734 10.4453 170.734 10.008C170.734 9.58133 170.841 9.18667 171.054 8.824C171.267 8.46133 171.555 8.17867 171.918 7.976C172.291 7.76267 172.697 7.656 173.134 7.656C173.561 7.656 173.955 7.76267 174.318 7.976C174.681 8.18933 174.969 8.47733 175.182 8.84C175.395 9.192 175.502 9.58133 175.502 10.008C175.502 10.4453 175.395 10.8453 175.182 11.208C174.969 11.5707 174.681 11.8587 174.318 12.072C173.955 12.2853 173.561 12.392 173.134 12.392ZM172.766 19C172.702 19 172.649 18.9893 172.606 18.968C172.574 18.936 172.558 18.8987 172.558 18.856C172.558 18.8027 172.574 18.7547 172.606 18.712L178.574 7.96C178.627 7.85333 178.723 7.8 178.862 7.8H179.486C179.55 7.8 179.598 7.816 179.63 7.848C179.673 7.86933 179.694 7.90133 179.694 7.944C179.694 7.98667 179.678 8.03467 179.646 8.088L173.678 18.84C173.625 18.9467 173.529 19 173.39 19H172.766ZM173.134 11.528C173.55 11.528 173.902 11.384 174.19 11.096C174.478 10.7973 174.622 10.4347 174.622 10.008C174.622 9.592 174.473 9.24 174.174 8.952C173.886 8.65333 173.539 8.504 173.134 8.504C172.707 8.504 172.345 8.65333 172.046 8.952C171.758 9.24 171.614 9.592 171.614 10.008C171.614 10.4347 171.758 10.7973 172.046 11.096C172.345 11.384 172.707 11.528 173.134 11.528ZM179.23 19.144C178.793 19.144 178.387 19.0373 178.014 18.824C177.651 18.6107 177.363 18.3227 177.15 17.96C176.937 17.5973 176.83 17.2027 176.83 16.776C176.83 16.3493 176.937 15.9547 177.15 15.592C177.363 15.2293 177.651 14.9413 178.014 14.728C178.387 14.5147 178.793 14.408 179.23 14.408C179.657 14.408 180.051 14.5147 180.414 14.728C180.777 14.9413 181.065 15.2293 181.278 15.592C181.491 15.9547 181.598 16.3493 181.598 16.776C181.598 17.2027 181.491 17.5973 181.278 17.96C181.065 18.3227 180.777 18.6107 180.414 18.824C180.051 19.0373 179.657 19.144 179.23 19.144ZM179.23 18.296C179.646 18.296 179.998 18.1467 180.286 17.848C180.574 17.5493 180.718 17.192 180.718 16.776C180.718 16.36 180.569 16.008 180.27 15.72C179.982 15.4213 179.635 15.272 179.23 15.272C178.803 15.272 178.441 15.4213 178.142 15.72C177.854 16.008 177.71 16.36 177.71 16.776C177.71 17.2027 177.854 17.5653 178.142 17.864C178.441 18.152 178.803 18.296 179.23 18.296Z" fill="#162542"/>
</g>
<defs>
<clipPath id="clip0_0_394">
<rect width="183" height="26" fill="white"/>
</clipPath>
</defs>
</svg>
