<svg width="171" height="26" viewBox="0 0 171 26" fill="none" xmlns="http://www.w3.org/2000/svg">
<g clip-path="url(#clip0_0_371)">
<path d="M7.76 19C7.632 19 7.54133 18.9413 7.488 18.824L5.28 14.088C5.25867 14.0453 5.22667 14.024 5.184 14.024H2.928C2.87467 14.024 2.848 14.0507 2.848 14.104V18.76C2.848 18.8347 2.82667 18.8933 2.784 18.936C2.74133 18.9787 2.68267 19 2.608 19H1.552C1.47733 19 1.41867 18.9787 1.376 18.936C1.33333 18.8933 1.312 18.8347 1.312 18.76V8.024C1.312 7.94933 1.33333 7.89067 1.376 7.848C1.41867 7.80533 1.47733 7.784 1.552 7.784H5.776C6.416 7.784 6.976 7.91733 7.456 8.184C7.94667 8.45067 8.32533 8.824 8.592 9.304C8.85867 9.784 8.992 10.3387 8.992 10.968C8.992 11.704 8.79467 12.3333 8.4 12.856C8.00533 13.368 7.472 13.7147 6.8 13.896C6.75733 13.9173 6.74133 13.9493 6.752 13.992L9.024 18.712L9.056 18.84C9.056 18.9467 8.98667 19 8.848 19H7.76ZM2.928 9.112C2.87467 9.112 2.848 9.13867 2.848 9.192V12.744C2.848 12.7973 2.87467 12.824 2.928 12.824H5.584C6.13867 12.824 6.58667 12.6533 6.928 12.312C7.28 11.9707 7.456 11.528 7.456 10.984C7.456 10.4187 7.28533 9.96533 6.944 9.624C6.60267 9.28267 6.14933 9.112 5.584 9.112H2.928ZM14.7245 19.128C13.9565 19.128 13.2738 18.9787 12.6765 18.68C12.0898 18.3707 11.6312 17.9387 11.3005 17.384C10.9805 16.8187 10.8205 16.1733 10.8205 15.448V11.352C10.8205 10.616 10.9805 9.97067 11.3005 9.416C11.6312 8.86133 12.0898 8.43467 12.6765 8.136C13.2738 7.82667 13.9565 7.672 14.7245 7.672C15.4925 7.672 16.1698 7.82133 16.7565 8.12C17.3432 8.41867 17.7965 8.83467 18.1165 9.368C18.4472 9.89067 18.6125 10.4827 18.6125 11.144V11.24C18.6125 11.3147 18.5912 11.3733 18.5485 11.416C18.5058 11.4587 18.4472 11.48 18.3725 11.48H17.3165C17.2418 11.48 17.1832 11.464 17.1405 11.432C17.0978 11.4 17.0765 11.3627 17.0765 11.32V11.176C17.0765 10.536 16.8578 10.0187 16.4205 9.624C15.9938 9.21867 15.4285 9.016 14.7245 9.016C14.0098 9.016 13.4338 9.224 12.9965 9.64C12.5698 10.056 12.3565 10.6107 12.3565 11.304V15.496C12.3565 16.1893 12.5805 16.744 13.0285 17.16C13.4765 17.576 14.0632 17.784 14.7885 17.784C15.4925 17.784 16.0472 17.6027 16.4525 17.24C16.8685 16.8667 17.0765 16.36 17.0765 15.72V14.504C17.0765 14.4507 17.0498 14.424 16.9965 14.424H14.9325C14.8578 14.424 14.7992 14.4027 14.7565 14.36C14.7138 14.3173 14.6925 14.2587 14.6925 14.184V13.352C14.6925 13.2773 14.7138 13.2187 14.7565 13.176C14.7992 13.1333 14.8578 13.112 14.9325 13.112H18.3725C18.4472 13.112 18.5058 13.1333 18.5485 13.176C18.5912 13.2187 18.6125 13.2773 18.6125 13.352V15.304C18.6125 16.5307 18.2605 17.4747 17.5565 18.136C16.8632 18.7973 15.9192 19.128 14.7245 19.128ZM26.8276 13.16C26.7636 13.192 26.7583 13.224 26.8116 13.256C27.9316 13.7573 28.4916 14.648 28.4916 15.928C28.4916 16.9093 28.1663 17.6667 27.5156 18.2C26.865 18.7333 26.017 19 24.9716 19H21.0676C20.993 19 20.9343 18.9787 20.8916 18.936C20.849 18.8933 20.8276 18.8347 20.8276 18.76V8.04C20.8276 7.96533 20.849 7.90667 20.8916 7.864C20.9343 7.82133 20.993 7.8 21.0676 7.8H24.8436C25.953 7.8 26.8116 8.056 27.4196 8.568C28.0383 9.06933 28.3476 9.80533 28.3476 10.776C28.3476 11.9173 27.841 12.712 26.8276 13.16ZM22.4436 9.128C22.3903 9.128 22.3636 9.15467 22.3636 9.208V12.552C22.3636 12.6053 22.3903 12.632 22.4436 12.632H24.8436C25.4623 12.632 25.9476 12.4773 26.2996 12.168C26.6623 11.8587 26.8436 11.4373 26.8436 10.904C26.8436 10.36 26.6623 9.928 26.2996 9.608C25.9476 9.288 25.4623 9.128 24.8436 9.128H22.4436ZM24.9716 17.656C25.5796 17.656 26.0596 17.4907 26.4116 17.16C26.7743 16.8187 26.9556 16.36 26.9556 15.784C26.9556 15.208 26.7743 14.7547 26.4116 14.424C26.049 14.0827 25.553 13.912 24.9236 13.912H22.4436C22.3903 13.912 22.3636 13.9387 22.3636 13.992V17.576C22.3636 17.6293 22.3903 17.656 22.4436 17.656H24.9716Z" fill="#7B8BAD"/>
<path d="M79.104 19C79.0293 19 78.9707 18.9787 78.928 18.936C78.8853 18.8933 78.864 18.8347 78.864 18.76V17.928C78.864 17.8107 78.9013 17.7093 78.976 17.624C79.5627 16.9627 80.176 16.248 80.816 15.48C81.456 14.712 81.8667 14.2213 82.048 14.008C82.0693 13.9867 82.2347 13.7893 82.544 13.416C83.536 12.232 84.032 11.3147 84.032 10.664C84.032 10.1627 83.8613 9.76267 83.52 9.464C83.1893 9.15467 82.7467 9 82.192 9C81.6373 9 81.1947 9.15467 80.864 9.464C80.5333 9.77333 80.3733 10.1787 80.384 10.68V11.08C80.384 11.1547 80.3627 11.2133 80.32 11.256C80.2773 11.2987 80.2187 11.32 80.144 11.32H79.072C78.9973 11.32 78.9387 11.2987 78.896 11.256C78.8533 11.2133 78.832 11.1547 78.832 11.08V10.472C78.8533 9.91733 79.008 9.42667 79.296 9C79.5947 8.57333 79.9947 8.248 80.496 8.024C80.9973 7.78933 81.5627 7.672 82.192 7.672C82.8747 7.672 83.472 7.8 83.984 8.056C84.496 8.312 84.8907 8.664 85.168 9.112C85.4453 9.56 85.584 10.0667 85.584 10.632C85.584 11.5173 85.104 12.5627 84.144 13.768C83.536 14.5467 82.4693 15.816 80.944 17.576C80.9227 17.5973 80.9173 17.6187 80.928 17.64C80.9387 17.6613 80.96 17.672 80.992 17.672H85.648C85.7227 17.672 85.7813 17.6933 85.824 17.736C85.8667 17.7787 85.888 17.8373 85.888 17.912V18.76C85.888 18.8347 85.8667 18.8933 85.824 18.936C85.7813 18.9787 85.7227 19 85.648 19H79.104ZM93.7145 13.688C93.9278 14.2 94.0345 14.8027 94.0345 15.496C94.0345 16.008 93.9492 16.5307 93.7785 17.064C93.5438 17.7147 93.1545 18.2213 92.6105 18.584C92.0772 18.9467 91.4212 19.128 90.6425 19.128C89.8745 19.128 89.2078 18.9307 88.6425 18.536C88.0878 18.1307 87.6985 17.592 87.4745 16.92C87.3572 16.5573 87.2878 16.1627 87.2665 15.736C87.2665 15.576 87.3465 15.496 87.5065 15.496H88.5785C88.7385 15.496 88.8185 15.576 88.8185 15.736C88.8718 16.1307 88.9145 16.3867 88.9465 16.504C89.0532 16.8987 89.2558 17.2133 89.5545 17.448C89.8532 17.672 90.2158 17.784 90.6425 17.784C91.0478 17.784 91.3838 17.6933 91.6505 17.512C91.9278 17.3307 92.1305 17.064 92.2585 16.712C92.4078 16.328 92.4825 15.912 92.4825 15.464C92.4825 14.888 92.3918 14.4027 92.2105 14.008C91.9332 13.3253 91.4052 12.984 90.6265 12.984C90.4452 12.984 90.2585 13.032 90.0665 13.128C90.0345 13.1493 89.9865 13.16 89.9225 13.16C89.8585 13.16 89.7945 13.128 89.7305 13.064L89.2185 12.44C89.1758 12.3867 89.1545 12.3333 89.1545 12.28C89.1545 12.2373 89.1812 12.1787 89.2345 12.104L91.9225 9.24C91.9758 9.176 91.9652 9.144 91.8905 9.144H87.6505C87.5758 9.144 87.5172 9.12267 87.4745 9.08C87.4318 9.03733 87.4105 8.97867 87.4105 8.904V8.04C87.4105 7.96533 87.4318 7.90667 87.4745 7.864C87.5172 7.82133 87.5758 7.8 87.6505 7.8H93.6985C93.7732 7.8 93.8318 7.82133 93.8745 7.864C93.9172 7.90667 93.9385 7.96533 93.9385 8.04V8.968C93.9385 9.096 93.9012 9.19733 93.8265 9.272L91.3785 11.944C91.3572 11.9653 91.3518 11.9867 91.3625 12.008C91.3732 12.0293 91.3998 12.0453 91.4425 12.056C92.5305 12.1413 93.2878 12.6853 93.7145 13.688ZM96.0728 19C95.9981 19 95.9394 18.9787 95.8968 18.936C95.8541 18.8933 95.8328 18.8347 95.8328 18.76V17.928C95.8328 17.8107 95.8701 17.7093 95.9448 17.624C96.5314 16.9627 97.1448 16.248 97.7848 15.48C98.4248 14.712 98.8354 14.2213 99.0168 14.008C99.0381 13.9867 99.2034 13.7893 99.5128 13.416C100.505 12.232 101.001 11.3147 101.001 10.664C101.001 10.1627 100.83 9.76267 100.489 9.464C100.158 9.15467 99.7154 9 99.1608 9C98.6061 9 98.1634 9.15467 97.8328 9.464C97.5021 9.77333 97.3421 10.1787 97.3528 10.68V11.08C97.3528 11.1547 97.3314 11.2133 97.2888 11.256C97.2461 11.2987 97.1874 11.32 97.1128 11.32H96.0408C95.9661 11.32 95.9074 11.2987 95.8648 11.256C95.8221 11.2133 95.8008 11.1547 95.8008 11.08V10.472C95.8221 9.91733 95.9768 9.42667 96.2648 9C96.5634 8.57333 96.9634 8.248 97.4648 8.024C97.9661 7.78933 98.5314 7.672 99.1608 7.672C99.8434 7.672 100.441 7.8 100.953 8.056C101.465 8.312 101.859 8.664 102.137 9.112C102.414 9.56 102.553 10.0667 102.553 10.632C102.553 11.5173 102.073 12.5627 101.113 13.768C100.505 14.5467 99.4381 15.816 97.9128 17.576C97.8914 17.5973 97.8861 17.6187 97.8968 17.64C97.9074 17.6613 97.9288 17.672 97.9608 17.672H102.617C102.691 17.672 102.75 17.6933 102.793 17.736C102.835 17.7787 102.857 17.8373 102.857 17.912V18.76C102.857 18.8347 102.835 18.8933 102.793 18.936C102.75 18.9787 102.691 19 102.617 19H96.0728ZM104.84 20.376C104.659 20.376 104.584 20.2907 104.616 20.12L105.24 16.728C105.272 16.5787 105.357 16.504 105.496 16.504H106.392C106.477 16.504 106.536 16.5307 106.568 16.584C106.611 16.6267 106.621 16.6907 106.6 16.776L105.688 20.168C105.656 20.3067 105.571 20.376 105.432 20.376H104.84ZM112.198 19C112.123 19 112.064 18.9787 112.022 18.936C111.979 18.8933 111.958 18.8347 111.958 18.76V17.928C111.958 17.8107 111.995 17.7093 112.07 17.624C112.656 16.9627 113.27 16.248 113.91 15.48C114.55 14.712 114.96 14.2213 115.142 14.008C115.163 13.9867 115.328 13.7893 115.638 13.416C116.63 12.232 117.126 11.3147 117.126 10.664C117.126 10.1627 116.955 9.76267 116.614 9.464C116.283 9.15467 115.84 9 115.286 9C114.731 9 114.288 9.15467 113.958 9.464C113.627 9.77333 113.467 10.1787 113.478 10.68V11.08C113.478 11.1547 113.456 11.2133 113.414 11.256C113.371 11.2987 113.312 11.32 113.238 11.32H112.166C112.091 11.32 112.032 11.2987 111.99 11.256C111.947 11.2133 111.926 11.1547 111.926 11.08V10.472C111.947 9.91733 112.102 9.42667 112.39 9C112.688 8.57333 113.088 8.248 113.59 8.024C114.091 7.78933 114.656 7.672 115.286 7.672C115.968 7.672 116.566 7.8 117.078 8.056C117.59 8.312 117.984 8.664 118.262 9.112C118.539 9.56 118.678 10.0667 118.678 10.632C118.678 11.5173 118.198 12.5627 117.238 13.768C116.63 14.5467 115.563 15.816 114.038 17.576C114.016 17.5973 114.011 17.6187 114.022 17.64C114.032 17.6613 114.054 17.672 114.086 17.672H118.742C118.816 17.672 118.875 17.6933 118.918 17.736C118.96 17.7787 118.982 17.8373 118.982 17.912V18.76C118.982 18.8347 118.96 18.8933 118.918 18.936C118.875 18.9787 118.816 19 118.742 19H112.198ZM126.808 13.688C127.022 14.2 127.128 14.8027 127.128 15.496C127.128 16.008 127.043 16.5307 126.872 17.064C126.638 17.7147 126.248 18.2213 125.704 18.584C125.171 18.9467 124.515 19.128 123.736 19.128C122.968 19.128 122.302 18.9307 121.736 18.536C121.182 18.1307 120.792 17.592 120.568 16.92C120.451 16.5573 120.382 16.1627 120.36 15.736C120.36 15.576 120.44 15.496 120.6 15.496H121.672C121.832 15.496 121.912 15.576 121.912 15.736C121.966 16.1307 122.008 16.3867 122.04 16.504C122.147 16.8987 122.35 17.2133 122.648 17.448C122.947 17.672 123.31 17.784 123.736 17.784C124.142 17.784 124.478 17.6933 124.744 17.512C125.022 17.3307 125.224 17.064 125.352 16.712C125.502 16.328 125.576 15.912 125.576 15.464C125.576 14.888 125.486 14.4027 125.304 14.008C125.027 13.3253 124.499 12.984 123.72 12.984C123.539 12.984 123.352 13.032 123.16 13.128C123.128 13.1493 123.08 13.16 123.016 13.16C122.952 13.16 122.888 13.128 122.824 13.064L122.312 12.44C122.27 12.3867 122.248 12.3333 122.248 12.28C122.248 12.2373 122.275 12.1787 122.328 12.104L125.016 9.24C125.07 9.176 125.059 9.144 124.984 9.144H120.744C120.67 9.144 120.611 9.12267 120.568 9.08C120.526 9.03733 120.504 8.97867 120.504 8.904V8.04C120.504 7.96533 120.526 7.90667 120.568 7.864C120.611 7.82133 120.67 7.8 120.744 7.8H126.792C126.867 7.8 126.926 7.82133 126.968 7.864C127.011 7.90667 127.032 7.96533 127.032 8.04V8.968C127.032 9.096 126.995 9.19733 126.92 9.272L124.472 11.944C124.451 11.9653 124.446 11.9867 124.456 12.008C124.467 12.0293 124.494 12.0453 124.536 12.056C125.624 12.1413 126.382 12.6853 126.808 13.688ZM135.311 9.768C135.471 10.216 135.551 10.7333 135.551 11.32V16.248C135.551 17.1227 135.247 17.8213 134.639 18.344C134.031 18.8667 133.236 19.128 132.255 19.128C131.625 19.128 131.065 19.0107 130.575 18.776C130.095 18.5413 129.721 18.216 129.455 17.8C129.188 17.3733 129.055 16.888 129.055 16.344V16.104C129.055 16.0293 129.076 15.9707 129.118 15.928C129.161 15.8853 129.22 15.864 129.295 15.864H130.351C130.511 15.864 130.591 15.912 130.591 16.008V16.168C130.591 16.648 130.745 17.0373 131.055 17.336C131.364 17.6347 131.764 17.784 132.255 17.784C132.777 17.784 133.199 17.6293 133.519 17.32C133.849 17.0107 134.015 16.6 134.015 16.088V14.104C134.015 14.072 134.004 14.056 133.983 14.056C133.961 14.0453 133.94 14.0507 133.919 14.072C133.46 14.5733 132.799 14.824 131.935 14.824C130.676 14.824 129.78 14.3227 129.247 13.32C128.948 12.7547 128.799 12.0773 128.799 11.288C128.799 10.6373 128.905 10.0667 129.118 9.576C129.364 8.968 129.743 8.504 130.255 8.184C130.777 7.85333 131.407 7.688 132.143 7.688C132.932 7.688 133.599 7.86933 134.143 8.232C134.697 8.59467 135.087 9.10667 135.311 9.768ZM133.759 12.568C133.929 12.216 134.015 11.7627 134.015 11.208C134.015 10.76 133.945 10.3813 133.807 10.072C133.668 9.73067 133.46 9.47467 133.183 9.304C132.905 9.12267 132.569 9.032 132.174 9.032C131.396 9.032 130.863 9.37333 130.575 10.056C130.415 10.3867 130.335 10.7973 130.335 11.288C130.335 11.8213 130.431 12.2587 130.623 12.6C130.932 13.2187 131.455 13.528 132.191 13.528C132.564 13.528 132.884 13.448 133.151 13.288C133.417 13.1173 133.62 12.8773 133.759 12.568ZM137.637 20.376C137.455 20.376 137.381 20.2907 137.413 20.12L138.037 16.728C138.069 16.5787 138.154 16.504 138.293 16.504H139.189C139.274 16.504 139.333 16.5307 139.365 16.584C139.407 16.6267 139.418 16.6907 139.397 16.776L138.485 20.168C138.453 20.3067 138.367 20.376 138.229 20.376H137.637ZM144.995 19C144.92 19 144.861 18.9787 144.819 18.936C144.776 18.8933 144.755 18.8347 144.755 18.76V17.928C144.755 17.8107 144.792 17.7093 144.867 17.624C145.453 16.9627 146.067 16.248 146.707 15.48C147.347 14.712 147.757 14.2213 147.939 14.008C147.96 13.9867 148.125 13.7893 148.435 13.416C149.427 12.232 149.923 11.3147 149.923 10.664C149.923 10.1627 149.752 9.76267 149.411 9.464C149.08 9.15467 148.637 9 148.083 9C147.528 9 147.085 9.15467 146.755 9.464C146.424 9.77333 146.264 10.1787 146.275 10.68V11.08C146.275 11.1547 146.253 11.2133 146.211 11.256C146.168 11.2987 146.109 11.32 146.035 11.32H144.963C144.888 11.32 144.829 11.2987 144.787 11.256C144.744 11.2133 144.723 11.1547 144.723 11.08V10.472C144.744 9.91733 144.899 9.42667 145.187 9C145.485 8.57333 145.885 8.248 146.387 8.024C146.888 7.78933 147.453 7.672 148.083 7.672C148.765 7.672 149.363 7.8 149.875 8.056C150.387 8.312 150.781 8.664 151.059 9.112C151.336 9.56 151.475 10.0667 151.475 10.632C151.475 11.5173 150.995 12.5627 150.035 13.768C149.427 14.5467 148.36 15.816 146.835 17.576C146.813 17.5973 146.808 17.6187 146.819 17.64C146.829 17.6613 146.851 17.672 146.883 17.672H151.539C151.613 17.672 151.672 17.6933 151.715 17.736C151.757 17.7787 151.779 17.8373 151.779 17.912V18.76C151.779 18.8347 151.757 18.8933 151.715 18.936C151.672 18.9787 151.613 19 151.539 19H144.995ZM160.594 14.616C160.668 14.616 160.727 14.6373 160.77 14.68C160.812 14.7227 160.834 14.7813 160.834 14.856V15.752C160.834 15.8267 160.812 15.8853 160.77 15.928C160.727 15.9707 160.668 15.992 160.594 15.992H159.986C159.932 15.992 159.906 16.0187 159.906 16.072V18.76C159.906 18.8347 159.884 18.8933 159.842 18.936C159.799 18.9787 159.74 19 159.666 19H158.61C158.535 19 158.476 18.9787 158.434 18.936C158.391 18.8933 158.37 18.8347 158.37 18.76V16.072C158.37 16.0187 158.343 15.992 158.29 15.992H153.522C153.447 15.992 153.388 15.9707 153.346 15.928C153.303 15.8853 153.282 15.8267 153.282 15.752V15.032C153.282 14.9253 153.303 14.824 153.346 14.728L156.45 7.976C156.503 7.85867 156.594 7.8 156.722 7.8H157.842C157.98 7.8 158.05 7.85333 158.05 7.96L158.018 8.088L155.074 14.52C155.063 14.5413 155.063 14.5627 155.074 14.584C155.084 14.6053 155.1 14.616 155.122 14.616H158.29C158.343 14.616 158.37 14.5893 158.37 14.536V12.248C158.37 12.1733 158.391 12.1147 158.434 12.072C158.476 12.0293 158.535 12.008 158.61 12.008H159.666C159.74 12.008 159.799 12.0293 159.842 12.072C159.884 12.1147 159.906 12.1733 159.906 12.248V14.536C159.906 14.5893 159.932 14.616 159.986 14.616H160.594ZM162.838 19C162.764 19 162.705 18.9787 162.662 18.936C162.62 18.8933 162.598 18.8347 162.598 18.76V17.928C162.598 17.8107 162.636 17.7093 162.71 17.624C163.297 16.9627 163.91 16.248 164.55 15.48C165.19 14.712 165.601 14.2213 165.782 14.008C165.804 13.9867 165.969 13.7893 166.278 13.416C167.27 12.232 167.766 11.3147 167.766 10.664C167.766 10.1627 167.596 9.76267 167.254 9.464C166.924 9.15467 166.481 9 165.926 9C165.372 9 164.929 9.15467 164.598 9.464C164.268 9.77333 164.108 10.1787 164.118 10.68V11.08C164.118 11.1547 164.097 11.2133 164.054 11.256C164.012 11.2987 163.953 11.32 163.878 11.32H162.806C162.732 11.32 162.673 11.2987 162.63 11.256C162.588 11.2133 162.566 11.1547 162.566 11.08V10.472C162.588 9.91733 162.742 9.42667 163.03 9C163.329 8.57333 163.729 8.248 164.23 8.024C164.732 7.78933 165.297 7.672 165.926 7.672C166.609 7.672 167.206 7.8 167.718 8.056C168.23 8.312 168.625 8.664 168.902 9.112C169.18 9.56 169.318 10.0667 169.318 10.632C169.318 11.5173 168.838 12.5627 167.878 13.768C167.27 14.5467 166.204 15.816 164.678 17.576C164.657 17.5973 164.652 17.6187 164.662 17.64C164.673 17.6613 164.694 17.672 164.726 17.672H169.382C169.457 17.672 169.516 17.6933 169.558 17.736C169.601 17.7787 169.622 17.8373 169.622 17.912V18.76C169.622 18.8347 169.601 18.8933 169.558 18.936C169.516 18.9787 169.457 19 169.382 19H162.838Z" fill="#162542"/>
</g>
<defs>
<clipPath id="clip0_0_371">
<rect width="171" height="26" fill="white"/>
</clipPath>
</defs>
</svg>
