<svg width="212" height="36" viewBox="0 0 212 36" fill="none" xmlns="http://www.w3.org/2000/svg">
<g clip-path="url(#clip0_0_420)">
<path d="M9.088 31.352C6.74133 31.352 4.88533 30.7013 3.52 29.4C2.15467 28.0773 1.472 26.2853 1.472 24.024V15.576C1.472 13.3573 2.15467 11.5973 3.52 10.296C4.88533 8.99467 6.74133 8.344 9.088 8.344C11.4347 8.344 13.2907 8.99467 14.656 10.296C16.0427 11.5973 16.736 13.3573 16.736 15.576V24.024C16.736 26.2853 16.0427 28.0773 14.656 29.4C13.2907 30.7013 11.4347 31.352 9.088 31.352ZM9.088 27.48C10.048 27.48 10.8053 27.192 11.36 26.616C11.936 26.0187 12.224 25.2293 12.224 24.248V15.448C12.224 14.4667 11.936 13.688 11.36 13.112C10.8053 12.5147 10.048 12.216 9.088 12.216C8.14933 12.216 7.392 12.5147 6.816 13.112C6.26133 13.688 5.984 14.4667 5.984 15.448V24.248C5.984 25.2293 6.26133 26.0187 6.816 26.616C7.392 27.192 8.14933 27.48 9.088 27.48ZM22.1623 8.728C22.3543 8.64267 22.5783 8.6 22.8343 8.6H26.4503C26.8129 8.6 26.9943 8.78133 26.9943 9.144V30.456C26.9943 30.8187 26.8129 31 26.4503 31H23.0263C22.6636 31 22.4823 30.8187 22.4823 30.456V13.016C22.4823 12.952 22.4609 12.8987 22.4183 12.856C22.3756 12.8133 22.3223 12.8027 22.2583 12.824L19.4423 13.4H19.3143C18.9943 13.4 18.8343 13.24 18.8343 12.92V10.488C18.8343 10.168 18.9729 9.96533 19.2503 9.88L22.1623 8.728Z" fill="#7B8BAD"/>
<path d="M104.792 31.256C103.043 31.256 101.496 30.9147 100.152 30.232C98.8293 29.5493 97.7947 28.5893 97.048 27.352C96.3227 26.0933 95.96 24.6427 95.96 23V16.536C95.96 14.9147 96.3227 13.4853 97.048 12.248C97.7947 11.0107 98.8293 10.0507 100.152 9.368C101.496 8.68533 103.043 8.344 104.792 8.344C106.541 8.344 108.077 8.664 109.4 9.304C110.744 9.944 111.779 10.8507 112.504 12.024C113.251 13.176 113.624 14.52 113.624 16.056C113.624 16.248 113.432 16.3653 113.048 16.408L108.248 16.728H108.088C107.768 16.728 107.608 16.6747 107.608 16.568V16.376C107.608 15.5013 107.352 14.808 106.84 14.296C106.328 13.7627 105.645 13.496 104.792 13.496C103.939 13.496 103.256 13.7627 102.744 14.296C102.232 14.808 101.976 15.5013 101.976 16.376V23.256C101.976 24.1093 102.232 24.8027 102.744 25.336C103.256 25.848 103.939 26.104 104.792 26.104C105.645 26.104 106.328 25.848 106.84 25.336C107.352 24.8027 107.608 24.1093 107.608 23.256C107.608 23.1493 107.661 23.064 107.768 23C107.896 22.9147 108.056 22.8827 108.248 22.904L113.048 23.16C113.432 23.1813 113.624 23.2347 113.624 23.32V23.48C113.624 25.016 113.251 26.3707 112.504 27.544C111.779 28.7173 110.744 29.6347 109.4 30.296C108.077 30.936 106.541 31.256 104.792 31.256ZM124.42 31.384C122.649 31.384 121.081 31.032 119.716 30.328C118.372 29.6027 117.327 28.6 116.58 27.32C115.833 26.0187 115.46 24.5147 115.46 22.808V16.792C115.46 15.128 115.833 13.656 116.58 12.376C117.327 11.096 118.372 10.104 119.716 9.4C121.081 8.696 122.649 8.344 124.42 8.344C126.212 8.344 127.78 8.696 129.124 9.4C130.489 10.104 131.545 11.096 132.292 12.376C133.039 13.656 133.412 15.128 133.412 16.792V22.808C133.412 24.5147 133.039 26.0187 132.292 27.32C131.545 28.6 130.489 29.6027 129.124 30.328C127.78 31.032 126.212 31.384 124.42 31.384ZM124.42 26.232C125.316 26.232 126.031 25.944 126.564 25.368C127.119 24.7707 127.396 23.9813 127.396 23V16.728C127.396 15.7467 127.119 14.968 126.564 14.392C126.031 13.7947 125.316 13.496 124.42 13.496C123.545 13.496 122.831 13.7947 122.276 14.392C121.743 14.968 121.476 15.7467 121.476 16.728V23C121.476 23.9813 121.743 24.7707 122.276 25.368C122.831 25.944 123.545 26.232 124.42 26.232ZM136.231 31C135.826 31 135.623 30.7973 135.623 30.392V9.208C135.623 8.80267 135.826 8.6 136.231 8.6H141.031C141.436 8.6 141.639 8.80267 141.639 9.208V25.592C141.639 25.7627 141.724 25.848 141.895 25.848H151.559C151.964 25.848 152.167 26.0507 152.167 26.456V30.392C152.167 30.7973 151.964 31 151.559 31H136.231ZM162.326 31.384C160.556 31.384 158.988 31.032 157.622 30.328C156.278 29.6027 155.233 28.6 154.486 27.32C153.74 26.0187 153.366 24.5147 153.366 22.808V16.792C153.366 15.128 153.74 13.656 154.486 12.376C155.233 11.096 156.278 10.104 157.622 9.4C158.988 8.696 160.556 8.344 162.326 8.344C164.118 8.344 165.686 8.696 167.03 9.4C168.396 10.104 169.452 11.096 170.198 12.376C170.945 13.656 171.318 15.128 171.318 16.792V22.808C171.318 24.5147 170.945 26.0187 170.198 27.32C169.452 28.6 168.396 29.6027 167.03 30.328C165.686 31.032 164.118 31.384 162.326 31.384ZM162.326 26.232C163.222 26.232 163.937 25.944 164.47 25.368C165.025 24.7707 165.302 23.9813 165.302 23V16.728C165.302 15.7467 165.025 14.968 164.47 14.392C163.937 13.7947 163.222 13.496 162.326 13.496C161.452 13.496 160.737 13.7947 160.182 14.392C159.649 14.968 159.382 15.7467 159.382 16.728V23C159.382 23.9813 159.649 24.7707 160.182 25.368C160.737 25.944 161.452 26.232 162.326 26.232ZM185.433 31C185.092 31 184.857 30.8507 184.729 30.552L181.273 22.584C181.231 22.456 181.124 22.392 180.953 22.392H179.801C179.631 22.392 179.545 22.4773 179.545 22.648V30.392C179.545 30.7973 179.343 31 178.937 31H174.137C173.732 31 173.529 30.7973 173.529 30.392V9.208C173.529 8.80267 173.732 8.6 174.137 8.6H183.705C185.156 8.6 186.425 8.89867 187.513 9.496C188.623 10.0933 189.476 10.936 190.073 12.024C190.692 13.0907 191.001 14.328 191.001 15.736C191.001 17.1227 190.66 18.3387 189.977 19.384C189.316 20.4293 188.388 21.208 187.193 21.72C187.044 21.784 187.001 21.8907 187.065 22.04L190.969 30.296C191.012 30.3813 191.033 30.488 191.033 30.616C191.033 30.872 190.863 31 190.521 31H185.433ZM179.801 13.752C179.631 13.752 179.545 13.8373 179.545 14.008V17.56C179.545 17.7307 179.631 17.816 179.801 17.816H182.713C183.396 17.816 183.951 17.6347 184.377 17.272C184.804 16.888 185.017 16.3973 185.017 15.8C185.017 15.1813 184.804 14.6907 184.377 14.328C183.951 13.944 183.396 13.752 182.713 13.752H179.801ZM201.537 31.256C199.809 31.256 198.283 30.968 196.961 30.392C195.638 29.7947 194.614 28.952 193.889 27.864C193.163 26.776 192.801 25.5173 192.801 24.088V23.768C192.801 23.3627 193.003 23.16 193.409 23.16H198.113C198.518 23.16 198.721 23.2667 198.721 23.48V23.832C198.721 24.408 199.03 24.9307 199.649 25.4C200.267 25.8693 201.046 26.104 201.985 26.104C202.774 26.104 203.339 25.944 203.681 25.624C204.022 25.2827 204.193 24.9093 204.193 24.504C204.193 24.0347 203.979 23.6827 203.553 23.448C203.126 23.2133 202.347 22.9253 201.217 22.584L200.289 22.328C198.177 21.688 196.406 20.8347 194.977 19.768C193.547 18.7013 192.833 17.1547 192.833 15.128C192.833 13.784 193.195 12.6 193.921 11.576C194.646 10.5307 195.638 9.73067 196.897 9.176C198.177 8.62133 199.606 8.344 201.185 8.344C202.849 8.344 204.353 8.65333 205.697 9.272C207.062 9.89067 208.129 10.7653 208.897 11.896C209.686 13.0267 210.081 14.3173 210.081 15.768V15.928C210.081 16.3333 209.878 16.536 209.473 16.536H204.769C204.363 16.536 204.161 16.4507 204.161 16.28V16.024C204.161 15.384 203.873 14.808 203.297 14.296C202.721 13.7627 201.942 13.496 200.961 13.496C200.278 13.496 199.734 13.6347 199.329 13.912C198.945 14.1893 198.753 14.5733 198.753 15.064C198.753 15.448 198.891 15.7787 199.169 16.056C199.467 16.312 199.915 16.568 200.513 16.824C201.11 17.0587 202.027 17.368 203.265 17.752C203.435 17.816 204.182 18.0507 205.505 18.456C206.849 18.84 207.969 19.5547 208.865 20.6C209.761 21.624 210.209 22.872 210.209 24.344C210.209 25.7307 209.846 26.9467 209.121 27.992C208.395 29.0373 207.371 29.848 206.049 30.424C204.747 30.9787 203.243 31.256 201.537 31.256Z" fill="#162542"/>
</g>
<defs>
<clipPath id="clip0_0_420">
<rect width="212" height="36" fill="white"/>
</clipPath>
</defs>
</svg>
