<svg width="296" height="36" viewBox="0 0 296 36" fill="none" xmlns="http://www.w3.org/2000/svg">
<g clip-path="url(#clip0_0_423)">
<path d="M9.088 31.352C6.74133 31.352 4.88533 30.7013 3.52 29.4C2.15467 28.0773 1.472 26.2853 1.472 24.024V15.576C1.472 13.3573 2.15467 11.5973 3.52 10.296C4.88533 8.99467 6.74133 8.344 9.088 8.344C11.4347 8.344 13.2907 8.99467 14.656 10.296C16.0427 11.5973 16.736 13.3573 16.736 15.576V24.024C16.736 26.2853 16.0427 28.0773 14.656 29.4C13.2907 30.7013 11.4347 31.352 9.088 31.352ZM9.088 27.48C10.048 27.48 10.8053 27.192 11.36 26.616C11.936 26.0187 12.224 25.2293 12.224 24.248V15.448C12.224 14.4667 11.936 13.688 11.36 13.112C10.8053 12.5147 10.048 12.216 9.088 12.216C8.14933 12.216 7.392 12.5147 6.816 13.112C6.26133 13.688 5.984 14.4667 5.984 15.448V24.248C5.984 25.2293 6.26133 26.0187 6.816 26.616C7.392 27.192 8.14933 27.48 9.088 27.48ZM20.234 31C19.8713 31 19.69 30.8187 19.69 30.456V27.768C19.69 27.5333 19.786 27.3093 19.978 27.096C20.8527 26.2213 21.7807 25.2507 22.762 24.184C23.7433 23.096 24.4047 22.3707 24.746 22.008C25.7273 20.8987 26.4633 20.088 26.954 19.576C28.8953 17.4213 29.866 15.8213 29.866 14.776C29.866 14.0293 29.5993 13.4213 29.066 12.952C28.5327 12.4613 27.8393 12.216 26.986 12.216C26.1327 12.216 25.4393 12.4613 24.906 12.952C24.3727 13.4213 24.106 14.0507 24.106 14.84V15.48C24.106 15.8427 23.9247 16.024 23.562 16.024H20.106C19.7433 16.024 19.562 15.8427 19.562 15.48V14.136C19.626 12.984 19.9887 11.9707 20.65 11.096C21.3113 10.2 22.186 9.51733 23.274 9.048C24.3833 8.57867 25.6207 8.344 26.986 8.344C28.5007 8.344 29.8127 8.632 30.922 9.208C32.0527 9.76267 32.9167 10.52 33.514 11.48C34.1327 12.44 34.442 13.5067 34.442 14.68C34.442 15.576 34.218 16.4933 33.77 17.432C33.322 18.3707 32.65 19.384 31.754 20.472C30.9007 21.5173 29.4287 23.128 27.338 25.304C27.3167 25.3253 26.8153 25.8587 25.834 26.904C25.77 26.9467 25.7487 27 25.77 27.064C25.7913 27.1067 25.8447 27.128 25.93 27.128H34.314C34.6767 27.128 34.858 27.3093 34.858 27.672V30.456C34.858 30.8187 34.6767 31 34.314 31H20.234Z" fill="#7B8BAD"/>
<path d="M112.856 8.6C113.261 8.6 113.464 8.80267 113.464 9.208V13.176C113.464 13.5813 113.261 13.784 112.856 13.784H107.704C107.533 13.784 107.448 13.8693 107.448 14.04V30.392C107.448 30.7973 107.245 31 106.84 31H102.04C101.635 31 101.432 30.7973 101.432 30.392V14.04C101.432 13.8693 101.347 13.784 101.176 13.784H96.184C95.7787 13.784 95.576 13.5813 95.576 13.176V9.208C95.576 8.80267 95.7787 8.6 96.184 8.6H112.856ZM122.031 30.936C121.626 30.936 121.423 30.7333 121.423 30.328V23.448C121.423 23.3627 121.402 23.256 121.359 23.128L114.927 9.304C114.885 9.176 114.863 9.08 114.863 9.016C114.863 8.73867 115.045 8.6 115.407 8.6H120.623C120.986 8.6 121.221 8.76 121.327 9.08L124.271 16.472C124.314 16.5573 124.367 16.6 124.431 16.6C124.495 16.6 124.549 16.5573 124.591 16.472L127.535 9.08C127.642 8.76 127.877 8.6 128.239 8.6H133.487C133.85 8.6 134.031 8.73867 134.031 9.016C134.031 9.08 134.01 9.176 133.967 9.304L127.471 23.128C127.429 23.256 127.407 23.3627 127.407 23.448V30.328C127.407 30.7333 127.205 30.936 126.799 30.936H122.031ZM145.883 8.6C147.398 8.6 148.731 8.90933 149.883 9.528C151.035 10.1253 151.92 10.9893 152.539 12.12C153.179 13.2293 153.499 14.5093 153.499 15.96C153.499 17.3893 153.168 18.648 152.507 19.736C151.846 20.824 150.918 21.6667 149.723 22.264C148.528 22.8613 147.152 23.16 145.595 23.16H142.299C142.128 23.16 142.043 23.2453 142.043 23.416V30.392C142.043 30.7973 141.84 31 141.435 31H136.635C136.23 31 136.027 30.7973 136.027 30.392V9.208C136.027 8.80267 136.23 8.6 136.635 8.6H145.883ZM144.891 18.36C145.68 18.36 146.31 18.1573 146.779 17.752C147.27 17.3253 147.515 16.7707 147.515 16.088C147.515 15.384 147.27 14.8187 146.779 14.392C146.31 13.9653 145.68 13.752 144.891 13.752H142.299C142.128 13.752 142.043 13.8373 142.043 14.008V18.104C142.043 18.2747 142.128 18.36 142.299 18.36H144.891ZM163.983 31.384C162.212 31.384 160.644 31.032 159.279 30.328C157.935 29.6027 156.889 28.6 156.143 27.32C155.396 26.0187 155.023 24.5147 155.023 22.808V16.792C155.023 15.128 155.396 13.656 156.143 12.376C156.889 11.096 157.935 10.104 159.279 9.4C160.644 8.696 162.212 8.344 163.983 8.344C165.775 8.344 167.343 8.696 168.687 9.4C170.052 10.104 171.108 11.096 171.855 12.376C172.601 13.656 172.975 15.128 172.975 16.792V22.808C172.975 24.5147 172.601 26.0187 171.855 27.32C171.108 28.6 170.052 29.6027 168.687 30.328C167.343 31.032 165.775 31.384 163.983 31.384ZM163.983 26.232C164.879 26.232 165.593 25.944 166.127 25.368C166.681 24.7707 166.959 23.9813 166.959 23V16.728C166.959 15.7467 166.681 14.968 166.127 14.392C165.593 13.7947 164.879 13.496 163.983 13.496C163.108 13.496 162.393 13.7947 161.839 14.392C161.305 14.968 161.039 15.7467 161.039 16.728V23C161.039 23.9813 161.305 24.7707 161.839 25.368C162.393 25.944 163.108 26.232 163.983 26.232ZM183.73 31.256C181.98 31.256 180.434 30.904 179.09 30.2C177.767 29.496 176.732 28.504 175.986 27.224C175.26 25.944 174.898 24.472 174.898 22.808V16.76C174.898 15.096 175.26 13.6347 175.986 12.376C176.732 11.096 177.767 10.104 179.09 9.4C180.434 8.696 181.98 8.344 183.73 8.344C185.436 8.344 186.962 8.68533 188.306 9.368C189.65 10.0293 190.684 10.936 191.41 12.088C192.156 13.24 192.53 14.4987 192.53 15.864C192.53 16.2053 192.327 16.376 191.922 16.376H187.154C186.748 16.376 186.546 16.3227 186.546 16.216V16.088C186.546 15.384 186.29 14.776 185.778 14.264C185.287 13.752 184.604 13.496 183.73 13.496C182.876 13.496 182.194 13.784 181.682 14.36C181.17 14.9147 180.914 15.6613 180.914 16.6V23C180.914 23.9173 181.202 24.664 181.778 25.24C182.375 25.816 183.111 26.104 183.986 26.104C184.775 26.104 185.415 25.8907 185.906 25.464C186.418 25.016 186.674 24.408 186.674 23.64V23.32C186.674 23.1493 186.588 23.064 186.418 23.064H183.826C183.42 23.064 183.218 22.8613 183.218 22.456V18.872C183.218 18.4667 183.42 18.264 183.826 18.264H191.922C192.327 18.264 192.53 18.4667 192.53 18.872V23.128C192.53 24.7067 192.156 26.1147 191.41 27.352C190.684 28.5893 189.65 29.5493 188.306 30.232C186.983 30.9147 185.458 31.256 183.73 31.256ZM206.558 31C206.217 31 205.982 30.8507 205.854 30.552L202.398 22.584C202.356 22.456 202.249 22.392 202.078 22.392H200.926C200.756 22.392 200.67 22.4773 200.67 22.648V30.392C200.67 30.7973 200.468 31 200.062 31H195.262C194.857 31 194.654 30.7973 194.654 30.392V9.208C194.654 8.80267 194.857 8.6 195.262 8.6H204.83C206.281 8.6 207.55 8.89867 208.638 9.496C209.748 10.0933 210.601 10.936 211.198 12.024C211.817 13.0907 212.126 14.328 212.126 15.736C212.126 17.1227 211.785 18.3387 211.102 19.384C210.441 20.4293 209.513 21.208 208.318 21.72C208.169 21.784 208.126 21.8907 208.19 22.04L212.094 30.296C212.137 30.3813 212.158 30.488 212.158 30.616C212.158 30.872 211.988 31 211.646 31H206.558ZM200.926 13.752C200.756 13.752 200.67 13.8373 200.67 14.008V17.56C200.67 17.7307 200.756 17.816 200.926 17.816H203.838C204.521 17.816 205.076 17.6347 205.502 17.272C205.929 16.888 206.142 16.3973 206.142 15.8C206.142 15.1813 205.929 14.6907 205.502 14.328C205.076 13.944 204.521 13.752 203.838 13.752H200.926ZM229.446 31C229.083 31 228.859 30.8293 228.774 30.488L228.134 28.184C228.091 28.0347 227.995 27.96 227.846 27.96H221.19C221.04 27.96 220.944 28.0347 220.902 28.184L220.262 30.488C220.176 30.8293 219.952 31 219.59 31H214.406C214.192 31 214.032 30.936 213.926 30.808C213.84 30.68 213.83 30.5093 213.894 30.296L220.55 9.112C220.656 8.77067 220.88 8.6 221.222 8.6H227.814C228.155 8.6 228.379 8.77067 228.486 9.112L235.142 30.296C235.163 30.36 235.174 30.4347 235.174 30.52C235.174 30.84 234.992 31 234.63 31H229.446ZM222.31 23.128C222.31 23.2773 222.384 23.352 222.534 23.352H226.502C226.587 23.352 226.651 23.3307 226.694 23.288C226.736 23.224 226.747 23.1493 226.726 23.064L224.678 15.672C224.656 15.5653 224.603 15.512 224.518 15.512C224.454 15.512 224.4 15.5653 224.358 15.672L222.31 23.064V23.128ZM246.946 8.6C248.46 8.6 249.794 8.90933 250.946 9.528C252.098 10.1253 252.983 10.9893 253.602 12.12C254.242 13.2293 254.562 14.5093 254.562 15.96C254.562 17.3893 254.231 18.648 253.569 19.736C252.908 20.824 251.98 21.6667 250.786 22.264C249.591 22.8613 248.215 23.16 246.658 23.16H243.362C243.191 23.16 243.106 23.2453 243.106 23.416V30.392C243.106 30.7973 242.903 31 242.498 31H237.698C237.292 31 237.09 30.7973 237.09 30.392V9.208C237.09 8.80267 237.292 8.6 237.698 8.6H246.946ZM245.954 18.36C246.743 18.36 247.372 18.1573 247.842 17.752C248.332 17.3253 248.578 16.7707 248.578 16.088C248.578 15.384 248.332 14.8187 247.842 14.392C247.372 13.9653 246.743 13.752 245.954 13.752H243.362C243.191 13.752 243.106 13.8373 243.106 14.008V18.104C243.106 18.2747 243.191 18.36 243.362 18.36H245.954ZM267.701 9.208C267.701 8.80267 267.904 8.6 268.309 8.6H273.109C273.514 8.6 273.717 8.80267 273.717 9.208V30.392C273.717 30.7973 273.514 31 273.109 31H268.309C267.904 31 267.701 30.7973 267.701 30.392V22.488C267.701 22.3173 267.616 22.232 267.445 22.232H262.645C262.474 22.232 262.389 22.3173 262.389 22.488V30.392C262.389 30.7973 262.186 31 261.781 31H256.981C256.576 31 256.373 30.7973 256.373 30.392V9.208C256.373 8.80267 256.576 8.6 256.981 8.6H261.781C262.186 8.6 262.389 8.80267 262.389 9.208V16.824C262.389 16.9947 262.474 17.08 262.645 17.08H267.445C267.616 17.08 267.701 16.9947 267.701 16.824V9.208ZM282.688 30.936C282.282 30.936 282.08 30.7333 282.08 30.328V23.448C282.08 23.3627 282.058 23.256 282.016 23.128L275.584 9.304C275.541 9.176 275.52 9.08 275.52 9.016C275.52 8.73867 275.701 8.6 276.064 8.6H281.28C281.642 8.6 281.877 8.76 281.984 9.08L284.928 16.472C284.97 16.5573 285.024 16.6 285.088 16.6C285.152 16.6 285.205 16.5573 285.248 16.472L288.192 9.08C288.298 8.76 288.533 8.6 288.896 8.6H294.144C294.506 8.6 294.688 8.73867 294.688 9.016C294.688 9.08 294.666 9.176 294.624 9.304L288.128 23.128C288.085 23.256 288.064 23.3627 288.064 23.448V30.328C288.064 30.7333 287.861 30.936 287.456 30.936H282.688Z" fill="#162542"/>
</g>
<defs>
<clipPath id="clip0_0_423">
<rect width="296" height="36" fill="white"/>
</clipPath>
</defs>
</svg>
