<svg width="430" height="114" viewBox="0 0 421 128" fill="none" xmlns="http://www.w3.org/2000/svg">
<path opacity="0.75" d="M12.264 17C12.04 17 11.888 16.888 11.808 16.664L11.136 14.432C11.12 14.352 11.072 14.312 10.992 14.312H5.112C5.032 14.312 4.984 14.352 4.968 14.432L4.296 16.664C4.216 16.888 4.064 17 3.84 17H1.056C0.912 17 0.808 16.96 0.744 16.88C0.68 16.784 0.672 16.672 0.72 16.544L5.832 0.535999C5.912 0.311999 6.064 0.199999 6.288 0.199999H9.816C10.04 0.199999 10.192 0.311999 10.272 0.535999L15.384 16.544C15.4 16.576 15.408 16.624 15.408 16.688C15.408 16.784 15.376 16.864 15.312 16.928C15.248 16.976 15.16 17 15.048 17H12.264ZM5.808 11.528C5.792 11.64 5.832 11.696 5.928 11.696H10.176C10.272 11.696 10.312 11.64 10.296 11.528L8.136 4.208C8.12 4.144 8.088 4.112 8.04 4.112C8.008 4.112 7.976 4.144 7.944 4.208L5.808 11.528ZM32.3496 8.216C32.3016 8.232 32.2776 8.264 32.2776 8.312C32.2776 8.344 32.3016 8.376 32.3496 8.408C33.8536 9.16 34.6056 10.456 34.6056 12.296C34.6056 13.848 34.0776 15.024 33.0216 15.824C31.9656 16.608 30.5816 17 28.8696 17H22.7736C22.5016 17 22.3656 16.864 22.3656 16.592V0.607999C22.3656 0.335999 22.5016 0.199999 22.7736 0.199999H28.6776C32.4696 0.199999 34.3656 1.736 34.3656 4.808C34.3656 6.424 33.6936 7.56 32.3496 8.216ZM25.8936 3.104C25.7976 3.104 25.7496 3.152 25.7496 3.248V6.944C25.7496 7.04 25.7976 7.088 25.8936 7.088H28.6776C29.4296 7.088 30.0136 6.912 30.4296 6.56C30.8456 6.208 31.0536 5.728 31.0536 5.12C31.0536 4.496 30.8456 4.008 30.4296 3.656C30.0136 3.288 29.4296 3.104 28.6776 3.104H25.8936ZM28.8696 14.072C29.6056 14.072 30.1816 13.888 30.5976 13.52C31.0136 13.136 31.2216 12.616 31.2216 11.96C31.2216 11.304 31.0136 10.792 30.5976 10.424C30.1816 10.04 29.5976 9.848 28.8456 9.848H25.8936C25.7976 9.848 25.7496 9.896 25.7496 9.992V13.928C25.7496 14.024 25.7976 14.072 25.8936 14.072H28.8696ZM47.9289 17.192C46.6809 17.192 45.5849 16.952 44.6409 16.472C43.6969 15.976 42.9689 15.288 42.4569 14.408C41.9449 13.528 41.6889 12.512 41.6889 11.36V5.816C41.6889 4.664 41.9449 3.648 42.4569 2.768C42.9689 1.888 43.6969 1.208 44.6409 0.727999C45.5849 0.248 46.6809 0.0079999 47.9289 0.0079999C49.1609 0.0079999 50.2409 0.24 51.1689 0.704C52.1129 1.152 52.8409 1.8 53.3529 2.648C53.8809 3.48 54.1449 4.448 54.1449 5.552C54.1449 5.696 54.0169 5.784 53.7609 5.816L51.1929 5.984H51.0969C50.8729 5.984 50.7609 5.944 50.7609 5.864V5.72C50.7609 4.872 50.4969 4.192 49.9689 3.68C49.4569 3.168 48.7769 2.912 47.9289 2.912C47.0649 2.912 46.3689 3.168 45.8409 3.68C45.3289 4.192 45.0729 4.872 45.0729 5.72V11.504C45.0729 12.336 45.3289 13.008 45.8409 13.52C46.3689 14.032 47.0649 14.288 47.9289 14.288C48.7769 14.288 49.4569 14.032 49.9689 13.52C50.4969 13.008 50.7609 12.336 50.7609 11.504C50.7609 11.424 50.7929 11.36 50.8569 11.312C50.9369 11.248 51.0409 11.224 51.1689 11.24L53.7369 11.36C54.0089 11.392 54.1449 11.432 54.1449 11.48V11.6C54.1449 12.704 53.8809 13.68 53.3529 14.528C52.8409 15.376 52.1129 16.032 51.1689 16.496C50.2409 16.96 49.1609 17.192 47.9289 17.192ZM61.8345 17C61.5625 17 61.4265 16.864 61.4265 16.592V0.607999C61.4265 0.335999 61.5625 0.199999 61.8345 0.199999H67.7145C68.9145 0.199999 69.9625 0.415999 70.8585 0.847999C71.7705 1.264 72.4745 1.856 72.9705 2.624C73.4665 3.392 73.7145 4.28 73.7145 5.288V11.912C73.7145 12.92 73.4665 13.808 72.9705 14.576C72.4745 15.344 71.7705 15.944 70.8585 16.376C69.9625 16.792 68.9145 17 67.7145 17H61.8345ZM64.8105 13.952C64.8105 14.048 64.8585 14.096 64.9545 14.096H67.8345C68.5705 14.096 69.1625 13.848 69.6105 13.352C70.0745 12.856 70.3145 12.192 70.3305 11.36V5.84C70.3305 5.008 70.0985 4.344 69.6345 3.848C69.1865 3.352 68.5785 3.104 67.8105 3.104H64.9545C64.8585 3.104 64.8105 3.152 64.8105 3.248V13.952ZM92.7264 2.696C92.7264 2.968 92.5904 3.104 92.3184 3.104H84.5904C84.4944 3.104 84.4464 3.152 84.4464 3.248V6.92C84.4464 7.016 84.4944 7.064 84.5904 7.064H89.6064C89.8784 7.064 90.0144 7.2 90.0144 7.472V9.56C90.0144 9.832 89.8784 9.968 89.6064 9.968H84.5904C84.4944 9.968 84.4464 10.016 84.4464 10.112V13.952C84.4464 14.048 84.4944 14.096 84.5904 14.096H92.3184C92.5904 14.096 92.7264 14.232 92.7264 14.504V16.592C92.7264 16.864 92.5904 17 92.3184 17H81.4704C81.1984 17 81.0624 16.864 81.0624 16.592V0.607999C81.0624 0.335999 81.1984 0.199999 81.4704 0.199999H92.3184C92.5904 0.199999 92.7264 0.335999 92.7264 0.607999V2.696ZM111.518 2.696C111.518 2.968 111.382 3.104 111.11 3.104H103.406C103.31 3.104 103.262 3.152 103.262 3.248V6.92C103.262 7.016 103.31 7.064 103.406 7.064H108.422C108.694 7.064 108.83 7.2 108.83 7.472V9.56C108.83 9.832 108.694 9.968 108.422 9.968H103.406C103.31 9.968 103.262 10.016 103.262 10.112V16.592C103.262 16.864 103.126 17 102.854 17H100.286C100.014 17 99.8781 16.864 99.8781 16.592V0.607999C99.8781 0.335999 100.014 0.199999 100.286 0.199999H111.11C111.382 0.199999 111.518 0.335999 111.518 0.607999V2.696ZM123.988 17.192C122.756 17.192 121.668 16.944 120.724 16.448C119.78 15.952 119.044 15.264 118.516 14.384C118.004 13.488 117.748 12.456 117.748 11.288V5.912C117.748 4.744 118.004 3.712 118.516 2.816C119.044 1.92 119.78 1.232 120.724 0.751999C121.668 0.256 122.756 0.0079999 123.988 0.0079999C125.204 0.0079999 126.276 0.248 127.204 0.727999C128.148 1.208 128.876 1.864 129.388 2.696C129.916 3.512 130.18 4.424 130.18 5.432V5.48C130.18 5.752 130.044 5.888 129.772 5.888H127.204C127.076 5.888 126.972 5.872 126.892 5.84C126.828 5.792 126.796 5.744 126.796 5.696V5.528C126.796 4.792 126.54 4.176 126.028 3.68C125.516 3.168 124.836 2.912 123.988 2.912C123.124 2.912 122.428 3.184 121.9 3.728C121.388 4.256 121.132 4.952 121.132 5.816V11.384C121.132 12.248 121.412 12.952 121.972 13.496C122.532 14.024 123.244 14.288 124.108 14.288C124.94 14.288 125.604 14.072 126.1 13.64C126.596 13.192 126.844 12.576 126.844 11.792V10.736C126.844 10.64 126.796 10.592 126.7 10.592H124.156C123.884 10.592 123.748 10.456 123.748 10.184V8.216C123.748 7.944 123.884 7.808 124.156 7.808H129.772C130.044 7.808 130.18 7.944 130.18 8.216V11.264C130.18 12.48 129.924 13.536 129.412 14.432C128.9 15.328 128.172 16.016 127.228 16.496C126.3 16.96 125.22 17.192 123.988 17.192ZM146.39 0.607999C146.39 0.335999 146.526 0.199999 146.798 0.199999H149.366C149.638 0.199999 149.774 0.335999 149.774 0.607999V16.592C149.774 16.864 149.638 17 149.366 17H146.798C146.526 17 146.39 16.864 146.39 16.592V10.112C146.39 10.016 146.342 9.968 146.246 9.968H140.99C140.894 9.968 140.846 10.016 140.846 10.112V16.592C140.846 16.864 140.71 17 140.438 17H137.87C137.598 17 137.462 16.864 137.462 16.592V0.607999C137.462 0.335999 137.598 0.199999 137.87 0.199999H140.438C140.71 0.199999 140.846 0.335999 140.846 0.607999V6.92C140.846 7.016 140.894 7.064 140.99 7.064H146.246C146.342 7.064 146.39 7.016 146.39 6.92V0.607999ZM157.741 17C157.469 17 157.333 16.864 157.333 16.592V0.607999C157.333 0.335999 157.469 0.199999 157.741 0.199999H160.309C160.581 0.199999 160.717 0.335999 160.717 0.607999V16.592C160.717 16.864 160.581 17 160.309 17H157.741ZM168.733 17.192C167.533 17.192 166.469 16.968 165.541 16.52C164.629 16.056 163.917 15.416 163.405 14.6C162.893 13.768 162.637 12.808 162.637 11.72V10.88C162.637 10.608 162.773 10.472 163.045 10.472H165.613C165.885 10.472 166.021 10.608 166.021 10.88V11.72C166.021 12.488 166.269 13.112 166.765 13.592C167.261 14.056 167.917 14.288 168.733 14.288C169.565 14.288 170.237 14.056 170.749 13.592C171.261 13.112 171.517 12.488 171.517 11.72V0.607999C171.517 0.335999 171.653 0.199999 171.925 0.199999H174.469C174.741 0.199999 174.877 0.335999 174.877 0.607999V11.72C174.877 12.808 174.621 13.768 174.109 14.6C173.597 15.416 172.877 16.056 171.949 16.52C171.021 16.968 169.949 17.192 168.733 17.192ZM183.002 17C182.73 17 182.594 16.864 182.594 16.592V0.607999C182.594 0.335999 182.73 0.199999 183.002 0.199999H185.57C185.842 0.199999 185.978 0.335999 185.978 0.607999V7.16C185.978 7.224 185.994 7.264 186.026 7.28C186.074 7.296 186.114 7.28 186.146 7.232L191.618 0.439999C191.73 0.279999 191.898 0.199999 192.122 0.199999H195.026C195.138 0.199999 195.226 0.223999 195.29 0.271999C195.354 0.303999 195.386 0.359999 195.386 0.439999C195.386 0.503999 195.346 0.591999 195.266 0.704L190.034 7.376C189.986 7.424 189.986 7.488 190.034 7.568L195.578 16.52C195.626 16.584 195.65 16.656 195.65 16.736C195.65 16.912 195.538 17 195.314 17H192.41C192.202 17 192.042 16.912 191.93 16.736L187.73 9.92C187.714 9.872 187.682 9.848 187.634 9.848C187.586 9.848 187.546 9.872 187.514 9.92L186.05 11.792C186.002 11.856 185.978 11.912 185.978 11.96V16.592C185.978 16.864 185.842 17 185.57 17H183.002ZM202.825 17C202.553 17 202.417 16.864 202.417 16.592V0.607999C202.417 0.335999 202.553 0.199999 202.825 0.199999H205.393C205.665 0.199999 205.801 0.335999 205.801 0.607999V13.952C205.801 14.048 205.849 14.096 205.945 14.096H213.649C213.921 14.096 214.057 14.232 214.057 14.504V16.592C214.057 16.864 213.921 17 213.649 17H202.825ZM221.384 17C221.112 17 220.976 16.864 220.976 16.592V0.607999C220.976 0.335999 221.112 0.199999 221.384 0.199999H223.952C224.16 0.199999 224.32 0.287999 224.432 0.464L227.912 6.08C227.944 6.128 227.976 6.152 228.008 6.152C228.056 6.152 228.088 6.128 228.104 6.08L231.632 0.464C231.744 0.287999 231.904 0.199999 232.112 0.199999H234.68C234.952 0.199999 235.088 0.335999 235.088 0.607999V16.592C235.088 16.864 234.952 17 234.68 17H232.112C231.84 17 231.704 16.864 231.704 16.592V6.2C231.704 6.136 231.68 6.096 231.632 6.08C231.6 6.064 231.568 6.088 231.536 6.152L229.112 10.112C229 10.288 228.84 10.376 228.632 10.376H227.408C227.2 10.376 227.04 10.288 226.928 10.112L224.528 6.152C224.496 6.088 224.456 6.064 224.408 6.08C224.376 6.096 224.36 6.136 224.36 6.2V16.592C224.36 16.864 224.224 17 223.952 17H221.384ZM243.081 17C242.809 17 242.673 16.864 242.673 16.592V0.607999C242.673 0.335999 242.809 0.199999 243.081 0.199999H245.553C245.761 0.199999 245.921 0.287999 246.033 0.464L252.033 10.448C252.065 10.512 252.097 10.536 252.129 10.52C252.177 10.504 252.201 10.464 252.201 10.4V0.607999C252.201 0.335999 252.337 0.199999 252.609 0.199999H255.129C255.401 0.199999 255.537 0.335999 255.537 0.607999V16.592C255.537 16.864 255.401 17 255.129 17H252.681C252.489 17 252.329 16.904 252.201 16.712L246.177 6.632C246.145 6.568 246.105 6.544 246.057 6.56C246.025 6.576 246.009 6.616 246.009 6.68L246.033 16.592C246.033 16.864 245.897 17 245.625 17H243.081ZM269.246 17.264C267.998 17.264 266.894 17.008 265.934 16.496C264.99 15.984 264.254 15.272 263.726 14.36C263.198 13.432 262.934 12.368 262.934 11.168V6.032C262.934 4.848 263.198 3.8 263.726 2.888C264.254 1.976 264.99 1.272 265.934 0.775999C266.894 0.263999 267.998 0.0079999 269.246 0.0079999C270.51 0.0079999 271.614 0.263999 272.558 0.775999C273.518 1.272 274.262 1.976 274.79 2.888C275.318 3.8 275.582 4.848 275.582 6.032V11.168C275.582 12.368 275.318 13.432 274.79 14.36C274.262 15.288 273.518 16.008 272.558 16.52C271.614 17.016 270.51 17.264 269.246 17.264ZM269.246 14.36C270.126 14.36 270.838 14.08 271.382 13.52C271.926 12.96 272.198 12.216 272.198 11.288V6.008C272.198 5.08 271.926 4.336 271.382 3.776C270.854 3.2 270.142 2.912 269.246 2.912C268.366 2.912 267.654 3.2 267.11 3.776C266.582 4.336 266.318 5.08 266.318 6.008V11.288C266.318 12.216 266.582 12.96 267.11 13.52C267.654 14.08 268.366 14.36 269.246 14.36ZM289.913 0.175999C290.969 0.175999 291.897 0.391999 292.697 0.823999C293.497 1.256 294.113 1.872 294.545 2.672C294.993 3.456 295.217 4.36 295.217 5.384C295.217 6.392 294.985 7.28 294.521 8.048C294.073 8.816 293.433 9.416 292.601 9.848C291.785 10.264 290.841 10.472 289.769 10.472H286.385C286.289 10.472 286.241 10.52 286.241 10.616V16.592C286.241 16.864 286.105 17 285.833 17H283.265C282.993 17 282.857 16.864 282.857 16.592V0.584C282.857 0.311999 282.993 0.175999 283.265 0.175999H289.913ZM289.409 7.76C290.145 7.76 290.737 7.552 291.185 7.136C291.633 6.704 291.857 6.144 291.857 5.456C291.857 4.752 291.633 4.184 291.185 3.752C290.737 3.32 290.145 3.104 289.409 3.104H286.385C286.289 3.104 286.241 3.152 286.241 3.248V7.616C286.241 7.712 286.289 7.76 286.385 7.76H289.409ZM307.737 0.0079999C308.953 0.0079999 310.025 0.256 310.953 0.751999C311.881 1.248 312.601 1.952 313.113 2.864C313.625 3.776 313.881 4.832 313.881 6.032V11.408C313.881 12.832 313.497 14.04 312.729 15.032C311.961 16.008 310.913 16.656 309.585 16.976C309.505 17.008 309.465 17.056 309.465 17.12V18.944C309.465 19.216 309.329 19.352 309.057 19.352H306.489C306.217 19.352 306.081 19.216 306.081 18.944V17.144C306.081 17.08 306.041 17.032 305.961 17C304.633 16.68 303.577 16.024 302.793 15.032C302.009 14.04 301.617 12.832 301.617 11.408V6.032C301.617 4.832 301.873 3.784 302.385 2.888C302.897 1.976 303.617 1.272 304.545 0.775999C305.473 0.263999 306.537 0.0079999 307.737 0.0079999ZM310.497 5.864C310.497 4.984 310.241 4.272 309.729 3.728C309.233 3.184 308.569 2.912 307.737 2.912C306.921 2.912 306.257 3.184 305.745 3.728C305.249 4.272 305.001 4.984 305.001 5.864V11.336C305.001 12.216 305.249 12.928 305.745 13.472C306.257 14.016 306.921 14.288 307.737 14.288C308.569 14.288 309.233 14.016 309.729 13.472C310.241 12.928 310.497 12.216 310.497 11.336V5.864ZM330.435 17C330.227 17 330.067 16.896 329.955 16.688L327.003 10.16C326.971 10.08 326.915 10.04 326.835 10.04H324.651C324.555 10.04 324.507 10.088 324.507 10.184V16.592C324.507 16.864 324.371 17 324.099 17H321.531C321.259 17 321.123 16.864 321.123 16.592V0.584C321.123 0.311999 321.259 0.175999 321.531 0.175999H328.275C329.299 0.175999 330.195 0.391999 330.963 0.823999C331.747 1.24 332.347 1.832 332.763 2.6C333.195 3.368 333.411 4.248 333.411 5.24C333.411 6.328 333.139 7.264 332.595 8.048C332.051 8.832 331.299 9.384 330.339 9.704C330.291 9.72 330.259 9.752 330.243 9.8C330.227 9.832 330.235 9.864 330.267 9.896L333.435 16.52C333.483 16.584 333.507 16.656 333.507 16.736C333.507 16.816 333.475 16.88 333.411 16.928C333.347 16.976 333.259 17 333.147 17H330.435ZM324.651 3.104C324.555 3.104 324.507 3.152 324.507 3.248V7.28C324.507 7.376 324.555 7.424 324.651 7.424H327.771C328.443 7.424 328.987 7.232 329.403 6.848C329.835 6.448 330.051 5.928 330.051 5.288C330.051 4.648 329.835 4.128 329.403 3.728C328.987 3.312 328.443 3.104 327.771 3.104H324.651ZM346.354 17.192C345.106 17.192 344.01 16.984 343.066 16.568C342.122 16.152 341.394 15.568 340.882 14.816C340.37 14.064 340.114 13.184 340.114 12.176V11.768C340.114 11.496 340.25 11.36 340.522 11.36H343.042C343.314 11.36 343.45 11.464 343.45 11.672V12.008C343.45 12.648 343.738 13.192 344.314 13.64C344.906 14.072 345.674 14.288 346.618 14.288C347.466 14.288 348.09 14.112 348.49 13.76C348.906 13.392 349.114 12.944 349.114 12.416C349.114 12.032 348.986 11.712 348.73 11.456C348.474 11.184 348.13 10.952 347.698 10.76C347.266 10.552 346.57 10.272 345.61 9.92C344.522 9.552 343.61 9.176 342.874 8.792C342.138 8.408 341.514 7.888 341.002 7.232C340.49 6.56 340.234 5.736 340.234 4.76C340.234 3.8 340.482 2.96 340.978 2.24C341.474 1.52 342.162 0.967999 343.042 0.584C343.938 0.2 344.954 0.0079999 346.09 0.0079999C347.306 0.0079999 348.394 0.224 349.354 0.655999C350.314 1.088 351.058 1.696 351.586 2.48C352.13 3.248 352.402 4.144 352.402 5.168V5.408C352.402 5.68 352.266 5.816 351.994 5.816H349.474C349.202 5.816 349.066 5.736 349.066 5.576V5.336C349.066 4.664 348.786 4.096 348.226 3.632C347.682 3.152 346.93 2.912 345.97 2.912C345.202 2.912 344.61 3.072 344.194 3.392C343.778 3.712 343.57 4.152 343.57 4.712C343.57 5.112 343.69 5.448 343.93 5.72C344.17 5.992 344.53 6.24 345.01 6.464C345.506 6.688 346.266 6.976 347.29 7.328C348.41 7.744 349.298 8.112 349.954 8.432C350.61 8.736 351.194 9.208 351.706 9.848C352.234 10.488 352.498 11.312 352.498 12.32C352.498 13.296 352.242 14.152 351.73 14.888C351.234 15.624 350.522 16.192 349.594 16.592C348.682 16.992 347.602 17.192 346.354 17.192ZM370.953 0.199999C371.225 0.199999 371.361 0.335999 371.361 0.607999V2.72C371.361 2.992 371.225 3.128 370.953 3.128H366.801C366.705 3.128 366.657 3.176 366.657 3.272V16.592C366.657 16.864 366.521 17 366.249 17H363.681C363.409 17 363.273 16.864 363.273 16.592V3.272C363.273 3.176 363.225 3.128 363.129 3.128H359.097C358.825 3.128 358.689 2.992 358.689 2.72V0.607999C358.689 0.335999 358.825 0.199999 359.097 0.199999H370.953ZM384.416 17.192C383.184 17.192 382.096 16.952 381.152 16.472C380.224 15.992 379.496 15.32 378.968 14.456C378.456 13.576 378.2 12.568 378.2 11.432V0.607999C378.2 0.335999 378.336 0.199999 378.608 0.199999H381.176C381.448 0.199999 381.584 0.335999 381.584 0.607999V11.456C381.584 12.304 381.84 12.992 382.352 13.52C382.88 14.032 383.568 14.288 384.416 14.288C385.264 14.288 385.944 14.032 386.456 13.52C386.984 12.992 387.248 12.304 387.248 11.456V0.607999C387.248 0.335999 387.384 0.199999 387.656 0.199999H390.224C390.496 0.199999 390.632 0.335999 390.632 0.607999V11.432C390.632 12.568 390.368 13.576 389.84 14.456C389.328 15.32 388.6 15.992 387.656 16.472C386.728 16.952 385.648 17.192 384.416 17.192ZM402.798 17C402.574 17 402.422 16.888 402.342 16.664L397.47 0.655999C397.454 0.623999 397.446 0.575999 397.446 0.511999C397.446 0.303999 397.566 0.199999 397.806 0.199999H400.59C400.814 0.199999 400.966 0.311999 401.046 0.535999L404.19 12.104C404.206 12.168 404.238 12.2 404.286 12.2C404.334 12.2 404.366 12.168 404.382 12.104L407.478 0.559999C407.558 0.319999 407.71 0.199999 407.934 0.199999H410.646C410.79 0.199999 410.894 0.247999 410.958 0.344C411.022 0.424 411.03 0.527999 410.982 0.655999L406.038 16.664C405.958 16.888 405.806 17 405.582 17H402.798ZM5.136 53C4.88 53 4.728 52.88 4.68 52.64L0.456 36.656C0.44 36.624 0.432 36.584 0.432 36.536C0.432 36.312 0.56 36.2 0.816 36.2H3.552C3.792 36.2 3.936 36.32 3.984 36.56L6.24 46.136C6.256 46.2 6.288 46.232 6.336 46.232C6.384 46.232 6.416 46.2 6.432 46.136L8.592 36.56C8.64 36.32 8.784 36.2 9.024 36.2H11.736C11.992 36.2 12.144 36.32 12.192 36.56L14.544 46.136C14.56 46.2 14.584 46.232 14.616 46.232C14.664 46.232 14.696 46.2 14.712 46.136L16.872 36.56C16.92 36.32 17.064 36.2 17.304 36.2H19.92C20.064 36.2 20.16 36.248 20.208 36.344C20.272 36.424 20.288 36.528 20.256 36.656L16.392 52.64C16.344 52.88 16.192 53 15.936 53H13.296C13.04 53 12.888 52.88 12.84 52.64L10.44 42.44C10.424 42.376 10.392 42.344 10.344 42.344C10.296 42.344 10.264 42.376 10.248 42.44L8.016 52.64C7.968 52.88 7.824 53 7.584 53H5.136ZM26.6707 53C26.5587 53 26.4707 52.976 26.4067 52.928C26.3427 52.88 26.3107 52.816 26.3107 52.736C26.3107 52.656 26.3347 52.584 26.3827 52.52L30.9427 44.696C30.9587 44.632 30.9587 44.568 30.9427 44.504L26.3827 36.68C26.3347 36.6 26.3107 36.528 26.3107 36.464C26.3107 36.384 26.3427 36.32 26.4067 36.272C26.4707 36.224 26.5587 36.2 26.6707 36.2H29.4547C29.6947 36.2 29.8627 36.296 29.9587 36.488L33.0067 41.864C33.0387 41.912 33.0707 41.936 33.1027 41.936C33.1507 41.936 33.1827 41.912 33.1987 41.864L36.2467 36.488C36.3427 36.296 36.5107 36.2 36.7507 36.2H39.5107C39.6227 36.2 39.7108 36.224 39.7748 36.272C39.8388 36.32 39.8708 36.384 39.8708 36.464C39.8708 36.528 39.8468 36.6 39.7987 36.68L35.2387 44.504C35.2227 44.568 35.2227 44.632 35.2387 44.696L39.7987 52.52C39.8468 52.584 39.8708 52.656 39.8708 52.736C39.8708 52.816 39.8388 52.88 39.7748 52.928C39.7108 52.976 39.6227 53 39.5107 53H36.7507C36.5107 53 36.3427 52.904 36.2467 52.712L33.1987 47.36C33.1827 47.312 33.1507 47.288 33.1027 47.288C33.0707 47.288 33.0387 47.312 33.0067 47.36L29.9347 52.712C29.8387 52.904 29.6707 53 29.4307 53H26.6707ZM51.5794 52.976C51.3074 52.976 51.1714 52.84 51.1714 52.568V46.64L51.1234 46.448L46.2754 36.68C46.2274 36.6 46.2034 36.528 46.2034 36.464C46.2034 36.384 46.2354 36.32 46.2994 36.272C46.3634 36.224 46.4514 36.2 46.5634 36.2H49.3474C49.5714 36.2 49.7314 36.304 49.8274 36.512L52.7554 42.752C52.7874 42.8 52.8194 42.824 52.8514 42.824C52.8994 42.824 52.9314 42.8 52.9474 42.752L55.8754 36.512C55.9874 36.304 56.1474 36.2 56.3554 36.2H59.1634C59.4034 36.2 59.5234 36.296 59.5234 36.488C59.5234 36.568 59.5074 36.632 59.4754 36.68L54.5794 46.448L54.5314 46.64V52.568C54.5314 52.84 54.3954 52.976 54.1234 52.976H51.5794ZM66.2479 53C65.9759 53 65.8399 52.864 65.8399 52.592V50.216C65.8399 50.008 65.8959 49.84 66.0079 49.712L73.6879 39.272C73.7199 39.224 73.7279 39.184 73.7119 39.152C73.6959 39.12 73.6559 39.104 73.5919 39.104H66.2479C65.9759 39.104 65.8399 38.968 65.8399 38.696V36.608C65.8399 36.336 65.9759 36.2 66.2479 36.2H77.1199C77.3919 36.2 77.5279 36.336 77.5279 36.608V38.984C77.5279 39.192 77.4719 39.36 77.3599 39.488L69.6799 49.928C69.6479 49.976 69.6399 50.016 69.6559 50.048C69.6719 50.08 69.7119 50.096 69.7759 50.096H77.1199C77.3919 50.096 77.5279 50.232 77.5279 50.504V52.592C77.5279 52.864 77.3919 53 77.1199 53H66.2479ZM95.4952 53C95.3192 53 95.2072 52.912 95.1592 52.736L94.1992 49.808C94.1672 49.744 94.1272 49.712 94.0792 49.712H86.9272C86.8792 49.712 86.8392 49.744 86.8072 49.808L85.8712 52.736C85.8232 52.912 85.7112 53 85.5352 53H84.3832C84.2712 53 84.1912 52.968 84.1432 52.904C84.0952 52.84 84.0872 52.752 84.1192 52.64L89.3992 36.464C89.4472 36.288 89.5592 36.2 89.7352 36.2H91.2712C91.4472 36.2 91.5592 36.288 91.6072 36.464L96.9112 52.64C96.9272 52.672 96.9352 52.712 96.9352 52.76C96.9352 52.824 96.9032 52.88 96.8392 52.928C96.7912 52.976 96.7272 53 96.6472 53H95.4952ZM87.3352 48.176C87.3192 48.272 87.3512 48.32 87.4312 48.32H93.5992C93.6952 48.32 93.7272 48.272 93.6952 48.176L90.5752 38.36C90.5592 38.296 90.5352 38.264 90.5032 38.264C90.4712 38.264 90.4472 38.296 90.4312 38.36L87.3352 48.176ZM113.337 44.24C113.241 44.288 113.241 44.336 113.337 44.384C114.185 44.736 114.825 45.256 115.257 45.944C115.705 46.632 115.929 47.464 115.929 48.44C115.929 49.88 115.465 51 114.537 51.8C113.625 52.6 112.417 53 110.913 53H105.177C104.969 53 104.865 52.896 104.865 52.688V36.512C104.865 36.304 104.969 36.2 105.177 36.2H110.745C112.297 36.2 113.513 36.584 114.393 37.352C115.289 38.12 115.737 39.2 115.737 40.592C115.737 41.472 115.529 42.216 115.113 42.824C114.713 43.432 114.121 43.904 113.337 44.24ZM106.689 37.688C106.609 37.688 106.569 37.728 106.569 37.808V43.52C106.569 43.6 106.609 43.64 106.689 43.64H110.745C111.753 43.64 112.553 43.376 113.145 42.848C113.753 42.32 114.057 41.616 114.057 40.736C114.057 39.808 113.753 39.072 113.145 38.528C112.553 37.968 111.753 37.688 110.745 37.688H106.689ZM110.913 51.488C111.921 51.488 112.721 51.2 113.313 50.624C113.921 50.048 114.225 49.272 114.225 48.296C114.225 47.32 113.913 46.544 113.289 45.968C112.681 45.376 111.857 45.08 110.817 45.08H106.689C106.609 45.08 106.569 45.12 106.569 45.2V51.368C106.569 51.448 106.609 51.488 106.689 51.488H110.913ZM129.777 53.216C128.657 53.216 127.673 53 126.825 52.568C125.977 52.12 125.313 51.496 124.833 50.696C124.369 49.88 124.137 48.944 124.137 47.888V41.288C124.137 40.248 124.369 39.328 124.833 38.528C125.313 37.728 125.977 37.112 126.825 36.68C127.673 36.232 128.657 36.008 129.777 36.008C130.897 36.008 131.881 36.224 132.729 36.656C133.577 37.088 134.233 37.696 134.697 38.48C135.177 39.264 135.417 40.168 135.417 41.192C135.417 41.336 135.313 41.424 135.105 41.456L134.025 41.528H133.953C133.889 41.528 133.833 41.512 133.785 41.48C133.737 41.448 133.713 41.416 133.713 41.384V41.24C133.713 40.104 133.353 39.2 132.633 38.528C131.913 37.84 130.961 37.496 129.777 37.496C128.593 37.496 127.641 37.84 126.921 38.528C126.201 39.216 125.841 40.12 125.841 41.24V47.96C125.841 49.08 126.201 49.984 126.921 50.672C127.641 51.36 128.593 51.704 129.777 51.704C130.961 51.704 131.913 51.368 132.633 50.696C133.353 50.008 133.713 49.096 133.713 47.96C133.713 47.768 133.817 47.68 134.025 47.696L135.105 47.744C135.313 47.744 135.417 47.784 135.417 47.864V47.984C135.417 49.024 135.177 49.944 134.697 50.744C134.233 51.528 133.577 52.136 132.729 52.568C131.881 53 130.897 53.216 129.777 53.216ZM144.356 53C144.148 53 144.044 52.896 144.044 52.688V36.512C144.044 36.304 144.148 36.2 144.356 36.2H149.948C151.532 36.2 152.788 36.616 153.716 37.448C154.66 38.28 155.132 39.408 155.132 40.832V48.368C155.132 49.792 154.66 50.92 153.716 51.752C152.788 52.584 151.532 53 149.948 53H144.356ZM145.748 51.392C145.748 51.472 145.788 51.512 145.868 51.512H150.02C151.06 51.512 151.884 51.208 152.492 50.6C153.116 49.992 153.428 49.176 153.428 48.152V41.072C153.428 40.032 153.124 39.208 152.516 38.6C151.908 37.992 151.076 37.688 150.02 37.688H145.868C145.788 37.688 145.748 37.728 145.748 37.808V51.392ZM174.551 37.376C174.551 37.584 174.447 37.688 174.239 37.688H165.503C165.423 37.688 165.383 37.728 165.383 37.808V43.688C165.383 43.768 165.423 43.808 165.503 43.808H171.599C171.807 43.808 171.911 43.912 171.911 44.12V44.984C171.911 45.192 171.807 45.296 171.599 45.296H165.503C165.423 45.296 165.383 45.336 165.383 45.416V51.392C165.383 51.472 165.423 51.512 165.503 51.512H174.239C174.447 51.512 174.551 51.616 174.551 51.824V52.688C174.551 52.896 174.447 53 174.239 53H163.991C163.783 53 163.679 52.896 163.679 52.688V36.512C163.679 36.304 163.783 36.2 163.991 36.2H174.239C174.447 36.2 174.551 36.304 174.551 36.512V37.376ZM193.859 37.376C193.859 37.584 193.755 37.688 193.547 37.688H184.835C184.755 37.688 184.715 37.728 184.715 37.808V43.688C184.715 43.768 184.755 43.808 184.835 43.808H190.907C191.115 43.808 191.219 43.912 191.219 44.12V44.984C191.219 45.192 191.115 45.296 190.907 45.296H184.835C184.755 45.296 184.715 45.336 184.715 45.416V52.688C184.715 52.896 184.611 53 184.403 53H183.323C183.115 53 183.011 52.896 183.011 52.688V36.512C183.011 36.304 183.115 36.2 183.323 36.2H193.547C193.755 36.2 193.859 36.304 193.859 36.512V37.376ZM206.47 53.192C205.35 53.192 204.366 52.976 203.518 52.544C202.67 52.096 202.006 51.472 201.526 50.672C201.062 49.872 200.83 48.952 200.83 47.912V41.288C200.83 40.248 201.062 39.328 201.526 38.528C202.006 37.728 202.67 37.112 203.518 36.68C204.366 36.232 205.35 36.008 206.47 36.008C207.574 36.008 208.55 36.224 209.398 36.656C210.262 37.088 210.926 37.696 211.39 38.48C211.854 39.248 212.086 40.12 212.086 41.096V41.336C212.086 41.544 211.982 41.648 211.774 41.648H210.694C210.486 41.648 210.382 41.56 210.382 41.384V41.12C210.382 40.048 210.022 39.176 209.302 38.504C208.598 37.832 207.654 37.496 206.47 37.496C205.286 37.496 204.334 37.84 203.614 38.528C202.894 39.216 202.534 40.12 202.534 41.24V47.96C202.534 49.08 202.902 49.984 203.638 50.672C204.374 51.36 205.342 51.704 206.542 51.704C207.71 51.704 208.638 51.384 209.326 50.744C210.03 50.104 210.382 49.248 210.382 48.176V46.016C210.382 45.936 210.342 45.896 210.262 45.896H206.83C206.622 45.896 206.518 45.792 206.518 45.584V44.72C206.518 44.512 206.622 44.408 206.83 44.408H211.774C211.982 44.408 212.086 44.512 212.086 44.72V47.744C212.086 49.456 211.574 50.792 210.55 51.752C209.542 52.712 208.182 53.192 206.47 53.192ZM230.264 36.512C230.264 36.304 230.368 36.2 230.576 36.2H231.656C231.864 36.2 231.968 36.304 231.968 36.512V52.688C231.968 52.896 231.864 53 231.656 53H230.576C230.368 53 230.264 52.896 230.264 52.688V45.416C230.264 45.336 230.224 45.296 230.144 45.296H222.536C222.456 45.296 222.416 45.336 222.416 45.416V52.688C222.416 52.896 222.312 53 222.104 53H221.024C220.816 53 220.712 52.896 220.712 52.688V36.512C220.712 36.304 220.816 36.2 221.024 36.2H222.104C222.312 36.2 222.416 36.304 222.416 36.512V43.688C222.416 43.768 222.456 43.808 222.536 43.808H230.144C230.224 43.808 230.264 43.768 230.264 43.688V36.512ZM241.527 53C241.319 53 241.215 52.896 241.215 52.688V36.512C241.215 36.304 241.319 36.2 241.527 36.2H242.607C242.815 36.2 242.919 36.304 242.919 36.512V52.688C242.919 52.896 242.815 53 242.607 53H241.527ZM251.343 53.192C250.255 53.192 249.295 52.984 248.463 52.568C247.647 52.152 247.007 51.568 246.543 50.816C246.095 50.048 245.871 49.168 245.871 48.176V47.072C245.871 46.864 245.975 46.76 246.183 46.76H247.263C247.471 46.76 247.575 46.864 247.575 47.072V48.176C247.575 49.232 247.919 50.088 248.607 50.744C249.311 51.384 250.223 51.704 251.343 51.704C252.479 51.704 253.391 51.384 254.079 50.744C254.783 50.088 255.135 49.232 255.135 48.176V36.512C255.135 36.304 255.239 36.2 255.447 36.2H256.527C256.735 36.2 256.839 36.304 256.839 36.512V48.176C256.839 49.168 256.607 50.048 256.143 50.816C255.695 51.568 255.055 52.152 254.223 52.568C253.391 52.984 252.431 53.192 251.343 53.192ZM266.46 53C266.252 53 266.148 52.896 266.148 52.688V36.512C266.148 36.304 266.252 36.2 266.46 36.2H267.54C267.748 36.2 267.852 36.304 267.852 36.512V44.528C267.852 44.576 267.868 44.608 267.9 44.624C267.932 44.64 267.964 44.624 267.996 44.576L275.532 36.368C275.628 36.256 275.756 36.2 275.916 36.2H277.116C277.292 36.2 277.38 36.264 277.38 36.392C277.38 36.456 277.348 36.52 277.284 36.584L271.5 43.136C271.452 43.2 271.444 43.256 271.476 43.304L277.788 52.616C277.836 52.68 277.86 52.744 277.86 52.808C277.86 52.936 277.772 53 277.596 53H276.348C276.188 53 276.06 52.936 275.964 52.808L270.324 44.528C270.26 44.432 270.204 44.424 270.156 44.504L267.9 46.88C267.868 46.944 267.852 47 267.852 47.048V52.688C267.852 52.896 267.748 53 267.54 53H266.46ZM285.932 53C285.724 53 285.62 52.896 285.62 52.688V36.512C285.62 36.304 285.724 36.2 285.932 36.2H287.012C287.22 36.2 287.324 36.304 287.324 36.512V51.392C287.324 51.472 287.364 51.512 287.444 51.512H295.82C296.028 51.512 296.132 51.616 296.132 51.824V52.688C296.132 52.896 296.028 53 295.82 53H285.932ZM304.373 53C304.165 53 304.061 52.896 304.061 52.688V36.512C304.061 36.304 304.165 36.2 304.373 36.2H305.501C305.645 36.2 305.765 36.272 305.861 36.416L310.253 43.352C310.301 43.448 310.349 43.448 310.397 43.352L314.813 36.416C314.909 36.272 315.029 36.2 315.173 36.2H316.301C316.509 36.2 316.613 36.304 316.613 36.512V52.688C316.613 52.896 316.509 53 316.301 53H315.221C315.013 53 314.909 52.896 314.909 52.688V39.44C314.909 39.376 314.893 39.344 314.861 39.344C314.829 39.344 314.797 39.368 314.765 39.416L310.973 45.416C310.877 45.56 310.757 45.632 310.613 45.632H310.061C309.917 45.632 309.797 45.56 309.701 45.416L305.909 39.416C305.877 39.368 305.845 39.344 305.813 39.344C305.781 39.344 305.765 39.376 305.765 39.44V52.688C305.765 52.896 305.661 53 305.453 53H304.373ZM325.907 53C325.699 53 325.595 52.896 325.595 52.688V36.512C325.595 36.304 325.699 36.2 325.907 36.2H326.987C327.131 36.2 327.251 36.272 327.347 36.416L335.411 49.472C335.443 49.52 335.475 49.544 335.507 49.544C335.539 49.528 335.555 49.488 335.555 49.424V36.512C335.555 36.304 335.659 36.2 335.867 36.2H336.947C337.155 36.2 337.259 36.304 337.259 36.512V52.688C337.259 52.896 337.155 53 336.947 53H335.867C335.723 53 335.603 52.928 335.507 52.784L327.419 39.68C327.387 39.632 327.355 39.616 327.323 39.632C327.291 39.632 327.275 39.664 327.275 39.728L327.299 52.688C327.299 52.896 327.195 53 326.987 53H325.907ZM351.728 53.192C350.592 53.192 349.592 52.96 348.728 52.496C347.864 52.032 347.192 51.384 346.712 50.552C346.248 49.704 346.016 48.728 346.016 47.624V41.576C346.016 40.472 346.248 39.504 346.712 38.672C347.192 37.824 347.864 37.168 348.728 36.704C349.592 36.24 350.592 36.008 351.728 36.008C352.864 36.008 353.864 36.24 354.728 36.704C355.608 37.168 356.28 37.824 356.744 38.672C357.224 39.504 357.464 40.472 357.464 41.576V47.624C357.464 48.728 357.224 49.704 356.744 50.552C356.28 51.384 355.608 52.032 354.728 52.496C353.864 52.96 352.864 53.192 351.728 53.192ZM351.728 51.728C352.944 51.728 353.92 51.36 354.656 50.624C355.392 49.888 355.76 48.912 355.76 47.696V41.552C355.76 40.336 355.392 39.36 354.656 38.624C353.92 37.872 352.944 37.496 351.728 37.496C350.528 37.496 349.56 37.872 348.824 38.624C348.088 39.36 347.72 40.336 347.72 41.552V47.696C347.72 48.912 348.088 49.888 348.824 50.624C349.56 51.36 350.528 51.728 351.728 51.728ZM372.657 36.176C374.065 36.176 375.193 36.608 376.041 37.472C376.905 38.336 377.337 39.472 377.337 40.88C377.337 42.272 376.897 43.392 376.017 44.24C375.153 45.088 374.009 45.512 372.585 45.512H367.929C367.849 45.512 367.809 45.552 367.809 45.632V52.688C367.809 52.896 367.705 53 367.497 53H366.417C366.209 53 366.105 52.896 366.105 52.688V36.488C366.105 36.28 366.209 36.176 366.417 36.176H372.657ZM372.465 44.096C373.409 44.096 374.177 43.808 374.769 43.232C375.361 42.64 375.657 41.864 375.657 40.904C375.657 39.928 375.361 39.144 374.769 38.552C374.177 37.96 373.409 37.664 372.465 37.664H367.929C367.849 37.664 367.809 37.704 367.809 37.784V43.976C367.809 44.056 367.849 44.096 367.929 44.096H372.465ZM389.932 36.008C391.02 36.008 391.98 36.24 392.812 36.704C393.66 37.152 394.308 37.784 394.756 38.6C395.22 39.416 395.452 40.36 395.452 41.432V47.864C395.452 49.288 395.036 50.48 394.204 51.44C393.388 52.384 392.292 52.944 390.916 53.12C390.836 53.152 390.796 53.2 390.796 53.264V55.448C390.796 55.656 390.692 55.76 390.484 55.76H389.404C389.196 55.76 389.092 55.656 389.092 55.448V53.264C389.092 53.2 389.052 53.152 388.972 53.12C387.58 52.944 386.468 52.384 385.636 51.44C384.82 50.48 384.412 49.288 384.412 47.864V41.432C384.412 40.36 384.636 39.416 385.084 38.6C385.548 37.784 386.196 37.152 387.028 36.704C387.876 36.24 388.844 36.008 389.932 36.008ZM393.748 41.36C393.748 40.208 393.396 39.28 392.692 38.576C391.988 37.856 391.068 37.496 389.932 37.496C388.796 37.496 387.876 37.856 387.172 38.576C386.468 39.28 386.116 40.208 386.116 41.36V47.84C386.116 48.992 386.468 49.928 387.172 50.648C387.876 51.352 388.796 51.704 389.932 51.704C391.068 51.704 391.988 51.352 392.692 50.648C393.396 49.928 393.748 48.992 393.748 47.84V41.36ZM413.768 53C413.592 53 413.464 52.92 413.384 52.76L409.88 45.368C409.848 45.304 409.8 45.272 409.736 45.272H405.728C405.648 45.272 405.608 45.312 405.608 45.392V52.688C405.608 52.896 405.504 53 405.296 53H404.216C404.008 53 403.904 52.896 403.904 52.688V36.488C403.904 36.28 404.008 36.176 404.216 36.176H410.36C411.736 36.176 412.848 36.6 413.696 37.448C414.544 38.296 414.968 39.408 414.968 40.784C414.968 41.904 414.664 42.856 414.056 43.64C413.464 44.408 412.648 44.912 411.608 45.152C411.528 45.168 411.504 45.216 411.536 45.296L415.112 52.64C415.144 52.704 415.16 52.752 415.16 52.784C415.16 52.928 415.064 53 414.872 53H413.768ZM405.728 37.664C405.648 37.664 405.608 37.704 405.608 37.784V43.784C405.608 43.864 405.648 43.904 405.728 43.904H410.168C411.096 43.904 411.848 43.624 412.424 43.064C413 42.488 413.288 41.736 413.288 40.808C413.288 39.88 413 39.128 412.424 38.552C411.848 37.96 411.096 37.664 410.168 37.664H405.728ZM7.152 89.192C5.984 89.192 4.96 89.008 4.08 88.64C3.216 88.272 2.544 87.752 2.064 87.08C1.6 86.392 1.368 85.6 1.368 84.704V84.032C1.368 83.824 1.472 83.72 1.68 83.72H2.712C2.92 83.72 3.024 83.824 3.024 84.032V84.608C3.024 85.52 3.408 86.264 4.176 86.84C4.944 87.416 5.976 87.704 7.272 87.704C8.504 87.704 9.44 87.448 10.08 86.936C10.72 86.408 11.04 85.712 11.04 84.848C11.04 84.288 10.888 83.808 10.584 83.408C10.296 83.008 9.848 82.632 9.24 82.28C8.632 81.928 7.76 81.52 6.624 81.056C5.424 80.576 4.488 80.16 3.816 79.808C3.16 79.44 2.624 78.976 2.208 78.416C1.808 77.84 1.608 77.12 1.608 76.256C1.608 74.912 2.072 73.872 3 73.136C3.944 72.384 5.24 72.008 6.888 72.008C8.648 72.008 10.04 72.424 11.064 73.256C12.088 74.088 12.6 75.192 12.6 76.568V77.024C12.6 77.232 12.496 77.336 12.288 77.336H11.232C11.024 77.336 10.92 77.232 10.92 77.024V76.664C10.92 75.736 10.56 74.976 9.84 74.384C9.12 73.792 8.104 73.496 6.792 73.496C5.656 73.496 4.784 73.728 4.176 74.192C3.584 74.656 3.288 75.328 3.288 76.208C3.288 76.784 3.432 77.264 3.72 77.648C4.024 78.016 4.448 78.344 4.992 78.632C5.552 78.904 6.4 79.264 7.536 79.712C8.704 80.192 9.648 80.64 10.368 81.056C11.088 81.472 11.664 81.984 12.096 82.592C12.528 83.184 12.744 83.912 12.744 84.776C12.744 86.104 12.248 87.176 11.256 87.992C10.28 88.792 8.912 89.192 7.152 89.192ZM30.6589 72.2C30.8669 72.2 30.9709 72.304 30.9709 72.512V73.4C30.9709 73.608 30.8669 73.712 30.6589 73.712H26.0509C25.9709 73.712 25.9309 73.752 25.9309 73.832V88.688C25.9309 88.896 25.8269 89 25.6189 89H24.5389C24.3309 89 24.2269 88.896 24.2269 88.688V73.832C24.2269 73.752 24.1869 73.712 24.1069 73.712H19.6909C19.4829 73.712 19.3789 73.608 19.3789 73.4V72.512C19.3789 72.304 19.4829 72.2 19.6909 72.2H30.6589ZM44.5869 89.192C43.4669 89.192 42.4749 88.968 41.6109 88.52C40.7469 88.072 40.0749 87.448 39.5949 86.648C39.1149 85.832 38.8749 84.888 38.8749 83.816V72.512C38.8749 72.304 38.9789 72.2 39.1869 72.2H40.2669C40.4749 72.2 40.5789 72.304 40.5789 72.512V83.864C40.5789 85 40.9469 85.928 41.6829 86.648C42.4189 87.352 43.3869 87.704 44.5869 87.704C45.7869 87.704 46.7549 87.352 47.4909 86.648C48.2269 85.928 48.5949 85 48.5949 83.864V72.512C48.5949 72.304 48.6989 72.2 48.9069 72.2H49.9869C50.1949 72.2 50.2989 72.304 50.2989 72.512V83.816C50.2989 84.888 50.0589 85.832 49.5789 86.648C49.1149 87.448 48.4509 88.072 47.5869 88.52C46.7229 88.968 45.7229 89.192 44.5869 89.192ZM63.6054 89C63.4294 89 63.3174 88.912 63.2694 88.736L58.0614 72.56C58.0454 72.528 58.0374 72.488 58.0374 72.44C58.0374 72.376 58.0614 72.32 58.1094 72.272C58.1734 72.224 58.2454 72.2 58.3254 72.2H59.4774C59.6534 72.2 59.7654 72.288 59.8134 72.464L64.1814 86.408C64.1974 86.472 64.2214 86.504 64.2534 86.504C64.2854 86.504 64.3094 86.472 64.3254 86.408L68.6934 72.464C68.7414 72.288 68.8534 72.2 69.0294 72.2H70.1574C70.2694 72.2 70.3494 72.232 70.3974 72.296C70.4454 72.36 70.4534 72.448 70.4214 72.56L65.1654 88.736C65.1174 88.912 65.0054 89 64.8294 89H63.6054ZM81.6262 89C81.4502 89 81.3382 88.912 81.2902 88.736L76.7302 72.56L76.7062 72.464C76.7062 72.288 76.8022 72.2 76.9942 72.2H78.1702C78.3462 72.2 78.4582 72.288 78.5062 72.464L82.1062 85.472C82.1222 85.52 82.1462 85.544 82.1782 85.544C82.2102 85.544 82.2342 85.52 82.2502 85.472L85.6102 72.464C85.6582 72.288 85.7782 72.2 85.9702 72.2H87.1222C87.2982 72.2 87.4102 72.288 87.4582 72.464L90.9622 85.496C90.9782 85.544 91.0022 85.568 91.0342 85.568C91.0662 85.568 91.0902 85.544 91.1062 85.496L94.7062 72.464C94.7542 72.288 94.8662 72.2 95.0422 72.2H96.1462C96.2582 72.2 96.3382 72.232 96.3862 72.296C96.4342 72.36 96.4422 72.448 96.4102 72.56L91.9222 88.736C91.8742 88.912 91.7622 89 91.5862 89H90.4342C90.2422 89 90.1222 88.912 90.0742 88.736L86.6182 75.392C86.6022 75.344 86.5782 75.32 86.5462 75.32C86.5142 75.32 86.4902 75.344 86.4742 75.392L83.0662 88.736C83.0182 88.912 82.8982 89 82.7062 89H81.6262ZM103.06 89C102.932 89 102.844 88.968 102.796 88.904C102.764 88.824 102.78 88.728 102.844 88.616L107.836 80.672C107.868 80.624 107.868 80.576 107.836 80.528L102.844 72.584C102.812 72.488 102.796 72.432 102.796 72.416C102.796 72.352 102.82 72.304 102.868 72.272C102.916 72.224 102.98 72.2 103.06 72.2H104.236C104.38 72.2 104.5 72.272 104.596 72.416L108.844 79.16C108.892 79.256 108.94 79.256 108.988 79.16L113.212 72.416C113.308 72.272 113.428 72.2 113.572 72.2H114.748C114.908 72.2 114.988 72.264 114.988 72.392C114.988 72.472 114.972 72.536 114.94 72.584L109.972 80.552C109.956 80.6 109.956 80.648 109.972 80.696L114.94 88.616C114.972 88.712 114.988 88.768 114.988 88.784C114.988 88.848 114.964 88.904 114.916 88.952C114.868 88.984 114.804 89 114.724 89H113.572C113.428 89 113.308 88.928 113.212 88.784L108.988 82.064C108.94 81.968 108.892 81.968 108.844 82.064L104.596 88.784C104.5 88.928 104.38 89 104.236 89H103.06ZM127.033 88.976C126.825 88.976 126.721 88.872 126.721 88.664V81.632C126.721 81.6 126.705 81.552 126.673 81.488L121.753 72.584C121.721 72.488 121.705 72.432 121.705 72.416C121.705 72.352 121.729 72.304 121.777 72.272C121.825 72.224 121.889 72.2 121.969 72.2H123.121C123.297 72.2 123.417 72.272 123.481 72.416L127.489 79.664C127.537 79.728 127.585 79.728 127.633 79.664L131.665 72.416C131.745 72.272 131.865 72.2 132.025 72.2H133.177C133.305 72.2 133.385 72.24 133.417 72.32C133.465 72.384 133.457 72.472 133.393 72.584L128.473 81.488C128.441 81.552 128.425 81.6 128.425 81.632V88.664C128.425 88.872 128.321 88.976 128.113 88.976H127.033ZM140.578 89C140.37 89 140.266 88.896 140.266 88.688V87.656C140.266 87.528 140.306 87.4 140.386 87.272L149.122 73.832C149.17 73.736 149.146 73.688 149.05 73.688H140.578C140.37 73.688 140.266 73.584 140.266 73.376V72.512C140.266 72.304 140.37 72.2 140.578 72.2H150.778C150.986 72.2 151.09 72.304 151.09 72.512V73.544C151.09 73.672 151.05 73.8 150.97 73.928L142.258 87.368C142.21 87.464 142.234 87.512 142.33 87.512H150.778C150.986 87.512 151.09 87.616 151.09 87.824V88.688C151.09 88.896 150.986 89 150.778 89H140.578ZM161.286 72.296C161.398 72.232 161.534 72.2 161.694 72.2H162.87C163.078 72.2 163.182 72.304 163.182 72.512V88.688C163.182 88.896 163.078 89 162.87 89H161.79C161.582 89 161.478 88.896 161.478 88.688V74.072C161.478 74.024 161.462 73.992 161.43 73.976C161.414 73.96 161.382 73.96 161.334 73.976L158.814 75.032C158.782 75.048 158.734 75.056 158.67 75.056C158.526 75.056 158.454 74.968 158.454 74.792V74.048C158.454 73.888 158.526 73.768 158.67 73.688L161.286 72.296ZM171.936 89C171.728 89 171.624 88.896 171.624 88.688V87.8C171.624 87.656 171.672 87.528 171.768 87.416C172.968 85.992 174.776 83.768 177.192 80.744C178.696 78.84 179.448 77.36 179.448 76.304C179.448 75.456 179.16 74.776 178.584 74.264C178.008 73.752 177.256 73.496 176.328 73.496C175.416 73.496 174.68 73.76 174.12 74.288C173.56 74.8 173.288 75.48 173.304 76.328V77C173.304 77.208 173.2 77.312 172.992 77.312H171.888C171.68 77.312 171.576 77.208 171.576 77V76.112C171.608 74.88 172.064 73.888 172.944 73.136C173.84 72.384 174.968 72.008 176.328 72.008C177.288 72.008 178.136 72.192 178.872 72.56C179.608 72.928 180.176 73.44 180.576 74.096C180.976 74.736 181.176 75.464 181.176 76.28C181.176 77.64 180.424 79.28 178.92 81.2C178.2 82.144 176.872 83.8 174.936 86.168L173.952 87.368C173.92 87.4 173.912 87.432 173.928 87.464C173.944 87.496 173.976 87.512 174.024 87.512H181.368C181.576 87.512 181.68 87.616 181.68 87.824V88.688C181.68 88.896 181.576 89 181.368 89H171.936ZM198.054 81.056C198.374 81.84 198.534 82.776 198.534 83.864C198.534 84.68 198.414 85.448 198.174 86.168C197.854 87.144 197.31 87.896 196.542 88.424C195.79 88.936 194.854 89.192 193.734 89.192C192.598 89.192 191.63 88.896 190.83 88.304C190.03 87.712 189.486 86.928 189.198 85.952C189.054 85.456 188.966 84.872 188.934 84.2C188.934 83.992 189.038 83.888 189.246 83.888H190.35C190.558 83.888 190.662 83.992 190.662 84.2C190.694 84.744 190.742 85.152 190.806 85.424C190.982 86.112 191.326 86.664 191.838 87.08C192.35 87.496 192.982 87.704 193.734 87.704C194.422 87.704 194.998 87.544 195.462 87.224C195.942 86.888 196.286 86.416 196.494 85.808C196.718 85.216 196.83 84.552 196.83 83.816C196.83 82.872 196.686 82.088 196.398 81.464C195.95 80.312 195.054 79.736 193.71 79.736C193.454 79.736 193.198 79.784 192.942 79.88C192.846 79.912 192.79 79.928 192.774 79.928C192.678 79.928 192.598 79.88 192.534 79.784L192.006 79.16C191.942 79.064 191.91 78.992 191.91 78.944C191.91 78.896 191.942 78.824 192.006 78.728L196.182 73.832C196.262 73.736 196.238 73.688 196.11 73.688H189.39C189.182 73.688 189.078 73.584 189.078 73.376V72.512C189.078 72.304 189.182 72.2 189.39 72.2H198.126C198.334 72.2 198.438 72.304 198.438 72.512V73.472C198.438 73.6 198.39 73.728 198.294 73.856L194.43 78.488C194.398 78.52 194.39 78.552 194.406 78.584C194.422 78.616 194.462 78.632 194.526 78.632C196.27 78.744 197.446 79.552 198.054 81.056ZM216.381 82.832C216.589 82.832 216.693 82.936 216.693 83.144V84.056C216.693 84.264 216.589 84.368 216.381 84.368H215.445C215.365 84.368 215.325 84.408 215.325 84.488V88.688C215.325 88.896 215.221 89 215.013 89H213.933C213.725 89 213.621 88.896 213.621 88.688V84.488C213.621 84.408 213.581 84.368 213.501 84.368H206.397C206.189 84.368 206.085 84.264 206.085 84.056V83.288C206.085 83.192 206.117 83.064 206.181 82.904L211.029 72.44C211.109 72.28 211.237 72.2 211.413 72.2H212.517C212.645 72.2 212.725 72.232 212.757 72.296C212.805 72.36 212.805 72.448 212.757 72.56L208.053 82.688C208.037 82.72 208.037 82.752 208.053 82.784C208.069 82.816 208.093 82.832 208.125 82.832H213.501C213.581 82.832 213.621 82.792 213.621 82.712V78.944C213.621 78.736 213.725 78.632 213.933 78.632H215.013C215.221 78.632 215.325 78.736 215.325 78.944V82.712C215.325 82.792 215.365 82.832 215.445 82.832H216.381ZM233.848 81.656C233.992 82.36 234.064 83.08 234.064 83.816C234.064 84.6 233.992 85.272 233.848 85.832C233.576 86.856 233.032 87.672 232.216 88.28C231.4 88.872 230.416 89.168 229.264 89.168C228.128 89.168 227.16 88.88 226.36 88.304C225.56 87.728 225.016 86.96 224.728 86C224.632 85.68 224.56 85.36 224.512 85.04V84.992C224.512 84.896 224.536 84.824 224.584 84.776C224.648 84.728 224.728 84.704 224.824 84.704H225.928C226.136 84.704 226.248 84.808 226.264 85.016C226.264 85.096 226.296 85.232 226.36 85.424C226.52 86.112 226.856 86.664 227.368 87.08C227.88 87.48 228.512 87.68 229.264 87.68C230.032 87.68 230.672 87.464 231.184 87.032C231.696 86.6 232.032 86.008 232.192 85.256C232.288 84.888 232.336 84.416 232.336 83.84C232.336 83.296 232.296 82.768 232.216 82.256C232.104 81.52 231.784 80.96 231.256 80.576C230.728 80.192 230.064 80 229.264 80C228.576 80 227.968 80.144 227.44 80.432C226.912 80.72 226.552 81.12 226.36 81.632C226.296 81.808 226.176 81.896 226 81.896H224.824C224.616 81.896 224.512 81.792 224.512 81.584V72.512C224.512 72.304 224.616 72.2 224.824 72.2H233.08C233.288 72.2 233.392 72.304 233.392 72.512V73.376C233.392 73.584 233.288 73.688 233.08 73.688H226.336C226.256 73.688 226.216 73.728 226.216 73.808L226.192 79.544C226.192 79.608 226.208 79.648 226.24 79.664C226.272 79.664 226.304 79.648 226.336 79.616C226.736 79.248 227.208 78.968 227.752 78.776C228.296 78.584 228.864 78.488 229.456 78.488C230.592 78.488 231.552 78.768 232.336 79.328C233.12 79.872 233.624 80.648 233.848 81.656ZM250.712 81.104C251.048 81.824 251.216 82.736 251.216 83.84C251.216 84.832 251.088 85.632 250.832 86.24C250.496 87.168 249.96 87.888 249.224 88.4C248.488 88.912 247.568 89.168 246.464 89.168C245.312 89.168 244.344 88.896 243.56 88.352C242.776 87.808 242.224 87.04 241.904 86.048C241.712 85.408 241.616 84.656 241.616 83.792V76.304C241.616 74.992 242.048 73.952 242.912 73.184C243.776 72.4 244.904 72.008 246.296 72.008C247.656 72.008 248.752 72.384 249.584 73.136C250.416 73.888 250.832 74.88 250.832 76.112V76.376C250.832 76.584 250.728 76.688 250.52 76.688H249.44C249.344 76.688 249.264 76.672 249.2 76.64C249.152 76.592 249.128 76.536 249.128 76.472V76.256C249.128 75.44 248.864 74.776 248.336 74.264C247.808 73.752 247.128 73.496 246.296 73.496C245.432 73.496 244.72 73.768 244.16 74.312C243.6 74.84 243.32 75.544 243.32 76.424V79.904C243.32 79.952 243.336 79.984 243.368 80C243.4 80 243.432 79.976 243.464 79.928C244.168 79 245.224 78.536 246.632 78.536C247.64 78.536 248.48 78.76 249.152 79.208C249.84 79.656 250.36 80.288 250.712 81.104ZM249.224 85.664C249.416 85.168 249.512 84.56 249.512 83.84C249.512 83.008 249.4 82.368 249.176 81.92C248.984 81.328 248.648 80.864 248.168 80.528C247.688 80.192 247.096 80.024 246.392 80.024C245.688 80.024 245.096 80.2 244.616 80.552C244.136 80.888 243.8 81.36 243.608 81.968C243.416 82.464 243.32 83.112 243.32 83.912C243.32 84.616 243.4 85.2 243.56 85.664C243.752 86.272 244.088 86.76 244.568 87.128C245.064 87.496 245.68 87.68 246.416 87.68C247.104 87.68 247.696 87.512 248.192 87.176C248.688 86.824 249.032 86.32 249.224 85.664ZM260.928 89C260.816 89 260.736 88.968 260.688 88.904C260.656 88.84 260.656 88.752 260.688 88.64L266.184 73.832C266.216 73.736 266.184 73.688 266.088 73.688H259.656C259.576 73.688 259.536 73.728 259.536 73.808V74.816C259.536 75.024 259.432 75.128 259.224 75.128H258.384C258.176 75.128 258.072 75.024 258.072 74.816L258.096 72.512C258.096 72.304 258.2 72.2 258.408 72.2H267.72C267.928 72.2 268.032 72.304 268.032 72.512V73.496C268.032 73.624 268.008 73.752 267.96 73.88L262.488 88.76C262.44 88.92 262.32 89 262.128 89H260.928ZM283.888 81.944C284.192 82.568 284.344 83.352 284.344 84.296C284.344 85.384 284.12 86.32 283.672 87.104C283.288 87.76 282.736 88.272 282.016 88.64C281.312 89.008 280.488 89.192 279.544 89.192C278.6 89.192 277.768 89 277.048 88.616C276.328 88.232 275.776 87.688 275.392 86.984C274.96 86.216 274.744 85.312 274.744 84.272C274.744 83.392 274.904 82.592 275.224 81.872C275.608 81.072 276.144 80.472 276.832 80.072C276.912 80.024 276.912 79.976 276.832 79.928C276.272 79.576 275.824 79.16 275.488 78.68C275.008 77.992 274.768 77.208 274.768 76.328C274.768 75.432 274.992 74.648 275.44 73.976C275.84 73.336 276.392 72.84 277.096 72.488C277.816 72.136 278.632 71.96 279.544 71.96C280.552 71.96 281.416 72.152 282.136 72.536C282.856 72.904 283.408 73.456 283.792 74.192C284.144 74.816 284.32 75.528 284.32 76.328C284.32 77.208 284.088 77.968 283.624 78.608C283.256 79.152 282.8 79.592 282.256 79.928C282.16 79.992 282.16 80.048 282.256 80.096C282.992 80.512 283.536 81.128 283.888 81.944ZM276.448 76.472C276.448 77.144 276.624 77.728 276.976 78.224C277.232 78.608 277.568 78.912 277.984 79.136C278.4 79.344 278.88 79.456 279.424 79.472H279.568C280.144 79.472 280.648 79.352 281.08 79.112C281.528 78.872 281.896 78.544 282.184 78.128C282.488 77.664 282.64 77.104 282.64 76.448C282.64 75.856 282.52 75.344 282.28 74.912C282.024 74.448 281.656 74.088 281.176 73.832C280.712 73.56 280.16 73.424 279.52 73.424C278.912 73.424 278.376 73.56 277.912 73.832C277.448 74.088 277.088 74.448 276.832 74.912C276.576 75.392 276.448 75.912 276.448 76.472ZM282.064 86.504C282.448 85.864 282.64 85.08 282.64 84.152C282.64 83.592 282.544 83.04 282.352 82.496C282.128 81.92 281.776 81.48 281.296 81.176C280.816 80.856 280.232 80.696 279.544 80.696C278.216 80.696 277.304 81.272 276.808 82.424C276.584 82.888 276.472 83.48 276.472 84.2C276.472 85.048 276.64 85.784 276.976 86.408C277.52 87.288 278.376 87.728 279.544 87.728C280.68 87.728 281.52 87.32 282.064 86.504ZM301.253 75.152C301.445 75.792 301.541 76.544 301.541 77.408V84.896C301.541 86.208 301.109 87.256 300.245 88.04C299.381 88.808 298.253 89.192 296.861 89.192C295.501 89.192 294.405 88.816 293.573 88.064C292.741 87.312 292.325 86.32 292.325 85.088V84.824C292.325 84.616 292.429 84.512 292.637 84.512H293.717C293.813 84.512 293.885 84.536 293.933 84.584C293.997 84.616 294.029 84.664 294.029 84.728V84.944C294.029 85.76 294.293 86.424 294.821 86.936C295.349 87.448 296.029 87.704 296.861 87.704C297.725 87.704 298.437 87.44 298.997 86.912C299.557 86.368 299.837 85.656 299.837 84.776V81.296C299.837 81.248 299.821 81.224 299.789 81.224C299.757 81.208 299.725 81.224 299.693 81.272C299.005 82.2 297.949 82.664 296.525 82.664C295.517 82.664 294.669 82.44 293.981 81.992C293.309 81.544 292.797 80.912 292.445 80.096C292.109 79.376 291.941 78.464 291.941 77.36C291.941 76.368 292.069 75.568 292.325 74.96C292.661 74.032 293.197 73.312 293.933 72.8C294.669 72.288 295.589 72.032 296.693 72.032C297.845 72.032 298.813 72.304 299.597 72.848C300.381 73.392 300.933 74.16 301.253 75.152ZM296.765 81.176C297.469 81.176 298.061 81.008 298.541 80.672C299.021 80.32 299.357 79.84 299.549 79.232C299.741 78.72 299.837 78.072 299.837 77.288C299.837 76.584 299.757 76 299.597 75.536C299.405 74.928 299.061 74.44 298.565 74.072C298.085 73.704 297.477 73.52 296.741 73.52C296.053 73.52 295.461 73.696 294.965 74.048C294.469 74.384 294.125 74.88 293.933 75.536C293.741 76.032 293.645 76.64 293.645 77.36C293.645 78.192 293.757 78.832 293.981 79.28C294.173 79.872 294.509 80.336 294.989 80.672C295.469 81.008 296.061 81.176 296.765 81.176ZM314.657 89.24C313.121 89.24 311.897 88.8 310.985 87.92C310.073 87.04 309.617 85.864 309.617 84.392V76.808C309.617 75.336 310.073 74.168 310.985 73.304C311.897 72.424 313.121 71.984 314.657 71.984C316.209 71.984 317.449 72.424 318.377 73.304C319.305 74.184 319.769 75.352 319.769 76.808V84.392C319.769 85.864 319.305 87.04 318.377 87.92C317.449 88.8 316.209 89.24 314.657 89.24ZM314.657 87.752C315.681 87.752 316.505 87.456 317.129 86.864C317.753 86.272 318.065 85.48 318.065 84.488V76.736C318.065 75.76 317.753 74.976 317.129 74.384C316.521 73.792 315.697 73.496 314.657 73.496C313.649 73.496 312.841 73.792 312.233 74.384C311.625 74.976 311.321 75.76 311.321 76.736V84.488C311.321 85.48 311.625 86.272 312.233 86.864C312.841 87.456 313.649 87.752 314.657 87.752ZM329.739 83.528C329.531 83.528 329.427 83.424 329.427 83.216L329.307 72.512C329.307 72.304 329.411 72.2 329.619 72.2H330.699C330.907 72.2 331.011 72.304 331.011 72.512L330.867 83.216C330.867 83.424 330.763 83.528 330.555 83.528H329.739ZM330.099 88.904C329.667 88.904 329.307 88.768 329.019 88.496C328.747 88.224 328.611 87.888 328.611 87.488C328.611 87.104 328.763 86.776 329.067 86.504C329.371 86.216 329.715 86.072 330.099 86.072C330.483 86.072 330.827 86.216 331.131 86.504C331.435 86.776 331.587 87.104 331.587 87.488C331.587 87.888 331.443 88.224 331.155 88.496C330.867 88.768 330.515 88.904 330.099 88.904ZM349.737 74.192C351.209 74.192 352.505 74.488 353.625 75.08C354.761 75.672 355.633 76.504 356.241 77.576C356.865 78.648 357.177 79.872 357.177 81.248C357.177 81.504 357.145 81.92 357.081 82.496C356.873 83.968 356.409 85.112 355.689 85.928C354.969 86.744 354.065 87.152 352.977 87.152C351.857 87.152 351.049 86.744 350.553 85.928C350.505 85.864 350.449 85.864 350.385 85.928C350.097 86.312 349.737 86.608 349.305 86.816C348.873 87.024 348.401 87.128 347.889 87.128C347.025 87.128 346.321 86.92 345.777 86.504C345.233 86.072 344.921 85.512 344.841 84.824C344.825 84.712 344.817 84.52 344.817 84.248C344.817 83.896 344.857 83.4 344.937 82.76C345.065 81.816 345.209 81.12 345.369 80.672C345.609 79.968 346.033 79.408 346.641 78.992C347.249 78.576 347.921 78.368 348.657 78.368C349.553 78.368 350.233 78.664 350.697 79.256C350.729 79.288 350.761 79.304 350.793 79.304C350.825 79.288 350.841 79.256 350.841 79.208L350.889 78.776C350.921 78.584 351.033 78.488 351.225 78.488H351.825C351.921 78.488 351.993 78.52 352.041 78.584C352.105 78.648 352.129 78.728 352.113 78.824L351.489 83.768C351.473 83.864 351.465 83.992 351.465 84.152C351.465 84.696 351.609 85.144 351.897 85.496C352.201 85.848 352.609 86.024 353.121 86.024C353.793 86.024 354.361 85.72 354.825 85.112C355.305 84.504 355.625 83.656 355.785 82.568C355.849 82.184 355.881 81.768 355.881 81.32C355.881 80.104 355.617 79.048 355.089 78.152C354.561 77.24 353.825 76.544 352.881 76.064C351.937 75.584 350.857 75.344 349.641 75.344C348.281 75.344 346.985 75.656 345.753 76.28C344.537 76.904 343.545 77.832 342.777 79.064C342.009 80.296 341.625 81.792 341.625 83.552C341.625 84.816 341.865 85.944 342.345 86.936C342.825 87.912 343.521 88.672 344.433 89.216C345.361 89.776 346.457 90.056 347.721 90.056C348.489 90.056 349.241 89.96 349.977 89.768C350.713 89.592 351.281 89.376 351.681 89.12C351.777 89.056 351.849 89.024 351.897 89.024C351.977 89.024 352.049 89.072 352.113 89.168L352.425 89.552C352.489 89.648 352.521 89.72 352.521 89.768C352.521 89.848 352.473 89.92 352.377 89.984C351.833 90.368 351.113 90.672 350.217 90.896C349.337 91.12 348.449 91.232 347.553 91.232C346.097 91.232 344.825 90.904 343.737 90.248C342.649 89.608 341.817 88.704 341.241 87.536C340.665 86.368 340.377 85.024 340.377 83.504C340.377 81.584 340.825 79.92 341.721 78.512C342.617 77.088 343.777 76.016 345.201 75.296C346.641 74.56 348.153 74.192 349.737 74.192ZM350.025 84.464C350.089 84.288 350.145 84.096 350.193 83.888C350.241 83.664 350.297 83.28 350.361 82.736C350.441 82.08 350.481 81.512 350.481 81.032C350.449 80.568 350.273 80.192 349.953 79.904C349.649 79.6 349.241 79.448 348.729 79.448C348.217 79.448 347.761 79.6 347.361 79.904C346.977 80.192 346.697 80.56 346.521 81.008C346.441 81.168 346.377 81.384 346.329 81.656C346.281 81.928 346.225 82.304 346.161 82.784C346.081 83.36 346.041 83.792 346.041 84.08C346.041 84.256 346.049 84.384 346.065 84.464C346.097 84.928 346.273 85.304 346.593 85.592C346.929 85.88 347.369 86.024 347.913 86.024C348.425 86.024 348.865 85.88 349.233 85.592C349.601 85.304 349.865 84.928 350.025 84.464ZM377.556 78.392C377.556 78.6 377.452 78.704 377.244 78.704H375.516C375.42 78.704 375.372 78.744 375.372 78.824L374.796 82.592C374.796 82.672 374.828 82.712 374.892 82.712H376.404C376.612 82.712 376.716 82.816 376.716 83.024L376.692 83.888C376.692 84.096 376.588 84.2 376.38 84.2H374.676C374.58 84.2 374.532 84.24 374.532 84.32L373.908 88.328C373.892 88.52 373.78 88.616 373.572 88.616L372.492 88.568C372.396 88.568 372.316 88.536 372.252 88.472C372.204 88.408 372.188 88.328 372.204 88.232L372.804 84.32C372.804 84.24 372.772 84.2 372.708 84.2H368.94C368.844 84.2 368.796 84.24 368.796 84.32L368.172 88.328C368.156 88.52 368.044 88.616 367.836 88.616L366.756 88.568C366.66 88.568 366.58 88.536 366.516 88.472C366.468 88.408 366.452 88.328 366.468 88.232L367.068 84.32C367.068 84.24 367.036 84.2 366.972 84.2H365.532C365.324 84.2 365.22 84.096 365.22 83.888L365.244 83.024C365.244 82.816 365.348 82.712 365.556 82.712H367.212C367.308 82.712 367.356 82.672 367.356 82.592L367.932 78.824C367.932 78.744 367.9 78.704 367.836 78.704H366.42C366.212 78.704 366.108 78.6 366.108 78.392V77.504C366.108 77.296 366.212 77.192 366.42 77.192H368.076C368.172 77.192 368.22 77.152 368.22 77.072L368.844 73.064C368.876 72.872 368.988 72.776 369.18 72.776L370.26 72.824C370.356 72.824 370.428 72.856 370.476 72.92C370.54 72.984 370.564 73.064 370.548 73.16L369.948 77.072C369.948 77.152 369.98 77.192 370.044 77.192H373.788C373.884 77.192 373.932 77.152 373.932 77.072L374.556 73.064C374.588 72.872 374.7 72.776 374.892 72.776L375.972 72.824C376.068 72.824 376.14 72.856 376.188 72.92C376.252 72.984 376.276 73.064 376.26 73.16L375.66 77.072C375.66 77.152 375.692 77.192 375.756 77.192H377.268C377.476 77.192 377.58 77.296 377.58 77.504L377.556 78.392ZM372.948 82.712C373.044 82.712 373.092 82.672 373.092 82.592L373.668 78.824C373.668 78.744 373.636 78.704 373.572 78.704H369.804C369.708 78.704 369.66 78.744 369.66 78.824L369.084 82.592C369.084 82.672 369.116 82.712 369.18 82.712H372.948ZM395.897 84.728C395.897 86.008 395.497 87.048 394.697 87.848C393.897 88.632 392.753 89.08 391.265 89.192C391.185 89.192 391.145 89.232 391.145 89.312L391.169 90.656C391.169 90.864 391.065 90.968 390.857 90.968H390.257C390.049 90.968 389.945 90.864 389.945 90.656L389.969 89.288C389.969 89.208 389.929 89.168 389.849 89.168C388.505 89.024 387.449 88.576 386.681 87.824C385.913 87.072 385.529 86.112 385.529 84.944V84.032C385.529 83.824 385.633 83.72 385.841 83.72H386.849C387.057 83.72 387.161 83.824 387.161 84.032V84.608C387.161 85.536 387.481 86.288 388.121 86.864C388.777 87.424 389.681 87.704 390.833 87.704C391.921 87.704 392.753 87.448 393.329 86.936C393.905 86.408 394.193 85.704 394.193 84.824C394.193 84.312 394.041 83.872 393.737 83.504C393.449 83.12 393.065 82.776 392.585 82.472C392.105 82.168 391.393 81.768 390.449 81.272L389.249 80.648C388.385 80.2 387.705 79.792 387.209 79.424C386.729 79.056 386.353 78.624 386.081 78.128C385.809 77.632 385.673 77.016 385.673 76.28C385.673 75.048 386.017 74.072 386.705 73.352C387.409 72.616 388.425 72.176 389.753 72.032C389.833 72.032 389.873 71.992 389.873 71.912L389.849 70.4C389.849 70.192 389.953 70.088 390.161 70.088H390.737C390.945 70.088 391.049 70.192 391.049 70.4L391.025 71.888C391.025 71.968 391.065 72.008 391.145 72.008C392.617 72.104 393.753 72.544 394.553 73.328C395.369 74.096 395.777 75.104 395.777 76.352V77.024C395.777 77.232 395.673 77.336 395.465 77.336H394.409C394.201 77.336 394.097 77.232 394.097 77.024V76.664C394.097 75.72 393.785 74.96 393.161 74.384C392.553 73.792 391.673 73.496 390.521 73.496C389.513 73.496 388.737 73.728 388.193 74.192C387.649 74.656 387.377 75.32 387.377 76.184C387.377 76.728 387.505 77.176 387.761 77.528C388.033 77.88 388.385 78.184 388.817 78.44C389.249 78.68 389.897 78.992 390.761 79.376C390.937 79.456 391.097 79.528 391.241 79.592C391.401 79.656 391.545 79.72 391.673 79.784C393.145 80.472 394.217 81.192 394.889 81.944C395.561 82.696 395.897 83.624 395.897 84.728ZM407.703 78.8C407.079 78.8 406.503 78.648 405.975 78.344C405.447 78.04 405.023 77.632 404.703 77.12C404.399 76.592 404.247 76.016 404.247 75.392C404.247 74.768 404.399 74.2 404.703 73.688C405.023 73.16 405.447 72.744 405.975 72.44C406.503 72.136 407.079 71.984 407.703 71.984C408.327 71.984 408.903 72.136 409.431 72.44C409.959 72.744 410.375 73.16 410.679 73.688C410.983 74.2 411.135 74.768 411.135 75.392C411.135 76.016 410.983 76.592 410.679 77.12C410.375 77.632 409.959 78.04 409.431 78.344C408.903 78.648 408.327 78.8 407.703 78.8ZM407.247 89C407.119 89 407.031 88.968 406.983 88.904C406.951 88.824 406.967 88.728 407.031 88.616L416.055 72.416C416.135 72.272 416.255 72.2 416.415 72.2H417.039C417.167 72.2 417.247 72.24 417.279 72.32C417.327 72.384 417.319 72.472 417.255 72.584L408.255 88.784C408.191 88.928 408.071 89 407.895 89H407.247ZM407.703 77.792C408.359 77.792 408.919 77.56 409.383 77.096C409.847 76.616 410.079 76.048 410.079 75.392C410.079 74.72 409.847 74.152 409.383 73.688C408.919 73.224 408.359 72.992 407.703 72.992C407.031 72.992 406.463 73.224 405.999 73.688C405.535 74.152 405.303 74.72 405.303 75.392C405.303 76.064 405.535 76.632 405.999 77.096C406.463 77.56 407.031 77.792 407.703 77.792ZM416.727 89.216C416.103 89.216 415.527 89.064 414.999 88.76C414.471 88.456 414.047 88.04 413.727 87.512C413.423 86.984 413.271 86.408 413.271 85.784C413.271 85.176 413.423 84.616 413.727 84.104C414.047 83.576 414.471 83.16 414.999 82.856C415.527 82.552 416.103 82.4 416.727 82.4C417.335 82.4 417.903 82.552 418.431 82.856C418.959 83.16 419.375 83.576 419.679 84.104C419.983 84.616 420.135 85.176 420.135 85.784C420.135 86.408 419.983 86.984 419.679 87.512C419.375 88.04 418.959 88.456 418.431 88.76C417.919 89.064 417.351 89.216 416.727 89.216ZM416.727 88.208C417.383 88.208 417.943 87.976 418.407 87.512C418.871 87.032 419.103 86.456 419.103 85.784C419.103 85.128 418.871 84.568 418.407 84.104C417.943 83.64 417.383 83.408 416.727 83.408C416.055 83.408 415.479 83.64 414.999 84.104C414.535 84.568 414.303 85.128 414.303 85.784C414.303 86.472 414.535 87.048 414.999 87.512C415.479 87.976 416.055 88.208 416.727 88.208ZM1.32 117.632C1.208 117.632 1.128 117.6 1.08 117.536C1.048 117.472 1.048 117.384 1.08 117.272L4.536 108.44C4.6 108.28 4.72 108.2 4.896 108.2H5.88C6.056 108.2 6.176 108.28 6.24 108.44L9.72 117.272C9.736 117.304 9.744 117.352 9.744 117.416C9.744 117.48 9.72 117.536 9.672 117.584C9.624 117.616 9.56 117.632 9.48 117.632H8.64C8.464 117.632 8.344 117.552 8.28 117.392L5.472 110.096C5.424 109.968 5.376 109.968 5.328 110.096L2.52 117.392C2.456 117.552 2.336 117.632 2.16 117.632H1.32ZM29.8607 124.616C29.9087 124.68 29.9327 124.744 29.9327 124.808C29.9327 124.936 29.8447 125 29.6687 125H28.4687C28.3087 125 28.1807 124.944 28.0847 124.832L26.7167 123.248C26.6687 123.184 26.6127 123.176 26.5487 123.224C25.7967 123.912 25.0287 124.416 24.2447 124.736C23.4607 125.04 22.6047 125.192 21.6767 125.192C20.2687 125.192 19.1327 124.864 18.2687 124.208C17.4047 123.536 16.9727 122.568 16.9727 121.304C16.9727 120.2 17.2847 119.256 17.9087 118.472C18.5327 117.672 19.4047 116.904 20.5247 116.168C20.5887 116.104 20.5967 116.048 20.5487 116C19.6207 114.864 19.0047 114.016 18.7007 113.456C18.3967 112.896 18.2447 112.336 18.2447 111.776C18.2447 110.64 18.6127 109.728 19.3487 109.04C20.0847 108.352 21.0607 108.008 22.2767 108.008C23.5087 108.008 24.5087 108.344 25.2767 109.016C26.0607 109.688 26.4527 110.576 26.4527 111.68C26.4527 112.656 26.1487 113.496 25.5407 114.2C24.9487 114.904 24.1087 115.616 23.0207 116.336C22.9727 116.384 22.9647 116.44 22.9967 116.504L25.8047 119.792L26.5967 120.752C26.6607 120.816 26.7167 120.816 26.7647 120.752C27.2767 120.144 27.7887 119.48 28.3007 118.76C28.4127 118.6 28.5567 118.568 28.7327 118.664L29.5007 119.12C29.6127 119.184 29.6687 119.264 29.6687 119.36C29.6687 119.408 29.6447 119.472 29.5967 119.552C28.7807 120.704 28.1647 121.52 27.7487 122L27.7247 122.048C27.7247 122.112 27.7727 122.192 27.8687 122.288L28.9007 123.512L29.8607 124.616ZM22.3247 109.592C21.6047 109.592 21.0287 109.792 20.5967 110.192C20.1647 110.576 19.9487 111.104 19.9487 111.776C19.9487 112.16 20.0687 112.568 20.3087 113C20.5487 113.432 21.0687 114.136 21.8687 115.112C21.9167 115.176 21.9727 115.184 22.0367 115.136C22.9167 114.528 23.5887 113.968 24.0527 113.456C24.5167 112.928 24.7487 112.336 24.7487 111.68C24.7487 111.056 24.5247 110.552 24.0767 110.168C23.6287 109.784 23.0447 109.592 22.3247 109.592ZM21.7247 123.728C22.4287 123.728 23.0847 123.592 23.6927 123.32C24.3007 123.048 24.9167 122.624 25.5407 122.048C25.6047 122 25.6127 121.944 25.5647 121.88L24.5087 120.656C24.1887 120.272 23.9247 119.968 23.7167 119.744C22.6767 118.544 21.9967 117.752 21.6767 117.368C21.6287 117.304 21.5727 117.296 21.5087 117.344C20.5967 118 19.8927 118.632 19.3967 119.24C18.9167 119.832 18.6767 120.512 18.6767 121.28C18.6767 122.048 18.9487 122.648 19.4927 123.08C20.0527 123.512 20.7967 123.728 21.7247 123.728ZM40.8073 115.568C40.5993 115.568 40.4953 115.464 40.4953 115.256L40.5193 112.424C40.5193 112.376 40.5033 112.344 40.4713 112.328C40.4393 112.296 40.4073 112.296 40.3753 112.328L37.8073 113.816C37.7433 113.848 37.6873 113.864 37.6393 113.864C37.5273 113.864 37.4393 113.808 37.3753 113.696L37.1353 113.24C37.1033 113.144 37.0873 113.088 37.0873 113.072C37.0873 112.976 37.1433 112.896 37.2553 112.832L39.8233 111.392C39.9033 111.344 39.9033 111.296 39.8233 111.248L37.2553 109.808C37.0953 109.712 37.0553 109.576 37.1353 109.4L37.3753 108.944C37.4233 108.864 37.4873 108.816 37.5673 108.8C37.6473 108.768 37.7273 108.776 37.8073 108.824L40.3753 110.312C40.4073 110.328 40.4393 110.328 40.4713 110.312C40.5033 110.296 40.5193 110.264 40.5193 110.216L40.4953 107.384C40.4953 107.176 40.5993 107.072 40.8073 107.072H41.3113C41.5193 107.072 41.6233 107.176 41.6233 107.384L41.5993 110.216C41.5993 110.264 41.6153 110.296 41.6473 110.312C41.6793 110.328 41.7113 110.328 41.7433 110.312L44.3113 108.824C44.3753 108.792 44.4313 108.776 44.4793 108.776C44.5913 108.776 44.6793 108.832 44.7433 108.944L44.9833 109.4C45.0153 109.496 45.0313 109.552 45.0313 109.568C45.0313 109.664 44.9753 109.744 44.8633 109.808L42.2713 111.248C42.2073 111.296 42.2073 111.344 42.2713 111.392L44.8633 112.832C45.0393 112.928 45.0793 113.064 44.9833 113.24L44.7433 113.696C44.6953 113.776 44.6313 113.832 44.5513 113.864C44.4713 113.88 44.3913 113.864 44.3113 113.816L41.7433 112.328C41.7113 112.296 41.6793 112.296 41.6473 112.328C41.6153 112.344 41.5993 112.376 41.5993 112.424L41.6233 115.256C41.6233 115.464 41.5193 115.568 41.3113 115.568H40.8073ZM53.4664 127.496C53.2904 127.496 53.1624 127.432 53.0824 127.304C52.3144 126.104 51.6904 124.616 51.2104 122.84C50.7464 121.064 50.5144 119.184 50.5144 117.2C50.5144 115.184 50.7544 113.264 51.2344 111.44C51.7144 109.616 52.3544 108.096 53.1544 106.88C53.2184 106.752 53.3384 106.688 53.5144 106.688H54.5224C54.6504 106.688 54.7304 106.72 54.7624 106.784C54.8104 106.848 54.8024 106.936 54.7384 107.048C54.0664 108.296 53.5144 109.816 53.0824 111.608C52.6664 113.384 52.4584 115.24 52.4584 117.176C52.4584 119.08 52.6664 120.912 53.0824 122.672C53.5144 124.416 54.0664 125.904 54.7384 127.136C54.7704 127.232 54.7864 127.288 54.7864 127.304C54.7864 127.432 54.6984 127.496 54.5224 127.496H53.4664ZM65.5082 127.304C65.4282 127.432 65.3002 127.496 65.1242 127.496H64.0682C63.9402 127.496 63.8522 127.464 63.8042 127.4C63.7722 127.336 63.7882 127.248 63.8522 127.136C64.5242 125.904 65.0682 124.416 65.4842 122.672C65.9162 120.912 66.1322 119.08 66.1322 117.176C66.1322 115.24 65.9162 113.384 65.4842 111.608C65.0682 109.816 64.5242 108.296 63.8522 107.048C63.8202 106.952 63.8042 106.896 63.8042 106.88C63.8042 106.752 63.8922 106.688 64.0682 106.688H65.0762C65.2522 106.688 65.3722 106.752 65.4362 106.88C66.2362 108.096 66.8762 109.616 67.3562 111.44C67.8362 113.264 68.0762 115.184 68.0762 117.2C68.0762 119.184 67.8362 121.064 67.3562 122.84C66.8922 124.616 66.2762 126.104 65.5082 127.304ZM73.758 125C73.55 125 73.446 124.896 73.446 124.688V123.944C73.446 123.736 73.55 123.632 73.758 123.632H83.358C83.566 123.632 83.67 123.736 83.67 123.944V124.688C83.67 124.896 83.566 125 83.358 125H73.758ZM99.927 116.744C100.135 116.744 100.239 116.848 100.239 117.056V117.92C100.239 118.128 100.135 118.232 99.927 118.232H96.039C95.959 118.232 95.919 118.272 95.919 118.352V122.144C95.919 122.352 95.815 122.456 95.607 122.456H94.743C94.535 122.456 94.431 122.352 94.431 122.144V118.352C94.431 118.272 94.391 118.232 94.311 118.232H90.423C90.215 118.232 90.111 118.128 90.111 117.92V117.056C90.111 116.848 90.215 116.744 90.423 116.744H94.311C94.391 116.744 94.431 116.704 94.431 116.624V112.64C94.431 112.432 94.535 112.328 94.743 112.328H95.607C95.815 112.328 95.919 112.432 95.919 112.64V116.624C95.919 116.704 95.959 116.744 96.039 116.744H99.927Z" fill="#162542"/>
</svg>
