<svg width="463" height="97" viewBox="0 0 463 97" fill="none" xmlns="http://www.w3.org/2000/svg">
<path d="M1.248 40C0.538667 40 0.184 39.6453 0.184 38.936V1.864C0.184 1.15466 0.538667 0.799997 1.248 0.799997H9.592C10.1893 0.799997 10.6187 1.04266 10.88 1.528L17.656 12.56C17.7307 12.7093 17.8427 12.784 17.992 12.784C18.1413 12.784 18.2533 12.7093 18.328 12.56L25.104 1.528C25.3653 1.04266 25.7947 0.799997 26.392 0.799997H34.736C35.4453 0.799997 35.8 1.15466 35.8 1.864V38.936C35.8 39.6453 35.4453 40 34.736 40H26.336C25.6267 40 25.272 39.6453 25.272 38.936V19.168C25.272 18.944 25.1973 18.8133 25.048 18.776C24.936 18.7387 24.824 18.8133 24.712 19L21.24 24.768C20.9787 25.2533 20.5493 25.496 19.952 25.496H16.032C15.4347 25.496 15.0053 25.2533 14.744 24.768L11.272 19C11.16 18.8507 11.048 18.776 10.936 18.776C10.7867 18.776 10.712 18.9067 10.712 19.168V38.936C10.712 39.6453 10.3573 40 9.648 40H1.248ZM55.3366 40.672C52.2379 40.672 49.4939 40.056 47.1046 38.824C44.7526 37.5547 42.9232 35.8 41.6166 33.56C40.3099 31.2827 39.6566 28.6507 39.6566 25.664V15.136C39.6566 12.224 40.3099 9.648 41.6166 7.408C42.9232 5.168 44.7526 3.432 47.1046 2.2C49.4939 0.968 52.2379 0.352 55.3366 0.352C58.4726 0.352 61.2166 0.968 63.5686 2.2C65.9579 3.432 67.8059 5.168 69.1126 7.408C70.4192 9.648 71.0726 12.224 71.0726 15.136V25.664C71.0726 28.6507 70.4192 31.2827 69.1126 33.56C67.8059 35.8 65.9579 37.5547 63.5686 38.824C61.2166 40.056 58.4726 40.672 55.3366 40.672ZM55.3366 31.656C56.9046 31.656 58.1552 31.152 59.0886 30.144C60.0592 29.0987 60.5446 27.7173 60.5446 26V15.024C60.5446 13.3067 60.0592 11.944 59.0886 10.936C58.1552 9.89066 56.9046 9.368 55.3366 9.368C53.8059 9.368 52.5552 9.89066 51.5846 10.936C50.6512 11.944 50.1846 13.3067 50.1846 15.024V26C50.1846 27.7173 50.6512 29.0987 51.5846 30.144C52.5552 31.152 53.8059 31.656 55.3366 31.656ZM95.7738 40C95.1765 40 94.7658 39.7387 94.5418 39.216L88.4938 25.272C88.4191 25.048 88.2325 24.936 87.9338 24.936H85.9178C85.6191 24.936 85.4698 25.0853 85.4698 25.384V38.936C85.4698 39.6453 85.1151 40 84.4058 40H76.0058C75.2965 40 74.9418 39.6453 74.9418 38.936V1.864C74.9418 1.15466 75.2965 0.799997 76.0058 0.799997H92.7498C95.2885 0.799997 97.5098 1.32266 99.4138 2.368C101.355 3.41333 102.848 4.888 103.894 6.792C104.976 8.65866 105.518 10.824 105.518 13.288C105.518 15.7147 104.92 17.8427 103.726 19.672C102.568 21.5013 100.944 22.864 98.8538 23.76C98.5925 23.872 98.5178 24.0587 98.6298 24.32L105.462 38.768C105.536 38.9173 105.574 39.104 105.574 39.328C105.574 39.776 105.275 40 104.678 40H95.7738ZM85.9178 9.816C85.6191 9.816 85.4698 9.96533 85.4698 10.264V16.48C85.4698 16.7787 85.6191 16.928 85.9178 16.928H91.0138C92.2085 16.928 93.1791 16.6107 93.9258 15.976C94.6725 15.304 95.0458 14.4453 95.0458 13.4C95.0458 12.3173 94.6725 11.4587 93.9258 10.824C93.1791 10.152 92.2085 9.816 91.0138 9.816H85.9178ZM135.155 19.504C135.006 19.5787 134.931 19.672 134.931 19.784C134.931 19.896 135.006 19.9893 135.155 20.064C136.723 20.9973 137.88 22.192 138.627 23.648C139.411 25.0667 139.803 26.784 139.803 28.8C139.803 32.6453 138.459 35.4827 135.771 37.312C133.083 39.104 129.592 40 125.299 40H110.459C109.75 40 109.395 39.6453 109.395 38.936V1.864C109.395 1.15466 109.75 0.799997 110.459 0.799997H124.795C129.574 0.799997 133.158 1.65866 135.547 3.376C137.974 5.056 139.187 7.89333 139.187 11.888C139.187 15.36 137.843 17.8987 135.155 19.504ZM120.371 9.816C120.072 9.816 119.923 9.96533 119.923 10.264V15.528C119.923 15.8267 120.072 15.976 120.371 15.976H124.795C127.52 15.976 128.883 14.9493 128.883 12.896C128.883 10.8427 127.52 9.816 124.795 9.816H120.371ZM125.299 30.984C127.95 30.984 129.275 29.8827 129.275 27.68C129.275 25.5893 127.968 24.544 125.355 24.544H120.371C120.072 24.544 119.923 24.6933 119.923 24.992V30.536C119.923 30.8347 120.072 30.984 120.371 30.984H125.299ZM144.912 40C144.203 40 143.848 39.6453 143.848 38.936V1.864C143.848 1.15466 144.203 0.799997 144.912 0.799997H153.312C154.021 0.799997 154.376 1.15466 154.376 1.864V38.936C154.376 39.6453 154.021 40 153.312 40H144.912ZM170.998 40C170.289 40 169.934 39.6453 169.934 38.936V1.864C169.934 1.15466 170.289 0.799997 170.998 0.799997H179.398C180.107 0.799997 180.462 1.15466 180.462 1.864V38.936C180.462 39.6453 180.107 40 179.398 40H170.998ZM185.873 40C185.164 40 184.809 39.6453 184.809 38.936V1.864C184.809 1.15466 185.164 0.799997 185.873 0.799997H193.937C194.534 0.799997 194.964 1.04266 195.225 1.528L206.257 20.064C206.369 20.2133 206.481 20.288 206.593 20.288C206.742 20.288 206.817 20.1573 206.817 19.896L206.761 1.864C206.761 1.15466 207.116 0.799997 207.825 0.799997H216.225C216.934 0.799997 217.289 1.15466 217.289 1.864V38.936C217.289 39.6453 216.934 40 216.225 40H208.161C207.564 40 207.134 39.7573 206.873 39.272L195.785 20.4C195.673 20.2133 195.542 20.1387 195.393 20.176C195.281 20.176 195.225 20.288 195.225 20.512L195.337 38.936C195.337 39.6453 194.982 40 194.273 40H185.873ZM247.439 40.448C244.415 40.448 241.746 39.944 239.431 38.936C237.117 37.8907 235.325 36.416 234.055 34.512C232.786 32.608 232.151 30.4053 232.151 27.904V27.344C232.151 26.6347 232.506 26.28 233.215 26.28H241.447C242.157 26.28 242.511 26.4667 242.511 26.84V27.456C242.511 28.464 243.053 29.3787 244.135 30.2C245.218 31.0213 246.581 31.432 248.223 31.432C249.605 31.432 250.594 31.152 251.191 30.592C251.789 29.9947 252.087 29.3413 252.087 28.632C252.087 27.8107 251.714 27.1947 250.967 26.784C250.221 26.3733 248.858 25.8693 246.879 25.272L245.255 24.824C241.559 23.704 238.461 22.2107 235.959 20.344C233.458 18.4773 232.207 15.7707 232.207 12.224C232.207 9.872 232.842 7.8 234.111 6.008C235.381 4.17867 237.117 2.77867 239.319 1.808C241.559 0.837332 244.061 0.352 246.823 0.352C249.735 0.352 252.367 0.893333 254.719 1.976C257.109 3.05866 258.975 4.58933 260.319 6.568C261.701 8.54667 262.391 10.8053 262.391 13.344V13.624C262.391 14.3333 262.037 14.688 261.327 14.688H253.095C252.386 14.688 252.031 14.5387 252.031 14.24V13.792C252.031 12.672 251.527 11.664 250.519 10.768C249.511 9.83466 248.149 9.368 246.431 9.368C245.237 9.368 244.285 9.61066 243.575 10.096C242.903 10.5813 242.567 11.2533 242.567 12.112C242.567 12.784 242.81 13.3627 243.295 13.848C243.818 14.296 244.602 14.744 245.647 15.192C246.693 15.6027 248.298 16.144 250.463 16.816C250.762 16.928 252.069 17.3387 254.383 18.048C256.735 18.72 258.695 19.9707 260.263 21.8C261.831 23.592 262.615 25.776 262.615 28.352C262.615 30.7787 261.981 32.9067 260.711 34.736C259.442 36.5653 257.65 37.984 255.335 38.992C253.058 39.9627 250.426 40.448 247.439 40.448ZM294.685 8.752C294.685 9.46133 294.331 9.816 293.621 9.816H277.269C276.971 9.816 276.821 9.96533 276.821 10.264V15.192C276.821 15.4907 276.971 15.64 277.269 15.64H287.237C287.947 15.64 288.301 15.9947 288.301 16.704V23.536C288.301 24.2453 287.947 24.6 287.237 24.6H277.269C276.971 24.6 276.821 24.7493 276.821 25.048V30.536C276.821 30.8347 276.971 30.984 277.269 30.984H293.621C294.331 30.984 294.685 31.3387 294.685 32.048V38.936C294.685 39.6453 294.331 40 293.621 40H267.357C266.648 40 266.293 39.6453 266.293 38.936V1.864C266.293 1.15466 266.648 0.799997 267.357 0.799997H293.621C294.331 0.799997 294.685 1.15466 294.685 1.864V8.752ZM299.295 40C298.586 40 298.231 39.6453 298.231 38.936V1.864C298.231 1.15466 298.586 0.799997 299.295 0.799997H307.639C308.236 0.799997 308.666 1.04266 308.927 1.528L315.703 12.56C315.778 12.7093 315.89 12.784 316.039 12.784C316.188 12.784 316.3 12.7093 316.375 12.56L323.151 1.528C323.412 1.04266 323.842 0.799997 324.439 0.799997H332.783C333.492 0.799997 333.847 1.15466 333.847 1.864V38.936C333.847 39.6453 333.492 40 332.783 40H324.383C323.674 40 323.319 39.6453 323.319 38.936V19.168C323.319 18.944 323.244 18.8133 323.095 18.776C322.983 18.7387 322.871 18.8133 322.759 19L319.287 24.768C319.026 25.2533 318.596 25.496 317.999 25.496H314.079C313.482 25.496 313.052 25.2533 312.791 24.768L309.319 19C309.207 18.8507 309.095 18.776 308.983 18.776C308.834 18.776 308.759 18.9067 308.759 19.168V38.936C308.759 39.6453 308.404 40 307.695 40H299.295ZM364.146 0.352C367.17 0.352 369.84 0.986666 372.154 2.256C374.469 3.488 376.261 5.24266 377.53 7.52C378.8 9.76 379.434 12.3733 379.434 15.36V26.28C379.434 29.5653 378.576 32.384 376.858 34.736C375.178 37.0507 372.845 38.6747 369.858 39.608C369.597 39.6453 369.466 39.8133 369.466 40.112V43.808C369.466 44.5173 369.112 44.872 368.402 44.872H360.002C359.293 44.872 358.938 44.5173 358.938 43.808V40.168C358.938 39.8693 358.808 39.7013 358.546 39.664C355.56 38.6933 353.208 37.0507 351.49 34.736C349.773 32.384 348.914 29.5653 348.914 26.28V15.36C348.914 12.3733 349.549 9.76 350.818 7.52C352.088 5.24266 353.861 3.488 356.138 2.256C358.453 0.986666 361.122 0.352 364.146 0.352ZM359.442 26C359.442 27.6053 359.872 28.912 360.73 29.92C361.589 30.928 362.728 31.432 364.146 31.432C365.565 31.432 366.704 30.9467 367.562 29.976C368.458 28.968 368.906 27.6427 368.906 26V14.8C368.906 13.1573 368.458 11.8507 367.562 10.88C366.704 9.872 365.565 9.368 364.146 9.368C362.728 9.368 361.589 9.872 360.73 10.88C359.872 11.888 359.442 13.1947 359.442 14.8V26ZM398.445 40.448C395.421 40.448 392.733 39.8693 390.381 38.712C388.066 37.5547 386.274 35.912 385.005 33.784C383.735 31.656 383.101 29.192 383.101 26.392V1.864C383.101 1.15466 383.455 0.799997 384.165 0.799997H392.565C393.274 0.799997 393.629 1.15466 393.629 1.864V26.392C393.629 27.9227 394.058 29.1547 394.917 30.088C395.813 30.984 396.989 31.432 398.445 31.432C399.863 31.432 401.002 30.9653 401.861 30.032C402.757 29.0987 403.205 27.8853 403.205 26.392V1.864C403.205 1.15466 403.559 0.799997 404.269 0.799997H412.669C413.378 0.799997 413.733 1.15466 413.733 1.864V26.392C413.733 29.192 413.098 31.656 411.829 33.784C410.559 35.912 408.767 37.5547 406.453 38.712C404.138 39.8693 401.469 40.448 398.445 40.448ZM418.951 40C418.242 40 417.887 39.6453 417.887 38.936V1.864C417.887 1.15466 418.242 0.799997 418.951 0.799997H427.351C428.06 0.799997 428.415 1.15466 428.415 1.864V38.936C428.415 39.6453 428.06 40 427.351 40H418.951ZM447.322 40.448C444.298 40.448 441.629 39.944 439.314 38.936C436.999 37.8907 435.207 36.416 433.938 34.512C432.669 32.608 432.034 30.4053 432.034 27.904V27.344C432.034 26.6347 432.389 26.28 433.098 26.28H441.33C442.039 26.28 442.394 26.4667 442.394 26.84V27.456C442.394 28.464 442.935 29.3787 444.018 30.2C445.101 31.0213 446.463 31.432 448.106 31.432C449.487 31.432 450.477 31.152 451.074 30.592C451.671 29.9947 451.97 29.3413 451.97 28.632C451.97 27.8107 451.597 27.1947 450.85 26.784C450.103 26.3733 448.741 25.8693 446.762 25.272L445.138 24.824C441.442 23.704 438.343 22.2107 435.842 20.344C433.341 18.4773 432.09 15.7707 432.09 12.224C432.09 9.872 432.725 7.8 433.994 6.008C435.263 4.17867 436.999 2.77867 439.202 1.808C441.442 0.837332 443.943 0.352 446.706 0.352C449.618 0.352 452.25 0.893333 454.602 1.976C456.991 3.05866 458.858 4.58933 460.202 6.568C461.583 8.54667 462.274 10.8053 462.274 13.344V13.624C462.274 14.3333 461.919 14.688 461.21 14.688H452.978C452.269 14.688 451.914 14.5387 451.914 14.24V13.792C451.914 12.672 451.41 11.664 450.402 10.768C449.394 9.83466 448.031 9.368 446.314 9.368C445.119 9.368 444.167 9.61066 443.458 10.096C442.786 10.5813 442.45 11.2533 442.45 12.112C442.45 12.784 442.693 13.3627 443.178 13.848C443.701 14.296 444.485 14.744 445.53 15.192C446.575 15.6027 448.181 16.144 450.346 16.816C450.645 16.928 451.951 17.3387 454.266 18.048C456.618 18.72 458.578 19.9707 460.146 21.8C461.714 23.592 462.498 25.776 462.498 28.352C462.498 30.7787 461.863 32.9067 460.594 34.736C459.325 36.5653 457.533 37.984 455.218 38.992C452.941 39.9627 450.309 40.448 447.322 40.448ZM1.248 96C0.538667 96 0.184 95.6453 0.184 94.936V57.864C0.184 57.1547 0.538667 56.8 1.248 56.8H15.416C18.44 56.8 21.1093 57.3227 23.424 58.368C25.776 59.4133 27.5867 60.888 28.856 62.792C30.1253 64.696 30.76 66.8987 30.76 69.4V83.4C30.76 85.9013 30.1253 88.104 28.856 90.008C27.5867 91.912 25.776 93.3867 23.424 94.432C21.1093 95.4773 18.44 96 15.416 96H1.248ZM10.712 86.536C10.712 86.8347 10.8613 86.984 11.16 86.984H15.808C17.0773 86.984 18.1227 86.4987 18.944 85.528C19.7653 84.52 20.1947 83.2133 20.232 81.608V71.192C20.232 69.5867 19.8213 68.2987 19 67.328C18.1787 66.32 17.096 65.816 15.752 65.816H11.16C10.8613 65.816 10.712 65.9653 10.712 66.264V86.536ZM49.9212 96.448C46.8972 96.448 44.2092 95.8693 41.8572 94.712C39.5425 93.5547 37.7505 91.912 36.4812 89.784C35.2119 87.656 34.5772 85.192 34.5772 82.392V57.864C34.5772 57.1547 34.9319 56.8 35.6412 56.8H44.0412C44.7505 56.8 45.1052 57.1547 45.1052 57.864V82.392C45.1052 83.9227 45.5345 85.1547 46.3932 86.088C47.2892 86.984 48.4652 87.432 49.9212 87.432C51.3399 87.432 52.4785 86.9653 53.3372 86.032C54.2332 85.0987 54.6812 83.8853 54.6812 82.392V57.864C54.6812 57.1547 55.0359 56.8 55.7452 56.8H64.1452C64.8545 56.8 65.2092 57.1547 65.2092 57.864V82.392C65.2092 85.192 64.5745 87.656 63.3052 89.784C62.0359 91.912 60.2439 93.5547 57.9292 94.712C55.6145 95.8693 52.9452 96.448 49.9212 96.448ZM70.4277 96C69.7184 96 69.3637 95.6453 69.3637 94.936V57.864C69.3637 57.1547 69.7184 56.8 70.4277 56.8H78.8277C79.537 56.8 79.8917 57.1547 79.8917 57.864V94.936C79.8917 95.6453 79.537 96 78.8277 96H70.4277ZM112.53 56.8C115.18 56.8 117.514 57.3413 119.53 58.424C121.546 59.4693 123.095 60.9813 124.178 62.96C125.298 64.9013 125.858 67.1413 125.858 69.68C125.858 72.1813 125.279 74.384 124.122 76.288C122.964 78.192 121.34 79.6667 119.25 80.712C117.159 81.7573 114.751 82.28 112.026 82.28H106.258C105.959 82.28 105.81 82.4293 105.81 82.728V94.936C105.81 95.6453 105.455 96 104.746 96H96.3456C95.6363 96 95.2816 95.6453 95.2816 94.936V57.864C95.2816 57.1547 95.6363 56.8 96.3456 56.8H112.53ZM110.794 73.88C112.175 73.88 113.276 73.5253 114.098 72.816C114.956 72.0693 115.386 71.0987 115.386 69.904C115.386 68.672 114.956 67.6827 114.098 66.936C113.276 66.1893 112.175 65.816 110.794 65.816H106.258C105.959 65.816 105.81 65.9653 105.81 66.264V73.432C105.81 73.7307 105.959 73.88 106.258 73.88H110.794ZM130.092 96C129.382 96 129.028 95.6453 129.028 94.936V57.864C129.028 57.1547 129.382 56.8 130.092 56.8H138.492C139.201 56.8 139.556 57.1547 139.556 57.864V86.536C139.556 86.8347 139.705 86.984 140.004 86.984H156.916C157.625 86.984 157.98 87.3387 157.98 88.048V94.936C157.98 95.6453 157.625 96 156.916 96H130.092ZM187.616 96C186.981 96 186.589 95.7013 186.44 95.104L185.32 91.072C185.245 90.8107 185.077 90.68 184.816 90.68H173.168C172.907 90.68 172.739 90.8107 172.664 91.072L171.544 95.104C171.395 95.7013 171.003 96 170.368 96H161.296C160.923 96 160.643 95.888 160.456 95.664C160.307 95.44 160.288 95.1413 160.4 94.768L172.048 57.696C172.235 57.0987 172.627 56.8 173.224 56.8H184.76C185.357 56.8 185.749 57.0987 185.936 57.696L197.584 94.768C197.621 94.88 197.64 95.0107 197.64 95.16C197.64 95.72 197.323 96 196.688 96H187.616ZM175.128 82.224C175.128 82.4853 175.259 82.616 175.52 82.616H182.464C182.613 82.616 182.725 82.5787 182.8 82.504C182.875 82.392 182.893 82.2613 182.856 82.112L179.272 69.176C179.235 68.9893 179.141 68.896 178.992 68.896C178.88 68.896 178.787 68.9893 178.712 69.176L175.128 82.112V82.224ZM214.527 96.448C211.465 96.448 208.759 95.8507 206.407 94.656C204.092 93.4613 202.281 91.7813 200.975 89.616C199.705 87.4133 199.071 84.8747 199.071 82V70.688C199.071 67.8507 199.705 65.3493 200.975 63.184C202.281 61.0187 204.092 59.3387 206.407 58.144C208.759 56.9493 211.465 56.352 214.527 56.352C217.588 56.352 220.276 56.912 222.591 58.032C224.943 59.152 226.753 60.7387 228.023 62.792C229.329 64.808 229.983 67.16 229.983 69.848C229.983 70.184 229.647 70.3893 228.975 70.464L220.575 71.024H220.295C219.735 71.024 219.455 70.9307 219.455 70.744V70.408C219.455 68.8773 219.007 67.664 218.111 66.768C217.215 65.8347 216.02 65.368 214.527 65.368C213.033 65.368 211.839 65.8347 210.943 66.768C210.047 67.664 209.599 68.8773 209.599 70.408V82.448C209.599 83.9413 210.047 85.1547 210.943 86.088C211.839 86.984 213.033 87.432 214.527 87.432C216.02 87.432 217.215 86.984 218.111 86.088C219.007 85.1547 219.455 83.9413 219.455 82.448C219.455 82.2613 219.548 82.112 219.735 82C219.959 81.8507 220.239 81.7947 220.575 81.832L228.975 82.28C229.647 82.3173 229.983 82.4107 229.983 82.56V82.84C229.983 85.528 229.329 87.8987 228.023 89.952C226.753 92.0053 224.943 93.6107 222.591 94.768C220.276 95.888 217.588 96.448 214.527 96.448ZM262.092 64.752C262.092 65.4613 261.737 65.816 261.028 65.816H244.676C244.377 65.816 244.228 65.9653 244.228 66.264V71.192C244.228 71.4907 244.377 71.64 244.676 71.64H254.644C255.353 71.64 255.708 71.9947 255.708 72.704V79.536C255.708 80.2453 255.353 80.6 254.644 80.6H244.676C244.377 80.6 244.228 80.7493 244.228 81.048V86.536C244.228 86.8347 244.377 86.984 244.676 86.984H261.028C261.737 86.984 262.092 87.3387 262.092 88.048V94.936C262.092 95.6453 261.737 96 261.028 96H234.764C234.054 96 233.7 95.6453 233.7 94.936V57.864C233.7 57.1547 234.054 56.8 234.764 56.8H261.028C261.737 56.8 262.092 57.1547 262.092 57.864V64.752ZM286.469 96C285.872 96 285.461 95.7387 285.237 95.216L279.189 81.272C279.114 81.048 278.928 80.936 278.629 80.936H276.613C276.314 80.936 276.165 81.0853 276.165 81.384V94.936C276.165 95.6453 275.81 96 275.101 96H266.701C265.992 96 265.637 95.6453 265.637 94.936V57.864C265.637 57.1547 265.992 56.8 266.701 56.8H283.445C285.984 56.8 288.205 57.3227 290.109 58.368C292.05 59.4133 293.544 60.888 294.589 62.792C295.672 64.6587 296.213 66.824 296.213 69.288C296.213 71.7147 295.616 73.8427 294.421 75.672C293.264 77.5013 291.64 78.864 289.549 79.76C289.288 79.872 289.213 80.0587 289.325 80.32L296.157 94.768C296.232 94.9173 296.269 95.104 296.269 95.328C296.269 95.776 295.97 96 295.373 96H286.469ZM276.613 65.816C276.314 65.816 276.165 65.9653 276.165 66.264V72.48C276.165 72.7787 276.314 72.928 276.613 72.928H281.709C282.904 72.928 283.874 72.6107 284.621 71.976C285.368 71.304 285.741 70.4453 285.741 69.4C285.741 68.3173 285.368 67.4587 284.621 66.824C283.874 66.152 282.904 65.816 281.709 65.816H276.613ZM326.522 96C325.888 96 325.496 95.7013 325.346 95.104L324.226 91.072C324.152 90.8107 323.984 90.68 323.722 90.68H312.074C311.813 90.68 311.645 90.8107 311.57 91.072L310.45 95.104C310.301 95.7013 309.909 96 309.274 96H300.202C299.829 96 299.549 95.888 299.362 95.664C299.213 95.44 299.194 95.1413 299.306 94.768L310.954 57.696C311.141 57.0987 311.533 56.8 312.13 56.8H323.666C324.264 56.8 324.656 57.0987 324.842 57.696L336.49 94.768C336.528 94.88 336.546 95.0107 336.546 95.16C336.546 95.72 336.229 96 335.594 96H326.522ZM314.034 82.224C314.034 82.4853 314.165 82.616 314.426 82.616H321.37C321.52 82.616 321.632 82.5787 321.706 82.504C321.781 82.392 321.8 82.2613 321.762 82.112L318.178 69.176C318.141 68.9893 318.048 68.896 317.898 68.896C317.786 68.896 317.693 68.9893 317.618 69.176L314.034 82.112V82.224ZM363.553 56.8C364.262 56.8 364.617 57.1547 364.617 57.864V64.808C364.617 65.5173 364.262 65.872 363.553 65.872H354.537C354.238 65.872 354.089 66.0213 354.089 66.32V94.936C354.089 95.6453 353.734 96 353.025 96H344.625C343.915 96 343.561 95.6453 343.561 94.936V66.32C343.561 66.0213 343.411 65.872 343.113 65.872H334.377C333.667 65.872 333.313 65.5173 333.313 64.808V57.864C333.313 57.1547 333.667 56.8 334.377 56.8H363.553Z" fill="#162542"/>
</svg>
